<?xml version="1.0" encoding="UTF-8"?>
<svg id="Livello_1" data-name="Livello 1" xmlns="http://www.w3.org/2000/svg" viewBox="0 0 1266.06 540.76">
  <defs>
    <style>
      .cls-1 {
        stroke: #f2f2f2;
        stroke-dasharray: 4 2;
      }

      .cls-1, .cls-2 {
        fill: none;
        stroke-miterlimit: 10;
        stroke-width: .5px;
      }

      .cls-3 {
        fill: #fff;
      }

      .cls-4 {
        opacity: .15;
      }

      .cls-2 {
        stroke: #ffdc00;
      }
    </style>
  </defs>
  <rect x="0" width="1266.06" height="540.76"/>
  <g class="cls-4">
    <g>
      <rect class="cls-3" x="888.65" y="70.23" width="47.33" height="56.8"/>
      <rect class="cls-3" x="377.48" y="70.23" width="511.17" height="56.8"/>
      <polygon class="cls-3" points="888.65 448.87 883.64 477.27 382.48 477.27 377.48 448.87 888.65 448.87"/>
      <polygon class="cls-3" points="377.48 127.03 377.48 259.55 368.01 257.88 330.15 251.22 320.68 249.55 320.68 137.03 330.15 135.36 368.01 128.69 377.48 127.03"/>
      <polygon class="cls-3" points="945.44 137.03 945.44 249.55 935.97 251.22 888.65 259.55 888.65 127.03 935.97 135.36 945.44 137.03"/>
      <rect class="cls-3" x="888.65" y="259.55" width="47.33" height="56.8"/>
      <rect class="cls-3" x="377.48" y="127.03" width="511.17" height="132.52"/>
      <rect class="cls-3" x="377.48" y="259.55" width="511.17" height="56.8"/>
      <polygon class="cls-3" points="377.48 316.34 377.48 448.87 368.01 447.21 330.15 440.54 320.68 438.87 320.68 326.34 330.15 324.67 368.01 318.01 377.48 316.34"/>
      <polygon class="cls-3" points="945.44 326.34 945.44 438.87 935.97 440.54 888.65 448.87 888.65 316.34 935.97 324.67 945.44 326.34"/>
      <rect class="cls-3" x="377.48" y="316.34" width="511.17" height="132.53"/>
      <polygon class="cls-3" points="377.48 70.23 377.48 127.03 368.01 127.03 330.15 98.63 330.15 70.23 377.48 70.23"/>
      <polygon class="cls-3" points="377.48 259.55 377.48 316.34 330.15 316.34 330.15 287.95 368.01 259.55 377.48 259.55"/>
    </g>
  </g>
  <line class="cls-1" x1="1265.64" y1="127.02" x2="888.54" y2="127.02"/>
  <line class="cls-1" x1="377.43" y1="127.02" x2="0" y2="127.02"/>
  <line class="cls-1" x1="0" y1="477.26" x2="1266.06" y2="477.26"/>
  <line class="cls-1" x1=".42" y1="70.23" x2="1265.64" y2="70.23"/>
  <polyline class="cls-1" points="936 540.75 936 440.53 936 324.68 936 251.21"/>
  <line class="cls-1" x1="936" y1="135.37" x2="936" y2="-.07"/>
  <line class="cls-1" x1="945.47" y1="-.07" x2="945.47" y2="540.75"/>
  <line class="cls-1" x1="393.62" y1="540.76" x2="377.44" y2="448.88"/>
  <line class="cls-1" x1="872.43" y1="540.76" x2="888.61" y2="448.87"/>
  <line class="cls-1" x1="198.52" y1="-.07" x2="367.98" y2="127.02"/>
  <line class="cls-1" x1="1265.64" y1="193.24" x2="888.55" y2="127.01"/>
  <line class="cls-1" x1="1266.06" y1="382.64" x2="888.55" y2="316.34"/>
  <line class="cls-1" x1="1266.06" y1="382.57" x2="888.55" y2="448.87"/>
  <line class="cls-1" x1="1266.06" y1="193.24" x2="888.55" y2="259.55"/>
  <line class="cls-1" x1="0" y1="193.31" x2="377.51" y2="127.01"/>
  <line class="cls-1" x1="0" y1="382.58" x2="377.44" y2="448.87"/>
  <line class="cls-1" x1="320.5" y1="-.07" x2="320.5" y2="540.76"/>
  <polyline class="cls-1" points="330.1 540.76 330.1 440.53 330.1 324.68 330.1 251.21"/>
  <line class="cls-1" x1="330.1" y1="135.37" x2="330.1" y2="-.07"/>
  <line class="cls-1" x1="0" y1="535.47" x2="367.9" y2="259.55"/>
  <line class="cls-1" x1="0" y1="382.64" x2="377.43" y2="316.35"/>
  <line class="cls-1" x1="0" y1="193.26" x2="377.43" y2="259.55"/>
  <line class="cls-2" x1="888.54" y1="127.02" x2="377.43" y2="127.02"/>
  <line class="cls-1" x1="1265.64" y1="259.55" x2="888.54" y2="259.55"/>
  <line class="cls-1" x1="377.43" y1="259.55" x2="0" y2="259.55"/>
  <line class="cls-2" x1="888.54" y1="259.55" x2="377.43" y2="259.55"/>
  <line class="cls-1" x1="1265.64" y1="316.34" x2="888.54" y2="316.34"/>
  <line class="cls-1" x1="377.43" y1="316.34" x2="0" y2="316.34"/>
  <line class="cls-2" x1="888.54" y1="316.34" x2="377.43" y2="316.34"/>
  <line class="cls-1" x1="1265.64" y1="448.87" x2="888.54" y2="448.87"/>
  <line class="cls-1" x1="377.43" y1="448.87" x2="0" y2="448.87"/>
  <line class="cls-2" x1="888.54" y1="448.87" x2="377.43" y2="448.87"/>
  <line class="cls-2" x1="888.55" y1="70.23" x2="888.55" y2="448.87"/>
  <line class="cls-2" x1="377.43" y1="70.23" x2="377.43" y2="448.88"/>
  <g>
    <path class="cls-3" d="M546.54,26.7v-8.88h4.49v1.19h-3.19v2.66h3.19v1.19h-3.19v3.84h-1.29Z"/>
    <path class="cls-3" d="M557.08,26.7v-.72h-.02c-.32.56-1.08.89-1.96.89-1.43,0-2.77-.77-2.77-3.11v-3.71h1.25v3.61c0,1.39.52,2.06,1.65,2.06s1.74-.8,1.74-2.09v-3.59h1.25v6.64h-1.14Z"/>
    <path class="cls-3" d="M562.45,21.81c-.06-.48-.34-.8-.85-.8-.48,0-.78.32-.78.71,0,.56.58.73,1.24.94.94.29,1.8.85,1.8,2.09s-.94,2.12-2.23,2.12c-1.2,0-2.35-.82-2.35-2.35h1.25c.06.8.47,1.21,1.13,1.21.58,0,.96-.37.96-.91,0-.46-.35-.76-1.13-1.01-1.63-.52-1.91-1.22-1.91-1.98,0-1.18,1-1.96,2.09-1.96s2,.77,2.04,1.94h-1.25Z"/>
    <path class="cls-3" d="M565.25,26.7v-5.5h-.9v-1.14h.9v-2.23h1.25v2.23h1.09v1.14h-1.09v5.5h-1.25Z"/>
    <path class="cls-3" d="M569.34,23.91c.29,1.1,1.16,1.81,2.18,1.81.78,0,1.51-.41,1.9-1.12h1.25c-.52,1.37-1.76,2.25-3.19,2.25-1.87,0-3.38-1.66-3.38-3.43,0-2.1,1.58-3.56,3.35-3.56,1.96,0,3.44,1.51,3.44,3.42,0,.2,0,.4-.04.62h-5.51ZM573.63,22.95c-.1-1.13-1.09-1.94-2.16-1.94s-2.04.8-2.14,1.94h4.29Z"/>
    <path class="cls-3" d="M576.13,26.7v-8.88h1.25v8.88h-1.25Z"/>
    <path class="cls-3" d="M578.99,26.7v-8.88h1.25v8.88h-1.25Z"/>
    <path class="cls-3" d="M587.3,26.7v-1.03h-.02c-.47.79-1.31,1.2-2.25,1.2-1.94,0-3.53-1.46-3.53-3.38,0-2.12,1.52-3.61,3.48-3.61.97,0,1.79.36,2.3,1.12h.02v-.94h1.25v6.64h-1.25ZM587.32,23.39c0-1.3-.94-2.38-2.31-2.38-1.25,0-2.27,1.07-2.27,2.38s1.02,2.34,2.27,2.34,2.31-1.08,2.31-2.34Z"/>
    <path class="cls-3" d="M593.84,26.7v-5.5h-.9v-1.14h.9v-2.23h1.25v2.23h1.09v1.14h-1.09v5.5h-1.25Z"/>
    <path class="cls-3" d="M597.02,19.28v-1.46h1.25v1.46h-1.25ZM597.02,26.7v-6.64h1.25v6.64h-1.25Z"/>
    <path class="cls-3" d="M600.12,28.91v-8.86h1.14v1.02h.02c.56-.8,1.42-1.2,2.36-1.2,1.98,0,3.44,1.54,3.44,3.59,0,1.87-1.45,3.41-3.36,3.41-1.01,0-1.91-.41-2.34-1.13h-.02v3.18h-1.25ZM605.84,23.39c0-1.21-.96-2.38-2.29-2.38-1.25,0-2.21,1.12-2.21,2.35s.96,2.36,2.25,2.36,2.24-1.07,2.24-2.34Z"/>
    <path class="cls-3" d="M608.35,19.28v-1.46h1.25v1.46h-1.25ZM608.35,26.7v-6.64h1.25v6.64h-1.25Z"/>
    <path class="cls-3" d="M617.54,24.5c-.53,1.5-1.8,2.36-3.27,2.36-1.91,0-3.41-1.54-3.41-3.43,0-2,1.45-3.56,3.39-3.56,1.51,0,2.89.95,3.29,2.39h-1.38c-.37-.78-.97-1.25-1.87-1.25-1.31,0-2.18,1-2.18,2.35s.9,2.36,2.16,2.36c.85,0,1.54-.46,1.88-1.22h1.39Z"/>
    <path class="cls-3" d="M624.19,26.7v-1.03h-.02c-.47.79-1.31,1.2-2.25,1.2-1.94,0-3.53-1.46-3.53-3.38,0-2.12,1.52-3.61,3.48-3.61.97,0,1.79.36,2.3,1.12h.02v-.94h1.25v6.64h-1.25ZM624.21,23.39c0-1.3-.94-2.38-2.31-2.38-1.25,0-2.27,1.07-2.27,2.38s1.02,2.34,2.27,2.34,2.31-1.08,2.31-2.34Z"/>
    <path class="cls-3" d="M636.07,26.7v-.95h-.02c-.52.72-1.38,1.12-2.35,1.12-1.93,0-3.45-1.46-3.45-3.42s1.44-3.57,3.42-3.57c.9,0,1.75.32,2.29,1h.02v-3.05h1.25v8.88h-1.15ZM633.75,21.01c-1.27,0-2.27,1.07-2.27,2.38s1.02,2.34,2.27,2.34,2.31-1.03,2.31-2.29c0-1.36-.91-2.42-2.31-2.42Z"/>
    <path class="cls-3" d="M639.74,23.91c.29,1.1,1.16,1.81,2.18,1.81.78,0,1.51-.41,1.9-1.12h1.25c-.52,1.37-1.76,2.25-3.19,2.25-1.87,0-3.38-1.66-3.38-3.43,0-2.1,1.58-3.56,3.35-3.56,1.96,0,3.44,1.51,3.44,3.42,0,.2,0,.4-.04.62h-5.51ZM644.03,22.95c-.1-1.13-1.09-1.94-2.16-1.94s-2.04.8-2.14,1.94h4.29Z"/>
    <path class="cls-3" d="M646.53,26.7v-8.88h1.25v8.88h-1.25Z"/>
    <path class="cls-3" d="M649.39,26.7v-8.88h1.25v8.88h-1.25Z"/>
    <path class="cls-3" d="M653.16,23.91c.29,1.1,1.16,1.81,2.18,1.81.78,0,1.51-.41,1.9-1.12h1.25c-.52,1.37-1.76,2.25-3.19,2.25-1.87,0-3.38-1.66-3.38-3.43,0-2.1,1.58-3.56,3.35-3.56,1.96,0,3.44,1.51,3.44,3.42,0,.2,0,.4-.04.62h-5.51ZM657.45,22.95c-.1-1.13-1.09-1.94-2.16-1.94s-2.04.8-2.14,1.94h4.29Z"/>
    <path class="cls-3" d="M666.1,21.81c-.06-.48-.34-.8-.85-.8-.48,0-.78.32-.78.71,0,.56.58.73,1.24.94.94.29,1.8.85,1.8,2.09s-.94,2.12-2.23,2.12c-1.2,0-2.35-.82-2.35-2.35h1.25c.06.8.47,1.21,1.13,1.21.58,0,.96-.37.96-.91,0-.46-.35-.76-1.13-1.01-1.63-.52-1.91-1.22-1.91-1.98,0-1.18,1-1.96,2.09-1.96s2,.77,2.04,1.94h-1.25Z"/>
    <path class="cls-3" d="M674.91,24.5c-.53,1.5-1.8,2.36-3.27,2.36-1.91,0-3.41-1.54-3.41-3.43,0-2,1.45-3.56,3.39-3.56,1.51,0,2.89.95,3.29,2.39h-1.38c-.37-.78-.97-1.25-1.87-1.25-1.31,0-2.18,1-2.18,2.35s.9,2.36,2.16,2.36c.85,0,1.54-.46,1.88-1.22h1.39Z"/>
    <path class="cls-3" d="M681.56,26.7v-1.03h-.02c-.47.79-1.31,1.2-2.25,1.2-1.94,0-3.53-1.46-3.53-3.38,0-2.12,1.52-3.61,3.48-3.61.97,0,1.79.36,2.3,1.12h.02v-.94h1.25v6.64h-1.25ZM681.58,23.39c0-1.3-.94-2.38-2.31-2.38-1.25,0-2.27,1.07-2.27,2.38s1.02,2.34,2.27,2.34,2.31-1.08,2.31-2.34Z"/>
    <path class="cls-3" d="M684.62,26.7v-5.5h-.9v-1.14h.9v-2.23h1.25v2.23h1.09v1.14h-1.09v5.5h-1.25Z"/>
    <path class="cls-3" d="M690.99,26.86c-1.87,0-3.54-1.6-3.54-3.47,0-2.03,1.6-3.53,3.63-3.53,1.83,0,3.56,1.44,3.54,3.55-.02,1.78-1.51,3.44-3.63,3.44ZM691.03,21.01c-1.25,0-2.33,1.06-2.33,2.35s1.04,2.36,2.3,2.36,2.37-1.03,2.37-2.37-1.04-2.34-2.35-2.34Z"/>
    <path class="cls-3" d="M695.9,26.7v-8.88h1.25v8.88h-1.25Z"/>
    <path class="cls-3" d="M699.67,23.91c.29,1.1,1.16,1.81,2.18,1.81.78,0,1.51-.41,1.9-1.12h1.25c-.52,1.37-1.76,2.25-3.19,2.25-1.87,0-3.38-1.66-3.38-3.43,0-2.1,1.58-3.56,3.35-3.56,1.96,0,3.44,1.51,3.44,3.42,0,.2,0,.4-.04.62h-5.51ZM703.96,22.95c-.1-1.13-1.09-1.94-2.16-1.94s-2.04.8-2.14,1.94h4.29Z"/>
    <path class="cls-3" d="M715.48,26.7v-.95h-.02c-.52.72-1.38,1.12-2.35,1.12-1.93,0-3.45-1.46-3.45-3.42s1.44-3.57,3.42-3.57c.9,0,1.75.32,2.29,1h.02v-3.05h1.25v8.88h-1.15ZM713.17,21.01c-1.27,0-2.27,1.07-2.27,2.38s1.02,2.34,2.27,2.34,2.31-1.03,2.31-2.29c0-1.36-.91-2.42-2.31-2.42Z"/>
    <path class="cls-3" d="M718.25,19.28v-1.46h1.25v1.46h-1.25ZM718.25,26.7v-6.64h1.25v6.64h-1.25Z"/>
    <path class="cls-3" d="M598.17,43.31v-8.86h1.14v1.02h.02c.56-.8,1.42-1.2,2.36-1.2,1.98,0,3.44,1.54,3.44,3.59,0,1.87-1.45,3.41-3.36,3.41-1.01,0-1.91-.41-2.34-1.13h-.02v3.18h-1.25ZM603.89,37.79c0-1.21-.96-2.38-2.29-2.38-1.25,0-2.21,1.12-2.21,2.35s.96,2.36,2.25,2.36,2.24-1.07,2.24-2.34Z"/>
    <path class="cls-3" d="M611.86,41.1v-1.03h-.02c-.47.79-1.31,1.2-2.25,1.2-1.94,0-3.53-1.46-3.53-3.38,0-2.12,1.52-3.61,3.48-3.61.97,0,1.79.36,2.3,1.12h.02v-.94h1.25v6.64h-1.25ZM611.88,37.79c0-1.3-.94-2.38-2.31-2.38-1.25,0-2.27,1.07-2.27,2.38s1.02,2.34,2.27,2.34,2.31-1.08,2.31-2.34Z"/>
    <path class="cls-3" d="M617.33,36.21c-.06-.48-.34-.8-.85-.8-.48,0-.78.32-.78.71,0,.56.58.73,1.24.94.94.29,1.8.85,1.8,2.09s-.94,2.12-2.23,2.12c-1.2,0-2.35-.82-2.35-2.35h1.25c.06.8.47,1.21,1.13,1.21.58,0,.96-.37.96-.91,0-.46-.35-.76-1.13-1.01-1.63-.52-1.91-1.22-1.91-1.98,0-1.18,1-1.96,2.09-1.96s2,.77,2.04,1.94h-1.25Z"/>
    <path class="cls-3" d="M620.13,41.1v-5.5h-.9v-1.14h.9v-2.23h1.25v2.23h1.09v1.14h-1.09v5.5h-1.25Z"/>
    <path class="cls-3" d="M628.76,41.1v-1.03h-.02c-.47.79-1.31,1.2-2.25,1.2-1.94,0-3.53-1.46-3.53-3.38,0-2.12,1.52-3.61,3.48-3.61.97,0,1.79.36,2.3,1.12h.02v-.94h1.25v6.64h-1.25ZM628.79,37.79c0-1.3-.94-2.38-2.31-2.38-1.25,0-2.27,1.07-2.27,2.38s1.02,2.34,2.27,2.34,2.31-1.08,2.31-2.34Z"/>
    <path class="cls-3" d="M635.16,41.1v-8.88h1.25v8.88h-1.25Z"/>
    <path class="cls-3" d="M642.76,41.1v-.72h-.02c-.32.56-1.08.89-1.96.89-1.43,0-2.77-.77-2.77-3.11v-3.71h1.25v3.61c0,1.39.52,2.06,1.65,2.06s1.74-.8,1.74-2.09v-3.59h1.25v6.64h-1.14Z"/>
    <path class="cls-3" d="M650.15,41.1v-3.62c0-1.4-.55-2.06-1.65-2.06s-1.75.8-1.75,2.05v3.63h-1.25v-6.64h1.16v.71h.02c.49-.64,1.18-.89,1.94-.89,1.6,0,2.77,1.01,2.77,2.84v3.98h-1.25Z"/>
    <path class="cls-3" d="M658.49,40.22c-.52.7-1.34,1.04-2.29,1.04-1.91,0-3.55-1.64-3.55-3.44,0-2,1.56-3.55,3.56-3.55.86,0,1.78.36,2.3.95v-.77h1.25v5.77c0,2.16-1.33,3.49-3.59,3.49-1.52,0-2.72-.8-3.29-2.1h1.39c.47.66,1.09.96,1.91.96,1.52,0,2.33-.83,2.33-2.35h-.02ZM658.51,37.77c0-1.56-1.19-2.36-2.34-2.36-1.24,0-2.28,1.07-2.28,2.36s1.06,2.35,2.29,2.35c1.45,0,2.33-1.27,2.33-2.35Z"/>
    <path class="cls-3" d="M666.64,41.1v-1.03h-.02c-.47.79-1.31,1.2-2.25,1.2-1.94,0-3.53-1.46-3.53-3.38,0-2.12,1.52-3.61,3.48-3.61.97,0,1.79.36,2.3,1.12h.02v-.94h1.25v6.64h-1.25ZM666.66,37.79c0-1.3-.94-2.38-2.31-2.38-1.25,0-2.27,1.07-2.27,2.38s1.02,2.34,2.27,2.34,2.31-1.08,2.31-2.34Z"/>
  </g>
  <g>
    <path class="cls-3" d="M153.76,383.63c-.9,1.55-2.33,2.36-4.1,2.36-2.46,0-4.49-2.21-4.49-4.57,0-2.67,2.11-4.64,4.5-4.64,1.68,0,3.25.77,4.15,2.43h-1.56c-.67-.78-1.45-1.25-2.49-1.25-1.86,0-3.3,1.57-3.3,3.33,0,1.86,1.4,3.5,3.23,3.5.92,0,1.75-.36,2.47-1.17h1.6Z"/>
    <path class="cls-3" d="M157.92,385.99c-1.87,0-3.54-1.59-3.54-3.47,0-2.03,1.6-3.53,3.63-3.53,1.83,0,3.56,1.44,3.54,3.55-.02,1.78-1.51,3.44-3.63,3.44ZM157.95,380.14c-1.25,0-2.33,1.06-2.33,2.35s1.04,2.36,2.3,2.36,2.37-1.03,2.37-2.37-1.04-2.34-2.35-2.34Z"/>
    <path class="cls-3" d="M168.31,385.83v-.95h-.02c-.52.72-1.38,1.12-2.35,1.12-1.93,0-3.45-1.46-3.45-3.42s1.44-3.57,3.42-3.57c.9,0,1.75.32,2.29,1h.02v-3.05h1.25v8.88h-1.15ZM165.99,380.14c-1.27,0-2.27,1.07-2.27,2.38s1.02,2.34,2.27,2.34,2.31-1.03,2.31-2.29c0-1.36-.91-2.42-2.31-2.42Z"/>
    <path class="cls-3" d="M171.07,378.41v-1.46h1.25v1.46h-1.25ZM171.07,385.83v-6.64h1.25v6.64h-1.25Z"/>
    <path class="cls-3" d="M180.26,383.63c-.53,1.5-1.8,2.36-3.27,2.36-1.91,0-3.41-1.54-3.41-3.43,0-2,1.45-3.56,3.39-3.56,1.51,0,2.89.95,3.29,2.39h-1.38c-.37-.78-.97-1.25-1.87-1.25-1.31,0-2.18,1-2.18,2.35s.9,2.36,2.16,2.36c.85,0,1.54-.46,1.88-1.22h1.39Z"/>
    <path class="cls-3" d="M182.36,383.04c.29,1.1,1.16,1.81,2.18,1.81.78,0,1.51-.41,1.9-1.12h1.25c-.52,1.37-1.76,2.25-3.19,2.25-1.87,0-3.38-1.66-3.38-3.43,0-2.1,1.58-3.56,3.35-3.56,1.96,0,3.44,1.51,3.44,3.42,0,.2,0,.4-.04.62h-5.51ZM186.66,382.08c-.1-1.13-1.09-1.94-2.16-1.94s-2.04.8-2.14,1.94h4.29Z"/>
    <path class="cls-3" d="M198.15,385.83v-1.03h-.02c-.47.79-1.31,1.2-2.25,1.2-1.94,0-3.53-1.46-3.53-3.38,0-2.12,1.52-3.61,3.48-3.61.97,0,1.79.36,2.3,1.12h.02v-.94h1.25v6.64h-1.25ZM198.18,382.52c0-1.3-.94-2.38-2.31-2.38-1.25,0-2.27,1.07-2.27,2.38s1.02,2.34,2.27,2.34,2.31-1.08,2.31-2.34Z"/>
    <path class="cls-3" d="M204.55,385.83v-8.88h1.25v3.15h.02c.54-.73,1.38-1.1,2.28-1.1,1.88,0,3.44,1.58,3.44,3.5s-1.46,3.49-3.33,3.49c-.96,0-1.85-.38-2.4-1.13h-.02v.96h-1.24ZM210.3,382.5c0-1.26-1-2.36-2.28-2.36s-2.25,1.08-2.25,2.34,1,2.37,2.27,2.37,2.27-1.05,2.27-2.35Z"/>
    <path class="cls-3" d="M218.26,385.83v-1.03h-.02c-.47.79-1.31,1.2-2.25,1.2-1.94,0-3.53-1.46-3.53-3.38,0-2.12,1.52-3.61,3.48-3.61.97,0,1.79.36,2.3,1.12h.02v-.94h1.25v6.64h-1.25ZM218.29,382.52c0-1.3-.94-2.38-2.31-2.38-1.25,0-2.27,1.07-2.27,2.38s1.02,2.34,2.27,2.34,2.31-1.08,2.31-2.34Z"/>
    <path class="cls-3" d="M221.12,385.83v-6.64h1.16v.6h.02c.3-.44.82-.73,1.69-.78v1.28c-1.08.04-1.63.7-1.63,1.81v3.73h-1.25Z"/>
    <path class="cls-3" d="M225.22,385.83v-6.64h1.16v.6h.02c.3-.44.82-.73,1.69-.78v1.28c-1.08.04-1.63.7-1.63,1.81v3.73h-1.25Z"/>
    <path class="cls-3" d="M229.87,383.04c.29,1.1,1.16,1.81,2.18,1.81.78,0,1.51-.41,1.9-1.12h1.25c-.52,1.37-1.76,2.25-3.19,2.25-1.87,0-3.38-1.66-3.38-3.43,0-2.1,1.58-3.56,3.35-3.56,1.96,0,3.44,1.51,3.44,3.42,0,.2,0,.4-.04.62h-5.51ZM234.16,382.08c-.1-1.13-1.09-1.94-2.16-1.94s-2.04.8-2.14,1.94h4.29Z"/>
    <path class="cls-3" d="M245.66,385.83v-1.03h-.02c-.47.79-1.31,1.2-2.25,1.2-1.94,0-3.53-1.46-3.53-3.38,0-2.12,1.52-3.61,3.48-3.61.97,0,1.79.36,2.3,1.12h.02v-.94h1.25v6.64h-1.25ZM245.68,382.52c0-1.3-.94-2.38-2.31-2.38-1.25,0-2.27,1.07-2.27,2.38s1.02,2.34,2.27,2.34,2.31-1.08,2.31-2.34Z"/>
    <path class="cls-3" d="M248.58,385.83v-8.88h1.25v8.88h-1.25Z"/>
    <path class="cls-3" d="M256.97,385.83l-2.64-6.64h1.33l1.74,4.75h.02l1.7-4.75h1.33l-2.61,6.64h-.88Z"/>
    <path class="cls-3" d="M261.42,378.41v-1.46h1.25v1.46h-1.25ZM261.42,385.83v-6.64h1.25v6.64h-1.25Z"/>
    <path class="cls-3" d="M269.76,385.83v-.95h-.02c-.52.72-1.38,1.12-2.35,1.12-1.93,0-3.45-1.46-3.45-3.42s1.44-3.57,3.42-3.57c.9,0,1.75.32,2.29,1h.02v-3.05h1.25v8.88h-1.15ZM267.44,380.14c-1.27,0-2.27,1.07-2.27,2.38s1.02,2.34,2.27,2.34,2.31-1.03,2.31-2.29c0-1.36-.91-2.42-2.31-2.42Z"/>
    <path class="cls-3" d="M273.43,383.04c.29,1.1,1.16,1.81,2.18,1.81.78,0,1.51-.41,1.9-1.12h1.25c-.52,1.37-1.76,2.25-3.19,2.25-1.87,0-3.38-1.66-3.38-3.43,0-2.1,1.58-3.56,3.35-3.56,1.96,0,3.44,1.51,3.44,3.42,0,.2,0,.4-.04.62h-5.51ZM277.72,382.08c-.1-1.13-1.09-1.94-2.16-1.94s-2.04.8-2.14,1.94h4.29Z"/>
    <path class="cls-3" d="M283.41,385.99c-1.87,0-3.54-1.59-3.54-3.47,0-2.03,1.6-3.53,3.63-3.53,1.83,0,3.56,1.44,3.54,3.55-.02,1.78-1.51,3.44-3.63,3.44ZM283.45,380.14c-1.25,0-2.33,1.06-2.33,2.35s1.04,2.36,2.3,2.36,2.37-1.03,2.37-2.37-1.04-2.34-2.35-2.34Z"/>
    <path class="cls-3" d="M297.34,385.83v-.95h-.02c-.52.72-1.38,1.12-2.35,1.12-1.93,0-3.45-1.46-3.45-3.42s1.44-3.57,3.42-3.57c.9,0,1.75.32,2.29,1h.02v-3.05h1.25v8.88h-1.15ZM295.03,380.14c-1.27,0-2.27,1.07-2.27,2.38s1.02,2.34,2.27,2.34,2.31-1.03,2.31-2.29c0-1.36-.91-2.42-2.31-2.42Z"/>
    <path class="cls-3" d="M300.11,378.41v-1.46h1.25v1.46h-1.25ZM300.11,385.83v-6.64h1.25v6.64h-1.25Z"/>
    <path class="cls-3" d="M137.69,394.35v-1.36c0-.9.4-1.46,1.25-1.64v.75c-.29.1-.44.23-.44.78h.44v1.46h-1.25ZM139.56,394.35v-1.36c0-.9.4-1.46,1.25-1.64v.75c-.29.1-.44.23-.44.78h.44v1.46h-1.25Z"/>
    <path class="cls-3" d="M142.57,400.23v-8.88h2.58c1.91,0,3.12.95,3.12,2.69s-1.19,2.69-3.11,2.69h-1.3v3.5h-1.29ZM145.15,395.54c1.14,0,1.82-.54,1.82-1.5s-.71-1.5-1.83-1.5h-1.27v3h1.28Z"/>
    <path class="cls-3" d="M154.52,400.23v-1.03h-.02c-.47.79-1.31,1.2-2.25,1.2-1.94,0-3.53-1.46-3.53-3.38,0-2.12,1.52-3.61,3.48-3.61.97,0,1.79.36,2.3,1.12h.02v-.94h1.25v6.64h-1.25ZM154.55,396.92c0-1.29-.94-2.38-2.31-2.38-1.25,0-2.27,1.07-2.27,2.38s1.02,2.34,2.27,2.34,2.31-1.08,2.31-2.34Z"/>
    <path class="cls-3" d="M160,395.34c-.06-.48-.34-.8-.85-.8-.48,0-.78.32-.78.71,0,.56.58.73,1.24.94.94.29,1.8.85,1.8,2.09s-.94,2.12-2.23,2.12c-1.2,0-2.35-.82-2.35-2.35h1.25c.06.8.47,1.21,1.13,1.21.58,0,.96-.37.96-.91,0-.46-.35-.76-1.13-1.01-1.63-.52-1.91-1.22-1.91-1.98,0-1.18,1-1.96,2.09-1.96s2,.77,2.04,1.94h-1.25Z"/>
    <path class="cls-3" d="M162.79,400.23v-5.5h-.9v-1.14h.9v-2.23h1.25v2.23h1.09v1.14h-1.09v5.5h-1.25Z"/>
    <path class="cls-3" d="M171.43,400.23v-1.03h-.02c-.47.79-1.31,1.2-2.25,1.2-1.94,0-3.53-1.46-3.53-3.38,0-2.12,1.52-3.61,3.48-3.61.97,0,1.79.36,2.3,1.12h.02v-.94h1.25v6.64h-1.25ZM171.45,396.92c0-1.29-.94-2.38-2.31-2.38-1.25,0-2.27,1.07-2.27,2.38s1.02,2.34,2.27,2.34,2.31-1.08,2.31-2.34Z"/>
    <path class="cls-3" d="M184.16,398.03c-.53,1.5-1.8,2.36-3.27,2.36-1.91,0-3.41-1.54-3.41-3.43,0-2,1.45-3.56,3.39-3.56,1.51,0,2.89.95,3.29,2.39h-1.38c-.37-.78-.97-1.25-1.87-1.25-1.31,0-2.18,1-2.18,2.35s.9,2.36,2.16,2.36c.85,0,1.54-.46,1.88-1.22h1.39Z"/>
    <path class="cls-3" d="M188.54,400.39c-1.87,0-3.54-1.6-3.54-3.47,0-2.03,1.6-3.53,3.63-3.53,1.83,0,3.56,1.44,3.54,3.55-.02,1.78-1.51,3.44-3.63,3.44ZM188.58,394.54c-1.25,0-2.33,1.06-2.33,2.35s1.04,2.36,2.3,2.36,2.37-1.03,2.37-2.38-1.04-2.34-2.35-2.34Z"/>
    <path class="cls-3" d="M198.09,400.23v-3.62c0-1.4-.55-2.06-1.65-2.06s-1.75.8-1.75,2.05v3.63h-1.25v-6.64h1.16v.71h.02c.49-.64,1.18-.89,1.94-.89,1.6,0,2.77,1.01,2.77,2.84v3.98h-1.25Z"/>
    <path class="cls-3" d="M204.62,400.23v-5.5h-.9v-1.14h.9v-2.23h1.25v2.23h1.09v1.14h-1.09v5.5h-1.25Z"/>
    <path class="cls-3" d="M210.99,400.39c-1.87,0-3.54-1.6-3.54-3.47,0-2.03,1.6-3.53,3.63-3.53,1.83,0,3.56,1.44,3.54,3.55-.02,1.78-1.51,3.44-3.63,3.44ZM211.03,394.54c-1.25,0-2.33,1.06-2.33,2.35s1.04,2.36,2.3,2.36,2.37-1.03,2.37-2.38-1.04-2.34-2.35-2.34Z"/>
    <path class="cls-3" d="M220.54,400.23v-3.62c0-1.4-.55-2.06-1.65-2.06s-1.75.8-1.75,2.05v3.63h-1.25v-6.64h1.16v.71h.02c.49-.64,1.18-.89,1.94-.89,1.6,0,2.77,1.01,2.77,2.84v3.98h-1.25Z"/>
    <path class="cls-3" d="M228.03,400.23v-3.62c0-1.4-.55-2.06-1.65-2.06s-1.75.8-1.75,2.05v3.63h-1.25v-6.64h1.16v.71h.02c.49-.64,1.18-.89,1.94-.89,1.6,0,2.77,1.01,2.77,2.84v3.98h-1.25Z"/>
    <path class="cls-3" d="M234.07,400.39c-1.87,0-3.54-1.6-3.54-3.47,0-2.03,1.6-3.53,3.63-3.53,1.83,0,3.56,1.44,3.54,3.55-.02,1.78-1.51,3.44-3.63,3.44ZM234.1,394.54c-1.25,0-2.33,1.06-2.33,2.35s1.04,2.36,2.3,2.36,2.37-1.03,2.37-2.38-1.04-2.34-2.35-2.34Z"/>
    <path class="cls-3" d="M238.5,393.59c.29-.1.44-.23.44-.78h-.44v-1.46h1.25v1.35c0,.9-.4,1.48-1.25,1.64v-.76ZM240.37,393.59c.29-.1.44-.23.44-.78h-.44v-1.46h1.25v1.35c0,.9-.4,1.48-1.25,1.64v-.76Z"/>
    <path class="cls-3" d="M251.24,400.23v-.95h-.02c-.52.72-1.38,1.12-2.35,1.12-1.93,0-3.45-1.46-3.45-3.42s1.44-3.57,3.42-3.57c.9,0,1.75.32,2.29,1h.02v-3.05h1.25v8.88h-1.15ZM248.92,394.54c-1.27,0-2.27,1.07-2.27,2.38s1.02,2.34,2.27,2.34,2.31-1.03,2.31-2.29c0-1.36-.91-2.42-2.31-2.42Z"/>
    <path class="cls-3" d="M254,392.81v-1.46h1.25v1.46h-1.25ZM254,400.23v-6.64h1.25v6.64h-1.25Z"/>
    <path class="cls-3" d="M260.49,400.23v-8.88h2.41c1.63,0,2.66,1.02,2.66,2.41,0,.76-.22,1.24-.79,1.73.85.48,1.32,1.16,1.32,2.16,0,1.58-1.19,2.58-2.81,2.58h-2.79ZM262.86,395.04c.88,0,1.42-.42,1.42-1.25s-.54-1.26-1.49-1.26h-1v2.51h1.07ZM263.18,399.04c.92,0,1.62-.53,1.62-1.39,0-.6-.41-1.42-1.58-1.42h-1.43v2.81h1.39Z"/>
    <path class="cls-3" d="M268.27,397.44c.29,1.1,1.16,1.81,2.18,1.81.78,0,1.51-.41,1.9-1.12h1.25c-.52,1.37-1.76,2.25-3.19,2.25-1.87,0-3.38-1.66-3.38-3.43,0-2.1,1.58-3.56,3.35-3.56,1.96,0,3.44,1.51,3.44,3.42,0,.2,0,.4-.04.62h-5.51ZM272.56,396.48c-.1-1.13-1.09-1.94-2.16-1.94s-2.04.8-2.14,1.94h4.29Z"/>
    <path class="cls-3" d="M275.06,400.23v-8.88h1.25v8.88h-1.25Z"/>
    <path class="cls-3" d="M277.92,400.23v-8.88h1.25v8.88h-1.25Z"/>
    <path class="cls-3" d="M283.96,400.39c-1.87,0-3.54-1.6-3.54-3.47,0-2.03,1.6-3.53,3.63-3.53,1.83,0,3.56,1.44,3.54,3.55-.02,1.78-1.51,3.44-3.63,3.44ZM284,394.54c-1.25,0-2.33,1.06-2.33,2.35s1.04,2.36,2.3,2.36,2.37-1.03,2.37-2.38-1.04-2.34-2.35-2.34Z"/>
    <path class="cls-3" d="M291.85,400.23v-5.5h-1.69v5.5h-1.25v-5.5h-.59v-1.14h.59v-.35c0-1.15.85-1.88,2.14-1.88h.28v1.14c-.74,0-1.16.23-1.16.79v.3h2.94v6.64h-1.25ZM291.85,392.81v-1.46h1.25v1.46h-1.25Z"/>
    <path class="cls-3" d="M300.2,399.35c-.52.7-1.34,1.04-2.29,1.04-1.91,0-3.55-1.64-3.55-3.44,0-2,1.56-3.55,3.56-3.55.86,0,1.78.36,2.3.95v-.77h1.25v5.77c0,2.16-1.33,3.49-3.59,3.49-1.52,0-2.72-.8-3.29-2.1h1.39c.47.66,1.09.96,1.91.96,1.52,0,2.33-.83,2.33-2.35h-.02ZM300.22,396.9c0-1.56-1.19-2.36-2.34-2.36-1.24,0-2.28,1.07-2.28,2.36s1.06,2.35,2.29,2.35c1.45,0,2.33-1.27,2.33-2.35Z"/>
    <path class="cls-3" d="M306.08,400.39c-1.87,0-3.54-1.6-3.54-3.47,0-2.03,1.6-3.53,3.63-3.53,1.83,0,3.56,1.44,3.54,3.55-.02,1.78-1.51,3.44-3.63,3.44ZM306.12,394.54c-1.25,0-2.33,1.06-2.33,2.35s1.04,2.36,2.3,2.36,2.37-1.03,2.37-2.38-1.04-2.34-2.35-2.34Z"/>
  </g>
  <g>
    <path class="cls-3" d="M615.53,510.8v-8.88h3.08c2.69,0,4.33,2.12,4.33,4.44,0,2.71-1.71,4.44-4.52,4.44h-2.89ZM618.37,509.61c2.05,0,3.27-1.2,3.27-3.23s-1.4-3.27-3.21-3.27h-1.61v6.5h1.55Z"/>
    <path class="cls-3" d="M625.24,508.02c.29,1.1,1.16,1.81,2.18,1.81.78,0,1.51-.41,1.9-1.12h1.25c-.52,1.37-1.76,2.25-3.19,2.25-1.87,0-3.38-1.66-3.38-3.43,0-2.1,1.58-3.56,3.35-3.56,1.96,0,3.44,1.51,3.44,3.42,0,.2,0,.4-.04.62h-5.51ZM629.54,507.06c-.1-1.13-1.09-1.94-2.16-1.94s-2.04.8-2.14,1.94h4.29Z"/>
    <path class="cls-3" d="M634.65,505.92c-.06-.48-.34-.8-.85-.8-.48,0-.78.32-.78.71,0,.56.58.73,1.24.94.94.29,1.8.85,1.8,2.09s-.94,2.12-2.23,2.12c-1.2,0-2.35-.82-2.35-2.35h1.25c.06.8.47,1.21,1.13,1.21.58,0,.96-.37.96-.91,0-.46-.35-.76-1.13-1.01-1.63-.52-1.91-1.22-1.91-1.98,0-1.18,1-1.96,2.09-1.96s2,.77,2.04,1.94h-1.25Z"/>
    <path class="cls-3" d="M643.46,508.61c-.53,1.5-1.8,2.36-3.27,2.36-1.91,0-3.41-1.54-3.41-3.43,0-2,1.45-3.56,3.39-3.56,1.51,0,2.89.95,3.29,2.39h-1.38c-.37-.78-.97-1.25-1.87-1.25-1.31,0-2.18,1-2.18,2.35s.9,2.36,2.16,2.36c.85,0,1.54-.46,1.88-1.22h1.39Z"/>
    <path class="cls-3" d="M644.65,510.8v-6.64h1.16v.6h.02c.3-.44.82-.73,1.69-.78v1.28c-1.08.04-1.63.7-1.63,1.81v3.73h-1.25Z"/>
    <path class="cls-3" d="M648.74,503.39v-1.46h1.25v1.46h-1.25ZM648.74,510.8v-6.64h1.25v6.64h-1.25Z"/>
    <path class="cls-3" d="M651.01,510.8v-.97l3.19-4.53h-2.88v-1.14h4.25v1.21l-3.01,4.29h3.26v1.14h-4.81Z"/>
    <path class="cls-3" d="M656.66,503.39v-1.46h1.25v1.46h-1.25ZM656.66,510.8v-6.64h1.25v6.64h-1.25Z"/>
    <path class="cls-3" d="M662.71,510.97c-1.87,0-3.54-1.6-3.54-3.47,0-2.03,1.6-3.53,3.63-3.53,1.83,0,3.56,1.44,3.54,3.55-.02,1.78-1.51,3.44-3.63,3.44ZM662.74,505.12c-1.25,0-2.33,1.06-2.33,2.35s1.04,2.36,2.3,2.36,2.37-1.03,2.37-2.37-1.04-2.34-2.35-2.34Z"/>
    <path class="cls-3" d="M672.26,510.8v-3.62c0-1.4-.55-2.06-1.65-2.06s-1.75.8-1.75,2.05v3.63h-1.25v-6.64h1.16v.71h.02c.49-.64,1.18-.89,1.94-.89,1.6,0,2.77,1.01,2.77,2.84v3.98h-1.25Z"/>
    <path class="cls-3" d="M676.02,508.02c.29,1.1,1.16,1.81,2.18,1.81.78,0,1.51-.41,1.9-1.12h1.25c-.52,1.37-1.76,2.25-3.19,2.25-1.87,0-3.38-1.66-3.38-3.43,0-2.1,1.58-3.56,3.35-3.56,1.96,0,3.44,1.51,3.44,3.42,0,.2,0,.4-.04.62h-5.51ZM680.31,507.06c-.1-1.13-1.09-1.94-2.16-1.94s-2.04.8-2.14,1.94h4.29Z"/>
    <path class="cls-3" d="M617.91,525.2v-.95h-.02c-.52.72-1.38,1.12-2.35,1.12-1.93,0-3.45-1.46-3.45-3.42s1.44-3.57,3.42-3.57c.9,0,1.75.32,2.29,1h.02v-3.05h1.25v8.88h-1.15ZM615.59,519.52c-1.27,0-2.27,1.07-2.27,2.38s1.02,2.34,2.27,2.34,2.31-1.03,2.31-2.29c0-1.36-.91-2.42-2.31-2.42Z"/>
    <path class="cls-3" d="M621.58,522.42c.29,1.1,1.16,1.81,2.18,1.81.78,0,1.51-.41,1.9-1.12h1.25c-.52,1.37-1.76,2.25-3.19,2.25-1.87,0-3.38-1.66-3.38-3.43,0-2.1,1.58-3.56,3.35-3.56,1.96,0,3.44,1.51,3.44,3.42,0,.2,0,.4-.04.62h-5.51ZM625.87,521.46c-.1-1.13-1.09-1.94-2.16-1.94s-2.04.8-2.14,1.94h4.29Z"/>
    <path class="cls-3" d="M628.37,525.2v-8.88h1.25v8.88h-1.25Z"/>
    <path class="cls-3" d="M634.77,527.42v-8.86h1.14v1.02h.02c.56-.8,1.42-1.2,2.36-1.2,1.98,0,3.44,1.54,3.44,3.59,0,1.87-1.45,3.41-3.36,3.41-1.01,0-1.91-.41-2.34-1.13h-.02v3.18h-1.25ZM640.49,521.89c0-1.21-.96-2.38-2.29-2.38-1.25,0-2.21,1.12-2.21,2.35s.96,2.36,2.25,2.36,2.24-1.07,2.24-2.34Z"/>
    <path class="cls-3" d="M643,525.2v-6.64h1.16v.6h.02c.3-.44.82-.73,1.69-.78v1.28c-1.08.04-1.63.7-1.63,1.81v3.73h-1.25Z"/>
    <path class="cls-3" d="M649.93,525.37c-1.87,0-3.54-1.6-3.54-3.47,0-2.03,1.6-3.53,3.63-3.53,1.83,0,3.56,1.44,3.54,3.55-.02,1.78-1.51,3.44-3.63,3.44ZM649.97,519.52c-1.25,0-2.33,1.06-2.33,2.35s1.04,2.36,2.3,2.36,2.37-1.03,2.37-2.37-1.04-2.34-2.35-2.34Z"/>
    <path class="cls-3" d="M660.33,525.2v-.95h-.02c-.52.72-1.38,1.12-2.35,1.12-1.93,0-3.45-1.46-3.45-3.42s1.44-3.57,3.42-3.57c.9,0,1.75.32,2.29,1h.02v-3.05h1.25v8.88h-1.15ZM658.01,519.52c-1.27,0-2.27,1.07-2.27,2.38s1.02,2.34,2.27,2.34,2.31-1.03,2.31-2.29c0-1.36-.91-2.42-2.31-2.42Z"/>
    <path class="cls-3" d="M666.28,525.37c-1.87,0-3.54-1.6-3.54-3.47,0-2.03,1.6-3.53,3.63-3.53,1.83,0,3.56,1.44,3.54,3.55-.02,1.78-1.51,3.44-3.63,3.44ZM666.31,519.52c-1.25,0-2.33,1.06-2.33,2.35s1.04,2.36,2.3,2.36,2.37-1.03,2.37-2.37-1.04-2.34-2.35-2.34Z"/>
    <path class="cls-3" d="M671.33,525.2v-5.5h-.9v-1.14h.9v-2.23h1.25v2.23h1.09v1.14h-1.09v5.5h-1.25Z"/>
    <path class="cls-3" d="M674.66,525.2v-5.5h-.9v-1.14h.9v-2.23h1.25v2.23h1.09v1.14h-1.09v5.5h-1.25Z"/>
    <path class="cls-3" d="M681.03,525.37c-1.87,0-3.54-1.6-3.54-3.47,0-2.03,1.6-3.53,3.63-3.53,1.83,0,3.56,1.44,3.54,3.55-.02,1.78-1.51,3.44-3.63,3.44ZM681.06,519.52c-1.25,0-2.33,1.06-2.33,2.35s1.04,2.36,2.3,2.36,2.37-1.03,2.37-2.37-1.04-2.34-2.35-2.34Z"/>
  </g>
  <g>
    <path class="cls-3" d="M1017.08,466.72v-7.69h-1.7v-1.19h4.7v1.19h-1.7v7.69h-1.3Z"/>
    <path class="cls-3" d="M1025.85,466.72v-1.03h-.02c-.47.79-1.31,1.2-2.25,1.2-1.94,0-3.53-1.46-3.53-3.38,0-2.12,1.52-3.61,3.48-3.61.97,0,1.79.36,2.3,1.12h.02v-.94h1.25v6.64h-1.25ZM1025.88,463.41c0-1.3-.94-2.38-2.31-2.38-1.25,0-2.27,1.07-2.27,2.38s1.02,2.34,2.27,2.34,2.31-1.08,2.31-2.34Z"/>
    <path class="cls-3" d="M1028.77,466.72v-8.88h1.25v3.15h.02c.54-.73,1.38-1.1,2.28-1.1,1.88,0,3.44,1.58,3.44,3.5s-1.46,3.49-3.33,3.49c-.96,0-1.85-.38-2.4-1.13h-.02v.96h-1.24ZM1034.52,463.4c0-1.26-1-2.36-2.28-2.36s-2.25,1.08-2.25,2.34,1,2.37,2.27,2.37,2.27-1.06,2.27-2.35Z"/>
    <path class="cls-3" d="M1037.94,463.94c.29,1.1,1.16,1.81,2.18,1.81.78,0,1.51-.41,1.9-1.12h1.25c-.52,1.37-1.76,2.25-3.19,2.25-1.87,0-3.38-1.66-3.38-3.43,0-2.1,1.58-3.56,3.35-3.56,1.96,0,3.44,1.51,3.44,3.42,0,.2,0,.4-.04.62h-5.51ZM1042.23,462.98c-.1-1.13-1.09-1.94-2.16-1.94s-2.04.8-2.14,1.94h4.29Z"/>
    <path class="cls-3" d="M1044.73,466.72v-8.88h1.25v8.88h-1.25Z"/>
    <path class="cls-3" d="M1047.59,466.72v-8.88h1.25v8.88h-1.25Z"/>
    <path class="cls-3" d="M1055.9,466.72v-1.03h-.02c-.47.79-1.31,1.2-2.25,1.2-1.94,0-3.53-1.46-3.53-3.38,0-2.12,1.52-3.61,3.48-3.61.97,0,1.79.36,2.3,1.12h.02v-.94h1.25v6.64h-1.25ZM1055.93,463.41c0-1.3-.94-2.38-2.31-2.38-1.25,0-2.27,1.07-2.27,2.38s1.02,2.34,2.27,2.34,2.31-1.08,2.31-2.34Z"/>
    <path class="cls-3" d="M1066.94,466.72v-3.62c0-1.4-.55-2.06-1.65-2.06s-1.75.8-1.75,2.05v3.63h-1.25v-6.64h1.16v.71h.02c.49-.64,1.18-.89,1.94-.89,1.6,0,2.77,1.01,2.77,2.84v3.98h-1.25Z"/>
    <path class="cls-3" d="M1074.29,466.72v-.72h-.02c-.32.56-1.08.89-1.96.89-1.43,0-2.77-.77-2.77-3.11v-3.71h1.25v3.61c0,1.39.52,2.06,1.65,2.06s1.74-.8,1.74-2.09v-3.59h1.25v6.64h-1.14Z"/>
    <path class="cls-3" d="M1077.24,466.72v-5.5h-.9v-1.14h.9v-2.23h1.25v2.23h1.09v1.14h-1.09v5.5h-1.25Z"/>
    <path class="cls-3" d="M1080.42,466.72v-6.64h1.16v.6h.02c.3-.44.82-.73,1.69-.78v1.28c-1.08.04-1.63.7-1.63,1.81v3.73h-1.25Z"/>
    <path class="cls-3" d="M1084.51,459.31v-1.46h1.25v1.46h-1.25ZM1084.51,466.72v-6.64h1.25v6.64h-1.25Z"/>
    <path class="cls-3" d="M1086.78,466.72v-.97l3.19-4.53h-2.88v-1.14h4.25v1.21l-3.01,4.29h3.26v1.14h-4.81Z"/>
    <path class="cls-3" d="M1092.43,459.31v-1.46h1.25v1.46h-1.25ZM1092.43,466.72v-6.64h1.25v6.64h-1.25Z"/>
    <path class="cls-3" d="M1098.48,466.89c-1.87,0-3.54-1.6-3.54-3.47,0-2.03,1.6-3.53,3.63-3.53,1.83,0,3.56,1.44,3.54,3.55-.02,1.78-1.51,3.44-3.63,3.44ZM1098.51,461.04c-1.25,0-2.33,1.06-2.33,2.35s1.04,2.36,2.3,2.36,2.37-1.03,2.37-2.37-1.04-2.34-2.35-2.34Z"/>
    <path class="cls-3" d="M1108.03,466.72v-3.62c0-1.4-.55-2.06-1.65-2.06s-1.75.8-1.75,2.05v3.63h-1.25v-6.64h1.16v.71h.02c.49-.64,1.18-.89,1.94-.89,1.6,0,2.77,1.01,2.77,2.84v3.98h-1.25Z"/>
    <path class="cls-3" d="M1116.33,466.72v-1.03h-.02c-.47.79-1.31,1.2-2.25,1.2-1.94,0-3.53-1.46-3.53-3.38,0-2.12,1.52-3.61,3.48-3.61.97,0,1.79.36,2.3,1.12h.02v-.94h1.25v6.64h-1.25ZM1116.36,463.41c0-1.3-.94-2.38-2.31-2.38-1.25,0-2.27,1.07-2.27,2.38s1.02,2.34,2.27,2.34,2.31-1.08,2.31-2.34Z"/>
    <path class="cls-3" d="M1119.25,466.72v-8.88h1.25v8.88h-1.25Z"/>
    <path class="cls-3" d="M1123.02,463.94c.29,1.1,1.16,1.81,2.18,1.81.78,0,1.51-.41,1.9-1.12h1.25c-.52,1.37-1.76,2.25-3.19,2.25-1.87,0-3.38-1.66-3.38-3.43,0-2.1,1.58-3.56,3.35-3.56,1.96,0,3.44,1.51,3.44,3.42,0,.2,0,.4-.04.62h-5.51ZM1127.31,462.98c-.1-1.13-1.09-1.94-2.16-1.94s-2.04.8-2.14,1.94h4.29Z"/>
  </g>
  <g>
    <path class="cls-3" d="M155.8,139.11v-8.88h1.3v7.69h3.08v1.19h-4.38Z"/>
    <path class="cls-3" d="M160.99,131.7v-1.46h1.25v1.46h-1.25ZM160.99,139.11v-6.64h1.25v6.64h-1.25Z"/>
    <path class="cls-3" d="M168.48,139.11v-3.62c0-1.4-.55-2.06-1.65-2.06s-1.75.8-1.75,2.05v3.63h-1.25v-6.64h1.16v.71h.02c.49-.64,1.18-.89,1.94-.89,1.6,0,2.77,1.01,2.77,2.84v3.98h-1.25Z"/>
    <path class="cls-3" d="M172.24,136.33c.29,1.1,1.16,1.81,2.18,1.81.78,0,1.51-.41,1.9-1.12h1.25c-.52,1.37-1.76,2.25-3.19,2.25-1.87,0-3.38-1.66-3.38-3.43,0-2.1,1.58-3.56,3.35-3.56,1.96,0,3.44,1.51,3.44,3.42,0,.2,0,.4-.04.62h-5.51ZM176.53,135.37c-.1-1.13-1.09-1.94-2.16-1.94s-2.04.8-2.14,1.94h4.29Z"/>
    <path class="cls-3" d="M179.95,136.33c.29,1.1,1.16,1.81,2.18,1.81.78,0,1.51-.41,1.9-1.12h1.25c-.52,1.37-1.76,2.25-3.19,2.25-1.87,0-3.38-1.66-3.38-3.43,0-2.1,1.58-3.56,3.35-3.56,1.96,0,3.44,1.51,3.44,3.42,0,.2,0,.4-.04.62h-5.51ZM184.24,135.37c-.1-1.13-1.09-1.94-2.16-1.94s-2.04.8-2.14,1.94h4.29Z"/>
    <path class="cls-3" d="M195.76,139.11v-.95h-.02c-.52.72-1.38,1.12-2.35,1.12-1.93,0-3.45-1.46-3.45-3.42s1.44-3.57,3.42-3.57c.9,0,1.75.32,2.29,1h.02v-3.05h1.25v8.88h-1.15ZM193.44,133.42c-1.27,0-2.27,1.07-2.27,2.38s1.02,2.34,2.27,2.34,2.31-1.03,2.31-2.29c0-1.36-.91-2.42-2.31-2.42Z"/>
    <path class="cls-3" d="M198.52,131.7v-1.46h1.25v1.46h-1.25ZM198.52,139.11v-6.64h1.25v6.64h-1.25Z"/>
    <path class="cls-3" d="M205.06,139.11v-5.5h-.9v-1.14h.9v-2.23h1.25v2.23h1.09v1.14h-1.09v5.5h-1.25Z"/>
    <path class="cls-3" d="M213.7,139.11v-1.03h-.02c-.47.79-1.31,1.2-2.25,1.2-1.94,0-3.53-1.46-3.53-3.38,0-2.12,1.52-3.61,3.48-3.61.97,0,1.79.36,2.3,1.12h.02v-.94h1.25v6.64h-1.25ZM213.72,135.8c0-1.3-.94-2.38-2.31-2.38-1.25,0-2.27,1.07-2.27,2.38s1.02,2.34,2.27,2.34,2.31-1.08,2.31-2.34Z"/>
    <path class="cls-3" d="M222.05,138.23c-.52.7-1.34,1.04-2.29,1.04-1.91,0-3.55-1.64-3.55-3.44,0-2,1.56-3.55,3.56-3.55.86,0,1.78.36,2.3.95v-.77h1.25v5.77c0,2.16-1.33,3.49-3.59,3.49-1.52,0-2.72-.8-3.29-2.1h1.39c.47.66,1.09.96,1.91.96,1.52,0,2.33-.83,2.33-2.35h-.02ZM222.07,135.79c0-1.56-1.19-2.36-2.34-2.36-1.24,0-2.28,1.07-2.28,2.36s1.06,2.35,2.29,2.35c1.45,0,2.33-1.27,2.33-2.35Z"/>
    <path class="cls-3" d="M224.92,139.11v-8.88h1.25v8.88h-1.25Z"/>
    <path class="cls-3" d="M227.78,131.7v-1.46h1.25v1.46h-1.25ZM227.78,139.11v-6.64h1.25v6.64h-1.25Z"/>
    <path class="cls-3" d="M233.82,139.28c-1.87,0-3.54-1.6-3.54-3.47,0-2.03,1.6-3.53,3.63-3.53,1.83,0,3.56,1.44,3.54,3.55-.02,1.78-1.51,3.44-3.63,3.44ZM233.86,133.42c-1.25,0-2.33,1.06-2.33,2.35s1.04,2.36,2.3,2.36,2.37-1.03,2.37-2.37-1.04-2.34-2.35-2.34Z"/>
  </g>
  <g>
    <path class="cls-3" d="M145.08,235.79v-8.88h1.3v7.69h3.08v1.19h-4.38Z"/>
    <path class="cls-3" d="M150.27,228.38v-1.46h1.25v1.46h-1.25ZM150.27,235.79v-6.64h1.25v6.64h-1.25Z"/>
    <path class="cls-3" d="M157.76,235.79v-3.62c0-1.4-.55-2.06-1.65-2.06s-1.75.8-1.75,2.05v3.63h-1.25v-6.64h1.16v.71h.02c.49-.64,1.18-.89,1.94-.89,1.6,0,2.77,1.01,2.77,2.84v3.98h-1.25Z"/>
    <path class="cls-3" d="M161.52,233c.29,1.1,1.16,1.81,2.18,1.81.78,0,1.51-.41,1.9-1.12h1.25c-.52,1.37-1.76,2.25-3.19,2.25-1.87,0-3.38-1.66-3.38-3.43,0-2.1,1.58-3.56,3.35-3.56,1.96,0,3.44,1.51,3.44,3.42,0,.2,0,.4-.04.62h-5.51ZM165.82,232.05c-.1-1.13-1.09-1.94-2.16-1.94s-2.04.8-2.14,1.94h4.29Z"/>
    <path class="cls-3" d="M169.23,233c.29,1.1,1.16,1.81,2.18,1.81.78,0,1.51-.41,1.9-1.12h1.25c-.52,1.37-1.76,2.25-3.19,2.25-1.87,0-3.38-1.66-3.38-3.43,0-2.1,1.58-3.56,3.35-3.56,1.96,0,3.44,1.51,3.44,3.42,0,.2,0,.4-.04.62h-5.51ZM173.52,232.05c-.1-1.13-1.09-1.94-2.16-1.94s-2.04.8-2.14,1.94h4.29Z"/>
    <path class="cls-3" d="M185.04,235.79v-.95h-.02c-.52.72-1.38,1.12-2.35,1.12-1.93,0-3.45-1.46-3.45-3.42s1.44-3.57,3.42-3.57c.9,0,1.75.32,2.29,1h.02v-3.05h1.25v8.88h-1.15ZM182.72,230.1c-1.27,0-2.27,1.07-2.27,2.38s1.02,2.34,2.27,2.34,2.31-1.03,2.31-2.29c0-1.36-.91-2.42-2.31-2.42Z"/>
    <path class="cls-3" d="M187.8,228.38v-1.46h1.25v1.46h-1.25ZM187.8,235.79v-6.64h1.25v6.64h-1.25Z"/>
    <path class="cls-3" d="M194.2,238.01v-8.86h1.14v1.02h.02c.56-.8,1.42-1.2,2.36-1.2,1.98,0,3.44,1.54,3.44,3.59,0,1.87-1.45,3.41-3.36,3.41-1.01,0-1.91-.41-2.34-1.13h-.02v3.18h-1.25ZM199.92,232.48c0-1.21-.96-2.38-2.29-2.38-1.25,0-2.21,1.12-2.21,2.35s.96,2.36,2.25,2.36,2.24-1.07,2.24-2.34Z"/>
    <path class="cls-3" d="M202.43,228.38v-1.46h1.25v1.46h-1.25ZM202.43,235.79v-6.64h1.25v6.64h-1.25Z"/>
    <path class="cls-3" d="M206.2,233c.29,1.1,1.16,1.81,2.18,1.81.78,0,1.51-.41,1.9-1.12h1.25c-.52,1.37-1.76,2.25-3.19,2.25-1.87,0-3.38-1.66-3.38-3.43,0-2.1,1.58-3.56,3.35-3.56,1.96,0,3.44,1.51,3.44,3.42,0,.2,0,.4-.04.62h-5.51ZM210.49,232.05c-.1-1.13-1.09-1.94-2.16-1.94s-2.04.8-2.14,1.94h4.29Z"/>
    <path class="cls-3" d="M218.48,234.91c-.52.7-1.34,1.04-2.29,1.04-1.91,0-3.55-1.64-3.55-3.44,0-2,1.56-3.55,3.56-3.55.86,0,1.78.36,2.3.95v-.77h1.25v5.77c0,2.16-1.33,3.49-3.59,3.49-1.52,0-2.72-.8-3.29-2.1h1.39c.47.66,1.09.96,1.91.96,1.52,0,2.33-.83,2.33-2.35h-.02ZM218.51,232.47c0-1.56-1.19-2.36-2.34-2.36-1.24,0-2.28,1.07-2.28,2.36s1.06,2.35,2.29,2.35c1.45,0,2.33-1.27,2.33-2.35Z"/>
    <path class="cls-3" d="M226.63,235.79v-1.03h-.02c-.47.79-1.31,1.2-2.25,1.2-1.94,0-3.53-1.46-3.53-3.38,0-2.12,1.52-3.61,3.48-3.61.97,0,1.79.36,2.3,1.12h.02v-.94h1.25v6.64h-1.25ZM226.66,232.48c0-1.3-.94-2.38-2.31-2.38-1.25,0-2.27,1.07-2.27,2.38s1.02,2.34,2.27,2.34,2.31-1.08,2.31-2.34Z"/>
  </g>
  <g>
    <path class="cls-3" d="M978.09,287.95v-7.5h-.04l-2.99,7.5h-.78l-3-7.5h-.02v7.5h-1.3v-8.88h2.04l2.66,6.8,2.67-6.8h2.04v8.88h-1.3Z"/>
    <path class="cls-3" d="M981.08,280.53v-1.46h1.25v1.46h-1.25ZM981.08,287.95v-6.64h1.25v6.64h-1.25Z"/>
    <path class="cls-3" d="M988.58,287.95v-3.62c0-1.4-.55-2.06-1.65-2.06s-1.75.8-1.75,2.05v3.63h-1.25v-6.64h1.16v.71h.02c.49-.64,1.18-.89,1.94-.89,1.6,0,2.77,1.01,2.77,2.84v3.98h-1.25Z"/>
    <path class="cls-3" d="M995.92,287.95v-.72h-.02c-.32.56-1.08.89-1.96.89-1.43,0-2.77-.77-2.77-3.11v-3.71h1.25v3.61c0,1.39.52,2.06,1.65,2.06s1.74-.8,1.74-2.09v-3.59h1.25v6.64h-1.14Z"/>
    <path class="cls-3" d="M998.87,287.95v-5.5h-.9v-1.14h.9v-2.23h1.25v2.23h1.09v1.14h-1.09v5.5h-1.25Z"/>
    <path class="cls-3" d="M1007.51,287.95v-1.03h-.02c-.47.79-1.31,1.2-2.25,1.2-1.94,0-3.53-1.46-3.53-3.38,0-2.12,1.52-3.61,3.48-3.61.97,0,1.79.36,2.3,1.12h.02v-.94h1.25v6.64h-1.25ZM1007.54,284.64c0-1.3-.94-2.38-2.31-2.38-1.25,0-2.27,1.07-2.27,2.38s1.02,2.34,2.27,2.34,2.31-1.08,2.31-2.34Z"/>
    <path class="cls-3" d="M1015.86,287.07c-.52.7-1.34,1.04-2.29,1.04-1.91,0-3.55-1.64-3.55-3.44,0-2,1.56-3.55,3.56-3.55.86,0,1.78.36,2.3.95v-.77h1.25v5.77c0,2.16-1.33,3.49-3.59,3.49-1.52,0-2.72-.8-3.29-2.1h1.39c.47.66,1.09.96,1.91.96,1.52,0,2.33-.83,2.33-2.35h-.02ZM1015.89,284.62c0-1.56-1.19-2.36-2.34-2.36-1.24,0-2.28,1.07-2.28,2.36s1.06,2.35,2.29,2.35c1.45,0,2.33-1.27,2.33-2.35Z"/>
    <path class="cls-3" d="M1024.05,287.07c-.52.7-1.34,1.04-2.29,1.04-1.91,0-3.55-1.64-3.55-3.44,0-2,1.56-3.55,3.56-3.55.86,0,1.78.36,2.3.95v-.77h1.25v5.77c0,2.16-1.33,3.49-3.59,3.49-1.52,0-2.72-.8-3.29-2.1h1.39c.47.66,1.09.96,1.91.96,1.52,0,2.33-.83,2.33-2.35h-.02ZM1024.07,284.62c0-1.56-1.19-2.36-2.34-2.36-1.24,0-2.28,1.07-2.28,2.36s1.06,2.35,2.29,2.35c1.45,0,2.33-1.27,2.33-2.35Z"/>
    <path class="cls-3" d="M1026.92,280.53v-1.46h1.25v1.46h-1.25ZM1026.92,287.95v-6.64h1.25v6.64h-1.25Z"/>
    <path class="cls-3" d="M1032.96,288.11c-1.87,0-3.54-1.6-3.54-3.47,0-2.03,1.6-3.53,3.63-3.53,1.83,0,3.56,1.44,3.54,3.55-.02,1.78-1.51,3.44-3.63,3.44ZM1033,282.26c-1.25,0-2.33,1.06-2.33,2.35s1.04,2.36,2.3,2.36,2.37-1.03,2.37-2.37-1.04-2.34-2.35-2.34Z"/>
    <path class="cls-3" d="M1047.75,285.75c-.53,1.5-1.8,2.36-3.27,2.36-1.91,0-3.41-1.54-3.41-3.43,0-2,1.45-3.56,3.39-3.56,1.51,0,2.89.95,3.29,2.39h-1.38c-.37-.78-.97-1.25-1.87-1.25-1.31,0-2.18,1-2.18,2.35s.9,2.36,2.16,2.36c.85,0,1.54-.46,1.88-1.22h1.39Z"/>
    <path class="cls-3" d="M1053.4,287.95v-3.61c0-1.43-.55-2.08-1.65-2.08s-1.75.79-1.75,2.09v3.6h-1.25v-8.88h1.25v2.94h.02c.4-.59,1.03-.89,1.86-.89,1.58,0,2.77,1.01,2.77,2.83v3.99h-1.25Z"/>
    <path class="cls-3" d="M1057.13,285.16c.29,1.1,1.16,1.81,2.18,1.81.78,0,1.51-.41,1.9-1.12h1.25c-.52,1.37-1.76,2.25-3.19,2.25-1.87,0-3.38-1.66-3.38-3.43,0-2.1,1.58-3.56,3.35-3.56,1.96,0,3.44,1.51,3.44,3.42,0,.2,0,.4-.04.62h-5.51ZM1061.43,284.2c-.1-1.13-1.09-1.94-2.16-1.94s-2.04.8-2.14,1.94h4.29Z"/>
    <path class="cls-3" d="M1073.8,285.75c-.53,1.5-1.8,2.36-3.27,2.36-1.91,0-3.41-1.54-3.41-3.43,0-2,1.45-3.56,3.39-3.56,1.51,0,2.89.95,3.29,2.39h-1.38c-.37-.78-.97-1.25-1.87-1.25-1.31,0-2.18,1-2.18,2.35s.9,2.36,2.16,2.36c.85,0,1.54-.46,1.88-1.22h1.39Z"/>
    <path class="cls-3" d="M1078.18,288.11c-1.87,0-3.54-1.6-3.54-3.47,0-2.03,1.6-3.53,3.63-3.53,1.83,0,3.56,1.44,3.54,3.55-.02,1.78-1.51,3.44-3.63,3.44ZM1078.22,282.26c-1.25,0-2.33,1.06-2.33,2.35s1.04,2.36,2.3,2.36,2.37-1.03,2.37-2.37-1.04-2.34-2.35-2.34Z"/>
    <path class="cls-3" d="M1083.09,290.17v-8.86h1.14v1.02h.02c.56-.8,1.42-1.2,2.36-1.2,1.98,0,3.44,1.54,3.44,3.59,0,1.87-1.45,3.41-3.36,3.41-1.01,0-1.91-.41-2.34-1.13h-.02v3.18h-1.25ZM1088.81,284.64c0-1.21-.96-2.38-2.29-2.38-1.25,0-2.21,1.12-2.21,2.35s.96,2.36,2.25,2.36,2.24-1.07,2.24-2.34Z"/>
    <path class="cls-3" d="M1091.32,287.95v-6.64h1.16v.6h.02c.3-.44.82-.73,1.69-.78v1.28c-1.08.04-1.63.7-1.63,1.81v3.73h-1.25Z"/>
    <path class="cls-3" d="M1095.98,285.16c.29,1.1,1.16,1.81,2.18,1.81.78,0,1.51-.41,1.9-1.12h1.25c-.52,1.37-1.76,2.25-3.19,2.25-1.87,0-3.38-1.66-3.38-3.43,0-2.1,1.58-3.56,3.35-3.56,1.96,0,3.44,1.51,3.44,3.42,0,.2,0,.4-.04.62h-5.51ZM1100.27,284.2c-.1-1.13-1.09-1.94-2.16-1.94s-2.04.8-2.14,1.94h4.29Z"/>
    <path class="cls-3" d="M996.83,302.35v-5.5h-.9v-1.14h.9v-2.23h1.25v2.23h1.09v1.14h-1.09v5.5h-1.25Z"/>
    <path class="cls-3" d="M1004.75,302.35v-.72h-.02c-.32.56-1.08.89-1.96.89-1.43,0-2.77-.77-2.77-3.11v-3.71h1.25v3.61c0,1.39.52,2.06,1.65,2.06s1.74-.8,1.74-2.09v-3.59h1.25v6.64h-1.14Z"/>
    <path class="cls-3" d="M1007.7,302.35v-5.5h-.9v-1.14h.9v-2.23h1.25v2.23h1.09v1.14h-1.09v5.5h-1.25Z"/>
    <path class="cls-3" d="M1011.02,302.35v-5.5h-.9v-1.14h.9v-2.23h1.25v2.23h1.09v1.14h-1.09v5.5h-1.25Z"/>
    <path class="cls-3" d="M1019.66,302.35v-1.03h-.02c-.47.79-1.31,1.2-2.25,1.2-1.94,0-3.53-1.46-3.53-3.38,0-2.12,1.52-3.61,3.48-3.61.97,0,1.79.36,2.3,1.12h.02v-.94h1.25v6.64h-1.25ZM1019.69,299.04c0-1.3-.94-2.38-2.31-2.38-1.25,0-2.27,1.07-2.27,2.38s1.02,2.34,2.27,2.34,2.31-1.08,2.31-2.34Z"/>
    <path class="cls-3" d="M1026.06,302.35v-8.88h1.25v8.88h-1.25Z"/>
    <path class="cls-3" d="M1034.37,302.35v-1.03h-.02c-.47.79-1.31,1.2-2.25,1.2-1.94,0-3.53-1.46-3.53-3.38,0-2.12,1.52-3.61,3.48-3.61.97,0,1.79.36,2.3,1.12h.02v-.94h1.25v6.64h-1.25ZM1034.4,299.04c0-1.3-.94-2.38-2.31-2.38-1.25,0-2.27,1.07-2.27,2.38s1.02,2.34,2.27,2.34,2.31-1.08,2.31-2.34Z"/>
    <path class="cls-3" d="M1040.81,302.35v-5.5h-.59v-1.14h.59v-.3c0-1.27.9-1.93,2.13-1.93h.28v1.14c-.82,0-1.16.29-1.16.78v.31h1.16v1.14h-1.16v5.5h-1.25Z"/>
    <path class="cls-3" d="M1049.31,302.35v-1.03h-.02c-.47.79-1.31,1.2-2.25,1.2-1.94,0-3.53-1.46-3.53-3.38,0-2.12,1.52-3.61,3.48-3.61.97,0,1.79.36,2.3,1.12h.02v-.94h1.25v6.64h-1.25ZM1049.34,299.04c0-1.3-.94-2.38-2.31-2.38-1.25,0-2.27,1.07-2.27,2.38s1.02,2.34,2.27,2.34,2.31-1.08,2.31-2.34Z"/>
    <path class="cls-3" d="M1054.79,297.46c-.06-.48-.34-.8-.85-.8-.48,0-.78.32-.78.71,0,.56.58.73,1.24.94.94.29,1.8.85,1.8,2.09s-.94,2.12-2.23,2.12c-1.2,0-2.35-.82-2.35-2.35h1.25c.06.8.47,1.21,1.13,1.21.58,0,.96-.37.96-.91,0-.46-.35-.76-1.13-1.01-1.63-.52-1.91-1.22-1.91-1.98,0-1.18,1-1.96,2.09-1.96s2,.77,2.04,1.94h-1.25Z"/>
    <path class="cls-3" d="M1063.59,300.15c-.53,1.5-1.8,2.36-3.27,2.36-1.91,0-3.41-1.54-3.41-3.43,0-2,1.45-3.56,3.39-3.56,1.51,0,2.89.95,3.29,2.39h-1.38c-.37-.78-.97-1.25-1.87-1.25-1.31,0-2.18,1-2.18,2.35s.9,2.36,2.16,2.36c.85,0,1.54-.46,1.88-1.22h1.39Z"/>
    <path class="cls-3" d="M1064.78,294.93v-1.46h1.25v1.46h-1.25ZM1064.78,302.35v-6.64h1.25v6.64h-1.25Z"/>
    <path class="cls-3" d="M1073.1,302.35v-1.03h-.02c-.47.79-1.31,1.2-2.25,1.2-1.94,0-3.53-1.46-3.53-3.38,0-2.12,1.52-3.61,3.48-3.61.97,0,1.79.36,2.3,1.12h.02v-.94h1.25v6.64h-1.25ZM1073.12,299.04c0-1.3-.94-2.38-2.31-2.38-1.25,0-2.27,1.07-2.27,2.38s1.02,2.34,2.27,2.34,2.31-1.08,2.31-2.34Z"/>
  </g>
  <g>
    <path class="cls-3" d="M575.94,98.63l-2.93-4.11h-.02v4.11h-1.29v-8.88h2.84c2.13,0,3.08,1.13,3.08,2.95,0,1.69-1.29,2.58-2.54,2.61l2.48,3.31h-1.62ZM573.94,94.34c1.51,0,2.39-.59,2.39-1.74,0-1.02-.82-1.66-1.97-1.66h-1.37v3.39h.95Z"/>
    <path class="cls-3" d="M578.85,91.22v-1.46h1.25v1.46h-1.25ZM578.85,98.63v-6.64h1.25v6.64h-1.25Z"/>
    <path class="cls-3" d="M588.04,96.43c-.53,1.5-1.8,2.36-3.27,2.36-1.91,0-3.41-1.54-3.41-3.43,0-2,1.45-3.56,3.39-3.56,1.51,0,2.89.95,3.29,2.39h-1.38c-.37-.78-.97-1.25-1.87-1.25-1.31,0-2.18,1-2.18,2.35s.9,2.36,2.16,2.36c.85,0,1.54-.46,1.88-1.22h1.39Z"/>
    <path class="cls-3" d="M592.42,98.8c-1.87,0-3.54-1.6-3.54-3.47,0-2.03,1.6-3.53,3.63-3.53,1.83,0,3.56,1.44,3.54,3.55-.02,1.78-1.51,3.44-3.63,3.44ZM592.45,92.94c-1.25,0-2.33,1.06-2.33,2.35s1.04,2.36,2.3,2.36,2.37-1.03,2.37-2.37-1.04-2.34-2.35-2.34Z"/>
    <path class="cls-3" d="M597.33,98.63v-6.64h1.16v.6h.02c.3-.44.82-.73,1.69-.78v1.28c-1.08.04-1.63.7-1.63,1.81v3.73h-1.25Z"/>
    <path class="cls-3" d="M606.55,98.63v-.95h-.02c-.52.72-1.38,1.12-2.35,1.12-1.93,0-3.45-1.46-3.45-3.42s1.44-3.57,3.42-3.57c.9,0,1.75.32,2.29,1h.02v-3.05h1.25v8.88h-1.15ZM604.24,92.94c-1.27,0-2.27,1.07-2.27,2.38s1.02,2.34,2.27,2.34,2.31-1.03,2.31-2.29c0-1.36-.91-2.42-2.31-2.42Z"/>
    <path class="cls-3" d="M614.77,98.63v-1.03h-.02c-.47.79-1.31,1.2-2.25,1.2-1.94,0-3.53-1.46-3.53-3.38,0-2.12,1.52-3.61,3.48-3.61.97,0,1.79.36,2.3,1.12h.02v-.94h1.25v6.64h-1.25ZM614.8,95.32c0-1.3-.94-2.38-2.31-2.38-1.25,0-2.27,1.07-2.27,2.38s1.02,2.34,2.27,2.34,2.31-1.08,2.31-2.34Z"/>
    <path class="cls-3" d="M617.87,99.41c.32-.12.44-.26.44-.78h-.44v-1.46h1.25v1.38c0,.89-.4,1.44-1.25,1.61v-.74Z"/>
    <path class="cls-3" d="M629.15,97.75c-.52.7-1.34,1.04-2.29,1.04-1.91,0-3.55-1.64-3.55-3.44,0-2,1.56-3.55,3.56-3.55.86,0,1.78.36,2.3.95v-.77h1.25v5.77c0,2.16-1.33,3.49-3.59,3.49-1.52,0-2.72-.8-3.29-2.1h1.39c.47.66,1.09.96,1.91.96,1.52,0,2.33-.83,2.33-2.35h-.02ZM629.17,95.31c0-1.56-1.19-2.36-2.34-2.36-1.24,0-2.28,1.07-2.28,2.36s1.06,2.35,2.29,2.35c1.45,0,2.33-1.27,2.33-2.35Z"/>
    <path class="cls-3" d="M632.02,98.63v-8.88h1.25v8.88h-1.25Z"/>
    <path class="cls-3" d="M634.88,91.22v-1.46h1.25v1.46h-1.25ZM634.88,98.63v-6.64h1.25v6.64h-1.25Z"/>
    <path class="cls-3" d="M643.89,93.75c-.06-.48-.34-.8-.85-.8-.48,0-.78.32-.78.71,0,.56.58.73,1.24.94.94.29,1.8.85,1.8,2.09s-.94,2.12-2.23,2.12c-1.2,0-2.35-.82-2.35-2.35h1.25c.06.8.47,1.21,1.13,1.21.58,0,.96-.37.96-.91,0-.46-.35-.76-1.13-1.01-1.63-.52-1.91-1.22-1.91-1.98,0-1.18,1-1.96,2.09-1.96s2,.77,2.04,1.94h-1.25Z"/>
    <path class="cls-3" d="M646.36,100.85v-8.86h1.14v1.02h.02c.56-.8,1.42-1.2,2.36-1.2,1.98,0,3.44,1.54,3.44,3.59,0,1.87-1.45,3.41-3.36,3.41-1.01,0-1.91-.41-2.34-1.13h-.02v3.18h-1.25ZM652.08,95.32c0-1.21-.96-2.38-2.29-2.38-1.25,0-2.21,1.12-2.21,2.35s.96,2.36,2.25,2.36,2.24-1.07,2.24-2.34Z"/>
    <path class="cls-3" d="M660.05,98.63v-1.03h-.02c-.47.79-1.31,1.2-2.25,1.2-1.94,0-3.53-1.46-3.53-3.38,0-2.12,1.52-3.61,3.48-3.61.97,0,1.79.36,2.3,1.12h.02v-.94h1.25v6.64h-1.25ZM660.07,95.32c0-1.3-.94-2.38-2.31-2.38-1.25,0-2.27,1.07-2.27,2.38s1.02,2.34,2.27,2.34,2.31-1.08,2.31-2.34Z"/>
    <path class="cls-3" d="M668.4,97.75c-.52.7-1.34,1.04-2.29,1.04-1.91,0-3.55-1.64-3.55-3.44,0-2,1.56-3.55,3.56-3.55.86,0,1.78.36,2.3.95v-.77h1.25v5.77c0,2.16-1.33,3.49-3.59,3.49-1.52,0-2.72-.8-3.29-2.1h1.39c.47.66,1.09.96,1.91.96,1.52,0,2.33-.83,2.33-2.35h-.02ZM668.42,95.31c0-1.56-1.19-2.36-2.34-2.36-1.24,0-2.28,1.07-2.28,2.36s1.06,2.35,2.29,2.35c1.45,0,2.33-1.27,2.33-2.35Z"/>
    <path class="cls-3" d="M675.91,98.63v-3.61c0-1.43-.55-2.08-1.65-2.08s-1.75.79-1.75,2.09v3.6h-1.25v-8.88h1.25v2.94h.02c.4-.59,1.03-.89,1.86-.89,1.58,0,2.77,1.01,2.77,2.83v3.99h-1.25Z"/>
    <path class="cls-3" d="M679.65,95.85c.29,1.1,1.16,1.81,2.18,1.81.78,0,1.51-.41,1.9-1.12h1.25c-.52,1.37-1.76,2.25-3.19,2.25-1.87,0-3.38-1.66-3.38-3.43,0-2.1,1.58-3.56,3.35-3.56,1.96,0,3.44,1.51,3.44,3.42,0,.2,0,.4-.04.62h-5.51ZM683.94,94.89c-.1-1.13-1.09-1.94-2.16-1.94s-2.04.8-2.14,1.94h4.29Z"/>
    <path class="cls-3" d="M686.58,98.63v-5.5h-.9v-1.14h.9v-2.23h1.25v2.23h1.09v1.14h-1.09v5.5h-1.25Z"/>
    <path class="cls-3" d="M689.91,98.63v-5.5h-.9v-1.14h.9v-2.23h1.25v2.23h1.09v1.14h-1.09v5.5h-1.25Z"/>
    <path class="cls-3" d="M693.09,91.22v-1.46h1.25v1.46h-1.25ZM693.09,98.63v-6.64h1.25v6.64h-1.25Z"/>
    <path class="cls-3" d="M587.05,113.03l-4.39-6.86h-.02v6.86h-1.3v-8.88h1.42l4.32,6.75h.02v-6.75h1.3v8.88h-1.34Z"/>
    <path class="cls-3" d="M594.3,113.2c-2.46,0-4.55-2.11-4.55-4.51,0-2.72,2.09-4.7,4.58-4.7,2.64,0,4.65,2.07,4.65,4.55,0,2.69-2.08,4.67-4.69,4.67ZM597.69,108.62c0-1.83-1.39-3.44-3.26-3.44-2.4,0-3.38,2.06-3.38,3.38,0,1.79,1.3,3.45,3.32,3.45s3.32-1.77,3.32-3.39Z"/>
    <path class="cls-3" d="M606.06,113.03l-4.39-6.86h-.02v6.86h-1.3v-8.88h1.42l4.32,6.75h.02v-6.75h1.3v8.88h-1.34Z"/>
    <path class="cls-3" d="M616.04,106.46c0-.8-.52-1.28-1.25-1.28-.62,0-1.19.56-1.19,1.21s.42.98,1.28,1.26c1.92.61,2.63,1.33,2.63,2.87s-1.15,2.69-2.72,2.69-2.71-1.13-2.73-2.79h1.3c.01.96.58,1.61,1.44,1.61s1.43-.62,1.43-1.5c0-.65-.29-1.06-1.24-1.38-2.19-.74-2.67-1.46-2.67-2.72,0-1.35,1.12-2.42,2.48-2.42,1.46,0,2.52.92,2.54,2.47h-1.3Z"/>
    <path class="cls-3" d="M618.73,113.03v-8.88h1.3v8.88h-1.3Z"/>
    <path class="cls-3" d="M628.65,106.46c0-.8-.52-1.28-1.25-1.28-.62,0-1.19.56-1.19,1.21s.42.98,1.28,1.26c1.92.61,2.63,1.33,2.63,2.87s-1.15,2.69-2.72,2.69-2.71-1.13-2.73-2.79h1.3c.01.96.58,1.61,1.44,1.61s1.43-.62,1.43-1.5c0-.65-.29-1.06-1.24-1.38-2.19-.74-2.67-1.46-2.67-2.72,0-1.35,1.12-2.42,2.48-2.42,1.46,0,2.52.92,2.54,2.47h-1.3Z"/>
    <path class="cls-3" d="M631.22,113.03v-8.88h2.58c1.91,0,3.12.95,3.12,2.69s-1.19,2.69-3.11,2.69h-1.3v3.5h-1.29ZM633.8,108.34c1.14,0,1.82-.54,1.82-1.5s-.71-1.5-1.83-1.5h-1.27v3h1.28Z"/>
    <path class="cls-3" d="M637.93,113.03v-8.88h4.79v1.19h-3.49v2.61h3.49v1.19h-3.49v2.7h3.49v1.19h-4.79Z"/>
    <path class="cls-3" d="M643.74,113.03v-1.19l3.85-6.5h-3.65v-1.19h5.1v1.19l-3.83,6.5h3.98v1.19h-5.46Z"/>
    <path class="cls-3" d="M649.28,113.03v-1.19l3.85-6.5h-3.65v-1.19h5.1v1.19l-3.83,6.5h3.98v1.19h-5.46Z"/>
    <path class="cls-3" d="M661.76,113.03l-.98-2.61h-3.19l-.98,2.61h-1.37l3.37-8.88h1.16l3.37,8.88h-1.38ZM659.2,105.83h-.02l-1.14,3.39h2.29l-1.13-3.39Z"/>
    <path class="cls-3" d="M669.89,113.03l-4.39-6.86h-.02v6.86h-1.3v-8.88h1.42l4.32,6.75h.02v-6.75h1.3v8.88h-1.34Z"/>
    <path class="cls-3" d="M677.14,113.2c-2.46,0-4.55-2.11-4.55-4.51,0-2.72,2.09-4.7,4.58-4.7,2.64,0,4.65,2.07,4.65,4.55,0,2.69-2.08,4.67-4.69,4.67ZM680.54,108.62c0-1.83-1.39-3.44-3.26-3.44-2.4,0-3.38,2.06-3.38,3.38,0,1.79,1.3,3.45,3.32,3.45s3.32-1.77,3.32-3.39Z"/>
    <path class="cls-3" d="M683.34,110.85v-6.69h1.25v6.69h-1.25ZM683.34,113.03v-1.46h1.25v1.46h-1.25Z"/>
  </g>
  <path class="cls-3" d="M561.7,94.03c-20.54,2.56-41.23-.01-61.5-3.54-20.12-3.5-40.15-7.94-60.58-9.25-17.8-1.14-35.99.26-52.82,6.52-15.3,5.69-29.15,15.46-37.8,29.5-8.04,13.03-11.67,29.33-7.56,44.3.5,1.84,1.13,3.64,1.86,5.4.36.88,1.81.49,1.45-.4-5.97-14.49-3.83-30.98,3.33-44.64,7.62-14.54,20.67-25.06,35.66-31.35,16.08-6.75,33.73-8.75,51.04-8.09,20.24.78,40.11,4.96,59.98,8.55,19.57,3.53,39.5,6.56,59.44,5.21,2.5-.17,5-.41,7.49-.72.95-.12.96-1.62,0-1.5h0Z"/>
  <path class="cls-3" d="M705.67,95.53c19.94,2.48,40.04.13,59.73-3.22,19.85-3.38,39.57-7.82,59.68-9.38,17.69-1.37,35.71-.37,52.61,5.4,15.52,5.3,29.83,14.77,38.78,28.74,8.24,12.87,12.12,29.13,8.01,44.1-.5,1.84-1.13,3.64-1.86,5.4-.37.89,1.08,1.28,1.45.4,5.95-14.43,3.96-30.88-2.89-44.63-7.34-14.73-20.15-25.64-35.04-32.29-15.93-7.11-33.55-9.54-50.89-9.14-20.46.47-40.59,4.58-60.66,8.25-20.23,3.7-40.81,6.99-61.44,5.59-2.5-.17-5-.41-7.49-.72-.96-.12-.95,1.38,0,1.5h0Z"/>
  <path class="cls-3" d="M336.67,165.41c2.8,1.18,5.6,2.36,8.39,3.54.49.21,1.15-.02,1.13-.65-.12-2.99.67-5.92,2.28-8.44.52-.82-.78-1.57-1.3-.76-1.74,2.73-2.62,5.96-2.49,9.2l1.13-.65c-2.8-1.18-5.6-2.36-8.39-3.54-.38-.16-.8-.11-1.03.27-.19.31-.1.87.27,1.03h0Z"/>
  <path class="cls-3" d="M919.53,162.15c1.03,2.25,2.07,4.49,3.1,6.74.16.34.72.49,1.03.27,2.06-1.49,4.11-2.98,6.17-4.47.33-.24.49-.65.27-1.03-.19-.32-.7-.51-1.03-.27-2.06,1.49-4.11,2.98-6.17,4.47l1.03.27c-1.03-2.25-2.07-4.49-3.1-6.74-.17-.37-.7-.46-1.03-.27-.38.22-.44.66-.27,1.03h0Z"/>
  <path class="cls-3" d="M962.12,283.03c-19.59-1.32-39.24-1.82-58.88-1.47-19.55.35-39.09,1.53-58.55,3.54-10.89,1.12-21.76,2.51-32.58,4.15-.95.14-.55,1.59.4,1.45,19.35-2.93,38.83-5.03,58.36-6.3s38.92-1.7,58.39-1.31c10.96.22,21.92.7,32.86,1.44.96.07.96-1.44,0-1.5h0Z"/>
  <path class="cls-3" d="M818.34,281.43c-2.78,3.09-5.56,6.18-8.34,9.27-.4.45-.16,1.33.53,1.28,3.96-.27,7.94.44,11.54,2.13.87.41,1.63-.89.76-1.3-3.84-1.8-8.07-2.62-12.3-2.33l.53,1.28c2.78-3.09,5.56-6.18,8.34-9.27.64-.72-.41-1.78-1.06-1.06h0Z"/>
  <path class="cls-3" d="M186.71,244.86c16.66,17.57,36.58,32,58.45,42.38,23.45,11.12,49.05,17.45,74.98,18.63,15.05.68,30.16-.38,44.97-3.14.95-.18.55-1.62-.4-1.45-26.32,4.9-53.62,4.3-79.71-1.73-23.83-5.51-46.51-15.61-66.63-29.52-11.08-7.66-21.34-16.46-30.61-26.23-.67-.7-1.72.36-1.06,1.06h0Z"/>
  <path class="cls-3" d="M243.78,49.35c2.09,1.17,4.19,2.34,6.28,3.5v-1.3c-2.3,1.31-4.6,2.61-6.91,3.92-.84.48-.08,1.77.76,1.3,2.3-1.31,4.6-2.61,6.91-3.92.48-.27.49-1.02,0-1.3-2.09-1.17-4.19-2.34-6.28-3.5-.84-.47-1.6.82-.76,1.3h0Z"/>
  <path class="cls-3" d="M359.45,300.01l6.41,2.17-.45-1.1c-1.28,2.27-2.56,4.53-3.85,6.8-.48.84.82,1.6,1.3.76,1.28-2.27,2.56-4.53,3.85-6.8.25-.44.01-.95-.45-1.1l-6.41-2.17c-.92-.31-1.31,1.14-.4,1.45h0Z"/>
  <path class="cls-3" d="M1054.27,451.46c-14.58-20.4-34.04-37.19-56.31-48.7-24.2-12.51-51.48-18.44-78.69-17.31-15.98.66-31.83,3.72-46.88,9.13-.9.32-.51,1.77.4,1.45,26.47-9.5,55.43-11.71,83.04-6.36,25.04,4.86,48.68,16.03,68.47,32.1,10.86,8.82,20.55,19.07,28.69,30.45.56.78,1.86.03,1.3-.76h0Z"/>
  <path class="cls-3" d="M311.95,390.2c11.9,3.45,23.81,6.86,35.72,10.28,14.47,4.15,28.94,8.31,43.41,12.47,5.82,1.67,11.63,3.34,17.45,5.03.93.27,1.33-1.18.4-1.45-11.9-3.45-23.81-6.86-35.72-10.28-14.47-4.15-28.94-8.31-43.41-12.47-5.82-1.67-11.63-3.34-17.45-5.03-.93-.27-1.33,1.18-.4,1.45h0Z"/>
  <path class="cls-3" d="M650.01,495.35c9.77-12.16,16.17-26.79,18.91-42.13s1.95-31.19-2.54-46.06-12.61-28.06-23.73-38.69c-10.84-10.36-24.15-18.07-38.43-22.58-14.34-4.53-29.72-5.81-44.56-3.25-1.83.32-3.65.7-5.46,1.13-.94.22-.54,1.67.4,1.45,14.4-3.44,29.54-3.06,43.87.59,14.32,3.65,27.87,10.53,39.14,20.12s20.28,22.12,25.5,36.18,7.01,29.87,5.23,45.02-7.15,29.99-15.91,42.55c-1.1,1.58-2.26,3.11-3.46,4.61-.6.75.46,1.81,1.06,1.06h0Z"/>
  <path class="cls-3" d="M559.82,345.8c-2.2-.49-4.41-.98-6.61-1.47l.45,1.1c.91-1.82,1.81-3.64,2.72-5.46.18-.36.1-.81-.27-1.03-.33-.19-.84-.09-1.03.27-.91,1.82-1.81,3.64-2.72,5.46-.2.41-.05.99.45,1.1,2.2.49,4.41.98,6.61,1.47.94.21,1.34-1.24.4-1.45h0Z"/>
  <path class="cls-3" d="M405.56,412.06c1.08,2.36,2.6,4.5,4.45,6.32l.33-1.25c-2.78.53-5.47,1.45-8.01,2.7-.87.43-.11,1.72.76,1.3,2.42-1.2,5-2.05,7.65-2.55.56-.11.71-.88.33-1.25-1.77-1.73-3.18-3.76-4.21-6.01-.17-.37-.7-.46-1.03-.27-.38.22-.44.66-.27,1.03h0Z"/>
  <path class="cls-3" d="M873.38,388.05c-.31,3.06-1.38,5.99-3.06,8.57-.4.61.26,1.18.85,1.1,2.39-.33,4.91.38,6.79,1.89.74.6,1.81-.45,1.06-1.06-2.34-1.89-5.27-2.69-8.24-2.28l.85,1.1c1.83-2.8,2.93-6,3.27-9.32.1-.96-1.4-.95-1.5,0h0Z"/>
  <path class="cls-3" d="M195.16,121.54c-2.7-12.91-.71-26.66,5.42-38.32s15.72-20.15,27.36-25.28c6.58-2.9,13.7-4.53,20.89-4.78.96-.03.97-1.53,0-1.5-13.05.44-25.75,5.39-35.76,13.74-10.32,8.61-17.23,20.82-19.63,34.02-1.35,7.45-1.28,15.1.27,22.52.2.94,1.64.54,1.45-.4h0Z"/>
</svg>