<?xml version="1.0" encoding="UTF-8"?>
<svg id="Livello_1" data-name="Livello 1" xmlns="http://www.w3.org/2000/svg" xmlns:xlink="http://www.w3.org/1999/xlink" viewBox="0 0 1573.09 546.57">
  <defs>
    <style>
      .cls-1 {
        fill: url(#Sfumatura_senza_nome_32);
      }

      .cls-2 {
        fill: #fff;
      }

      .cls-3 {
        fill: #d33935;
      }

      .cls-4 {
        fill: #299b5b;
      }

      .cls-5 {
        fill: none;
        stroke: #299b5b;
        stroke-miterlimit: 10;
        stroke-width: 4px;
      }
    </style>
    <radialGradient id="Sfumatura_senza_nome_32" data-name="Sfumatura senza nome 32" cx="786.53" cy="197.25" fx="786.53" fy="197.25" r="132.58" gradientUnits="userSpaceOnUse">
      <stop offset="0" stop-color="#fff"/>
      <stop offset=".44" stop-color="#fff" stop-opacity=".2"/>
      <stop offset="1" stop-color="#000" stop-opacity="0"/>
    </radialGradient>
  </defs>
  <rect width="1573.09" height="546.57"/>
  <circle class="cls-5" cx="786.54" cy="197.25" r="132.59"/>
  <path class="cls-4" d="M786.54,321.13c68.42,0,123.88-55.46,123.88-123.88s-55.46-123.88-123.88-123.88v247.76Z"/>
  <polygon class="cls-3" points="786.54 321.14 771.71 271.83 739.13 311.71 744.29 260.48 698.94 284.85 723.31 239.5 672.08 244.66 711.96 212.08 662.65 197.25 711.96 182.41 672.08 149.83 723.31 155 698.94 109.64 744.29 134.01 739.13 82.78 771.71 122.66 786.54 73.35 786.54 321.14"/>
  <path class="cls-4" d="M752.69,391.23c1.53.11,5,.63,6.8.93,17.69,2.95,26.3,21.76,16.34,36.88-5.49,8.33-13.09,9.99-22.36,11.67-1,.18-1.37-.53-1.15,1.13l21.23,26.69c2.79,5.03,15.17,7.55,18.95,4.22,1.41-1.24,5.02-10.78,6.02-13.3,6.5-16.38,12.05-33.26,18.34-49.68,2.36-6.17,4.79-12.39,7.46-18.43l12.97-.05,29.87,79.51c3,4.11,7.67,2.6,8.51,3.86v7.81s-2.33.76-2.33.76c-5.02-1.01-29.54,1.37-32.16-.38-1.26-.84-1.06-6.5,0-7.82,1.82-2.27,6.34-.03,8.59-2.33l-6.59-21.21-1.55-.77-28.27.37-6.96,19.35c-.68,5.53,5.04,2.44,8.48,4.33-.12,1.87.75,7.15-.66,8.09l-49.02.23-31.78-40.88c-2.43-1.59-6.76-.36-9.7-.73v28.98c0,.51,2.01,3.12,2.82,3.36,2,.59,6.63-.69,7.65.85l.34,8.54h-37.11l.34-8.54c1.34-2.01,8.52.91,10.1-2.26l.38-69.19c-1.54-4.6-6.89-3.37-10.83-3.47v-8.5h55.28ZM753.46,402.05h-29.77v28.21l1.91,1.18c6.54-.46,13.7.56,20.14,0,5.15-.44,11.51-1.88,14.63-6.24,2.35-3.27,2.68-11.02,1.82-14.89-.17-.77-2.59-4.42-3.16-4.96-.42-.4-5.24-3.23-5.59-3.3ZM817.24,440.69h21.65c-2.52-7.56-5.11-15.15-7.91-22.63-.86-2.29-2.59-4.08-2.15-6.75-.79-1.08-1.39.13-1.7.99-2.89,7.87-6.15,15.78-8.73,23.75-.26.79-1.33,4.48-1.16,4.64Z"/>
  <path class="cls-4" d="M1168.24,402.05c1.28,2.37.03,3.79-.03,5.78-.16,5.32-.48,12.68,0,17.82.56,5.88,2.83,5.4,8.16,5.02,1.6-.11,4.49-.54,6.14-.82,7.42-1.26,5.42-9.41,6.17-14.7l.9-.65c3.32.47,6.69-1.81,9.23.65v41.04c-.7,1.05-7.04,1.02-8.42.61-2.77-.83-1.21-2.62-1.23-4.12-.03-1.97-1.33-4.51-.96-6.82-1.93-5.42-5.7-4.66-10.25-5.21-2.58-.31-5.39-1.54-8.21-.39-.66.47-1.42,4.35-1.52,5.44-.51,5.92-.5,16.53,0,22.45.12,1.4.68,2.73.93,4.09,1.05.5,2.14.84,3.32.94,7.87.65,22.48,0,29.79-2.74,7.94-2.97,11.94-8.69,16.11-15.59.79-1.31,1.7-4.41,2.93-4.79,2.3-.71,7.68.87,8.05,3.37.47,3.22-1.18,4.17-1.97,6.56-2.21,6.69-4.44,15.78-7.46,21.91-.27.55-.43,1.05-1.11,1.21h-76.37s-.9-.65-.9-.65v-7.81c1.23-1.84,8.5.5,10.52-1.97.06-8.22-.19-16.47-.08-24.69.18-12.76,1.78-26.61.88-39.38-.1-1.44-1.06-7.26-1.76-7.97-1.62-1.63-7.52-.67-9.9-.92v-8.5h74.61c1.92,0,3.8,8.49,4.45,10.24,1.37,3.65,4.28,9.18,5.08,12.7.98,4.34-.72,3.31-3.15,4.31-.9.37-1.45,1.18-2.51,1.36-5.13.87-4.02-2.59-5.64-5.96s-10.09-11.82-13.69-11.82h-32.08ZM1194.52,453.83c.5-.61-.26-2.16-.77-1.54s.26,2.16.77,1.54Z"/>
  <path class="cls-4" d="M969.93,483.2c-1.66-.43-1.92-8.63.09-9.19,4.38-1.22,5.71,1.36,8.7-4.44,2.17-4.2,3.42-9.08,5.12-13.43,5.3-13.54,10.5-27.16,15.68-40.74,2.53-6.62,4.63-14.82,7.51-21.09.41-.88,1.08-2.28,1.93-2.71,1.25-.64,11.42-.67,12.42-.02l29.95,79.03c2.33,4.54,8.06,2.5,9.1,4.04v7.81s-1.57.75-1.57.75l-32.4-.1-.9-.64v-7.81c1.63-2.43,9.9,2.52,8.02-5.61-.86-3.73-3.42-10.68-4.87-14.45-.57-1.48-1.39-3.72-3.09-3.87l-27.77-.02c-3.04,7.09-5.98,14.39-7.46,22,1.68,2.13,7.14.35,8.2,1.95l.34,8.54h-28.99ZM1001.24,440.69h21.65l-10.05-30.14-1.52,1.17-10.08,28.97Z"/>
  <path class="cls-4" d="M399.76,483.2l.34-8.54,8.2-1.96c-1.5-7.4-4.43-14.54-6.95-21.62-1.13-.79-24.31-.63-27.53-.37-1,.08-1.51-.04-2.3.79-.63.65-5.82,15.21-6.2,16.98-1.72,7.99,2.84,4.23,8.09,6.29-.12,1.87.75,7.14-.66,8.09l-27.5.36-1.57-.75v-7.81c1.15-1.72,6.08.83,8.33-3.26l30.72-79.81c4.65-.04,12.25-2.44,14.36,2.72,4.32,10.54,8.3,22.41,12.35,33.25,4.72,12.63,8.8,26.99,14.15,39.18.9,2.06,2.16,4.75,4.04,6.01,2,1.33,7.13,1.54,7.62,3.21s.51,6.13-1.07,7.26h-34.4ZM375.79,440.69h21.65l-9.9-26.81c-.53-1.67.86-3.87-1.69-3.33l-10.05,30.14Z"/>
  <path class="cls-4" d="M948.67,395.09c-.21-4.89,4.97-4.26,8.54-3.51,1.38.91,3.32,11.34,4,13.78,1.2,4.3,3.52,9.97,4.31,14.24.94,5.06-2.05,5.6-6.6,6.28-3.6.54-5.13-6.87-6.49-9.41-11.35-21.17-37.03-22.61-49.51-1.81-9.72,16.22-6.75,40.25,8.26,52.31,5.09,4.09,15.86,7.44,22.28,6.04,3.49-.76,8.65-2.61,11.88-4.35,6.27-3.38,10.85-8.68,15.42-14,1.74-.49,7.13,3.95,7.29,5.76-.03,1.82-1.58,3.64-2.74,5.03-34.81,41.65-97.61,10.59-83.53-41.77,7.77-28.87,40.65-42.9,66.88-28.58Z"/>
  <path class="cls-4" d="M507.22,395.09c-.36-4.81,5.71-4.66,8.92-3.12l7.94,28.39-.2,3.35c-.81,1.21-7,2.54-8.16,1.93-2.52-2.5-3.1-6.07-4.77-9.18-12.9-24-42.04-21.28-52.05,3.34-5.83,14.33-3.48,35.53,8.87,46,16.75,14.2,39.08,5.72,50.74-10.37,2.6-.82,7.01,2.28,8.74,4.26.44,2.06-9.07,11.69-11.15,13.43-24.13,20.34-61.81,13.49-73.98-16.47-16.26-40.01,21.48-80.85,62.2-62.96,1.14.5,1.54,1.68,2.88,1.37Z"/>
  <path class="cls-4" d="M1063.09,483.2l.34-8.54c1.34-2.01,8.52.91,10.1-2.26l.39-69.97c-.55-3.86-8.03-2.47-10.84-2.69v-8.5h37.5c1.84,2.48,2.52,8.25-1.51,8.54-6.59.47-8.84-.69-9.65,7.36-1.91,19.05,1.34,40.9-.07,60.25.17,6.7,5.89,6.21,11.26,5.8,14.12-1.09,22.05-6.15,28.85-18.3,1.58-2.83,1.07-5.83,5.77-4.77.59.13,4.68,1.92,4.83,2.13,1.49,2.09-2.26,9.09-3.15,11.64-1.14,3.26-2.35,6.45-3.51,9.63s-1.73,6.99-3.44,9.7h-66.87Z"/>
  <path class="cls-4" d="M560.57,472.38c8.29,1.65,19.39.49,26.82-3.72,7.06-4,11.48-11.16,14.23-18.62,1.43-1.01,7.06,1.66,8.86,2.21l.36,1.17-9.68,27.47-1.65,2.22-65.66-.63v-7.81c1.14-1.7,6.66.05,8.95-1.1,1.71-.86,1.65-3.8,2.25-5.47-.92-19.43,1.4-40.22.09-59.49-.61-9.03-2.82-9.45-11.63-8.85.3-1.95-.74-7.17.73-8.16l35.9-.26.9.64.35,7.77c-3.65.1-7.92-.74-10.83,1.93v70.72Z"/>
  <path class="cls-4" d="M647.86,474.76l-.28,7.7-.9.64-34.72.1c-2.55-.12-2.24-4.65-1.92-6.59.76-4.57,7.59-1.61,10.76-3.54.3-1.89-.14-3.86.04-5.75,1.48-15.03,1.41-33.43.82-48.69-.16-4.15-.27-8.29-.75-12.39-.18-1.51.35-4-.38-5.03-2.02-2.31-9.11-.69-10.14-2.23-.74-1.1-.9-7.12.9-7.68l35.9.26,1.15,7.4c-1.01,1.42-4.48.54-6.19.78-2.52.36-4.66,2.49-5.02,5.02l.32,66.1,1.96,2.68,8.46,1.21Z"/>
  <circle class="cls-1" cx="786.53" cy="197.25" r="132.58"/>
  <g>
    <path class="cls-3" d="M837.64,248c-.5,0-.93-.17-1.23-.49-.33-.35-.49-.84-.46-1.46.07-1.41.84-3.37,1.59-5.27.83-2.09,1.68-4.26,1.46-5.36-.08-.43-.31-.82-1.35-.82-.74,0-1.65.2-2.52.39-.83.18-1.62.36-2.26.36-.24,0-.45-.02-.63-.08-1.01-.28-1.85-1.05-2.49-2.28-2.6-4.96-1.47-16.54-.31-19.89,1.6-4.6,5.95-9.56,10.2-9.56,2.02,0,4.74,1.12,6.23,6.46,2.29,8.15.26,20.82-2.93,29.12-.03.08-3.34,8.02-3.95,8.45-.39.26-.88.41-1.35.41h0ZM839.11,209.15c-2.29.03-3.19.66-3.51,2.43-.6,3.26-1.71,14.63-.33,16.54.04.05.11.13.17.14.22.04.41.05.6.05,1.93,0,3.3-1.68,3.65-3.34.29-1.38.99-8.23.96-9.74-.03-1.09-.43-2.32-.81-3.5-.28-.85-.56-1.73-.72-2.58ZM878.12,247.04c-3.32,0-5.78-2.19-6.59-5.86l-.12-.54.55-.07c.37-.04.77-.06,1.23-.06.63,0,1.29.04,1.95.08.64.04,1.29.08,1.92.08.84,0,1.48-.07,2.02-.23.79-.23,1.49-.88,2.06-1.93,1.31-2.39,1.65-6.39,1.07-8.36-.28-.97-1.17-1.52-2.11-2.09-1.62-.99-3.64-2.22-1.46-6.06.66-1.17,1.28-1.79,1.79-2.3.94-.95,1.46-1.48,1.15-5.25-.22-2.63-.69-3.12-1.48-3.12-.52,0-1.27.22-2.27.67-.08.04-.41.31-.71.55-1.36,1.09-2.55,2-3.32,2-.28,0-.52-.11-.67-.32-.23-.31-.24-.77-.03-1.47,1.47-4.96,6.34-9.15,10.63-9.15,1.58,0,5.3.69,5.55,7.06.07,1.8-.61,3.58-1.22,5.14-.46,1.2-.9,2.34-.91,3.25,0,1.1.52,2.11,1.07,3.17.58,1.12,1.17,2.27,1.32,3.7.64,6.1-.28,14.1-4.78,18.24-1.98,1.82-4.4,2.87-6.64,2.87ZM812.38,241.54c-.71,0-1.3-.05-1.75-.15-1.84-.41-2.91-1.08-3.26-2.05-.54-1.5.77-3.21,2.05-4.85.72-.93,1.47-1.89,1.67-2.61.96-3.44,1.81-15.69-.07-17.51-.45-.43-.95-.49-1.44-.54-.45-.05-.95-.1-1.25-.53-.28-.4-.29-.98-.03-1.96.9-3.51,8.57-7.08,12.33-7.08.15,0,.29,0,.43.02l.4.03.05.4c.25,1.89-.46,3.48-1.15,5.02-.49,1.1-.96,2.13-1.11,3.27-.54,4.14-1.16,13.58-.86,17.64.29,3.98,1.39,4.09,2.36,4.19.49.05,1.04.1,1.39.61.8,1.14.61,2.07.31,2.65-1.23,2.36-6.74,3.46-10.07,3.46ZM858.23,241.4c-1.92,0-3.63-1.23-5.08-3.66-5.43-9.1-1.43-27.29,3.6-35.32.88-1.4,2.14-3.43,3.7-3.43.71,0,1.36.42,1.92,1.23l.17.25-.14.27c-3.73,7.13-5.19,12.26-3.92,13.73.01,0,.03,0,.04,0,.34,0,.84-.28,1.32-.55.88-.49,1.98-1.09,3.16-1.09.53,0,1.03.12,1.49.36,5.23,2.65,3.72,15.44,1.95,20.09-1.49,3.91-4.71,8.12-8.23,8.12,0,0,0,0,0,0ZM860.21,218.36c-1.48,0-2.92,3.22-3.15,4.64-.35,2.12-.22,5.45-.1,8.39.06,1.41.11,2.75.11,3.89,0,.26.66.66,1.65.66.91,0,1.71-.34,2.14-.9,1.04-1.35,1.83-8.61,1.16-13.33-.33-2.3-.86-2.91-1.08-3.07-.25-.19-.49-.27-.73-.27ZM822.04,188.52c-.46,0-.88-.13-1.25-.39-.53-.34-1.74-5.12-1.77-5.35-.66-5.23.91-23.55,7.2-26.76.43-.22.85-.32,1.31-.32.86,0,1.63.4,2.37.78.71.37,1.39.72,2.12.72.06,0,.12,0,.18,0l.12-.45c.38-1.35.73-2.62.63-4.08-.06-.88-.44-1.69-.8-2.48-.53-1.15-1.08-2.33-.68-3.72.64-2.27,4.09-3.3,6.32-3.3.4,0,.77.03,1.09.09l.43.08-.02.43c-.07,1.76-.02,3.56.02,5.31.05,1.94.1,3.94,0,5.91-.14,2.62-.52,5.37-.89,8.02-.69,5-1.4,10.17-.65,15.01.11.66.43,1.22.74,1.76.29.5.56.97.66,1.51.24,1.2-.16,2.5-1.11,3.67-1.29,1.58-3.38,2.64-5.2,2.64h0c-.21,0-.42-.01-.63-.04l-.28-.04-2.22-5.08c-.39.38-.87.89-1.4,1.46-1.9,2.06-4.28,4.62-6.29,4.62ZM830.66,161.49c-.53,0-.98.13-1.24.35-2.85,2.36-3.77,11.5-3.31,15.49.17,1.46.7,2.37,1.38,2.37.47,0,1.06-.39,1.67-1.1,1.7-1.97,4.04-15.22,2.94-16.68-.13-.18-.71-.42-1.45-.42ZM846.36,188.46c-.59,0-1.18-.21-1.73-.61-1.25-.91-1.95-3.09-2.06-6.47-.27-7.99,2.96-21.28,6.75-24.45,1.03-.86,1.95-1.27,2.82-1.27,1.34,0,2.23.96,3.01,1.81.6.65,1.18,1.27,1.8,1.28.51,0,1.02-.49,1.56-1.02.72-.7,1.53-1.49,2.7-1.49.3,0,.61.05.92.16l.35.12-.02.37c-.11,2.42-.47,4.98-.84,7.7-.64,4.61-1.31,9.38-.68,13.42.12.75.42,1.3.71,1.83.55,1,1.12,2.04.18,4.05-1.09,2.37-3.06,3.73-5.4,3.73h0c-.35,0-.72-.03-1.08-.1-.59-.1-.77-.81-1.06-1.89-.26-.97-.64-2.43-1.3-2.74-.48.07-1.33,1.15-2.02,2.02-1.31,1.66-2.79,3.53-4.62,3.53ZM854.52,161.97c-.49,0-.86.05-1.17.14-1.06.33-2.84,4.97-3.64,10.67-.58,4.15-.28,6.42.26,6.77.33.22.65.33.95.33,1.54,0,2.67-3.06,3.21-4.52l.04-.12c1.59-4.34,2.22-8.67,1.94-13.21-.24,0-.48-.02-.73-.03-.29-.01-.58-.03-.86-.03ZM869.7,188.36c-1.35,0-2.33-.62-2.68-1.69-.45-1.38-.31-6.01-.16-9.38.15-3.33.67-6.98,1.17-10.52.58-4.02,1.17-8.17,1.2-11.82.01-1.47-.73-3.11-1.39-4.56-.57-1.25-1.06-2.34-1-3.17.24-3.02,4.12-4.09,7.38-4.09.63,0,1.23.04,1.75.12l.34.05.07.33c.42,1.9.04,3.72-.33,5.49-.2.96-.39,1.88-.44,2.75-.37,6.77-.62,13.89-.77,22.4-.06,3.12.11,3.39.44,3.92.24.39.57.92.94,2.27.61,2.19-.2,3.89-.99,4.93-1.32,1.74-3.59,2.95-5.54,2.95Z"/>
    <path class="cls-2" d="M874.21,143.63c.62,0,1.19.04,1.67.12.61,2.81-.64,5.58-.78,8.1-.41,7.48-.64,14.91-.77,22.42-.09,5.21.44,2.88,1.4,6.34,1.16,4.16-3.18,7.25-6.05,7.25-1.05,0-1.9-.42-2.21-1.35-.48-1.45-.23-7.21-.14-9.2.31-7.09,2.31-15.45,2.38-22.36.03-2.85-2.52-6.11-2.39-7.7.22-2.73,4.04-3.63,6.88-3.63M837.78,143.66c.37,0,.71.03,1,.08-.15,3.72.21,7.49.02,11.21-.4,7.48-2.71,15.6-1.53,23.14.23,1.37,1.21,2.29,1.4,3.29.56,2.8-2.94,5.71-5.82,5.71-.19,0-.37-.01-.56-.04l-2.39-5.45c-1.61,1.21-5.29,6.41-7.87,6.41-.34,0-.67-.09-.96-.3-.23-.14-1.47-4.29-1.56-5.01-.73-5.78,1.21-23.33,6.93-26.25.38-.19.73-.27,1.08-.27,1.52,0,2.82,1.51,4.49,1.51.19,0,.38-.02.57-.06.45-1.69.98-3.19.85-5.01-.16-2.27-2.11-3.92-1.5-6.03.55-1.95,3.66-2.93,5.84-2.93M827.5,180.2c.6,0,1.3-.4,2.05-1.28,1.74-2.01,4.3-15.52,2.96-17.3-.27-.37-1.06-.63-1.85-.63-.58,0-1.17.14-1.56.46-3.11,2.58-3.93,12.07-3.48,15.93.2,1.75.9,2.81,1.88,2.81M852.14,156.16c2.13,0,3.04,3.08,4.81,3.09,1.5,0,2.43-2.5,4.26-2.5.24,0,.49.04.75.14-.29,6.57-2.53,14.76-1.51,21.22.37,2.32,2.24,2.8.93,5.59-.96,2.08-2.72,3.44-4.95,3.44-.32,0-.66-.03-1-.09-.68-.11-.76-4.11-2.35-4.64-.02,0-.04,0-.06,0-1.62,0-3.88,5.56-6.67,5.56-.46,0-.95-.15-1.44-.51-4.43-3.22-.23-26,4.72-30.13,1.01-.84,1.82-1.16,2.5-1.16M850.92,180.38c1.94,0,3.1-3.29,3.72-4.97,1.66-4.54,2.3-9.04,1.93-13.89-.1,0-.2,0-.3,0-.57,0-1.17-.06-1.75-.06-.46,0-.9.04-1.31.16-2.72.85-5.78,16.84-3.51,18.34.44.29.85.41,1.23.41M860.46,199.49c.5,0,1.01.29,1.51,1.02-1.47,2.8-5.99,11.83-3.85,14.29.12.14.27.2.45.2.94,0,2.65-1.66,4.46-1.66.42,0,.84.09,1.26.31,4.87,2.47,3.38,15.06,1.71,19.46-1.44,3.76-4.54,7.79-7.76,7.79-1.58,0-3.19-.97-4.65-3.41-5.2-8.72-1.58-26.54,3.59-34.8.76-1.21,1.97-3.19,3.27-3.19M858.72,236.44c.93,0,1.94-.32,2.54-1.1,1.68-2.17,2.34-15.39-.02-17.11-.35-.26-.7-.37-1.03-.37-1.87,0-3.4,3.57-3.64,5.06-.53,3.17,0,8.8,0,12.36,0,.69,1.01,1.16,2.15,1.16M839.64,204.05c2.36,0,4.52,1.71,5.75,6.1,2.3,8.2.13,20.88-2.92,28.81-.42,1.1-3.4,7.96-3.77,8.22-.29.2-.69.32-1.06.32-.65,0-1.24-.37-1.19-1.42.15-2.88,3.5-8.44,3.05-10.75-.19-.94-.91-1.22-1.85-1.22-1.51,0-3.56.75-4.78.75-.19,0-.35-.02-.5-.06-5.12-1.43-3.9-17.37-2.47-21.53,1.67-4.81,5.95-9.22,9.73-9.22M836.04,228.81c2.07,0,3.71-1.71,4.14-3.73.31-1.48,1-8.33.97-9.86-.06-2.11-1.32-4.45-1.61-6.57-.08,0-.16,0-.24,0-2.23,0-3.76.47-4.19,2.84-.47,2.53-2.13,16.93.26,17.27.23.04.45.06.67.06M883.72,204.1c2.68,0,4.86,1.88,5.05,6.58.12,3.07-2.12,6.13-2.12,8.37,0,2.38,2.11,4.19,2.4,6.93.59,5.67-.2,13.75-4.63,17.82-1.93,1.78-4.21,2.73-6.3,2.73-2.81,0-5.28-1.72-6.1-5.47.37-.04.77-.06,1.17-.06,1.24,0,2.6.16,3.86.16.77,0,1.5-.06,2.16-.25,3.37-.97,4.33-7.99,3.48-10.91-.91-3.12-6.7-2.33-3.61-7.77,1.95-3.43,3.49-1.93,3-7.84-.2-2.39-.61-3.58-1.98-3.58-.61,0-1.41.24-2.47.72-.39.17-2.88,2.5-3.82,2.5-.34,0-.48-.31-.23-1.15,1.47-4.94,6.32-8.79,10.15-8.79M820.62,204.76c.13,0,.26,0,.39.01.41,3.01-1.88,5.27-2.26,8.16-.55,4.2-1.17,13.61-.86,17.74.45,6.19,3.08,3.95,3.84,5.04,2.49,3.54-5.25,5.32-9.35,5.32-.66,0-1.22-.05-1.64-.14-6.83-1.51.05-6.12.83-8.89.9-3.2,1.95-15.92-.2-18-1.46-1.4-3.32.32-2.59-2.55.81-3.14,8.18-6.71,11.85-6.71M874.22,142.63h0c-3.47,0-7.61,1.19-7.88,4.55-.08.96.44,2.1,1.04,3.42.64,1.4,1.36,2.99,1.35,4.35-.03,3.62-.62,7.76-1.2,11.76-.51,3.54-1.03,7.21-1.18,10.57-.24,5.48-.18,8.43.19,9.56.42,1.29,1.58,2.04,3.16,2.04,2.09,0,4.53-1.29,5.93-3.15,1.21-1.6,1.6-3.51,1.07-5.37-.4-1.42-.75-1.99-1-2.4-.27-.44-.42-.68-.37-3.65.15-8.51.39-15.63.77-22.38.05-.84.23-1.73.43-2.68.36-1.73.77-3.69.33-5.7l-.15-.67-.68-.11c-.54-.09-1.17-.13-1.83-.13h0ZM837.78,142.66c-2.23,0-6.05.99-6.81,3.66-.45,1.56.16,2.89.7,4.06.36.78.7,1.52.76,2.31.1,1.37-.23,2.55-.61,3.91,0,.02-.01.05-.02.07-.54-.06-1.1-.35-1.68-.65-.76-.39-1.61-.84-2.6-.84-.52,0-1.04.13-1.53.38-6.49,3.31-8.13,21.95-7.47,27.26,0,.06,1.18,5.19,2.01,5.73.42.3.94.46,1.5.46,2.23,0,4.68-2.65,6.65-4.78.3-.33.6-.64.87-.93l1.82,4.15.22.51.55.08c.23.03.46.05.7.05,1.96,0,4.21-1.13,5.59-2.82,1.05-1.28,1.48-2.74,1.22-4.09-.12-.61-.42-1.14-.71-1.65-.3-.53-.59-1.03-.68-1.6-.74-4.77-.03-9.9.65-14.86.37-2.67.75-5.42.89-8.06.1-1.99.05-4,0-5.95-.04-1.74-.09-3.54-.02-5.28l.03-.86-.85-.16c-.36-.07-.76-.1-1.19-.1h0ZM827.5,179.2c-.32,0-.74-.67-.89-1.92-.47-3.99.51-12.88,3.12-15.05.14-.12.45-.23.92-.23.55,0,.98.16,1.07.25.91,1.6-1.37,14.21-2.94,16.03-.59.69-1.05.93-1.3.93h0ZM852.14,155.16v1s0-1,0-1c-.99,0-2.02.45-3.14,1.39-4,3.33-7.21,16.67-6.93,24.85.12,3.54.88,5.85,2.27,6.86.64.47,1.32.71,2.03.71,2.07,0,3.63-1.98,5.01-3.72.48-.61,1.17-1.49,1.57-1.76.38.41.72,1.7.87,2.3.31,1.18.55,2.11,1.46,2.26.39.07.78.1,1.16.1,2.51,0,4.7-1.5,5.86-4.02,1.05-2.24.38-3.44-.2-4.5-.28-.51-.55-1-.66-1.66-.62-3.96.04-8.69.68-13.27.38-2.73.74-5.31.85-7.75l.03-.74-.7-.25c-.36-.13-.73-.19-1.08-.19-1.36,0-2.3.9-3.04,1.63-.45.43-.91.88-1.21.88-.4,0-.92-.57-1.43-1.12-.81-.88-1.82-1.97-3.38-1.97h0ZM850.92,179.38c-.2,0-.43-.08-.68-.25-.38-.42-.68-3.49.42-8.91.98-4.78,2.28-7.38,2.85-7.63.25-.08.57-.12,1.01-.12.28,0,.56.01.83.03.09,0,.19,0,.28.01.21,4.3-.42,8.42-1.93,12.56l-.04.12c-.42,1.15-1.54,4.2-2.74,4.2h0ZM860.46,198.49h0c-1.83,0-3.19,2.17-4.08,3.6l-.04.07c-5.09,8.14-9.13,26.59-3.6,35.84,1.54,2.59,3.4,3.9,5.5,3.9,3.76,0,7.14-4.37,8.69-8.44.82-2.16,1.7-6.47,1.66-10.82-.03-3.63-.72-8.3-3.86-9.89-.53-.27-1.11-.41-1.72-.41-1.31,0-2.47.64-3.41,1.16-.28.16-.64.35-.88.45-.66-1.35.33-5.74,4.11-12.97l.28-.53-.34-.5c-.66-.96-1.45-1.45-2.33-1.45h0ZM857.57,235.17c0-1.13-.06-2.42-.11-3.8-.12-2.91-.25-6.22.1-8.28.26-1.55,1.67-4.22,2.66-4.23.13,0,.27.06.44.18.02.02.55.43.88,2.74.69,4.85-.18,11.82-1.06,12.96-.34.44-.99.71-1.75.71-.58,0-1-.16-1.15-.27h0ZM839.64,203.05c-3.56,0-8.53,3.7-10.68,9.89-1.21,3.52-2.37,15.12.34,20.29.71,1.35,1.65,2.2,2.8,2.53.23.06.48.09.77.09.69,0,1.5-.18,2.36-.37.85-.19,1.73-.38,2.42-.38.78,0,.83.22.86.42.19.95-.71,3.24-1.44,5.08-.8,2.02-1.55,3.93-1.62,5.42-.05.95.3,1.52.59,1.83.4.42.96.64,1.6.64.56,0,1.16-.18,1.62-.5.83-.57,4.12-8.61,4.15-8.69,3.22-8.38,5.26-21.18,2.94-29.44-1.66-5.94-4.92-6.83-6.71-6.83h0ZM835.64,227.79c-1.05-1.42-.34-11.84.45-16.12.26-1.4.89-1.92,2.62-2.01.17.75.41,1.5.65,2.22.39,1.2.76,2.34.79,3.37.03,1.48-.66,8.26-.95,9.63-.31,1.45-1.5,2.94-3.16,2.94-.13,0-.27,0-.4-.03h0ZM883.72,203.1c-4.49,0-9.57,4.35-11.11,9.51-.16.54-.32,1.33.11,1.91.25.33.64.52,1.08.52.94,0,2.15-.91,3.63-2.11.24-.19.53-.43.64-.5.9-.4,1.59-.61,2.02-.61.32,0,.76,0,.98,2.67.29,3.55-.11,3.96-1.01,4.86-.52.53-1.17,1.18-1.86,2.41-2.42,4.26.02,5.75,1.63,6.74.89.55,1.66,1.02,1.89,1.8.55,1.88.23,5.69-1.03,7.98-.51.93-1.1,1.5-1.76,1.69-.5.14-1.1.21-1.89.21-.6,0-1.26-.04-1.89-.08-.65-.04-1.33-.08-1.98-.08-.48,0-.9.02-1.29.07l-1.1.13.24,1.08c.86,3.91,3.51,6.25,7.08,6.25,2.4,0,4.88-1.06,6.98-3,4.64-4.27,5.59-12.44,4.94-18.66-.16-1.53-.81-2.78-1.38-3.88-.55-1.06-1.02-1.97-1.02-2.94,0-.82.42-1.91.87-3.07.62-1.61,1.33-3.44,1.25-5.34-.19-4.72-2.45-7.54-6.05-7.54h0ZM820.62,203.76h0c-1.96,0-4.82.88-7.47,2.29-1.74.93-4.75,2.84-5.35,5.17-.21.8-.35,1.71.11,2.37.43.62,1.11.69,1.61.75.51.05.83.1,1.14.4.52.5,1.08,2.85.94,7.83-.11,3.88-.6,7.72-1.01,9.18-.17.62-.89,1.54-1.58,2.44-1.36,1.75-2.76,3.56-2.12,5.33.41,1.15,1.6,1.92,3.62,2.37.48.11,1.11.16,1.85.16,2.8,0,9.05-.91,10.52-3.73.36-.7.6-1.82-.35-3.17-.48-.69-1.25-.77-1.75-.82-.81-.08-1.65-.16-1.91-3.73-.29-4.03.32-13.42.86-17.54.14-1.07.59-2.07,1.07-3.13.72-1.61,1.47-3.27,1.19-5.29l-.11-.8-.8-.06c-.15-.01-.3-.02-.46-.02h0Z"/>
  </g>
  <path class="cls-2" d="M428.86,166.59c6.07-13.84,14.54-26.56,24.9-37.56s22.55-20.24,35.98-27.14c14.81-7.61,32.8-13.64,49.28-7.94,13.54,4.68,24.28,16.9,26.89,31.02s-3.25,30.12-14.72,39.25c-9.14,7.27-25.36,10.17-34.27.93-5.52-5.73-5.91-14.47-3.25-21.62,2.88-7.72,9.21-13.69,15.73-18.43,11.03-8.03,23.94-13.22,37.36-15.59,13.49-2.38,27.5-1.91,40.82,1.27s25.97,9.06,36.65,17.6c2.59,2.07,5.05,4.29,7.38,6.65.68.69,1.74-.37,1.06-1.06-9.99-10.08-22.4-17.53-35.82-22.08s-27.99-6.25-42.17-4.94-28.05,5.6-40.22,12.99c-12.77,7.77-27.46,21.14-23.24,37.83,1.63,6.46,6.46,11.35,12.74,13.39s12.85,1.43,18.8-.65c13.77-4.83,22.94-18.75,24.86-32.85,2.03-14.92-4.47-29.62-16.35-38.74-6.04-4.64-13.17-7.52-20.73-8.39-9.18-1.06-18.49.76-27.14,3.79-15.15,5.31-29.22,14.02-41.28,24.56s-21.9,22.79-29.47,36.58c-1.85,3.38-3.55,6.84-5.1,10.37-.38.88.91,1.64,1.3.76h0Z"/>
  <path class="cls-2" d="M689.88,371.62c-4.43-15.36-12.56-29.56-23.43-41.27s-25.36-21.34-41-26.68c-16.66-5.69-34.8-7.03-52.11-3.79-18.71,3.51-35.35,13.27-53.56,18.41-14.79,4.18-32.55,4.87-45.65-4.4-1.59-1.12-3.06-2.4-4.43-3.78-.68-.69-1.74.37-1.06,1.06,10.93,11.02,27.5,12.96,42.19,10.65,18.35-2.89,34.72-12.58,52.35-17.9s35.51-5.62,52.91-1.41c16.55,4.01,31.86,12.22,44.28,23.86,11.74,11,20.89,24.8,26.25,39.97.66,1.87,1.26,3.77,1.82,5.68.27.93,1.71.53,1.45-.4h0Z"/>
  <path class="cls-2" d="M678.34,368.54c4.56.02,8.9,2.12,11.8,5.64.41.49,1.32.09,1.28-.53-.31-4.42.61-8.83,2.71-12.74.46-.85-.84-1.61-1.3-.76-2.22,4.13-3.24,8.82-2.91,13.5l1.28-.53c-3.13-3.81-7.93-6.06-12.86-6.08-.97,0-.97,1.5,0,1.5h0Z"/>
  <path class="cls-2" d="M642.45,138.87c3.96-2.25,8.77-2.59,13.03-.98.61.23,1.2-.58.85-1.1-2.47-3.68-3.87-7.96-4-12.4-.03-.96-1.53-.97-1.5,0,.13,4.68,1.58,9.26,4.2,13.15l.85-1.1c-4.62-1.75-9.9-1.3-14.19,1.13-.84.48-.08,1.77.76,1.3h0Z"/>
  <path class="cls-2" d="M884.98,178.63c-.02,4.56-2.12,8.9-5.64,11.8-.49.41-.09,1.32.53,1.28,4.42-.31,8.83.61,12.74,2.71.85.46,1.61-.84.76-1.3-4.13-2.22-8.82-3.24-13.5-2.91l.53,1.28c3.81-3.13,6.06-7.93,6.08-12.86,0-.97-1.5-.97-1.5,0h0Z"/>
  <path class="cls-2" d="M905.38,310.17c.28-4.92-1.71-9.84-5.32-13.19l-.53,1.28c4.66.62,9.38-.14,13.64-2.1.88-.4.11-1.7-.76-1.3-4.02,1.85-8.5,2.48-12.89,1.9-.66-.09-.97.87-.53,1.28,3.34,3.11,5.14,7.58,4.88,12.13-.05.96,1.45.96,1.5,0h0Z"/>
  <path class="cls-2" d="M903.93,299.65c14.11,12.66,28.49,25.33,44.99,34.83s34.32,15.38,52.94,14.55c15.87-.7,31.41-6.99,42.5-18.53,10.92-11.36,17.76-29.48,10.65-44.61-3.22-6.85-9.79-12.43-17.39-13.56-6.54-.97-12.86,1.58-17.45,6.21s-7.71,11.32-8.9,17.92c-1.29,7.19-.27,14.55,2.23,21.38,5.3,14.47,17.29,26.4,32.15,30.82,15.38,4.57,32.89,1.22,45.41-8.82,12.83-10.28,19.33-26.26,22.72-41.92,4-18.49,3.78-37.59,7.67-56.1.98-4.66,2.23-9.26,3.83-13.75.32-.91-1.12-1.3-1.45-.4-6.28,17.61-6.8,36.46-9.04,54.83-1.92,15.72-5.47,31.98-14.6,45.22-4.43,6.42-10.2,11.88-17.08,15.59s-14.8,5.72-22.67,5.85c-15.61.24-30.2-7.3-39.27-19.97-8.28-11.58-11.89-26.92-6.07-40.35,2.53-5.84,6.82-11.35,12.83-13.86,6.74-2.81,14.33-.96,19.74,3.73,13.08,11.32,9.61,31.57.82,44.37-8.39,12.2-22.12,20.42-36.54,23.27-17.66,3.48-36.08-.48-52.21-7.93s-31.09-19.06-44.79-30.99c-3.35-2.92-6.66-5.87-9.97-8.84-.72-.64-1.78.41-1.06,1.06h0Z"/>
  <path class="cls-2" d="M882.64,191.87c9.59-8.78,23.11-11.37,35.75-10.82,15.19.67,29.74,5.65,44.64,8.15,13.18,2.22,27.42,2.54,39.73-3.38,11.11-5.34,19.13-15.49,24.03-26.58,6.61-14.98,7.7-31.6,8.75-47.73.06-.96-1.44-.96-1.5,0-.95,14.67-1.91,29.68-7.16,43.57-4.32,11.45-11.81,22.25-22.67,28.3-12.21,6.8-26.94,6.65-40.36,4.44-14.69-2.42-28.98-7.24-43.9-8.19-13.53-.87-28.09,1.76-38.37,11.17-.71.65.35,1.71,1.06,1.06h0Z"/>
  <g>
    <path class="cls-2" d="M349.38,187.86l-5.96-14.8h2.32l4.3,11.1,4.3-11.1h2.28l-5.94,14.8h-1.3Z"/>
    <path class="cls-2" d="M357.7,183.22c.48,1.84,1.94,3.02,3.64,3.02,1.3,0,2.52-.68,3.16-1.86h2.08c-.86,2.28-2.94,3.76-5.32,3.76-3.12,0-5.64-2.76-5.64-5.72,0-3.5,2.64-5.94,5.58-5.94,3.26,0,5.74,2.52,5.74,5.7,0,.34,0,.66-.06,1.04h-9.18ZM364.86,181.62c-.16-1.88-1.82-3.24-3.6-3.24s-3.4,1.34-3.56,3.24h7.16Z"/>
    <path class="cls-2" d="M379.58,184.2c-.88,2.5-3,3.94-5.46,3.94-3.18,0-5.68-2.56-5.68-5.72,0-3.34,2.42-5.94,5.66-5.94,2.52,0,4.82,1.58,5.48,3.98h-2.3c-.62-1.3-1.62-2.08-3.12-2.08-2.18,0-3.64,1.66-3.64,3.92s1.5,3.94,3.6,3.94c1.42,0,2.56-.76,3.14-2.04h2.32Z"/>
    <path class="cls-2" d="M392.12,184.2c-.88,2.5-3,3.94-5.46,3.94-3.18,0-5.68-2.56-5.68-5.72,0-3.34,2.42-5.94,5.66-5.94,2.52,0,4.82,1.58,5.48,3.98h-2.3c-.62-1.3-1.62-2.08-3.12-2.08-2.18,0-3.64,1.66-3.64,3.92s1.5,3.94,3.6,3.94c1.42,0,2.56-.76,3.14-2.04h2.32Z"/>
    <path class="cls-2" d="M401.54,187.86v-6.02c0-2.38-.92-3.46-2.76-3.46s-2.92,1.32-2.92,3.48v6h-2.08v-14.8h2.08v4.9h.04c.66-.98,1.72-1.48,3.1-1.48,2.64,0,4.62,1.68,4.62,4.72v6.66h-2.08Z"/>
    <path class="cls-2" d="M406.24,175.5v-2.44h2.08v2.44h-2.08ZM406.24,187.86v-11.08h2.08v11.08h-2.08Z"/>
    <path class="cls-2" d="M416.32,188.14c-3.12,0-5.9-2.66-5.9-5.78,0-3.38,2.66-5.88,6.06-5.88,3.06,0,5.94,2.4,5.9,5.92-.04,2.96-2.52,5.74-6.06,5.74ZM416.38,178.38c-2.08,0-3.88,1.76-3.88,3.92s1.74,3.94,3.84,3.94,3.96-1.72,3.96-3.96-1.74-3.9-3.92-3.9Z"/>
    <path class="cls-2" d="M431.92,183.22c.48,1.84,1.94,3.02,3.64,3.02,1.3,0,2.52-.68,3.16-1.86h2.08c-.86,2.28-2.94,3.76-5.32,3.76-3.12,0-5.64-2.76-5.64-5.72,0-3.5,2.64-5.94,5.58-5.94,3.26,0,5.74,2.52,5.74,5.7,0,.34,0,.66-.06,1.04h-9.18ZM439.08,181.62c-.16-1.88-1.82-3.24-3.6-3.24s-3.4,1.34-3.56,3.24h7.16Z"/>
    <path class="cls-2" d="M449.14,191.56v-14.78h1.9v1.7h.04c.94-1.34,2.36-2,3.94-2,3.3,0,5.74,2.56,5.74,5.98,0,3.12-2.42,5.68-5.6,5.68-1.68,0-3.18-.68-3.9-1.88h-.04v5.3h-2.08ZM458.68,182.34c0-2.02-1.6-3.96-3.82-3.96-2.08,0-3.68,1.86-3.68,3.92s1.6,3.94,3.76,3.94,3.74-1.78,3.74-3.9Z"/>
    <path class="cls-2" d="M468.18,188.14c-3.12,0-5.9-2.66-5.9-5.78,0-3.38,2.66-5.88,6.06-5.88,3.06,0,5.94,2.4,5.9,5.92-.04,2.96-2.52,5.74-6.06,5.74ZM468.24,178.38c-2.08,0-3.88,1.76-3.88,3.92s1.74,3.94,3.84,3.94,3.96-1.72,3.96-3.96-1.74-3.9-3.92-3.9Z"/>
    <path class="cls-2" d="M486.92,184.2c-.88,2.5-3,3.94-5.46,3.94-3.18,0-5.68-2.56-5.68-5.72,0-3.34,2.42-5.94,5.66-5.94,2.52,0,4.82,1.58,5.48,3.98h-2.3c-.62-1.3-1.62-2.08-3.12-2.08-2.18,0-3.64,1.66-3.64,3.92s1.5,3.94,3.6,3.94c1.42,0,2.56-.76,3.14-2.04h2.32Z"/>
    <path class="cls-2" d="M494.22,188.14c-3.12,0-5.9-2.66-5.9-5.78,0-3.38,2.66-5.88,6.06-5.88,3.06,0,5.94,2.4,5.9,5.92-.04,2.96-2.52,5.74-6.06,5.74ZM494.28,178.38c-2.08,0-3.88,1.76-3.88,3.92s1.74,3.94,3.84,3.94,3.96-1.72,3.96-3.96-1.74-3.9-3.92-3.9Z"/>
    <path class="cls-2" d="M366.31,208.2c-.88,2.5-3,3.94-5.46,3.94-3.18,0-5.68-2.56-5.68-5.72,0-3.34,2.42-5.94,5.66-5.94,2.52,0,4.82,1.58,5.48,3.98h-2.3c-.62-1.3-1.62-2.08-3.12-2.08-2.18,0-3.64,1.66-3.64,3.92s1.5,3.94,3.6,3.94c1.42,0,2.56-.76,3.14-2.04h2.32Z"/>
    <path class="cls-2" d="M373.61,212.14c-3.12,0-5.9-2.66-5.9-5.78,0-3.38,2.66-5.88,6.06-5.88,3.06,0,5.94,2.4,5.9,5.92-.04,2.96-2.52,5.74-6.06,5.74ZM373.67,202.38c-2.08,0-3.88,1.76-3.88,3.92s1.74,3.94,3.84,3.94,3.96-1.72,3.96-3.96-1.74-3.9-3.92-3.9Z"/>
    <path class="cls-2" d="M396.47,211.86v-6.2c0-2.1-.88-3.28-2.62-3.28-1.84,0-2.64,1.02-2.64,3.24v6.24h-2.08v-6.44c0-2.18-1.02-3.04-2.52-3.04-1.84,0-2.74,1.08-2.74,3.26v6.22h-2.08v-11.08h1.92v1.2h.04c.9-1.06,1.74-1.5,3.18-1.5s2.88.7,3.44,1.86c.8-1.26,1.9-1.86,3.66-1.86,2.88,0,4.52,1.8,4.52,4.66v6.72h-2.08Z"/>
    <path class="cls-2" d="M408.71,211.86v-1.2h-.04c-.54.94-1.8,1.48-3.26,1.48-2.38,0-4.62-1.28-4.62-5.18v-6.18h2.08v6.02c0,2.32.86,3.44,2.76,3.44s2.9-1.34,2.9-3.48v-5.98h2.08v11.08h-1.9Z"/>
    <path class="cls-2" d="M421.03,211.86v-6.04c0-2.34-.92-3.44-2.76-3.44s-2.92,1.34-2.92,3.42v6.06h-2.08v-11.08h1.94v1.18h.04c.82-1.06,1.96-1.48,3.24-1.48,2.66,0,4.62,1.68,4.62,4.74v6.64h-2.08Z"/>
    <path class="cls-2" d="M425.77,199.5v-2.44h2.08v2.44h-2.08ZM425.77,211.86v-11.08h2.08v11.08h-2.08Z"/>
    <path class="cls-2" d="M441.09,208.2c-.88,2.5-3,3.94-5.46,3.94-3.18,0-5.68-2.56-5.68-5.72,0-3.34,2.42-5.94,5.66-5.94,2.52,0,4.82,1.58,5.48,3.98h-2.3c-.62-1.3-1.62-2.08-3.12-2.08-2.18,0-3.64,1.66-3.64,3.92s1.5,3.94,3.6,3.94c1.42,0,2.56-.76,3.14-2.04h2.32Z"/>
    <path class="cls-2" d="M452.17,211.86v-1.72h-.04c-.78,1.32-2.18,2-3.76,2-3.24,0-5.88-2.44-5.88-5.64,0-3.54,2.54-6.02,5.8-6.02,1.62,0,2.98.6,3.84,1.86h.04v-1.56h2.08v11.08h-2.08ZM452.21,206.34c0-2.16-1.56-3.96-3.86-3.96-2.08,0-3.78,1.78-3.78,3.96s1.7,3.9,3.78,3.9,3.86-1.8,3.86-3.9Z"/>
    <path class="cls-2" d="M457.27,211.86v-9.18h-1.5v-1.9h1.5v-3.72h2.08v3.72h1.82v1.9h-1.82v9.18h-2.08Z"/>
    <path class="cls-2" d="M462.57,199.5v-2.44h2.08v2.44h-2.08ZM462.57,211.86v-11.08h2.08v11.08h-2.08Z"/>
    <path class="cls-2" d="M470.65,211.86l-4.4-11.08h2.22l2.9,7.92h.04l2.84-7.92h2.22l-4.36,11.08h-1.46Z"/>
    <path class="cls-2" d="M482.99,212.14c-3.12,0-5.9-2.66-5.9-5.78,0-3.38,2.66-5.88,6.06-5.88,3.06,0,5.94,2.4,5.9,5.92-.04,2.96-2.52,5.74-6.06,5.74ZM483.05,202.38c-2.08,0-3.88,1.76-3.88,3.92s1.74,3.94,3.84,3.94,3.96-1.72,3.96-3.96-1.74-3.9-3.92-3.9Z"/>
  </g>
  <g>
    <path class="cls-2" d="M372.97,275.29v-12.82h-2.84v-1.98h7.84v1.98h-2.84v12.82h-2.16Z"/>
    <path class="cls-2" d="M378.87,262.92v-2.44h2.08v2.44h-2.08ZM378.87,275.29v-11.08h2.08v11.08h-2.08Z"/>
    <path class="cls-2" d="M384.03,278.99v-14.78h1.9v1.7h.04c.94-1.34,2.36-2,3.94-2,3.3,0,5.74,2.56,5.74,5.98,0,3.12-2.42,5.68-5.6,5.68-1.68,0-3.18-.68-3.9-1.88h-.04v5.3h-2.08ZM393.58,269.77c0-2.02-1.6-3.96-3.82-3.96-2.08,0-3.68,1.86-3.68,3.92s1.6,3.94,3.76,3.94,3.74-1.78,3.74-3.9Z"/>
    <path class="cls-2" d="M403.07,275.57c-3.12,0-5.9-2.66-5.9-5.78,0-3.38,2.66-5.88,6.06-5.88,3.06,0,5.94,2.4,5.9,5.92-.04,2.96-2.52,5.74-6.06,5.74ZM403.13,265.8c-2.08,0-3.88,1.76-3.88,3.92s1.74,3.94,3.84,3.94,3.96-1.72,3.96-3.96-1.74-3.9-3.92-3.9Z"/>
    <path class="cls-2" d="M420.41,273.83c-.86,1.16-2.24,1.74-3.82,1.74-3.18,0-5.92-2.74-5.92-5.74,0-3.34,2.6-5.92,5.94-5.92,1.44,0,2.96.6,3.84,1.58v-1.28h2.08v9.62c0,3.6-2.22,5.82-5.98,5.82-2.54,0-4.54-1.34-5.48-3.5h2.32c.78,1.1,1.82,1.6,3.18,1.6,2.54,0,3.88-1.38,3.88-3.92h-.04ZM420.45,269.75c0-2.6-1.98-3.94-3.9-3.94-2.06,0-3.8,1.78-3.8,3.94s1.76,3.92,3.82,3.92c2.42,0,3.88-2.12,3.88-3.92Z"/>
    <path class="cls-2" d="M425.19,275.29v-11.08h1.94v1h.04c.5-.74,1.36-1.22,2.82-1.3v2.14c-1.8.06-2.72,1.16-2.72,3.02v6.22h-2.08Z"/>
    <path class="cls-2" d="M440.53,275.29v-1.72h-.04c-.78,1.32-2.18,2-3.76,2-3.24,0-5.88-2.44-5.88-5.64,0-3.54,2.54-6.02,5.8-6.02,1.62,0,2.98.6,3.84,1.86h.04v-1.56h2.08v11.08h-2.08ZM440.57,269.77c0-2.16-1.56-3.96-3.86-3.96-2.08,0-3.78,1.78-3.78,3.96s1.7,3.9,3.78,3.9,3.86-1.8,3.86-3.9Z"/>
    <path class="cls-2" d="M450.25,275.29v-9.18h-2.82v9.18h-2.08v-9.18h-.98v-1.9h.98v-.58c0-1.92,1.42-3.14,3.56-3.14h.46v1.9c-1.24,0-1.94.38-1.94,1.32v.5h4.9v11.08h-2.08ZM450.25,262.92v-2.44h2.08v2.44h-2.08Z"/>
    <path class="cls-2" d="M464.11,275.29v-1.72h-.04c-.78,1.32-2.18,2-3.76,2-3.24,0-5.88-2.44-5.88-5.64,0-3.54,2.54-6.02,5.8-6.02,1.62,0,2.98.6,3.84,1.86h.04v-1.56h2.08v11.08h-2.08ZM464.15,269.77c0-2.16-1.56-3.96-3.86-3.96-2.08,0-3.78,1.78-3.78,3.96s1.7,3.9,3.78,3.9,3.86-1.8,3.86-3.9Z"/>
    <path class="cls-2" d="M478.09,275.29l-4.4-11.08h2.22l2.9,7.92h.04l2.84-7.92h2.22l-4.36,11.08h-1.46Z"/>
    <path class="cls-2" d="M486.63,270.65c.48,1.84,1.94,3.02,3.64,3.02,1.3,0,2.52-.68,3.16-1.86h2.08c-.86,2.28-2.94,3.76-5.32,3.76-3.12,0-5.64-2.76-5.64-5.72,0-3.5,2.64-5.94,5.58-5.94,3.26,0,5.74,2.52,5.74,5.7,0,.34,0,.66-.06,1.04h-9.18ZM493.79,269.05c-.16-1.88-1.82-3.24-3.6-3.24s-3.4,1.34-3.56,3.24h7.16Z"/>
    <path class="cls-2" d="M508.51,271.63c-.88,2.5-3,3.94-5.46,3.94-3.18,0-5.68-2.56-5.68-5.72,0-3.34,2.42-5.94,5.66-5.94,2.52,0,4.82,1.58,5.48,3.98h-2.3c-.62-1.3-1.62-2.08-3.12-2.08-2.18,0-3.64,1.66-3.64,3.92s1.5,3.94,3.6,3.94c1.42,0,2.56-.76,3.14-2.04h2.32Z"/>
    <path class="cls-2" d="M521.05,271.63c-.88,2.5-3,3.94-5.46,3.94-3.18,0-5.68-2.56-5.68-5.72,0-3.34,2.42-5.94,5.66-5.94,2.52,0,4.82,1.58,5.48,3.98h-2.3c-.62-1.3-1.62-2.08-3.12-2.08-2.18,0-3.64,1.66-3.64,3.92s1.5,3.94,3.6,3.94c1.42,0,2.56-.76,3.14-2.04h2.32Z"/>
    <path class="cls-2" d="M530.47,275.29v-6.02c0-2.38-.92-3.46-2.76-3.46s-2.92,1.32-2.92,3.48v6h-2.08v-14.8h2.08v4.9h.04c.66-.98,1.72-1.48,3.1-1.48,2.64,0,4.62,1.68,4.62,4.72v6.66h-2.08Z"/>
    <path class="cls-2" d="M535.17,262.92v-2.44h2.08v2.44h-2.08ZM535.17,275.29v-11.08h2.08v11.08h-2.08Z"/>
    <path class="cls-2" d="M549.03,275.29v-1.72h-.04c-.78,1.32-2.18,2-3.76,2-3.24,0-5.88-2.44-5.88-5.64,0-3.54,2.54-6.02,5.8-6.02,1.62,0,2.98.6,3.84,1.86h.04v-1.56h2.08v11.08h-2.08ZM549.07,269.77c0-2.16-1.56-3.96-3.86-3.96-2.08,0-3.78,1.78-3.78,3.96s1.7,3.9,3.78,3.9,3.86-1.8,3.86-3.9Z"/>
    <path class="cls-2" d="M418.17,294.65c.48,1.84,1.94,3.02,3.64,3.02,1.3,0,2.52-.68,3.16-1.86h2.08c-.86,2.28-2.94,3.76-5.32,3.76-3.12,0-5.64-2.76-5.64-5.72,0-3.5,2.64-5.94,5.58-5.94,3.26,0,5.74,2.52,5.74,5.7,0,.34,0,.66-.06,1.04h-9.18ZM425.34,293.05c-.16-1.88-1.82-3.24-3.6-3.24s-3.4,1.34-3.56,3.24h7.16Z"/>
    <path class="cls-2" d="M439.75,291.15c-.1-.8-.56-1.34-1.42-1.34-.8,0-1.3.54-1.3,1.18,0,.94.96,1.22,2.06,1.56,1.56.48,3,1.42,3,3.48s-1.56,3.54-3.72,3.54c-2,0-3.92-1.36-3.92-3.92h2.08c.1,1.34.78,2.02,1.88,2.02.96,0,1.6-.62,1.6-1.52,0-.76-.58-1.26-1.88-1.68-2.72-.86-3.18-2.04-3.18-3.3,0-1.96,1.66-3.26,3.48-3.26s3.34,1.28,3.4,3.24h-2.08Z"/>
    <path class="cls-2" d="M443.87,299.29v-14.8h2.08v14.8h-2.08Z"/>
    <path class="cls-2" d="M450.15,294.65c.48,1.84,1.94,3.02,3.64,3.02,1.3,0,2.52-.68,3.16-1.86h2.08c-.86,2.28-2.94,3.76-5.32,3.76-3.12,0-5.64-2.76-5.64-5.72,0-3.5,2.64-5.94,5.58-5.94,3.26,0,5.74,2.52,5.74,5.7,0,.34,0,.66-.06,1.04h-9.18ZM457.31,293.05c-.16-1.88-1.82-3.24-3.6-3.24s-3.4,1.34-3.56,3.24h7.16Z"/>
    <path class="cls-2" d="M470.64,297.83c-.86,1.16-2.24,1.74-3.82,1.74-3.18,0-5.92-2.74-5.92-5.74,0-3.34,2.6-5.92,5.94-5.92,1.44,0,2.96.6,3.84,1.58v-1.28h2.08v9.62c0,3.6-2.22,5.82-5.98,5.82-2.54,0-4.54-1.34-5.48-3.5h2.32c.78,1.1,1.82,1.6,3.18,1.6,2.54,0,3.88-1.38,3.88-3.92h-.04ZM470.68,293.75c0-2.6-1.98-3.94-3.9-3.94-2.06,0-3.8,1.78-3.8,3.94s1.76,3.92,3.82,3.92c2.42,0,3.88-2.12,3.88-3.92Z"/>
    <path class="cls-2" d="M484.21,299.29v-1.72h-.04c-.78,1.32-2.18,2-3.76,2-3.24,0-5.88-2.44-5.88-5.64,0-3.54,2.54-6.02,5.8-6.02,1.62,0,2.98.6,3.84,1.86h.04v-1.56h2.08v11.08h-2.08ZM484.26,293.77c0-2.16-1.56-3.96-3.86-3.96-2.08,0-3.78,1.78-3.78,3.96s1.7,3.9,3.78,3.9,3.86-1.8,3.86-3.9Z"/>
    <path class="cls-2" d="M489.31,299.29v-9.18h-1.5v-1.9h1.5v-3.72h2.08v3.72h1.82v1.9h-1.82v9.18h-2.08Z"/>
    <path class="cls-2" d="M503.71,299.29v-1.72h-.04c-.78,1.32-2.18,2-3.76,2-3.24,0-5.88-2.44-5.88-5.64,0-3.54,2.54-6.02,5.8-6.02,1.62,0,2.98.6,3.84,1.86h.04v-1.56h2.08v11.08h-2.08ZM503.75,293.77c0-2.16-1.56-3.96-3.86-3.96-2.08,0-3.78,1.78-3.78,3.96s1.7,3.9,3.78,3.9,3.86-1.8,3.86-3.9Z"/>
  </g>
  <g>
    <path class="cls-2" d="M937.37,73.35v-14.8h5.14c4.48,0,7.22,3.54,7.22,7.4,0,4.52-2.86,7.4-7.54,7.4h-4.82ZM942.11,71.37c3.42,0,5.46-2,5.46-5.38s-2.34-5.46-5.36-5.46h-2.68v10.84h2.58Z"/>
    <path class="cls-2" d="M952.05,60.99v-2.44h2.08v2.44h-2.08ZM952.05,73.35v-11.08h2.08v11.08h-2.08Z"/>
    <path class="cls-2" d="M956.81,73.35v-11.08h1.94v1h.04c.5-.74,1.36-1.22,2.82-1.3v2.14c-1.8.06-2.72,1.16-2.72,3.02v6.22h-2.08Z"/>
    <path class="cls-2" d="M964.57,68.71c.48,1.84,1.94,3.02,3.64,3.02,1.3,0,2.52-.68,3.16-1.86h2.08c-.86,2.28-2.94,3.76-5.32,3.76-3.12,0-5.64-2.76-5.64-5.72,0-3.5,2.64-5.94,5.58-5.94,3.26,0,5.74,2.52,5.74,5.7,0,.34,0,.66-.06,1.04h-9.18ZM971.73,67.11c-.16-1.88-1.82-3.24-3.6-3.24s-3.4,1.34-3.56,3.24h7.16Z"/>
    <path class="cls-2" d="M974.61,73.35v-1.62l5.32-7.56h-4.8v-1.9h7.08v2.02l-5.02,7.16h5.44v1.9h-8.02Z"/>
    <path class="cls-2" d="M984.03,60.99v-2.44h2.08v2.44h-2.08ZM984.03,73.35v-11.08h2.08v11.08h-2.08Z"/>
    <path class="cls-2" d="M994.11,73.63c-3.12,0-5.9-2.66-5.9-5.78,0-3.38,2.66-5.88,6.06-5.88,3.06,0,5.94,2.4,5.9,5.92-.04,2.96-2.52,5.74-6.06,5.74ZM994.17,63.87c-2.08,0-3.88,1.76-3.88,3.92s1.74,3.94,3.84,3.94,3.96-1.72,3.96-3.96-1.74-3.9-3.92-3.9Z"/>
    <path class="cls-2" d="M1010.03,73.35v-6.04c0-2.34-.92-3.44-2.76-3.44s-2.92,1.34-2.92,3.42v6.06h-2.08v-11.08h1.94v1.18h.04c.82-1.06,1.96-1.48,3.24-1.48,2.66,0,4.62,1.68,4.62,4.74v6.64h-2.08Z"/>
    <path class="cls-2" d="M1016.29,68.71c.48,1.84,1.94,3.02,3.64,3.02,1.3,0,2.52-.68,3.16-1.86h2.08c-.86,2.28-2.94,3.76-5.32,3.76-3.12,0-5.64-2.76-5.64-5.72,0-3.5,2.64-5.94,5.58-5.94,3.26,0,5.74,2.52,5.74,5.7,0,.34,0,.66-.06,1.04h-9.18ZM1023.45,67.11c-.16-1.88-1.82-3.24-3.6-3.24s-3.4,1.34-3.56,3.24h7.16Z"/>
    <path class="cls-2" d="M1035.03,68.71c.48,1.84,1.94,3.02,3.64,3.02,1.3,0,2.52-.68,3.16-1.86h2.08c-.86,2.28-2.94,3.76-5.32,3.76-3.12,0-5.64-2.76-5.64-5.72,0-3.5,2.64-5.94,5.58-5.94,3.26,0,5.74,2.52,5.74,5.7,0,.34,0,.66-.06,1.04h-9.18ZM1042.19,67.11c-.16-1.88-1.82-3.24-3.6-3.24s-3.4,1.34-3.56,3.24h7.16Z"/>
    <path class="cls-2" d="M1050.71,65.21c-.1-.8-.56-1.34-1.42-1.34-.8,0-1.3.54-1.3,1.18,0,.94.96,1.22,2.06,1.56,1.56.48,3,1.42,3,3.48s-1.56,3.54-3.72,3.54c-2,0-3.92-1.36-3.92-3.92h2.08c.1,1.34.78,2.02,1.88,2.02.96,0,1.6-.62,1.6-1.52,0-.76-.58-1.26-1.88-1.68-2.72-.86-3.18-2.04-3.18-3.3,0-1.96,1.66-3.26,3.48-3.26s3.34,1.28,3.4,3.24h-2.08Z"/>
    <path class="cls-2" d="M1055.37,73.35v-9.18h-1.5v-1.9h1.5v-3.72h2.08v3.72h1.82v1.9h-1.82v9.18h-2.08Z"/>
    <path class="cls-2" d="M1062.19,68.71c.48,1.84,1.94,3.02,3.64,3.02,1.3,0,2.52-.68,3.16-1.86h2.08c-.86,2.28-2.94,3.76-5.32,3.76-3.12,0-5.64-2.76-5.64-5.72,0-3.5,2.64-5.94,5.58-5.94,3.26,0,5.74,2.52,5.74,5.7,0,.34,0,.66-.06,1.04h-9.18ZM1069.35,67.11c-.16-1.88-1.82-3.24-3.6-3.24s-3.4,1.34-3.56,3.24h7.16Z"/>
    <path class="cls-2" d="M1073.75,73.35v-9.18h-1.5v-1.9h1.5v-3.72h2.08v3.72h1.82v1.9h-1.82v9.18h-2.08Z"/>
    <path class="cls-2" d="M1079.05,60.99v-2.44h2.08v2.44h-2.08ZM1079.05,73.35v-11.08h2.08v11.08h-2.08Z"/>
    <path class="cls-2" d="M1094.37,69.69c-.88,2.5-3,3.94-5.46,3.94-3.18,0-5.68-2.56-5.68-5.72,0-3.34,2.42-5.94,5.66-5.94,2.52,0,4.82,1.58,5.48,3.98h-2.3c-.62-1.3-1.62-2.08-3.12-2.08-2.18,0-3.64,1.66-3.64,3.92s1.5,3.94,3.6,3.94c1.42,0,2.56-.76,3.14-2.04h2.32Z"/>
    <path class="cls-2" d="M1105.45,73.35v-1.72h-.04c-.78,1.32-2.18,2-3.76,2-3.24,0-5.88-2.44-5.88-5.64,0-3.54,2.54-6.02,5.8-6.02,1.62,0,2.98.6,3.84,1.86h.04v-1.56h2.08v11.08h-2.08ZM1105.49,67.83c0-2.16-1.56-3.96-3.86-3.96-2.08,0-3.78,1.78-3.78,3.96s1.7,3.9,3.78,3.9,3.86-1.8,3.86-3.9Z"/>
    <path class="cls-2" d="M1117.63,68.71c.48,1.84,1.94,3.02,3.64,3.02,1.3,0,2.52-.68,3.16-1.86h2.08c-.86,2.28-2.94,3.76-5.32,3.76-3.12,0-5.64-2.76-5.64-5.72,0-3.5,2.64-5.94,5.58-5.94,3.26,0,5.74,2.52,5.74,5.7,0,.34,0,.66-.06,1.04h-9.18ZM1124.79,67.11c-.16-1.88-1.82-3.24-3.6-3.24s-3.4,1.34-3.56,3.24h7.16Z"/>
    <path class="cls-2" d="M925.18,93.69c-.88,2.5-3,3.94-5.46,3.94-3.18,0-5.68-2.56-5.68-5.72,0-3.34,2.42-5.94,5.66-5.94,2.52,0,4.82,1.58,5.48,3.98h-2.3c-.62-1.3-1.62-2.08-3.12-2.08-2.18,0-3.64,1.66-3.64,3.92s1.5,3.94,3.6,3.94c1.42,0,2.56-.76,3.14-2.04h2.32Z"/>
    <path class="cls-2" d="M932.48,97.63c-3.12,0-5.9-2.66-5.9-5.78,0-3.38,2.66-5.88,6.06-5.88,3.06,0,5.94,2.4,5.9,5.92-.04,2.96-2.52,5.74-6.06,5.74ZM932.54,87.87c-2.08,0-3.88,1.76-3.88,3.92s1.74,3.94,3.84,3.94,3.96-1.72,3.96-3.96-1.74-3.9-3.92-3.9Z"/>
    <path class="cls-2" d="M955.34,97.35v-6.2c0-2.1-.88-3.28-2.62-3.28-1.84,0-2.64,1.02-2.64,3.24v6.24h-2.08v-6.44c0-2.18-1.02-3.04-2.52-3.04-1.84,0-2.74,1.08-2.74,3.26v6.22h-2.08v-11.08h1.92v1.2h.04c.9-1.06,1.74-1.5,3.18-1.5s2.88.7,3.44,1.86c.8-1.26,1.9-1.86,3.66-1.86,2.88,0,4.52,1.8,4.52,4.66v6.72h-2.08Z"/>
    <path class="cls-2" d="M967.58,97.35v-1.2h-.04c-.54.94-1.8,1.48-3.26,1.48-2.38,0-4.62-1.28-4.62-5.18v-6.18h2.08v6.02c0,2.32.86,3.44,2.76,3.44s2.9-1.34,2.9-3.48v-5.98h2.08v11.08h-1.9Z"/>
    <path class="cls-2" d="M979.9,97.35v-6.04c0-2.34-.92-3.44-2.76-3.44s-2.92,1.34-2.92,3.42v6.06h-2.08v-11.08h1.94v1.18h.04c.82-1.06,1.96-1.48,3.24-1.48,2.66,0,4.62,1.68,4.62,4.74v6.64h-2.08Z"/>
    <path class="cls-2" d="M984.64,84.99v-2.44h2.08v2.44h-2.08ZM984.64,97.35v-11.08h2.08v11.08h-2.08Z"/>
    <path class="cls-2" d="M999.96,93.69c-.88,2.5-3,3.94-5.46,3.94-3.18,0-5.68-2.56-5.68-5.72,0-3.34,2.42-5.94,5.66-5.94,2.52,0,4.82,1.58,5.48,3.98h-2.3c-.62-1.3-1.62-2.08-3.12-2.08-2.18,0-3.64,1.66-3.64,3.92s1.5,3.94,3.6,3.94c1.42,0,2.56-.76,3.14-2.04h2.32Z"/>
    <path class="cls-2" d="M1011.04,97.35v-1.72h-.04c-.78,1.32-2.18,2-3.76,2-3.24,0-5.88-2.44-5.88-5.64,0-3.54,2.54-6.02,5.8-6.02,1.62,0,2.98.6,3.84,1.86h.04v-1.56h2.08v11.08h-2.08ZM1011.08,91.83c0-2.16-1.56-3.96-3.86-3.96-2.08,0-3.78,1.78-3.78,3.96s1.7,3.9,3.78,3.9,3.86-1.8,3.86-3.9Z"/>
    <path class="cls-2" d="M1016.14,97.35v-9.18h-1.5v-1.9h1.5v-3.72h2.08v3.72h1.82v1.9h-1.82v9.18h-2.08Z"/>
    <path class="cls-2" d="M1021.44,84.99v-2.44h2.08v2.44h-2.08ZM1021.44,97.35v-11.08h2.08v11.08h-2.08Z"/>
    <path class="cls-2" d="M1029.52,97.35l-4.4-11.08h2.22l2.9,7.92h.04l2.84-7.92h2.22l-4.36,11.08h-1.46Z"/>
    <path class="cls-2" d="M1045.64,97.35v-1.72h-.04c-.78,1.32-2.18,2-3.76,2-3.24,0-5.88-2.44-5.88-5.64,0-3.54,2.54-6.02,5.8-6.02,1.62,0,2.98.6,3.84,1.86h.04v-1.56h2.08v11.08h-2.08ZM1045.68,91.83c0-2.16-1.56-3.96-3.86-3.96-2.08,0-3.78,1.78-3.78,3.96s1.7,3.9,3.78,3.9,3.86-1.8,3.86-3.9Z"/>
    <path class="cls-2" d="M1056.3,84.99v-2.44h2.08v2.44h-2.08ZM1056.3,97.35v-11.08h2.08v11.08h-2.08Z"/>
    <path class="cls-2" d="M1068.8,97.35v-6.04c0-2.34-.92-3.44-2.76-3.44s-2.92,1.34-2.92,3.42v6.06h-2.08v-11.08h1.94v1.18h.04c.82-1.06,1.96-1.48,3.24-1.48,2.66,0,4.62,1.68,4.62,4.74v6.64h-2.08Z"/>
    <path class="cls-2" d="M1075.06,92.71c.48,1.84,1.94,3.02,3.64,3.02,1.3,0,2.52-.68,3.16-1.86h2.08c-.86,2.28-2.94,3.76-5.32,3.76-3.12,0-5.64-2.76-5.64-5.72,0-3.5,2.64-5.94,5.58-5.94,3.26,0,5.74,2.52,5.74,5.7,0,.34,0,.66-.06,1.04h-9.18ZM1082.22,91.11c-.16-1.88-1.82-3.24-3.6-3.24s-3.4,1.34-3.56,3.24h7.16Z"/>
    <path class="cls-2" d="M1090.74,89.21c-.1-.8-.56-1.34-1.42-1.34-.8,0-1.3.54-1.3,1.18,0,.94.96,1.22,2.06,1.56,1.56.48,3,1.42,3,3.48s-1.56,3.54-3.72,3.54c-2,0-3.92-1.36-3.92-3.92h2.08c.1,1.34.78,2.02,1.88,2.02.96,0,1.6-.62,1.6-1.52,0-.76-.58-1.26-1.88-1.68-2.72-.86-3.18-2.04-3.18-3.3,0-1.96,1.66-3.26,3.48-3.26s3.34,1.28,3.4,3.24h-2.08Z"/>
    <path class="cls-2" d="M1094.86,84.99v-2.44h2.08v2.44h-2.08ZM1094.86,97.35v-11.08h2.08v11.08h-2.08Z"/>
    <path class="cls-2" d="M1103.98,89.21c-.1-.8-.56-1.34-1.42-1.34-.8,0-1.3.54-1.3,1.18,0,.94.96,1.22,2.06,1.56,1.56.48,3,1.42,3,3.48s-1.56,3.54-3.72,3.54c-2,0-3.92-1.36-3.92-3.92h2.08c.1,1.34.78,2.02,1.88,2.02.96,0,1.6-.62,1.6-1.52,0-.76-.58-1.26-1.88-1.68-2.72-.86-3.18-2.04-3.18-3.3,0-1.96,1.66-3.26,3.48-3.26s3.34,1.28,3.4,3.24h-2.08Z"/>
    <path class="cls-2" d="M1108.64,97.35v-9.18h-1.5v-1.9h1.5v-3.72h2.08v3.72h1.82v1.9h-1.82v9.18h-2.08Z"/>
    <path class="cls-2" d="M1115.46,92.71c.48,1.84,1.94,3.02,3.64,3.02,1.3,0,2.52-.68,3.16-1.86h2.08c-.86,2.28-2.94,3.76-5.32,3.76-3.12,0-5.64-2.76-5.64-5.72,0-3.5,2.64-5.94,5.58-5.94,3.26,0,5.74,2.52,5.74,5.7,0,.34,0,.66-.06,1.04h-9.18ZM1122.62,91.11c-.16-1.88-1.82-3.24-3.6-3.24s-3.4,1.34-3.56,3.24h7.16Z"/>
    <path class="cls-2" d="M1134.52,97.35v-6.04c0-2.34-.92-3.44-2.76-3.44s-2.92,1.34-2.92,3.42v6.06h-2.08v-11.08h1.94v1.18h.04c.82-1.06,1.96-1.48,3.24-1.48,2.66,0,4.62,1.68,4.62,4.74v6.64h-2.08Z"/>
    <path class="cls-2" d="M1139.5,97.35v-9.18h-1.5v-1.9h1.5v-3.72h2.08v3.72h1.82v1.9h-1.82v9.18h-2.08Z"/>
    <path class="cls-2" d="M1146.32,92.71c.48,1.84,1.94,3.02,3.64,3.02,1.3,0,2.52-.68,3.16-1.86h2.08c-.86,2.28-2.94,3.76-5.32,3.76-3.12,0-5.64-2.76-5.64-5.72,0-3.5,2.64-5.94,5.58-5.94,3.26,0,5.74,2.52,5.74,5.7,0,.34,0,.66-.06,1.04h-9.18ZM1153.48,91.11c-.16-1.88-1.82-3.24-3.6-3.24s-3.4,1.34-3.56,3.24h7.16Z"/>
  </g>
  <g>
    <path class="cls-2" d="M1050.48,193.77v-14.8h4.3c3.18,0,5.2,1.58,5.2,4.48s-1.98,4.48-5.18,4.48h-2.16v5.84h-2.16ZM1054.78,185.95c1.9,0,3.04-.9,3.04-2.5s-1.18-2.5-3.06-2.5h-2.12v5h2.14Z"/>
    <path class="cls-2" d="M1066.62,194.05c-3.12,0-5.9-2.66-5.9-5.78,0-3.38,2.66-5.88,6.06-5.88,3.06,0,5.94,2.4,5.9,5.92-.04,2.96-2.52,5.74-6.06,5.74ZM1066.68,184.29c-2.08,0-3.88,1.76-3.88,3.92s1.74,3.94,3.84,3.94,3.96-1.72,3.96-3.96-1.74-3.9-3.92-3.9Z"/>
    <path class="cls-2" d="M1085.36,190.11c-.88,2.5-3,3.94-5.46,3.94-3.18,0-5.68-2.56-5.68-5.72,0-3.34,2.42-5.94,5.66-5.94,2.52,0,4.82,1.58,5.48,3.98h-2.3c-.62-1.3-1.62-2.08-3.12-2.08-2.18,0-3.64,1.66-3.64,3.92s1.5,3.94,3.6,3.94c1.42,0,2.56-.76,3.14-2.04h2.32Z"/>
    <path class="cls-2" d="M1092.66,194.05c-3.12,0-5.9-2.66-5.9-5.78,0-3.38,2.66-5.88,6.06-5.88,3.06,0,5.94,2.4,5.9,5.92-.04,2.96-2.52,5.74-6.06,5.74ZM1092.72,184.29c-2.08,0-3.88,1.76-3.88,3.92s1.74,3.94,3.84,3.94,3.96-1.72,3.96-3.96-1.74-3.9-3.92-3.9Z"/>
    <path class="cls-2" d="M1110.06,193.77l-4.4-11.08h2.22l2.9,7.92h.04l2.84-7.92h2.22l-4.36,11.08h-1.46Z"/>
    <path class="cls-2" d="M1118.6,189.13c.48,1.84,1.94,3.02,3.64,3.02,1.3,0,2.52-.68,3.16-1.86h2.08c-.86,2.28-2.94,3.76-5.32,3.76-3.12,0-5.64-2.76-5.64-5.72,0-3.5,2.64-5.94,5.58-5.94,3.26,0,5.74,2.52,5.74,5.7,0,.34,0,.66-.06,1.04h-9.18ZM1125.76,187.53c-.16-1.88-1.82-3.24-3.6-3.24s-3.4,1.34-3.56,3.24h7.16Z"/>
    <path class="cls-2" d="M1129.92,193.77v-11.08h1.94v1h.04c.5-.74,1.36-1.22,2.82-1.3v2.14c-1.8.06-2.72,1.16-2.72,3.02v6.22h-2.08Z"/>
    <path class="cls-2" d="M1141.08,185.63c-.1-.8-.56-1.34-1.42-1.34-.8,0-1.3.54-1.3,1.18,0,.94.96,1.22,2.06,1.56,1.56.48,3,1.42,3,3.48s-1.56,3.54-3.72,3.54c-2,0-3.92-1.36-3.92-3.92h2.08c.1,1.34.78,2.02,1.88,2.02.96,0,1.6-.62,1.6-1.52,0-.76-.58-1.26-1.88-1.68-2.72-.86-3.18-2.04-3.18-3.3,0-1.96,1.66-3.26,3.48-3.26s3.34,1.28,3.4,3.24h-2.08Z"/>
    <path class="cls-2" d="M1154.3,193.77v-1.72h-.04c-.78,1.32-2.18,2-3.76,2-3.24,0-5.88-2.44-5.88-5.64,0-3.54,2.54-6.02,5.8-6.02,1.62,0,2.98.6,3.84,1.86h.04v-1.56h2.08v11.08h-2.08ZM1154.34,188.25c0-2.16-1.56-3.96-3.86-3.96-2.08,0-3.78,1.78-3.78,3.96s1.7,3.9,3.78,3.9,3.86-1.8,3.86-3.9Z"/>
    <path class="cls-2" d="M1159.4,193.77v-9.18h-1.5v-1.9h1.5v-3.72h2.08v3.72h1.82v1.9h-1.82v9.18h-2.08Z"/>
    <path class="cls-2" d="M1164.7,181.41v-2.44h2.08v2.44h-2.08ZM1164.7,193.77v-11.08h2.08v11.08h-2.08Z"/>
    <path class="cls-2" d="M1169.56,193.77v-14.8h2.08v14.8h-2.08Z"/>
    <path class="cls-2" d="M1175.84,189.13c.48,1.84,1.94,3.02,3.64,3.02,1.3,0,2.52-.68,3.16-1.86h2.08c-.86,2.28-2.94,3.76-5.32,3.76-3.12,0-5.64-2.76-5.64-5.72,0-3.5,2.64-5.94,5.58-5.94,3.26,0,5.74,2.52,5.74,5.7,0,.34,0,.66-.06,1.04h-9.18ZM1183,187.53c-.16-1.88-1.82-3.24-3.6-3.24s-3.4,1.34-3.56,3.24h7.16Z"/>
    <path class="cls-2" d="M1194.58,189.13c.48,1.84,1.94,3.02,3.64,3.02,1.3,0,2.52-.68,3.16-1.86h2.08c-.86,2.28-2.94,3.76-5.32,3.76-3.12,0-5.64-2.76-5.64-5.72,0-3.5,2.64-5.94,5.58-5.94,3.26,0,5.74,2.52,5.74,5.7,0,.34,0,.66-.06,1.04h-9.18ZM1201.74,187.53c-.16-1.88-1.82-3.24-3.6-3.24s-3.4,1.34-3.56,3.24h7.16Z"/>
    <path class="cls-2" d="M1052.97,217.77v-6.04c0-2.34-.92-3.44-2.76-3.44s-2.92,1.34-2.92,3.42v6.06h-2.08v-11.08h1.94v1.18h.04c.82-1.06,1.96-1.48,3.24-1.48,2.66,0,4.62,1.68,4.62,4.74v6.64h-2.08Z"/>
    <path class="cls-2" d="M1063.03,218.05c-3.12,0-5.9-2.66-5.9-5.78,0-3.38,2.66-5.88,6.06-5.88,3.06,0,5.94,2.4,5.9,5.92-.04,2.96-2.52,5.74-6.06,5.74ZM1063.09,208.29c-2.08,0-3.88,1.76-3.88,3.92s1.74,3.94,3.84,3.94,3.96-1.72,3.96-3.96-1.74-3.9-3.92-3.9Z"/>
    <path class="cls-2" d="M1078.95,217.77v-6.04c0-2.34-.92-3.44-2.76-3.44s-2.92,1.34-2.92,3.42v6.06h-2.08v-11.08h1.94v1.18h.04c.82-1.06,1.96-1.48,3.24-1.48,2.66,0,4.62,1.68,4.62,4.74v6.64h-2.08Z"/>
    <path class="cls-2" d="M1104.27,217.77v-6.2c0-2.1-.88-3.28-2.62-3.28-1.84,0-2.64,1.02-2.64,3.24v6.24h-2.08v-6.44c0-2.18-1.02-3.04-2.52-3.04-1.84,0-2.74,1.08-2.74,3.26v6.22h-2.08v-11.08h1.92v1.2h.04c.9-1.06,1.74-1.5,3.18-1.5s2.88.7,3.44,1.86c.8-1.26,1.9-1.86,3.66-1.86,2.88,0,4.52,1.8,4.52,4.66v6.72h-2.08Z"/>
    <path class="cls-2" d="M1110.53,213.13c.48,1.84,1.94,3.02,3.64,3.02,1.3,0,2.52-.68,3.16-1.86h2.08c-.86,2.28-2.94,3.76-5.32,3.76-3.12,0-5.64-2.76-5.64-5.72,0-3.5,2.64-5.94,5.58-5.94,3.26,0,5.74,2.52,5.74,5.7,0,.34,0,.66-.06,1.04h-9.18ZM1117.69,211.53c-.16-1.88-1.82-3.24-3.6-3.24s-3.4,1.34-3.56,3.24h7.16Z"/>
    <path class="cls-2" d="M1136.53,217.77v-6.2c0-2.1-.88-3.28-2.62-3.28-1.84,0-2.64,1.02-2.64,3.24v6.24h-2.08v-6.44c0-2.18-1.02-3.04-2.52-3.04-1.84,0-2.74,1.08-2.74,3.26v6.22h-2.08v-11.08h1.92v1.2h.04c.9-1.06,1.74-1.5,3.18-1.5s2.88.7,3.44,1.86c.8-1.26,1.9-1.86,3.66-1.86,2.88,0,4.52,1.8,4.52,4.66v6.72h-2.08Z"/>
    <path class="cls-2" d="M1146.59,218.05c-3.12,0-5.9-2.66-5.9-5.78,0-3.38,2.66-5.88,6.06-5.88,3.06,0,5.94,2.4,5.9,5.92-.04,2.96-2.52,5.74-6.06,5.74ZM1146.65,208.29c-2.08,0-3.88,1.76-3.88,3.92s1.74,3.94,3.84,3.94,3.96-1.72,3.96-3.96-1.74-3.9-3.92-3.9Z"/>
    <path class="cls-2" d="M1154.77,217.77v-11.08h1.94v1h.04c.5-.74,1.36-1.22,2.82-1.3v2.14c-1.8.06-2.72,1.16-2.72,3.02v6.22h-2.08Z"/>
    <path class="cls-2" d="M1170.11,217.77v-1.72h-.04c-.78,1.32-2.18,2-3.76,2-3.24,0-5.88-2.44-5.88-5.64,0-3.54,2.54-6.02,5.8-6.02,1.62,0,2.98.6,3.84,1.86h.04v-1.56h2.08v11.08h-2.08ZM1170.15,212.25c0-2.16-1.56-3.96-3.86-3.96-2.08,0-3.78,1.78-3.78,3.96s1.7,3.9,3.78,3.9,3.86-1.8,3.86-3.9Z"/>
    <path class="cls-2" d="M1174.97,217.77v-14.8h2.08v5.26h.04c.9-1.22,2.3-1.84,3.8-1.84,3.14,0,5.74,2.64,5.74,5.84s-2.44,5.82-5.56,5.82c-1.6,0-3.08-.64-4-1.88h-.04v1.6h-2.06ZM1184.55,212.23c0-2.1-1.66-3.94-3.8-3.94s-3.76,1.8-3.76,3.9,1.66,3.96,3.78,3.96,3.78-1.76,3.78-3.92Z"/>
    <path class="cls-2" d="M1188.73,205.41v-2.44h2.08v2.44h-2.08ZM1188.73,217.77v-11.08h2.08v11.08h-2.08Z"/>
    <path class="cls-2" d="M1193.59,217.77v-14.8h2.08v14.8h-2.08Z"/>
    <path class="cls-2" d="M1199.87,213.13c.48,1.84,1.94,3.02,3.64,3.02,1.3,0,2.52-.68,3.16-1.86h2.08c-.86,2.28-2.94,3.76-5.32,3.76-3.12,0-5.64-2.76-5.64-5.72,0-3.5,2.64-5.94,5.58-5.94,3.26,0,5.74,2.52,5.74,5.7,0,.34,0,.66-.06,1.04h-9.18ZM1207.03,211.53c-.16-1.88-1.82-3.24-3.6-3.24s-3.4,1.34-3.56,3.24h7.16Z"/>
  </g>
</svg>