<?xml version="1.0" encoding="UTF-8"?>
<svg id="Livello_1" xmlns="http://www.w3.org/2000/svg" xmlns:xlink="http://www.w3.org/1999/xlink" version="1.1" viewBox="0 0 1227.1 546.6">
  <!-- Generator: Adobe Illustrator 29.8.4, SVG Export Plug-In . SVG Version: 2.1.1 Build 6)  -->
  <defs>
    <style>
      .st0 {
        fill: #fff;
      }

      .st1 {
        fill: url(#Sfumatura_senza_nome);
      }

      .st2 {
        fill: #d33935;
      }

      .st3 {
        fill: #299b5b;
      }

      .st4 {
        fill: none;
        stroke: #299b5b;
        stroke-miterlimit: 10;
        stroke-width: 4px;
      }
    </style>
    <radialGradient id="Sfumatura_senza_nome" data-name="Sfumatura senza nome" cx="613.5" cy="350.7" fx="613.5" fy="350.7" r="132.6" gradientTransform="translate(0 548) scale(1 -1)" gradientUnits="userSpaceOnUse">
      <stop offset="0" stop-color="#fff"/>
      <stop offset=".4" stop-color="#fff" stop-opacity=".2"/>
      <stop offset="1" stop-color="#000" stop-opacity="0"/>
    </radialGradient>
  </defs>
  <rect x="-173" width="1573.1" height="546.6"/>
  <circle class="st4" cx="613.5" cy="197.2" r="132.6"/>
  <path class="st3" d="M613.5,321.1c68.4,0,123.9-55.5,123.9-123.9s-55.5-123.9-123.9-123.9v247.8Z"/>
  <polygon class="st2" points="613.5 321.1 598.7 271.8 566.1 311.7 571.3 260.5 525.9 284.9 550.3 239.5 499.1 244.7 539 212.1 489.7 197.2 539 182.4 499.1 149.8 550.3 155 525.9 109.6 571.3 134 566.1 82.8 598.7 122.7 613.5 73.3 613.5 321.1"/>
  <path class="st3" d="M579.7,391.2c1.5.1,5,.6,6.8.9,17.7,3,26.3,21.8,16.3,36.9-5.5,8.3-13.1,10-22.4,11.7-1,.2-1.4-.5-1.2,1.1l21.2,26.7c2.8,5,15.2,7.5,19,4.2,1.4-1.2,5-10.8,6-13.3,6.5-16.4,12-33.3,18.3-49.7,2.4-6.2,4.8-12.4,7.5-18.4h13s29.9,79.5,29.9,79.5c3,4.1,7.7,2.6,8.5,3.9v7.8l-2.3.8c-5-1-29.5,1.4-32.2-.4-1.3-.8-1.1-6.5,0-7.8,1.8-2.3,6.3,0,8.6-2.3l-6.6-21.2-1.5-.8-28.3.4-7,19.4c-.7,5.5,5,2.4,8.5,4.3-.1,1.9.8,7.1-.7,8.1l-49,.2-31.8-40.9c-2.4-1.6-6.8-.4-9.7-.7v29c0,.5,2,3.1,2.8,3.4,2,.6,6.6-.7,7.7.9l.3,8.5h-37.1l.3-8.5c1.3-2,8.5.9,10.1-2.3l.4-69.2c-1.5-4.6-6.9-3.4-10.8-3.5v-8.5h55.3,0ZM580.5,402h-29.8v28.2l1.9,1.2c6.5-.5,13.7.6,20.1,0,5.2-.4,11.5-1.9,14.6-6.2,2.3-3.3,2.7-11,1.8-14.9-.2-.8-2.6-4.4-3.2-5-.4-.4-5.2-3.2-5.6-3.3h0ZM644.2,440.7h21.7c-2.5-7.6-5.1-15.1-7.9-22.6-.9-2.3-2.6-4.1-2.2-6.8-.8-1.1-1.4.1-1.7,1-2.9,7.9-6.2,15.8-8.7,23.8-.3.8-1.3,4.5-1.2,4.6h0Z"/>
  <path class="st3" d="M995.2,402c1.3,2.4,0,3.8,0,5.8-.2,5.3-.5,12.7,0,17.8.6,5.9,2.8,5.4,8.2,5,1.6-.1,4.5-.5,6.1-.8,7.4-1.3,5.4-9.4,6.2-14.7l.9-.6c3.3.5,6.7-1.8,9.2.6v41c-.7,1-7,1-8.4.6-2.8-.8-1.2-2.6-1.2-4.1,0-2-1.3-4.5-1-6.8-1.9-5.4-5.7-4.7-10.2-5.2-2.6-.3-5.4-1.5-8.2-.4-.7.5-1.4,4.4-1.5,5.4-.5,5.9-.5,16.5,0,22.5.1,1.4.7,2.7.9,4.1,1.1.5,2.1.8,3.3.9,7.9.6,22.5,0,29.8-2.7,7.9-3,11.9-8.7,16.1-15.6.8-1.3,1.7-4.4,2.9-4.8,2.3-.7,7.7.9,8.1,3.4.5,3.2-1.2,4.2-2,6.6-2.2,6.7-4.4,15.8-7.5,21.9-.3.5-.4,1-1.1,1.2h-76.4l-.9-.6v-7.8c1.2-1.8,8.5.5,10.5-2,0-8.2-.2-16.5,0-24.7.2-12.8,1.8-26.6.9-39.4,0-1.4-1.1-7.3-1.8-8-1.6-1.6-7.5-.7-9.9-.9v-8.5h74.6c1.9,0,3.8,8.5,4.4,10.2,1.4,3.6,4.3,9.2,5.1,12.7,1,4.3-.7,3.3-3.2,4.3-.9.4-1.4,1.2-2.5,1.4-5.1.9-4-2.6-5.6-6s-10.1-11.8-13.7-11.8h-32.1ZM1021.5,453.8c.5-.6-.3-2.2-.8-1.5s.3,2.2.8,1.5Z"/>
  <path class="st3" d="M796.9,483.2c-1.7-.4-1.9-8.6,0-9.2,4.4-1.2,5.7,1.4,8.7-4.4,2.2-4.2,3.4-9.1,5.1-13.4,5.3-13.5,10.5-27.2,15.7-40.7,2.5-6.6,4.6-14.8,7.5-21.1.4-.9,1.1-2.3,1.9-2.7,1.2-.6,11.4-.7,12.4,0l29.9,79c2.3,4.5,8.1,2.5,9.1,4v7.8l-1.6.8h-32.4c0-.1-.9-.7-.9-.7v-7.8c1.6-2.4,9.9,2.5,8-5.6-.9-3.7-3.4-10.7-4.9-14.5-.6-1.5-1.4-3.7-3.1-3.9h-27.8c-3,7.1-6,14.4-7.5,22,1.7,2.1,7.1.4,8.2,2l.3,8.5h-29ZM828.2,440.7h21.7l-10-30.1-1.5,1.2-10.1,29Z"/>
  <path class="st3" d="M226.8,483.2l.3-8.5,8.2-2c-1.5-7.4-4.4-14.5-7-21.6-1.1-.8-24.3-.6-27.5-.4-1,0-1.5,0-2.3.8-.6.6-5.8,15.2-6.2,17-1.7,8,2.8,4.2,8.1,6.3-.1,1.9.8,7.1-.7,8.1l-27.5.4-1.6-.8v-7.8c1.1-1.7,6.1.8,8.3-3.3l30.7-79.8c4.6,0,12.2-2.4,14.4,2.7,4.3,10.5,8.3,22.4,12.4,33.2,4.7,12.6,8.8,27,14.1,39.2.9,2.1,2.2,4.8,4,6,2,1.3,7.1,1.5,7.6,3.2s.5,6.1-1.1,7.3h-34.4ZM202.8,440.7h21.6l-9.9-26.8c-.5-1.7.9-3.9-1.7-3.3l-10,30.1h0Z"/>
  <path class="st3" d="M775.7,395.1c-.2-4.9,5-4.3,8.5-3.5,1.4.9,3.3,11.3,4,13.8,1.2,4.3,3.5,10,4.3,14.2.9,5.1-2,5.6-6.6,6.3-3.6.5-5.1-6.9-6.5-9.4-11.3-21.2-37-22.6-49.5-1.8-9.7,16.2-6.8,40.2,8.3,52.3,5.1,4.1,15.9,7.4,22.3,6,3.5-.8,8.7-2.6,11.9-4.4,6.3-3.4,10.8-8.7,15.4-14,1.7-.5,7.1,4,7.3,5.8,0,1.8-1.6,3.6-2.7,5-34.8,41.6-97.6,10.6-83.5-41.8,7.8-28.9,40.7-42.9,66.9-28.6h0Z"/>
  <path class="st3" d="M334.2,395.1c-.4-4.8,5.7-4.7,8.9-3.1l7.9,28.4-.2,3.4c-.8,1.2-7,2.5-8.2,1.9-2.5-2.5-3.1-6.1-4.8-9.2-12.9-24-42-21.3-52,3.3-5.8,14.3-3.5,35.5,8.9,46,16.8,14.2,39.1,5.7,50.7-10.4,2.6-.8,7,2.3,8.7,4.3.4,2.1-9.1,11.7-11.2,13.4-24.1,20.3-61.8,13.5-74-16.5-16.3-40,21.5-80.9,62.2-63,1.1.5,1.5,1.7,2.9,1.4h0Z"/>
  <path class="st3" d="M890.1,483.2l.3-8.5c1.3-2,8.5.9,10.1-2.3l.4-70c-.6-3.9-8-2.5-10.8-2.7v-8.5h37.5c1.8,2.5,2.5,8.2-1.5,8.5-6.6.5-8.8-.7-9.7,7.4-1.9,19,1.3,40.9,0,60.2.2,6.7,5.9,6.2,11.3,5.8,14.1-1.1,22.1-6.1,28.8-18.3,1.6-2.8,1.1-5.8,5.8-4.8.6.1,4.7,1.9,4.8,2.1,1.5,2.1-2.3,9.1-3.2,11.6-1.1,3.3-2.3,6.5-3.5,9.6s-1.7,7-3.4,9.7h-66.9Z"/>
  <path class="st3" d="M387.6,472.4c8.3,1.6,19.4.5,26.8-3.7,7.1-4,11.5-11.2,14.2-18.6,1.4-1,7.1,1.7,8.9,2.2l.4,1.2-9.7,27.5-1.7,2.2-65.7-.6v-7.8c1.1-1.7,6.7,0,9-1.1,1.7-.9,1.7-3.8,2.2-5.5-.9-19.4,1.4-40.2,0-59.5-.6-9-2.8-9.5-11.6-8.9.3-2-.7-7.2.7-8.2l35.9-.3.9.6.3,7.8c-3.7.1-7.9-.7-10.8,1.9v70.7h0Z"/>
  <path class="st3" d="M474.9,474.8l-.3,7.7-.9.6h-34.7c-2.5,0-2.2-4.5-1.9-6.5.8-4.6,7.6-1.6,10.8-3.5.3-1.9-.1-3.9,0-5.8,1.5-15,1.4-33.4.8-48.7-.2-4.1-.3-8.3-.8-12.4-.2-1.5.3-4-.4-5-2-2.3-9.1-.7-10.1-2.2-.7-1.1-.9-7.1.9-7.7l35.9.3,1.2,7.4c-1,1.4-4.5.5-6.2.8-2.5.4-4.7,2.5-5,5l.3,66.1,2,2.7,8.5,1.2h0Z"/>
  <circle class="st1" cx="613.5" cy="197.3" r="132.6"/>
  <g>
    <path class="st2" d="M664.6,248c-.5,0-.9-.2-1.2-.5-.3-.4-.5-.8-.5-1.5,0-1.4.8-3.4,1.6-5.3.8-2.1,1.7-4.3,1.5-5.4,0-.4-.3-.8-1.3-.8s-1.7.2-2.5.4c-.8.2-1.6.4-2.3.4s-.5,0-.6,0c-1-.3-1.8-1.1-2.5-2.3-2.6-5-1.5-16.5-.3-19.9,1.6-4.6,6-9.6,10.2-9.6s4.7,1.1,6.2,6.5c2.3,8.1.3,20.8-2.9,29.1,0,0-3.3,8-4,8.4-.4.3-.9.4-1.3.4h0ZM666.1,209.1c-2.3,0-3.2.7-3.5,2.4-.6,3.3-1.7,14.6-.3,16.5,0,0,.1.1.2.1.2,0,.4,0,.6,0,1.9,0,3.3-1.7,3.7-3.3.3-1.4,1-8.2,1-9.7,0-1.1-.4-2.3-.8-3.5-.3-.9-.6-1.7-.7-2.6h0ZM705.1,247c-3.3,0-5.8-2.2-6.6-5.9v-.5c-.1,0,.4,0,.4,0,.4,0,.8,0,1.2,0s1.3,0,2,0c.6,0,1.3,0,1.9,0s1.5,0,2-.2c.8-.2,1.5-.9,2.1-1.9,1.3-2.4,1.7-6.4,1.1-8.4-.3-1-1.2-1.5-2.1-2.1-1.6-1-3.6-2.2-1.5-6.1.7-1.2,1.3-1.8,1.8-2.3.9-.9,1.5-1.5,1.2-5.2-.2-2.6-.7-3.1-1.5-3.1s-1.3.2-2.3.7c0,0-.4.3-.7.6-1.4,1.1-2.5,2-3.3,2s-.5-.1-.7-.3c-.2-.3-.2-.8,0-1.5,1.5-5,6.3-9.1,10.6-9.1s5.3.7,5.5,7.1c0,1.8-.6,3.6-1.2,5.1-.5,1.2-.9,2.3-.9,3.2,0,1.1.5,2.1,1.1,3.2.6,1.1,1.2,2.3,1.3,3.7.6,6.1-.3,14.1-4.8,18.2-2,1.8-4.4,2.9-6.6,2.9h0ZM639.4,241.5c-.7,0-1.3,0-1.8-.1-1.8-.4-2.9-1.1-3.3-2.1-.5-1.5.8-3.2,2-4.9.7-.9,1.5-1.9,1.7-2.6,1-3.4,1.8-15.7,0-17.5-.5-.4-1-.5-1.4-.5-.5,0-1-.1-1.2-.5-.3-.4-.3-1,0-2,.9-3.5,8.6-7.1,12.3-7.1s.3,0,.4,0h.4s0,.4,0,.4c.2,1.9-.5,3.5-1.2,5-.5,1.1-1,2.1-1.1,3.3-.5,4.1-1.2,13.6-.9,17.6.3,4,1.4,4.1,2.4,4.2.5,0,1,.1,1.4.6.8,1.1.6,2.1.3,2.6-1.2,2.4-6.7,3.5-10.1,3.5h0ZM685.2,241.4c-1.9,0-3.6-1.2-5.1-3.7-5.4-9.1-1.4-27.3,3.6-35.3.9-1.4,2.1-3.4,3.7-3.4s1.4.4,1.9,1.2l.2.2v.3c-3.9,7.1-5.3,12.3-4.1,13.7h0c.3,0,.8-.3,1.3-.6.9-.5,2-1.1,3.2-1.1s1,.1,1.5.4c5.2,2.6,3.7,15.4,2,20.1-1.5,3.9-4.7,8.1-8.2,8.1h0ZM687.2,218.4c-1.5,0-2.9,3.2-3.2,4.6-.3,2.1-.2,5.4,0,8.4,0,1.4.1,2.8.1,3.9s.7.7,1.7.7,1.7-.3,2.1-.9c1-1.4,1.8-8.6,1.2-13.3-.3-2.3-.9-2.9-1.1-3.1-.2-.2-.5-.3-.7-.3h0ZM649,188.5c-.5,0-.9-.1-1.2-.4-.5-.3-1.7-5.1-1.8-5.4-.7-5.2.9-23.6,7.2-26.8.4-.2.8-.3,1.3-.3.9,0,1.6.4,2.4.8.7.4,1.4.7,2.1.7h.2v-.4c.5-1.4.8-2.6.8-4.1,0-.9-.4-1.7-.8-2.5-.5-1.1-1.1-2.3-.7-3.7.6-2.3,4.1-3.3,6.3-3.3s.8,0,1.1,0h.4c0,0,0,.5,0,.5,0,1.8,0,3.6,0,5.3,0,1.9,0,3.9,0,5.9-.1,2.6-.5,5.4-.9,8-.7,5-1.4,10.2-.7,15,.1.7.4,1.2.7,1.8.3.5.6,1,.7,1.5.2,1.2-.2,2.5-1.1,3.7-1.3,1.6-3.4,2.6-5.2,2.6h0c-.2,0-.4,0-.6,0h-.3s-2.2-5.1-2.2-5.1c-.4.4-.9.9-1.4,1.5-1.9,2.1-4.3,4.6-6.3,4.6h0ZM657.7,161.5c-.5,0-1,.1-1.2.4-2.8,2.4-3.8,11.5-3.3,15.5.2,1.5.7,2.4,1.4,2.4s1.1-.4,1.7-1.1c1.7-2,4-15.2,2.9-16.7-.1-.2-.7-.4-1.5-.4h0ZM673.4,188.5c-.6,0-1.2-.2-1.7-.6-1.2-.9-2-3.1-2.1-6.5-.3-8,3-21.3,6.8-24.4,1-.9,2-1.3,2.8-1.3,1.3,0,2.2,1,3,1.8.6.6,1.2,1.3,1.8,1.3.5,0,1-.5,1.6-1,.7-.7,1.5-1.5,2.7-1.5s.6,0,.9.2h.3c0,.1,0,.5,0,.5-.1,2.4-.5,5-.8,7.7-.6,4.6-1.3,9.4-.7,13.4.1.8.4,1.3.7,1.8.5,1,1.1,2,.2,4.1-1.1,2.4-3.1,3.7-5.4,3.7h0c-.3,0-.7,0-1.1-.1-.6-.1-.8-.8-1.1-1.9-.3-1-.6-2.4-1.3-2.7-.5,0-1.3,1.1-2,2-1.3,1.7-2.8,3.5-4.6,3.5h0ZM681.5,162c-.5,0-.9,0-1.2.1-1.1.3-2.8,5-3.6,10.7-.6,4.1-.3,6.4.3,6.8.3.2.7.3,1,.3,1.5,0,2.7-3.1,3.2-4.5h0c1.6-4.5,2.2-8.8,1.9-13.3-.2,0-.5,0-.7,0-.3,0-.6,0-.9,0h0ZM696.7,188.4c-1.3,0-2.3-.6-2.7-1.7-.5-1.4-.3-6-.2-9.4.2-3.3.7-7,1.2-10.5.6-4,1.2-8.2,1.2-11.8,0-1.5-.7-3.1-1.4-4.6-.6-1.2-1.1-2.3-1-3.2.2-3,4.1-4.1,7.4-4.1s1.2,0,1.8.1h.3c0,0,0,.4,0,.4.4,1.9,0,3.7-.3,5.5-.2,1-.4,1.9-.4,2.8-.4,6.8-.6,13.9-.8,22.4,0,3.1.1,3.4.4,3.9.2.4.6.9.9,2.3.6,2.2-.2,3.9-1,4.9-1.3,1.7-3.6,2.9-5.5,2.9h0Z"/>
    <path class="st0" d="M701.2,143.6c.6,0,1.2,0,1.7.1.6,2.8-.6,5.6-.8,8.1-.4,7.5-.6,14.9-.8,22.4,0,5.2.4,2.9,1.4,6.3,1.2,4.2-3.2,7.2-6,7.2s-1.9-.4-2.2-1.4c-.5-1.4-.2-7.2-.1-9.2.3-7.1,2.3-15.4,2.4-22.4,0-2.9-2.5-6.1-2.4-7.7.2-2.7,4-3.6,6.9-3.6M664.8,143.7c.4,0,.7,0,1,0-.2,3.7.2,7.5,0,11.2-.4,7.5-2.7,15.6-1.5,23.1.2,1.4,1.2,2.3,1.4,3.3.6,2.8-2.9,5.7-5.8,5.7s-.4,0-.6,0l-2.4-5.4c-1.6,1.2-5.3,6.4-7.9,6.4s-.7,0-1-.3c-.2-.1-1.5-4.3-1.6-5-.7-5.8,1.2-23.3,6.9-26.2.4-.2.7-.3,1.1-.3,1.5,0,2.8,1.5,4.5,1.5s.4,0,.6,0c.5-1.7,1-3.2.8-5-.2-2.3-2.1-3.9-1.5-6,.5-1.9,3.7-2.9,5.8-2.9M654.5,180.2c.6,0,1.3-.4,2-1.3,1.7-2,4.3-15.5,3-17.3-.3-.4-1.1-.6-1.8-.6s-1.2.1-1.6.5c-3.1,2.6-3.9,12.1-3.5,15.9.2,1.8.9,2.8,1.9,2.8M679.1,156.2c2.1,0,3,3.1,4.8,3.1,1.5,0,2.4-2.5,4.3-2.5s.5,0,.8.1c-.3,6.6-2.5,14.8-1.5,21.2.4,2.3,2.2,2.8.9,5.6-1,2.1-2.7,3.4-5,3.4s-.7,0-1,0c-.7-.1-.8-4.1-2.3-4.6h0c-1.6,0-3.9,5.6-6.7,5.6s-1-.1-1.4-.5c-4.4-3.2-.2-26,4.7-30.1,1-.8,1.8-1.2,2.5-1.2M677.9,180.4c1.9,0,3.1-3.3,3.7-5,1.7-4.5,2.3-9,1.9-13.9h-.3c-.6,0-1.2,0-1.8,0s-.9,0-1.3.2c-2.7.9-5.8,16.8-3.5,18.3.4.3.8.4,1.2.4M687.5,199.5c.5,0,1,.3,1.5,1-1.5,2.8-6,11.8-3.8,14.3.1.1.3.2.5.2.9,0,2.7-1.7,4.5-1.7s.8,0,1.3.3c4.9,2.5,3.4,15.1,1.7,19.5-1.4,3.8-4.5,7.8-7.8,7.8s-3.2-1-4.7-3.4c-5.2-8.7-1.6-26.5,3.6-34.8.8-1.2,2-3.2,3.3-3.2M685.7,236.4c.9,0,1.9-.3,2.5-1.1,1.7-2.2,2.3-15.4,0-17.1-.3-.3-.7-.4-1-.4-1.9,0-3.4,3.6-3.6,5.1-.5,3.2,0,8.8,0,12.4s1,1.2,2.2,1.2M666.6,204.1c2.4,0,4.5,1.7,5.8,6.1,2.3,8.2.1,20.9-2.9,28.8-.4,1.1-3.4,8-3.8,8.2-.3.2-.7.3-1.1.3-.7,0-1.2-.4-1.2-1.4.2-2.9,3.5-8.4,3-10.8-.2-.9-.9-1.2-1.8-1.2-1.5,0-3.6.8-4.8.8s-.3,0-.5,0c-5.1-1.4-3.9-17.4-2.5-21.5,1.7-4.8,6-9.2,9.7-9.2M663,228.8c2.1,0,3.7-1.7,4.1-3.7.3-1.5,1-8.3,1-9.9,0-2.1-1.3-4.4-1.6-6.6h-.2c-2.2,0-3.8.5-4.2,2.8-.5,2.5-2.1,16.9.3,17.3.2,0,.5,0,.7,0M710.7,204.1c2.7,0,4.9,1.9,5,6.6.1,3.1-2.1,6.1-2.1,8.4s2.1,4.2,2.4,6.9c.6,5.7-.2,13.8-4.6,17.8-1.9,1.8-4.2,2.7-6.3,2.7s-5.3-1.7-6.1-5.5c.4,0,.8,0,1.2,0,1.2,0,2.6.2,3.9.2s1.5,0,2.2-.2c3.4-1,4.3-8,3.5-10.9-.9-3.1-6.7-2.3-3.6-7.8,2-3.4,3.5-1.9,3-7.8-.2-2.4-.6-3.6-2-3.6s-1.4.2-2.5.7c-.4.2-2.9,2.5-3.8,2.5s-.5-.3-.2-1.1c1.5-4.9,6.3-8.8,10.2-8.8M647.6,204.8c.1,0,.3,0,.4,0,.4,3-1.9,5.3-2.3,8.2-.5,4.2-1.2,13.6-.9,17.7.5,6.2,3.1,3.9,3.8,5,2.5,3.5-5.2,5.3-9.3,5.3s-1.2,0-1.6-.1c-6.8-1.5,0-6.1.8-8.9.9-3.2,2-15.9-.2-18-1.5-1.4-3.3.3-2.6-2.6.8-3.1,8.2-6.7,11.8-6.7M701.2,142.6h0c-3.5,0-7.6,1.2-7.9,4.6,0,1,.4,2.1,1,3.4.6,1.4,1.4,3,1.3,4.4,0,3.6-.6,7.8-1.2,11.8-.5,3.5-1,7.2-1.2,10.6-.2,5.5-.2,8.4.2,9.6.4,1.3,1.6,2,3.2,2s4.5-1.3,5.9-3.1c1.2-1.6,1.6-3.5,1.1-5.4-.4-1.4-.8-2-1-2.4-.3-.4-.4-.7-.4-3.6.2-8.5.4-15.6.8-22.4,0-.8.2-1.7.4-2.7.4-1.7.8-3.7.3-5.7l-.2-.7h-.7c-.5-.2-1.2-.2-1.8-.2h0ZM664.8,142.7c-2.2,0-6,1-6.8,3.7-.5,1.6.2,2.9.7,4.1.4.8.7,1.5.8,2.3,0,1.4-.2,2.6-.6,3.9,0,0,0,0,0,0-.5,0-1.1-.4-1.7-.6-.8-.4-1.6-.8-2.6-.8s-1,.1-1.5.4c-6.5,3.3-8.1,21.9-7.5,27.3,0,0,1.2,5.2,2,5.7.4.3.9.5,1.5.5,2.2,0,4.7-2.6,6.7-4.8.3-.3.6-.6.9-.9l1.8,4.1.2.5h.5c.2.1.5.1.7.1,2,0,4.2-1.1,5.6-2.8,1-1.3,1.5-2.7,1.2-4.1-.1-.6-.4-1.1-.7-1.6-.3-.5-.6-1-.7-1.6-.7-4.8,0-9.9.7-14.9.4-2.7.8-5.4.9-8.1,0-2,0-4,0-5.9,0-1.7,0-3.5,0-5.3v-.9s-.8-.2-.8-.2c-.4,0-.8-.1-1.2-.1h0ZM654.5,179.2c-.3,0-.7-.7-.9-1.9-.5-4,.5-12.9,3.1-15.1.1-.1.5-.2.9-.2s1,.2,1.1.2c.9,1.6-1.4,14.2-2.9,16-.6.7-1,.9-1.3.9h0ZM679.1,155.2v1-1c-1,0-2,.4-3.1,1.4-4,3.3-7.2,16.7-6.9,24.9.1,3.5.9,5.9,2.3,6.9.6.5,1.3.7,2,.7,2.1,0,3.6-2,5-3.7.5-.6,1.2-1.5,1.6-1.8.4.4.7,1.7.9,2.3.3,1.2.5,2.1,1.5,2.3.4,0,.8.1,1.2.1,2.5,0,4.7-1.5,5.9-4,1-2.2.4-3.4-.2-4.5-.3-.5-.5-1-.7-1.7-.6-4,0-8.7.7-13.3.4-2.7.7-5.3.8-7.8v-.7s-.7-.2-.7-.2c-.4-.1-.7-.2-1.1-.2-1.4,0-2.3.9-3,1.6-.5.4-.9.9-1.2.9s-.9-.6-1.4-1.1c-.8-.9-1.8-2-3.4-2h0ZM677.9,179.4c-.2,0-.4,0-.7-.2-.4-.4-.7-3.5.4-8.9,1-4.8,2.3-7.4,2.8-7.6.2,0,.6-.1,1-.1s.6,0,.8,0c0,0,.2,0,.3,0,.2,4.3-.4,8.4-1.9,12.6h0c-.4,1.3-1.5,4.3-2.7,4.3h0ZM687.5,198.5h0c-1.8,0-3.2,2.2-4.1,3.6h0c-5.1,8.2-9.1,26.7-3.6,35.9,1.5,2.6,3.4,3.9,5.5,3.9,3.8,0,7.1-4.4,8.7-8.4.8-2.2,1.7-6.5,1.7-10.8,0-3.6-.7-8.3-3.9-9.9-.5-.3-1.1-.4-1.7-.4-1.3,0-2.5.6-3.4,1.2-.3.2-.6.4-.9.4-.7-1.4.3-5.7,4.1-13l.3-.5-.3-.5c-.7-1-1.5-1.4-2.3-1.4h0ZM684.6,235.2c0-1.1,0-2.4-.1-3.8-.1-2.9-.2-6.2,0-8.3.3-1.6,1.7-4.2,2.7-4.2.1,0,.3,0,.4.2,0,0,.5.4.9,2.7.7,4.9-.2,11.8-1.1,13-.3.4-1,.7-1.8.7s-1-.2-1.2-.3h0ZM666.6,203.1c-3.6,0-8.5,3.7-10.7,9.9-1.2,3.5-2.4,15.1.3,20.3.7,1.4,1.7,2.2,2.8,2.5.2,0,.5,0,.8,0,.7,0,1.5-.2,2.4-.4.8-.2,1.7-.4,2.4-.4s.8.2.9.4c.2.9-.7,3.2-1.4,5.1-.8,2-1.5,3.9-1.6,5.4,0,.9.3,1.5.6,1.8.4.4,1,.6,1.6.6s1.2-.2,1.6-.5c.8-.6,4.1-8.6,4.2-8.7,3.2-8.4,5.3-21.2,2.9-29.4-1.7-5.9-4.9-6.8-6.7-6.8h0ZM662.6,227.8c-1-1.4-.3-11.8.5-16.1.3-1.4.9-1.9,2.6-2,.2.8.4,1.5.7,2.2.4,1.2.8,2.3.8,3.4,0,1.5-.7,8.3-1,9.6-.3,1.4-1.5,2.9-3.2,2.9s-.3,0-.4,0h0ZM710.7,203.1c-4.5,0-9.6,4.4-11.1,9.5-.2.5-.3,1.3.1,1.9.2.3.6.5,1.1.5.9,0,2.2-.9,3.6-2.1.2-.2.5-.4.6-.5.9-.4,1.6-.6,2-.6s.8,0,1,2.7c.3,3.6-.1,4-1,4.9-.5.5-1.2,1.2-1.9,2.4-2.4,4.3,0,5.8,1.6,6.7.9.6,1.7,1,1.9,1.8.5,1.9.2,5.7-1,8-.5.9-1.1,1.5-1.8,1.7-.5.1-1.1.2-1.9.2s-1.3,0-1.9,0c-.7,0-1.3,0-2,0s-.9,0-1.3,0h-1.1c0,.1.2,1.2.2,1.2.9,3.9,3.5,6.2,7.1,6.2s4.9-1.1,7-3c4.6-4.3,5.6-12.4,4.9-18.7-.2-1.5-.8-2.8-1.4-3.9-.5-1.1-1-2-1-2.9s.4-1.9.9-3.1c.6-1.6,1.3-3.4,1.2-5.3-.2-4.7-2.5-7.5-6-7.5h0ZM647.6,203.8h0c-2,0-4.8.9-7.5,2.3-1.7.9-4.8,2.8-5.3,5.2-.2.8-.3,1.7.1,2.4.4.6,1.1.7,1.6.8.5,0,.8.1,1.1.4.5.5,1.1,2.9.9,7.8-.1,3.9-.6,7.7-1,9.2-.2.6-.9,1.5-1.6,2.4-1.4,1.8-2.8,3.6-2.1,5.3.4,1.1,1.6,1.9,3.6,2.4.5.1,1.1.2,1.8.2,2.8,0,9-.9,10.5-3.7.4-.7.6-1.8-.3-3.2-.5-.7-1.2-.8-1.8-.8-.8,0-1.7-.2-1.9-3.7-.3-4,.3-13.4.9-17.5.1-1.1.6-2.1,1.1-3.1.7-1.6,1.5-3.3,1.2-5.3v-.8c-.1,0-.9,0-.9,0-.2,0-.3,0-.5,0h0Z"/>
  </g>
  <path class="st0" d="M255.9,166.6c6.1-13.8,14.5-26.6,24.9-37.6s22.5-20.2,36-27.1c14.8-7.6,32.8-13.6,49.3-7.9,13.5,4.7,24.3,16.9,26.9,31,2.6,14.1-3.2,30.1-14.7,39.2-9.1,7.3-25.4,10.2-34.3.9-5.5-5.7-5.9-14.5-3.2-21.6,2.9-7.7,9.2-13.7,15.7-18.4,11-8,23.9-13.2,37.4-15.6,13.5-2.4,27.5-1.9,40.8,1.3s26,9.1,36.7,17.6c2.6,2.1,5,4.3,7.4,6.6.7.7,1.7-.4,1.1-1.1-10-10.1-22.4-17.5-35.8-22.1s-28-6.2-42.2-4.9-28,5.6-40.2,13c-12.8,7.8-27.5,21.1-23.2,37.8,1.6,6.5,6.5,11.4,12.7,13.4s12.8,1.4,18.8-.6c13.8-4.8,22.9-18.8,24.9-32.8,2-14.9-4.5-29.6-16.3-38.7-6-4.6-13.2-7.5-20.7-8.4-9.2-1.1-18.5.8-27.1,3.8-15.1,5.3-29.2,14-41.3,24.6s-21.9,22.8-29.5,36.6c-1.9,3.4-3.5,6.8-5.1,10.4-.4.9.9,1.6,1.3.8h0Z"/>
  <path class="st0" d="M516.9,371.6c-4.4-15.4-12.6-29.6-23.4-41.3s-25.4-21.3-41-26.7c-16.7-5.7-34.8-7-52.1-3.8-18.7,3.5-35.3,13.3-53.6,18.4-14.8,4.2-32.5,4.9-45.6-4.4-1.6-1.1-3.1-2.4-4.4-3.8-.7-.7-1.7.4-1.1,1.1,10.9,11,27.5,13,42.2,10.6,18.4-2.9,34.7-12.6,52.4-17.9s35.5-5.6,52.9-1.4c16.5,4,31.9,12.2,44.3,23.9,11.7,11,20.9,24.8,26.2,40,.7,1.9,1.3,3.8,1.8,5.7.3.9,1.7.5,1.5-.4h0Z"/>
  <path class="st0" d="M505.3,368.5c4.6,0,8.9,2.1,11.8,5.6.4.5,1.3,0,1.3-.5-.3-4.4.6-8.8,2.7-12.7.5-.9-.8-1.6-1.3-.8-2.2,4.1-3.2,8.8-2.9,13.5l1.3-.5c-3.1-3.8-7.9-6.1-12.9-6.1-1,0-1,1.5,0,1.5h0Z"/>
  <path class="st0" d="M469.5,138.9c4-2.2,8.8-2.6,13-1,.6.2,1.2-.6.8-1.1-2.5-3.7-3.9-8-4-12.4,0-1-1.5-1-1.5,0,.1,4.7,1.6,9.3,4.2,13.2l.8-1.1c-4.6-1.8-9.9-1.3-14.2,1.1-.8.5,0,1.8.8,1.3h0Z"/>
  <path class="st0" d="M712,178.6c0,4.6-2.1,8.9-5.6,11.8-.5.4,0,1.3.5,1.3,4.4-.3,8.8.6,12.7,2.7.8.5,1.6-.8.8-1.3-4.1-2.2-8.8-3.2-13.5-2.9l.5,1.3c3.8-3.1,6.1-7.9,6.1-12.9,0-1-1.5-1-1.5,0h0Z"/>
  <path class="st0" d="M732.4,310.2c.3-4.9-1.7-9.8-5.3-13.2l-.5,1.3c4.7.6,9.4-.1,13.6-2.1.9-.4.1-1.7-.8-1.3-4,1.9-8.5,2.5-12.9,1.9-.7,0-1,.9-.5,1.3,3.3,3.1,5.1,7.6,4.9,12.1,0,1,1.5,1,1.5,0h0Z"/>
  <path class="st0" d="M730.9,299.6c14.1,12.7,28.5,25.3,45,34.8s34.3,15.4,52.9,14.5c15.9-.7,31.4-7,42.5-18.5,10.9-11.4,17.8-29.5,10.7-44.6-3.2-6.9-9.8-12.4-17.4-13.6-6.5-1-12.9,1.6-17.5,6.2s-7.7,11.3-8.9,17.9c-1.3,7.2-.3,14.5,2.2,21.4,5.3,14.5,17.3,26.4,32.1,30.8,15.4,4.6,32.9,1.2,45.4-8.8,12.8-10.3,19.3-26.3,22.7-41.9,4-18.5,3.8-37.6,7.7-56.1,1-4.7,2.2-9.3,3.8-13.8.3-.9-1.1-1.3-1.4-.4-6.3,17.6-6.8,36.5-9,54.8-1.9,15.7-5.5,32-14.6,45.2-4.4,6.4-10.2,11.9-17.1,15.6s-14.8,5.7-22.7,5.9c-15.6.2-30.2-7.3-39.3-20-8.3-11.6-11.9-26.9-6.1-40.4,2.5-5.8,6.8-11.4,12.8-13.9,6.7-2.8,14.3-1,19.7,3.7,13.1,11.3,9.6,31.6.8,44.4-8.4,12.2-22.1,20.4-36.5,23.3-17.7,3.5-36.1-.5-52.2-7.9s-31.1-19.1-44.8-31c-3.3-2.9-6.7-5.9-10-8.8-.7-.6-1.8.4-1.1,1.1h0Z"/>
  <path class="st0" d="M709.6,191.9c9.6-8.8,23.1-11.4,35.8-10.8,15.2.7,29.7,5.6,44.6,8.1,13.2,2.2,27.4,2.5,39.7-3.4,11.1-5.3,19.1-15.5,24-26.6,6.6-15,7.7-31.6,8.8-47.7,0-1-1.4-1-1.5,0-.9,14.7-1.9,29.7-7.2,43.6-4.3,11.4-11.8,22.2-22.7,28.3-12.2,6.8-26.9,6.6-40.4,4.4-14.7-2.4-29-7.2-43.9-8.2-13.5-.9-28.1,1.8-38.4,11.2-.7.6.3,1.7,1.1,1.1h0Z"/>
  <g>
    <path class="st0" d="M176.4,187.9l-6-14.8h2.3l4.3,11.1,4.3-11.1h2.3l-5.9,14.8h-1.3Z"/>
    <path class="st0" d="M184.7,183.2c.5,1.8,1.9,3,3.6,3s2.5-.7,3.2-1.9h2.1c-.9,2.3-2.9,3.8-5.3,3.8s-5.6-2.8-5.6-5.7,2.6-5.9,5.6-5.9,5.7,2.5,5.7,5.7,0,.7,0,1h-9.2,0ZM191.9,181.6c-.2-1.9-1.8-3.2-3.6-3.2s-3.4,1.3-3.6,3.2h7.2Z"/>
    <path class="st0" d="M206.6,184.2c-.9,2.5-3,3.9-5.5,3.9s-5.7-2.6-5.7-5.7,2.4-5.9,5.7-5.9,4.8,1.6,5.5,4h-2.3c-.6-1.3-1.6-2.1-3.1-2.1-2.2,0-3.6,1.7-3.6,3.9s1.5,3.9,3.6,3.9,2.6-.8,3.1-2h2.3,0Z"/>
    <path class="st0" d="M219.1,184.2c-.9,2.5-3,3.9-5.5,3.9s-5.7-2.6-5.7-5.7,2.4-5.9,5.7-5.9,4.8,1.6,5.5,4h-2.3c-.6-1.3-1.6-2.1-3.1-2.1-2.2,0-3.6,1.7-3.6,3.9s1.5,3.9,3.6,3.9,2.6-.8,3.1-2h2.3,0Z"/>
    <path class="st0" d="M228.5,187.9v-6c0-2.4-.9-3.5-2.8-3.5s-2.9,1.3-2.9,3.5v6h-2.1v-14.8h2.1v4.9h0c.7-1,1.7-1.5,3.1-1.5,2.6,0,4.6,1.7,4.6,4.7v6.7h-2.1Z"/>
    <path class="st0" d="M233.2,175.5v-2.4h2.1v2.4h-2.1ZM233.2,187.9v-11.1h2.1v11.1h-2.1Z"/>
    <path class="st0" d="M243.3,188.1c-3.1,0-5.9-2.7-5.9-5.8s2.7-5.9,6.1-5.9,5.9,2.4,5.9,5.9c0,3-2.5,5.7-6.1,5.7ZM243.4,178.4c-2.1,0-3.9,1.8-3.9,3.9s1.7,3.9,3.8,3.9,4-1.7,4-4-1.7-3.9-3.9-3.9h0Z"/>
    <path class="st0" d="M258.9,183.2c.5,1.8,1.9,3,3.6,3s2.5-.7,3.2-1.9h2.1c-.9,2.3-2.9,3.8-5.3,3.8s-5.6-2.8-5.6-5.7,2.6-5.9,5.6-5.9,5.7,2.5,5.7,5.7,0,.7,0,1h-9.2,0ZM266.1,181.6c-.2-1.9-1.8-3.2-3.6-3.2s-3.4,1.3-3.6,3.2h7.2Z"/>
    <path class="st0" d="M276.1,191.6v-14.8h1.9v1.7h0c.9-1.3,2.4-2,3.9-2,3.3,0,5.7,2.6,5.7,6s-2.4,5.7-5.6,5.7-3.2-.7-3.9-1.9h0v5.3h-2.1ZM285.7,182.3c0-2-1.6-4-3.8-4s-3.7,1.9-3.7,3.9,1.6,3.9,3.8,3.9,3.7-1.8,3.7-3.9Z"/>
    <path class="st0" d="M295.2,188.1c-3.1,0-5.9-2.7-5.9-5.8s2.7-5.9,6.1-5.9,5.9,2.4,5.9,5.9c0,3-2.5,5.7-6.1,5.7ZM295.2,178.4c-2.1,0-3.9,1.8-3.9,3.9s1.7,3.9,3.8,3.9,4-1.7,4-4-1.7-3.9-3.9-3.9h0Z"/>
    <path class="st0" d="M313.9,184.2c-.9,2.5-3,3.9-5.5,3.9s-5.7-2.6-5.7-5.7,2.4-5.9,5.7-5.9,4.8,1.6,5.5,4h-2.3c-.6-1.3-1.6-2.1-3.1-2.1-2.2,0-3.6,1.7-3.6,3.9s1.5,3.9,3.6,3.9,2.6-.8,3.1-2h2.3,0Z"/>
    <path class="st0" d="M321.2,188.1c-3.1,0-5.9-2.7-5.9-5.8s2.7-5.9,6.1-5.9,5.9,2.4,5.9,5.9c0,3-2.5,5.7-6.1,5.7ZM321.3,178.4c-2.1,0-3.9,1.8-3.9,3.9s1.7,3.9,3.8,3.9,4-1.7,4-4-1.7-3.9-3.9-3.9h0Z"/>
    <path class="st0" d="M193.3,208.2c-.9,2.5-3,3.9-5.5,3.9s-5.7-2.6-5.7-5.7,2.4-5.9,5.7-5.9,4.8,1.6,5.5,4h-2.3c-.6-1.3-1.6-2.1-3.1-2.1-2.2,0-3.6,1.7-3.6,3.9s1.5,3.9,3.6,3.9,2.6-.8,3.1-2h2.3,0Z"/>
    <path class="st0" d="M200.6,212.1c-3.1,0-5.9-2.7-5.9-5.8s2.7-5.9,6.1-5.9,5.9,2.4,5.9,5.9c0,3-2.5,5.7-6.1,5.7ZM200.7,202.4c-2.1,0-3.9,1.8-3.9,3.9s1.7,3.9,3.8,3.9,4-1.7,4-4-1.7-3.9-3.9-3.9h0Z"/>
    <path class="st0" d="M223.5,211.9v-6.2c0-2.1-.9-3.3-2.6-3.3s-2.6,1-2.6,3.2v6.2h-2.1v-6.4c0-2.2-1-3-2.5-3s-2.7,1.1-2.7,3.3v6.2h-2.1v-11.1h1.9v1.2h0c.9-1.1,1.7-1.5,3.2-1.5s2.9.7,3.4,1.9c.8-1.3,1.9-1.9,3.7-1.9,2.9,0,4.5,1.8,4.5,4.7v6.7h-2.1Z"/>
    <path class="st0" d="M235.7,211.9v-1.2h0c-.5.9-1.8,1.5-3.3,1.5-2.4,0-4.6-1.3-4.6-5.2v-6.2h2.1v6c0,2.3.9,3.4,2.8,3.4s2.9-1.3,2.9-3.5v-6h2.1v11.1h-1.9,0Z"/>
    <path class="st0" d="M248,211.9v-6c0-2.3-.9-3.4-2.8-3.4s-2.9,1.3-2.9,3.4v6.1h-2.1v-11.1h1.9v1.2h0c.8-1.1,2-1.5,3.2-1.5,2.7,0,4.6,1.7,4.6,4.7v6.6h-2.1Z"/>
    <path class="st0" d="M252.8,199.5v-2.4h2.1v2.4h-2.1ZM252.8,211.9v-11.1h2.1v11.1h-2.1Z"/>
    <path class="st0" d="M268.1,208.2c-.9,2.5-3,3.9-5.5,3.9s-5.7-2.6-5.7-5.7,2.4-5.9,5.7-5.9,4.8,1.6,5.5,4h-2.3c-.6-1.3-1.6-2.1-3.1-2.1-2.2,0-3.6,1.7-3.6,3.9s1.5,3.9,3.6,3.9,2.6-.8,3.1-2h2.3,0Z"/>
    <path class="st0" d="M279.2,211.9v-1.7h0c-.8,1.3-2.2,2-3.8,2-3.2,0-5.9-2.4-5.9-5.6s2.5-6,5.8-6,3,.6,3.8,1.9h0v-1.6h2.1v11.1h-2.1,0ZM279.2,206.3c0-2.2-1.6-4-3.9-4s-3.8,1.8-3.8,4,1.7,3.9,3.8,3.9,3.9-1.8,3.9-3.9Z"/>
    <path class="st0" d="M284.3,211.9v-9.2h-1.5v-1.9h1.5v-3.7h2.1v3.7h1.8v1.9h-1.8v9.2h-2.1Z"/>
    <path class="st0" d="M289.6,199.5v-2.4h2.1v2.4h-2.1ZM289.6,211.9v-11.1h2.1v11.1h-2.1Z"/>
    <path class="st0" d="M297.6,211.9l-4.4-11.1h2.2l2.9,7.9h0l2.8-7.9h2.2l-4.4,11.1h-1.5Z"/>
    <path class="st0" d="M310,212.1c-3.1,0-5.9-2.7-5.9-5.8s2.7-5.9,6.1-5.9,5.9,2.4,5.9,5.9c0,3-2.5,5.7-6.1,5.7ZM310,202.4c-2.1,0-3.9,1.8-3.9,3.9s1.7,3.9,3.8,3.9,4-1.7,4-4-1.7-3.9-3.9-3.9h0Z"/>
  </g>
  <g>
    <path class="st0" d="M200,275.3v-12.8h-2.8v-2h7.8v2h-2.8v12.8h-2.2Z"/>
    <path class="st0" d="M205.9,262.9v-2.4h2.1v2.4h-2.1ZM205.9,275.3v-11.1h2.1v11.1h-2.1Z"/>
    <path class="st0" d="M211,279v-14.8h1.9v1.7h0c.9-1.3,2.4-2,3.9-2,3.3,0,5.7,2.6,5.7,6s-2.4,5.7-5.6,5.7-3.2-.7-3.9-1.9h0v5.3h-2.1ZM220.6,269.8c0-2-1.6-4-3.8-4s-3.7,1.9-3.7,3.9,1.6,3.9,3.8,3.9,3.7-1.8,3.7-3.9h0Z"/>
    <path class="st0" d="M230.1,275.6c-3.1,0-5.9-2.7-5.9-5.8s2.7-5.9,6.1-5.9,5.9,2.4,5.9,5.9c0,3-2.5,5.7-6.1,5.7ZM230.1,265.8c-2.1,0-3.9,1.8-3.9,3.9s1.7,3.9,3.8,3.9,4-1.7,4-4-1.7-3.9-3.9-3.9h0Z"/>
    <path class="st0" d="M247.4,273.8c-.9,1.2-2.2,1.7-3.8,1.7-3.2,0-5.9-2.7-5.9-5.7s2.6-5.9,5.9-5.9,3,.6,3.8,1.6v-1.3h2.1v9.6c0,3.6-2.2,5.8-6,5.8s-4.5-1.3-5.5-3.5h2.3c.8,1.1,1.8,1.6,3.2,1.6,2.5,0,3.9-1.4,3.9-3.9h0,0ZM247.5,269.8c0-2.6-2-3.9-3.9-3.9s-3.8,1.8-3.8,3.9,1.8,3.9,3.8,3.9,3.9-2.1,3.9-3.9h0Z"/>
    <path class="st0" d="M252.2,275.3v-11.1h1.9v1h0c.5-.7,1.4-1.2,2.8-1.3v2.1c-1.8,0-2.7,1.2-2.7,3v6.2h-2.1Z"/>
    <path class="st0" d="M267.5,275.3v-1.7h0c-.8,1.3-2.2,2-3.8,2-3.2,0-5.9-2.4-5.9-5.6s2.5-6,5.8-6,3,.6,3.8,1.9h0v-1.6h2.1v11.1h-2.1,0ZM267.6,269.8c0-2.2-1.6-4-3.9-4s-3.8,1.8-3.8,4,1.7,3.9,3.8,3.9,3.9-1.8,3.9-3.9Z"/>
    <path class="st0" d="M277.2,275.3v-9.2h-2.8v9.2h-2.1v-9.2h-1v-1.9h1v-.6c0-1.9,1.4-3.1,3.6-3.1h.5v1.9c-1.2,0-1.9.4-1.9,1.3v.5h4.9v11.1h-2.1ZM277.2,262.9v-2.4h2.1v2.4h-2.1Z"/>
    <path class="st0" d="M291.1,275.3v-1.7h0c-.8,1.3-2.2,2-3.8,2-3.2,0-5.9-2.4-5.9-5.6s2.5-6,5.8-6,3,.6,3.8,1.9h0v-1.6h2.1v11.1h-2.1,0ZM291.1,269.8c0-2.2-1.6-4-3.9-4s-3.8,1.8-3.8,4,1.7,3.9,3.8,3.9,3.9-1.8,3.9-3.9Z"/>
    <path class="st0" d="M305.1,275.3l-4.4-11.1h2.2l2.9,7.9h0l2.8-7.9h2.2l-4.4,11.1h-1.5Z"/>
    <path class="st0" d="M313.6,270.6c.5,1.8,1.9,3,3.6,3s2.5-.7,3.2-1.9h2.1c-.9,2.3-2.9,3.8-5.3,3.8s-5.6-2.8-5.6-5.7,2.6-5.9,5.6-5.9,5.7,2.5,5.7,5.7,0,.7,0,1h-9.2,0ZM320.8,269c-.2-1.9-1.8-3.2-3.6-3.2s-3.4,1.3-3.6,3.2h7.2Z"/>
    <path class="st0" d="M335.5,271.6c-.9,2.5-3,3.9-5.5,3.9s-5.7-2.6-5.7-5.7,2.4-5.9,5.7-5.9,4.8,1.6,5.5,4h-2.3c-.6-1.3-1.6-2.1-3.1-2.1-2.2,0-3.6,1.7-3.6,3.9s1.5,3.9,3.6,3.9,2.6-.8,3.1-2h2.3,0Z"/>
    <path class="st0" d="M348,271.6c-.9,2.5-3,3.9-5.5,3.9s-5.7-2.6-5.7-5.7,2.4-5.9,5.7-5.9,4.8,1.6,5.5,4h-2.3c-.6-1.3-1.6-2.1-3.1-2.1-2.2,0-3.6,1.7-3.6,3.9s1.5,3.9,3.6,3.9,2.6-.8,3.1-2h2.3Z"/>
    <path class="st0" d="M357.5,275.3v-6c0-2.4-.9-3.5-2.8-3.5s-2.9,1.3-2.9,3.5v6h-2.1v-14.8h2.1v4.9h0c.7-1,1.7-1.5,3.1-1.5,2.6,0,4.6,1.7,4.6,4.7v6.7h-2.1,0Z"/>
    <path class="st0" d="M362.2,262.9v-2.4h2.1v2.4h-2.1ZM362.2,275.3v-11.1h2.1v11.1h-2.1Z"/>
    <path class="st0" d="M376,275.3v-1.7h0c-.8,1.3-2.2,2-3.8,2-3.2,0-5.9-2.4-5.9-5.6s2.5-6,5.8-6,3,.6,3.8,1.9h0v-1.6h2.1v11.1h-2.1ZM376.1,269.8c0-2.2-1.6-4-3.9-4s-3.8,1.8-3.8,4,1.7,3.9,3.8,3.9,3.9-1.8,3.9-3.9Z"/>
    <path class="st0" d="M245.2,294.6c.5,1.8,1.9,3,3.6,3s2.5-.7,3.2-1.9h2.1c-.9,2.3-2.9,3.8-5.3,3.8s-5.6-2.8-5.6-5.7,2.6-5.9,5.6-5.9,5.7,2.5,5.7,5.7,0,.7,0,1h-9.2,0ZM252.3,293c-.2-1.9-1.8-3.2-3.6-3.2s-3.4,1.3-3.6,3.2h7.2Z"/>
    <path class="st0" d="M266.8,291.1c-.1-.8-.6-1.3-1.4-1.3s-1.3.5-1.3,1.2c0,.9,1,1.2,2.1,1.6,1.6.5,3,1.4,3,3.5s-1.6,3.5-3.7,3.5-3.9-1.4-3.9-3.9h2.1c.1,1.3.8,2,1.9,2s1.6-.6,1.6-1.5-.6-1.3-1.9-1.7c-2.7-.9-3.2-2-3.2-3.3,0-2,1.7-3.3,3.5-3.3s3.3,1.3,3.4,3.2h-2.1Z"/>
    <path class="st0" d="M270.9,299.3v-14.8h2.1v14.8h-2.1Z"/>
    <path class="st0" d="M277.1,294.6c.5,1.8,1.9,3,3.6,3s2.5-.7,3.2-1.9h2.1c-.9,2.3-2.9,3.8-5.3,3.8s-5.6-2.8-5.6-5.7,2.6-5.9,5.6-5.9,5.7,2.5,5.7,5.7,0,.7,0,1h-9.2,0ZM284.3,293c-.2-1.9-1.8-3.2-3.6-3.2s-3.4,1.3-3.6,3.2h7.2Z"/>
    <path class="st0" d="M297.6,297.8c-.9,1.2-2.2,1.7-3.8,1.7-3.2,0-5.9-2.7-5.9-5.7s2.6-5.9,5.9-5.9,3,.6,3.8,1.6v-1.3h2.1v9.6c0,3.6-2.2,5.8-6,5.8s-4.5-1.3-5.5-3.5h2.3c.8,1.1,1.8,1.6,3.2,1.6,2.5,0,3.9-1.4,3.9-3.9h0,0ZM297.7,293.8c0-2.6-2-3.9-3.9-3.9s-3.8,1.8-3.8,3.9,1.8,3.9,3.8,3.9,3.9-2.1,3.9-3.9h0Z"/>
    <path class="st0" d="M311.2,299.3v-1.7h0c-.8,1.3-2.2,2-3.8,2-3.2,0-5.9-2.4-5.9-5.6s2.5-6,5.8-6,3,.6,3.8,1.9h0v-1.6h2.1v11.1h-2.1,0ZM311.3,293.8c0-2.2-1.6-4-3.9-4s-3.8,1.8-3.8,4,1.7,3.9,3.8,3.9,3.9-1.8,3.9-3.9Z"/>
    <path class="st0" d="M316.3,299.3v-9.2h-1.5v-1.9h1.5v-3.7h2.1v3.7h1.8v1.9h-1.8v9.2h-2.1Z"/>
    <path class="st0" d="M330.7,299.3v-1.7h0c-.8,1.3-2.2,2-3.8,2-3.2,0-5.9-2.4-5.9-5.6s2.5-6,5.8-6,3,.6,3.8,1.9h0v-1.6h2.1v11.1h-2.1,0ZM330.8,293.8c0-2.2-1.6-4-3.9-4s-3.8,1.8-3.8,4,1.7,3.9,3.8,3.9,3.9-1.8,3.9-3.9Z"/>
  </g>
  <g>
    <path class="st0" d="M764.4,73.3v-14.8h5.1c4.5,0,7.2,3.5,7.2,7.4s-2.9,7.4-7.5,7.4h-4.8ZM769.1,71.4c3.4,0,5.5-2,5.5-5.4s-2.3-5.5-5.4-5.5h-2.7v10.8h2.6,0Z"/>
    <path class="st0" d="M779,61v-2.4h2.1v2.4h-2.1ZM779,73.3v-11.1h2.1v11.1h-2.1Z"/>
    <path class="st0" d="M783.8,73.3v-11.1h1.9v1h0c.5-.7,1.4-1.2,2.8-1.3v2.1c-1.8,0-2.7,1.2-2.7,3v6.2h-2.1Z"/>
    <path class="st0" d="M791.6,68.7c.5,1.8,1.9,3,3.6,3s2.5-.7,3.2-1.9h2.1c-.9,2.3-2.9,3.8-5.3,3.8s-5.6-2.8-5.6-5.7,2.6-5.9,5.6-5.9,5.7,2.5,5.7,5.7,0,.7,0,1h-9.2ZM798.7,67.1c-.2-1.9-1.8-3.2-3.6-3.2s-3.4,1.3-3.6,3.2h7.2Z"/>
    <path class="st0" d="M801.6,73.3v-1.6l5.3-7.6h-4.8v-1.9h7.1v2l-5,7.2h5.4v1.9h-8Z"/>
    <path class="st0" d="M811,61v-2.4h2.1v2.4h-2.1ZM811,73.3v-11.1h2.1v11.1h-2.1Z"/>
    <path class="st0" d="M821.1,73.6c-3.1,0-5.9-2.7-5.9-5.8s2.7-5.9,6.1-5.9,5.9,2.4,5.9,5.9c0,3-2.5,5.7-6.1,5.7ZM821.2,63.9c-2.1,0-3.9,1.8-3.9,3.9s1.7,3.9,3.8,3.9,4-1.7,4-4-1.7-3.9-3.9-3.9h0Z"/>
    <path class="st0" d="M837,73.3v-6c0-2.3-.9-3.4-2.8-3.4s-2.9,1.3-2.9,3.4v6.1h-2.1v-11.1h1.9v1.2h0c.8-1.1,2-1.5,3.2-1.5,2.7,0,4.6,1.7,4.6,4.7v6.6h-2.1,0Z"/>
    <path class="st0" d="M843.3,68.7c.5,1.8,1.9,3,3.6,3s2.5-.7,3.2-1.9h2.1c-.9,2.3-2.9,3.8-5.3,3.8s-5.6-2.8-5.6-5.7,2.6-5.9,5.6-5.9,5.7,2.5,5.7,5.7,0,.7,0,1h-9.2,0ZM850.5,67.1c-.2-1.9-1.8-3.2-3.6-3.2s-3.4,1.3-3.6,3.2h7.2Z"/>
    <path class="st0" d="M862,68.7c.5,1.8,1.9,3,3.6,3s2.5-.7,3.2-1.9h2.1c-.9,2.3-2.9,3.8-5.3,3.8s-5.6-2.8-5.6-5.7,2.6-5.9,5.6-5.9,5.7,2.5,5.7,5.7,0,.7,0,1h-9.2,0ZM869.2,67.1c-.2-1.9-1.8-3.2-3.6-3.2s-3.4,1.3-3.6,3.2h7.2Z"/>
    <path class="st0" d="M877.7,65.2c0-.8-.6-1.3-1.4-1.3s-1.3.5-1.3,1.2c0,.9,1,1.2,2.1,1.6,1.6.5,3,1.4,3,3.5s-1.6,3.5-3.7,3.5-3.9-1.4-3.9-3.9h2.1c0,1.3.8,2,1.9,2s1.6-.6,1.6-1.5-.6-1.3-1.9-1.7c-2.7-.9-3.2-2-3.2-3.3,0-2,1.7-3.3,3.5-3.3s3.3,1.3,3.4,3.2h-2.1,0Z"/>
    <path class="st0" d="M882.4,73.3v-9.2h-1.5v-1.9h1.5v-3.7h2.1v3.7h1.8v1.9h-1.8v9.2h-2.1Z"/>
    <path class="st0" d="M889.2,68.7c.5,1.8,1.9,3,3.6,3s2.5-.7,3.2-1.9h2.1c-.9,2.3-2.9,3.8-5.3,3.8s-5.6-2.8-5.6-5.7,2.6-5.9,5.6-5.9,5.7,2.5,5.7,5.7,0,.7,0,1h-9.2,0ZM896.3,67.1c-.2-1.9-1.8-3.2-3.6-3.2s-3.4,1.3-3.6,3.2h7.2Z"/>
    <path class="st0" d="M900.8,73.3v-9.2h-1.5v-1.9h1.5v-3.7h2.1v3.7h1.8v1.9h-1.8v9.2h-2.1Z"/>
    <path class="st0" d="M906.1,61v-2.4h2.1v2.4h-2.1ZM906.1,73.3v-11.1h2.1v11.1h-2.1Z"/>
    <path class="st0" d="M921.4,69.7c-.9,2.5-3,3.9-5.5,3.9s-5.7-2.6-5.7-5.7,2.4-5.9,5.7-5.9,4.8,1.6,5.5,4h-2.3c-.6-1.3-1.6-2.1-3.1-2.1-2.2,0-3.6,1.7-3.6,3.9s1.5,3.9,3.6,3.9,2.6-.8,3.1-2h2.3Z"/>
    <path class="st0" d="M932.4,73.3v-1.7h0c-.8,1.3-2.2,2-3.8,2-3.2,0-5.9-2.4-5.9-5.6s2.5-6,5.8-6,3,.6,3.8,1.9h0v-1.6h2.1v11.1h-2.1ZM932.5,67.8c0-2.2-1.6-4-3.9-4s-3.8,1.8-3.8,4,1.7,3.9,3.8,3.9,3.9-1.8,3.9-3.9Z"/>
    <path class="st0" d="M944.6,68.7c.5,1.8,1.9,3,3.6,3s2.5-.7,3.2-1.9h2.1c-.9,2.3-2.9,3.8-5.3,3.8s-5.6-2.8-5.6-5.7,2.6-5.9,5.6-5.9,5.7,2.5,5.7,5.7,0,.7,0,1h-9.2,0ZM951.8,67.1c-.2-1.9-1.8-3.2-3.6-3.2s-3.4,1.3-3.6,3.2h7.2Z"/>
    <path class="st0" d="M752.2,93.7c-.9,2.5-3,3.9-5.5,3.9s-5.7-2.6-5.7-5.7,2.4-5.9,5.7-5.9,4.8,1.6,5.5,4h-2.3c-.6-1.3-1.6-2.1-3.1-2.1-2.2,0-3.6,1.7-3.6,3.9s1.5,3.9,3.6,3.9,2.6-.8,3.1-2h2.3Z"/>
    <path class="st0" d="M759.5,97.6c-3.1,0-5.9-2.7-5.9-5.8s2.7-5.9,6.1-5.9,5.9,2.4,5.9,5.9c0,3-2.5,5.7-6.1,5.7ZM759.5,87.9c-2.1,0-3.9,1.8-3.9,3.9s1.7,3.9,3.8,3.9,4-1.7,4-4-1.7-3.9-3.9-3.9h0Z"/>
    <path class="st0" d="M782.3,97.3v-6.2c0-2.1-.9-3.3-2.6-3.3s-2.6,1-2.6,3.2v6.2h-2.1v-6.4c0-2.2-1-3-2.5-3s-2.7,1.1-2.7,3.3v6.2h-2.1v-11.1h1.9v1.2h0c.9-1.1,1.7-1.5,3.2-1.5s2.9.7,3.4,1.9c.8-1.3,1.9-1.9,3.7-1.9,2.9,0,4.5,1.8,4.5,4.7v6.7h-2.1,0Z"/>
    <path class="st0" d="M794.6,97.3v-1.2h0c-.5.9-1.8,1.5-3.3,1.5-2.4,0-4.6-1.3-4.6-5.2v-6.2h2.1v6c0,2.3.9,3.4,2.8,3.4s2.9-1.3,2.9-3.5v-6h2.1v11.1h-1.9Z"/>
    <path class="st0" d="M806.9,97.3v-6c0-2.3-.9-3.4-2.8-3.4s-2.9,1.3-2.9,3.4v6.1h-2.1v-11.1h1.9v1.2h0c.8-1.1,2-1.5,3.2-1.5,2.7,0,4.6,1.7,4.6,4.7v6.6h-2.1,0Z"/>
    <path class="st0" d="M811.6,85v-2.4h2.1v2.4h-2.1ZM811.6,97.3v-11.1h2.1v11.1h-2.1Z"/>
    <path class="st0" d="M827,93.7c-.9,2.5-3,3.9-5.5,3.9s-5.7-2.6-5.7-5.7,2.4-5.9,5.7-5.9,4.8,1.6,5.5,4h-2.3c-.6-1.3-1.6-2.1-3.1-2.1-2.2,0-3.6,1.7-3.6,3.9s1.5,3.9,3.6,3.9,2.6-.8,3.1-2h2.3Z"/>
    <path class="st0" d="M838,97.3v-1.7h0c-.8,1.3-2.2,2-3.8,2-3.2,0-5.9-2.4-5.9-5.6s2.5-6,5.8-6,3,.6,3.8,1.9h0v-1.6h2.1v11.1s-2.1,0-2.1,0ZM838.1,91.8c0-2.2-1.6-4-3.9-4s-3.8,1.8-3.8,4,1.7,3.9,3.8,3.9,3.9-1.8,3.9-3.9Z"/>
    <path class="st0" d="M843.1,97.3v-9.2h-1.5v-1.9h1.5v-3.7h2.1v3.7h1.8v1.9h-1.8v9.2h-2.1Z"/>
    <path class="st0" d="M848.4,85v-2.4h2.1v2.4h-2.1ZM848.4,97.3v-11.1h2.1v11.1h-2.1Z"/>
    <path class="st0" d="M856.5,97.3l-4.4-11.1h2.2l2.9,7.9h0l2.8-7.9h2.2l-4.4,11.1h-1.5Z"/>
    <path class="st0" d="M872.6,97.3v-1.7h0c-.8,1.3-2.2,2-3.8,2-3.2,0-5.9-2.4-5.9-5.6s2.5-6,5.8-6,3,.6,3.8,1.9h0v-1.6h2.1v11.1s-2.1,0-2.1,0ZM872.7,91.8c0-2.2-1.6-4-3.9-4s-3.8,1.8-3.8,4,1.7,3.9,3.8,3.9,3.9-1.8,3.9-3.9Z"/>
    <path class="st0" d="M883.3,85v-2.4h2.1v2.4h-2.1ZM883.3,97.3v-11.1h2.1v11.1h-2.1Z"/>
    <path class="st0" d="M895.8,97.3v-6c0-2.3-.9-3.4-2.8-3.4s-2.9,1.3-2.9,3.4v6.1h-2.1v-11.1h1.9v1.2h0c.8-1.1,2-1.5,3.2-1.5,2.7,0,4.6,1.7,4.6,4.7v6.6h-2.1Z"/>
    <path class="st0" d="M902.1,92.7c.5,1.8,1.9,3,3.6,3s2.5-.7,3.2-1.9h2.1c-.9,2.3-2.9,3.8-5.3,3.8s-5.6-2.8-5.6-5.7,2.6-5.9,5.6-5.9,5.7,2.5,5.7,5.7,0,.7,0,1h-9.2,0ZM909.2,91.1c-.2-1.9-1.8-3.2-3.6-3.2s-3.4,1.3-3.6,3.2h7.2Z"/>
    <path class="st0" d="M917.7,89.2c0-.8-.6-1.3-1.4-1.3s-1.3.5-1.3,1.2c0,.9,1,1.2,2.1,1.6,1.6.5,3,1.4,3,3.5s-1.6,3.5-3.7,3.5-3.9-1.4-3.9-3.9h2.1c0,1.3.8,2,1.9,2s1.6-.6,1.6-1.5-.6-1.3-1.9-1.7c-2.7-.9-3.2-2-3.2-3.3,0-2,1.7-3.3,3.5-3.3s3.3,1.3,3.4,3.2h-2.1,0Z"/>
    <path class="st0" d="M921.9,85v-2.4h2.1v2.4h-2.1ZM921.9,97.3v-11.1h2.1v11.1h-2.1Z"/>
    <path class="st0" d="M931,89.2c0-.8-.6-1.3-1.4-1.3s-1.3.5-1.3,1.2c0,.9,1,1.2,2.1,1.6,1.6.5,3,1.4,3,3.5s-1.6,3.5-3.7,3.5-3.9-1.4-3.9-3.9h2.1c0,1.3.8,2,1.9,2s1.6-.6,1.6-1.5-.6-1.3-1.9-1.7c-2.7-.9-3.2-2-3.2-3.3,0-2,1.7-3.3,3.5-3.3s3.3,1.3,3.4,3.2h-2.1,0Z"/>
    <path class="st0" d="M935.6,97.3v-9.2h-1.5v-1.9h1.5v-3.7h2.1v3.7h1.8v1.9h-1.8v9.2h-2.1Z"/>
    <path class="st0" d="M942.5,92.7c.5,1.8,1.9,3,3.6,3s2.5-.7,3.2-1.9h2.1c-.9,2.3-2.9,3.8-5.3,3.8s-5.6-2.8-5.6-5.7,2.6-5.9,5.6-5.9,5.7,2.5,5.7,5.7,0,.7,0,1h-9.2,0ZM949.6,91.1c-.2-1.9-1.8-3.2-3.6-3.2s-3.4,1.3-3.6,3.2h7.2Z"/>
    <path class="st0" d="M961.5,97.3v-6c0-2.3-.9-3.4-2.8-3.4s-2.9,1.3-2.9,3.4v6.1h-2.1v-11.1h1.9v1.2h0c.8-1.1,2-1.5,3.2-1.5,2.7,0,4.6,1.7,4.6,4.7v6.6h-2.1Z"/>
    <path class="st0" d="M966.5,97.3v-9.2h-1.5v-1.9h1.5v-3.7h2.1v3.7h1.8v1.9h-1.8v9.2h-2.1Z"/>
    <path class="st0" d="M973.3,92.7c.5,1.8,1.9,3,3.6,3s2.5-.7,3.2-1.9h2.1c-.9,2.3-2.9,3.8-5.3,3.8s-5.6-2.8-5.6-5.7,2.6-5.9,5.6-5.9,5.7,2.5,5.7,5.7,0,.7,0,1h-9.2,0ZM980.5,91.1c-.2-1.9-1.8-3.2-3.6-3.2s-3.4,1.3-3.6,3.2h7.2Z"/>
  </g>
  <g>
    <path class="st0" d="M877.5,193.8v-14.8h4.3c3.2,0,5.2,1.6,5.2,4.5s-2,4.5-5.2,4.5h-2.2v5.8h-2.2,0ZM881.8,185.9c1.9,0,3-.9,3-2.5s-1.2-2.5-3.1-2.5h-2.1v5h2.1Z"/>
    <path class="st0" d="M893.6,194.1c-3.1,0-5.9-2.7-5.9-5.8s2.7-5.9,6.1-5.9,5.9,2.4,5.9,5.9c0,3-2.5,5.7-6.1,5.7ZM893.7,184.3c-2.1,0-3.9,1.8-3.9,3.9s1.7,3.9,3.8,3.9,4-1.7,4-4-1.7-3.9-3.9-3.9h0Z"/>
    <path class="st0" d="M912.4,190.1c-.9,2.5-3,3.9-5.5,3.9s-5.7-2.6-5.7-5.7,2.4-5.9,5.7-5.9,4.8,1.6,5.5,4h-2.3c-.6-1.3-1.6-2.1-3.1-2.1-2.2,0-3.6,1.7-3.6,3.9s1.5,3.9,3.6,3.9,2.6-.8,3.1-2h2.3Z"/>
    <path class="st0" d="M919.7,194.1c-3.1,0-5.9-2.7-5.9-5.8s2.7-5.9,6.1-5.9,5.9,2.4,5.9,5.9c0,3-2.5,5.7-6.1,5.7ZM919.7,184.3c-2.1,0-3.9,1.8-3.9,3.9s1.7,3.9,3.8,3.9,4-1.7,4-4-1.7-3.9-3.9-3.9h0Z"/>
    <path class="st0" d="M937.1,193.8l-4.4-11.1h2.2l2.9,7.9h0l2.8-7.9h2.2l-4.4,11.1h-1.5Z"/>
    <path class="st0" d="M945.6,189.1c.5,1.8,1.9,3,3.6,3s2.5-.7,3.2-1.9h2.1c-.9,2.3-2.9,3.8-5.3,3.8s-5.6-2.8-5.6-5.7,2.6-5.9,5.6-5.9,5.7,2.5,5.7,5.7,0,.7,0,1h-9.2,0ZM952.8,187.5c-.2-1.9-1.8-3.2-3.6-3.2s-3.4,1.3-3.6,3.2h7.2Z"/>
    <path class="st0" d="M956.9,193.8v-11.1h1.9v1h0c.5-.7,1.4-1.2,2.8-1.3v2.1c-1.8,0-2.7,1.2-2.7,3v6.2h-2.1Z"/>
    <path class="st0" d="M968.1,185.6c0-.8-.6-1.3-1.4-1.3s-1.3.5-1.3,1.2c0,.9,1,1.2,2.1,1.6,1.6.5,3,1.4,3,3.5s-1.6,3.5-3.7,3.5-3.9-1.4-3.9-3.9h2.1c0,1.3.8,2,1.9,2s1.6-.6,1.6-1.5-.6-1.3-1.9-1.7c-2.7-.9-3.2-2-3.2-3.3,0-2,1.7-3.3,3.5-3.3s3.3,1.3,3.4,3.2h-2.1,0Z"/>
    <path class="st0" d="M981.3,193.8v-1.7h0c-.8,1.3-2.2,2-3.8,2-3.2,0-5.9-2.4-5.9-5.6s2.5-6,5.8-6,3,.6,3.8,1.9h0v-1.6h2.1v11.1h-2.1ZM981.3,188.2c0-2.2-1.6-4-3.9-4s-3.8,1.8-3.8,4,1.7,3.9,3.8,3.9,3.9-1.8,3.9-3.9Z"/>
    <path class="st0" d="M986.4,193.8v-9.2h-1.5v-1.9h1.5v-3.7h2.1v3.7h1.8v1.9h-1.8v9.2h-2.1Z"/>
    <path class="st0" d="M991.7,181.4v-2.4h2.1v2.4h-2.1ZM991.7,193.8v-11.1h2.1v11.1h-2.1Z"/>
    <path class="st0" d="M996.6,193.8v-14.8h2.1v14.8h-2.1Z"/>
    <path class="st0" d="M1002.8,189.1c.5,1.8,1.9,3,3.6,3s2.5-.7,3.2-1.9h2.1c-.9,2.3-2.9,3.8-5.3,3.8s-5.6-2.8-5.6-5.7,2.6-5.9,5.6-5.9,5.7,2.5,5.7,5.7,0,.7,0,1h-9.2,0ZM1010,187.5c-.2-1.9-1.8-3.2-3.6-3.2s-3.4,1.3-3.6,3.2h7.2Z"/>
    <path class="st0" d="M1021.6,189.1c.5,1.8,1.9,3,3.6,3s2.5-.7,3.2-1.9h2.1c-.9,2.3-2.9,3.8-5.3,3.8s-5.6-2.8-5.6-5.7,2.6-5.9,5.6-5.9,5.7,2.5,5.7,5.7,0,.7,0,1h-9.2,0ZM1028.7,187.5c-.2-1.9-1.8-3.2-3.6-3.2s-3.4,1.3-3.6,3.2h7.2Z"/>
    <path class="st0" d="M880,217.8v-6c0-2.3-.9-3.4-2.8-3.4s-2.9,1.3-2.9,3.4v6.1h-2.1v-11.1h1.9v1.2h0c.8-1.1,2-1.5,3.2-1.5,2.7,0,4.6,1.7,4.6,4.7v6.6h-2.1Z"/>
    <path class="st0" d="M890,218.1c-3.1,0-5.9-2.7-5.9-5.8s2.7-5.9,6.1-5.9,5.9,2.4,5.9,5.9c0,3-2.5,5.7-6.1,5.7ZM890.1,208.3c-2.1,0-3.9,1.8-3.9,3.9s1.7,3.9,3.8,3.9,4-1.7,4-4-1.7-3.9-3.9-3.9h0Z"/>
    <path class="st0" d="M905.9,217.8v-6c0-2.3-.9-3.4-2.8-3.4s-2.9,1.3-2.9,3.4v6.1h-2.1v-11.1h1.9v1.2h0c.8-1.1,2-1.5,3.2-1.5,2.7,0,4.6,1.7,4.6,4.7v6.6h-2.1Z"/>
    <path class="st0" d="M931.3,217.8v-6.2c0-2.1-.9-3.3-2.6-3.3s-2.6,1-2.6,3.2v6.2h-2.1v-6.4c0-2.2-1-3-2.5-3s-2.7,1.1-2.7,3.3v6.2h-2.1v-11.1h1.9v1.2h0c.9-1.1,1.7-1.5,3.2-1.5s2.9.7,3.4,1.9c.8-1.3,1.9-1.9,3.7-1.9,2.9,0,4.5,1.8,4.5,4.7v6.7h-2.1Z"/>
    <path class="st0" d="M937.5,213.1c.5,1.8,1.9,3,3.6,3s2.5-.7,3.2-1.9h2.1c-.9,2.3-2.9,3.8-5.3,3.8s-5.6-2.8-5.6-5.7,2.6-5.9,5.6-5.9,5.7,2.5,5.7,5.7,0,.7,0,1h-9.2,0ZM944.7,211.5c-.2-1.9-1.8-3.2-3.6-3.2s-3.4,1.3-3.6,3.2h7.2Z"/>
    <path class="st0" d="M963.5,217.8v-6.2c0-2.1-.9-3.3-2.6-3.3s-2.6,1-2.6,3.2v6.2h-2.1v-6.4c0-2.2-1-3-2.5-3s-2.7,1.1-2.7,3.3v6.2h-2.1v-11.1h1.9v1.2h0c.9-1.1,1.7-1.5,3.2-1.5s2.9.7,3.4,1.9c.8-1.3,1.9-1.9,3.7-1.9,2.9,0,4.5,1.8,4.5,4.7v6.7h-2.1Z"/>
    <path class="st0" d="M973.6,218.1c-3.1,0-5.9-2.7-5.9-5.8s2.7-5.9,6.1-5.9,5.9,2.4,5.9,5.9c0,3-2.5,5.7-6.1,5.7ZM973.7,208.3c-2.1,0-3.9,1.8-3.9,3.9s1.7,3.9,3.8,3.9,4-1.7,4-4-1.7-3.9-3.9-3.9h0Z"/>
    <path class="st0" d="M981.8,217.8v-11.1h1.9v1h0c.5-.7,1.4-1.2,2.8-1.3v2.1c-1.8,0-2.7,1.2-2.7,3v6.2h-2.1Z"/>
    <path class="st0" d="M997.1,217.8v-1.7h0c-.8,1.3-2.2,2-3.8,2-3.2,0-5.9-2.4-5.9-5.6s2.5-6,5.8-6,3,.6,3.8,1.9h0v-1.6h2.1v11.1h-2.1ZM997.2,212.2c0-2.2-1.6-4-3.9-4s-3.8,1.8-3.8,4,1.7,3.9,3.8,3.9,3.9-1.8,3.9-3.9Z"/>
    <path class="st0" d="M1002,217.8v-14.8h2.1v5.3h0c.9-1.2,2.3-1.8,3.8-1.8,3.1,0,5.7,2.6,5.7,5.8s-2.4,5.8-5.6,5.8-3.1-.6-4-1.9h0v1.6h-2.1,0ZM1011.6,212.2c0-2.1-1.7-3.9-3.8-3.9s-3.8,1.8-3.8,3.9,1.7,4,3.8,4,3.8-1.8,3.8-3.9Z"/>
    <path class="st0" d="M1015.7,205.4v-2.4h2.1v2.4h-2.1ZM1015.7,217.8v-11.1h2.1v11.1h-2.1Z"/>
    <path class="st0" d="M1020.6,217.8v-14.8h2.1v14.8h-2.1Z"/>
    <path class="st0" d="M1026.9,213.1c.5,1.8,1.9,3,3.6,3s2.5-.7,3.2-1.9h2.1c-.9,2.3-2.9,3.8-5.3,3.8s-5.6-2.8-5.6-5.7,2.6-5.9,5.6-5.9,5.7,2.5,5.7,5.7,0,.7,0,1h-9.2,0ZM1034,211.5c-.2-1.9-1.8-3.2-3.6-3.2s-3.4,1.3-3.6,3.2h7.2Z"/>
  </g>
</svg>