<?xml version="1.0" encoding="UTF-8"?>
<svg id="Livello_1" xmlns="http://www.w3.org/2000/svg" version="1.1" viewBox="0 0 1573.1 473.9">
  <!-- Generator: Adobe Illustrator 29.8.4, SVG Export Plug-In . SVG Version: 2.1.1 Build 6)  -->
  <defs>
    <style>
      .st0 {
        letter-spacing: 0em;
      }

      .st0, .st1, .st2, .st3, .st4 {
        isolation: isolate;
      }

      .st0, .st1, .st3 {
        fill: #1d1e1c;
      }

      .st0, .st1, .st3, .st4 {
        font-family: AreaNormal-SemiBold, 'Area Normal';
        font-weight: 600;
      }

      .st0, .st1, .st4 {
        font-size: 3.7px;
      }

      .st5 {
        fill: #1d1d1b;
      }

      .st6 {
        stroke-dasharray: 1.3 1.3;
      }

      .st6, .st7, .st8, .st9, .st10 {
        fill: none;
        stroke-miterlimit: 10;
        stroke-width: .5px;
      }

      .st6, .st10 {
        stroke: #9c9b99;
      }

      .st7 {
        stroke: #9d9d9c;
      }

      .st11 {
        fill: #e20613;
      }

      .st12 {
        fill: #fff;
      }

      .st8 {
        stroke: #1d1d1b;
      }

      .st13 {
        opacity: .6;
      }

      .st14 {
        opacity: .6;
      }

      .st3 {
        font-size: 4.4px;
      }

      .st9 {
        stroke: #e20613;
      }

      .st15 {
        fill: #ededed;
      }

      .st4 {
        fill: #e00c19;
      }
    </style>
  </defs>
  <rect width="1573.1" height="473.9"/>
  <g>
    <g class="st13">
      <g>
        <path class="st15" d="M1093.5,138h-74.4c-31.7,0-57.4,25.7-57.4,57.4v125.1c0,45.6,36.9,82.5,82.5,82.5h24.3c45.6,0,82.5-36.9,82.5-82.5v-125.1c0-31.7-25.7-57.4-57.4-57.4h0ZM1131.1,320.5c0,16.7-6.5,32.5-18.3,44.3s-27.6,18.3-44.3,18.3h-24.3c-16.7,0-32.5-6.5-44.3-18.3s-18.3-27.5-18.3-44.3v-125.1c0-20.7,16.8-37.6,37.5-37.6h74.4c20.7,0,37.6,16.8,37.6,37.6v125.1h0Z"/>
        <path class="st15" d="M1097.1,176.9h-81.7c-9.1,0-16.4,7.4-16.4,16.4v78.7h19.9v-18.4h74.8v18.4h19.9v-78.7c0-9.1-7.4-16.4-16.4-16.4h0ZM1018.9,233.7v-36.9h74.8v36.9h-74.8,0Z"/>
        <polygon class="st15" points="999 310.5 1032.2 310.5 1002.2 340.5 1016.3 354.6 1046.3 324.6 1046.3 367 1066.3 367 1066.3 324.6 1096.3 354.6 1110.4 340.5 1080.4 310.5 1113.6 310.5 1113.6 290.5 999 290.5 999 310.5"/>
      </g>
      <line class="st7" x1="1151.2" y1="138" x2="1151.2" y2="403"/>
      <line class="st7" x1="1179" y1="138" x2="933.9" y2="138"/>
      <line class="st7" x1="1179" y1="157.9" x2="933.9" y2="157.9"/>
      <polyline class="st7" points="1179 176.9 1165.6 176.9 946.9 176.9 933.9 176.9"/>
      <polyline class="st7" points="1179 196.8 1174.1 196.8 1145.7 196.8 966.8 196.8 938.5 196.8 933.9 196.8"/>
      <polyline class="st7" points="933.9 233.7 975.4 233.7 1003.7 233.7 1108.8 233.7 1137.2 233.7 1179 233.7"/>
      <polyline class="st7" points="1179 253.6 1117.3 253.6 1088.9 253.6 1023.5 253.6 995.3 253.6 933.9 253.6"/>
      <polyline class="st7" points="1179 272.1 1178.8 272.1 1098.9 272.1 1070.5 272.1 1042 272.1 1013.8 272.1 933.9 272.1 933.8 272.1"/>
      <polyline class="st7" points="1179 290.5 1160.4 290.5 1080.4 290.5 1060.4 290.5 1052 290.5 1032.2 290.5 952.2 290.5 933.9 290.5"/>
      <polyline class="st7" points="1179 310.5 1140.4 310.5 1080.4 310.5 1060.5 310.5 1052.2 310.5 1032.1 310.5 972.2 310.5 933.9 310.5"/>
      <polyline class="st7" points="1179 383.1 1153.1 383.1 1124.8 383.1 1067.8 383.1 1044.8 383.1 987.8 383.1 959.4 383.1 933.9 383.1"/>
      <polyline class="st7" points="1179 367 1136.9 367 1108.7 367 1083.9 367 1028.7 367 1003.9 367 975.5 367 933.9 367"/>
      <polyline class="st7" points="1179 403 1172.9 403 1144.7 403 1064.7 403 1047.9 403 967.9 403 939.5 403 933.9 403"/>
      <line class="st7" x1="1131.1" y1="138" x2="1131.1" y2="403"/>
      <line class="st7" x1="1113.6" y1="138" x2="1113.6" y2="403"/>
      <polyline class="st7" points="1093.7 403 1093.7 357.2 1093.7 352 1093.7 323.8 1093.7 277.2 1093.7 248.8 1093.7 138"/>
      <polyline class="st7" points="1066.3 403 1066.3 384.6 1066.3 324.6 1066.3 304.7 1066.3 296.4 1066.3 276.2 1066.3 138"/>
      <line class="st7" x1="961.6" y1="138" x2="961.7" y2="403"/>
      <line class="st7" x1="981.5" y1="138" x2="981.5" y2="403"/>
      <line class="st7" x1="999" y1="138" x2="999" y2="403"/>
      <line class="st7" x1="1018.9" y1="138" x2="1018.9" y2="403"/>
      <line class="st7" x1="1046.3" y1="138" x2="1046.3" y2="403"/>
      <polyline class="st7" points="1047.9 403 1056.3 394.6 1066.3 384.6 1067.8 383.1 1083.9 367 1093.7 357.2 1096.3 354.6 1110.4 340.5 1113.6 337.3 1131.1 319.8 1140.4 310.5 1151.2 299.7 1160.4 290.5 1178.8 272.1 1179 272"/>
      <polyline class="st7" points="1179 192 1174.1 196.8 1137.2 233.7 1117.3 253.6 1098.9 272.1 1080.4 290.5 1070.4 300.5 1060.5 310.5 1056.3 314.6 1016.3 354.6 1003.9 367 987.8 383.1 967.9 403"/>
      <polyline class="st7" points="1179 163.6 1165.6 176.9 1145.7 196.8 1108.8 233.7 1088.9 253.6 1070.5 272.1 1056.2 286.3 1052 290.5 1042.1 300.4 1032.1 310.5 1002.1 340.4 975.5 367 959.4 383.1 939.5 403"/>
      <polyline class="st7" points="1064.7 403 1056.3 394.6 1046.3 384.6 1044.8 383.1 1028.7 367 1018.9 357.2 1016.3 354.6 1002.1 340.4 999 337.3 981.5 319.8 972.2 310.5 961.7 300 952.2 290.5 933.9 272.2 933.8 272.1"/>
      <polyline class="st7" points="933.9 192.2 938.5 196.8 975.4 233.7 995.3 253.6 1013.8 272.1 1032.2 290.5 1042.1 300.4 1052.2 310.5 1056.3 314.6 1096.3 354.6 1108.7 367 1124.8 383.1 1144.7 403"/>
      <polyline class="st7" points="933.9 164 946.9 176.9 966.8 196.8 1003.7 233.7 1023.5 253.6 1042 272.1 1056.2 286.3 1060.4 290.5 1070.4 300.5 1080.4 310.5 1110.4 340.5 1136.9 367 1153.1 383.1 1172.9 403"/>
      <circle class="st7" cx="1015.5" cy="193.4" r="16.5"/>
      <circle class="st7" cx="1019.1" cy="195.4" r="37.5"/>
      <circle class="st7" cx="1044.1" cy="320.6" r="62.5" transform="translate(560.4 1299.8) rotate(-80.8)"/>
      <circle class="st7" cx="1044.3" cy="320.3" r="82.7" transform="translate(79.4 832.3) rotate(-45)"/>
      <circle class="st7" cx="1097.2" cy="193.4" r="16.5"/>
      <circle class="st7" cx="1093.7" cy="195.4" r="37.5"/>
      <circle class="st7" cx="1068.5" cy="320.8" r="62.5" transform="translate(580.7 1324.2) rotate(-80.8)"/>
      <circle class="st7" cx="1068.3" cy="320.6" r="82.7" transform="translate(86.2 849.3) rotate(-45)"/>
      <polyline class="st7" points="1066.3 403 933.9 403 933.9 138 1179 138 1179 403 1093.7 403"/>
      <g>
        <path class="st8" d="M1097.1,176.9h-81.7c-9.1,0-16.4,7.4-16.4,16.4v78.7h19.9v-18.4h74.8v18.4h19.9v-78.7c0-9.1-7.4-16.4-16.4-16.4h0ZM1018.9,233.7v-36.9h74.8v36.9h-74.8,0Z"/>
        <polygon class="st8" points="999 310.5 1032.2 310.5 1002.2 340.5 1016.3 354.6 1046.3 324.6 1046.3 367 1066.3 367 1066.3 324.6 1096.3 354.6 1110.4 340.5 1080.4 310.5 1113.6 310.5 1113.6 290.5 999 290.5 999 310.5"/>
        <path class="st8" d="M1093.5,138h-74.4c-31.7,0-57.4,25.7-57.4,57.4v125.1c0,45.6,36.9,82.5,82.5,82.5h24.3c45.6,0,82.5-36.9,82.5-82.5v-125.1c0-31.7-25.7-57.4-57.4-57.4h0ZM1131.1,320.5c0,16.7-6.5,32.5-18.3,44.3s-27.6,18.3-44.3,18.3h-24.3c-16.7,0-32.5-6.5-44.3-18.3s-18.3-27.5-18.3-44.3v-125.1c0-20.7,16.8-37.6,37.5-37.6h74.4c20.7,0,37.6,16.8,37.6,37.6v125.1h0Z"/>
      </g>
      <g class="st2">
        <text class="st3" transform="translate(946.5 272)"><tspan x="0" y="0">18pt-t</tspan></text>
      </g>
      <g>
        <line class="st8" x1="979.8" y1="270.6" x2="963.4" y2="270.6"/>
        <polygon class="st5" points="981.5 270.6 979 269.6 979.6 270.6 979 271.6 981.5 270.6"/>
        <polygon class="st5" points="961.7 270.6 964.1 269.6 963.5 270.6 964.1 271.6 961.7 270.6"/>
      </g>
    </g>
    <g>
      <path class="st15" d="M1093.6,138h-74.4c-31.7,0-57.4,25.7-57.4,57.4v125.1c0,45.6,36.9,82.5,82.5,82.5h24.3c45.6,0,82.5-36.9,82.5-82.5v-125.1c0-31.7-25.7-57.4-57.4-57.4h0ZM1131.1,320.5c0,16.7-6.5,32.5-18.3,44.3s-27.6,18.3-44.3,18.3h-24.3c-16.7,0-32.5-6.5-44.3-18.3s-18.3-27.5-18.3-44.3v-125.1c0-20.7,16.8-37.6,37.5-37.6h74.4c20.7,0,37.6,16.8,37.6,37.6v125.1h0Z"/>
      <path class="st15" d="M1097.2,176.9h-81.7c-9.1,0-16.4,7.4-16.4,16.4v78.7h19.9v-18.4h74.8v18.4h19.9v-78.7c0-9.1-7.4-16.4-16.4-16.4h0ZM1019,233.7v-36.9h74.8v36.9h-74.8Z"/>
      <polygon class="st15" points="999.1 310.5 1032.2 310.5 1002.3 340.5 1016.4 354.6 1046.4 324.6 1046.4 367 1066.3 367 1066.3 324.6 1096.3 354.6 1110.5 340.5 1080.5 310.5 1113.6 310.5 1113.6 290.5 999.1 290.5 999.1 310.5"/>
    </g>
  </g>
  <g>
    <path class="st12" d="M1055.6,94.7v21.7c0,1,1.5,1,1.5,0v-21.7c0-1-1.5-1-1.5,0h0Z"/>
    <path class="st12" d="M1050.1,113l5.8,5.1c.3.3.8.3,1.1,0,1.9-1.8,3.8-3.6,5.8-5.4.7-.7-.4-1.7-1.1-1.1-1.9,1.8-3.8,3.6-5.8,5.4h1.1l-5.8-5.1c-.7-.6-1.8.4-1.1,1.1h0Z"/>
  </g>
  <g>
    <g>
      <path class="st12" d="M942.3,73.1v-22.2h3.2v19.2h7.7v3h-11Z"/>
      <path class="st12" d="M968.9,73.1v-2.6h0c-1.2,2-3.3,3-5.6,3-4.9,0-8.8-3.7-8.8-8.5s3.8-9,8.7-9,4.5.9,5.8,2.8h0v-2.3h3.1v16.6h-3.1ZM969,64.8c0-3.2-2.3-5.9-5.8-5.9s-5.7,2.7-5.7,5.9,2.5,5.8,5.7,5.8,5.8-2.7,5.8-5.8Z"/>
      <path class="st12" d="M1007,73.1v-9.3c0-3.2-1.3-4.9-3.9-4.9s-4,1.5-4,4.9v9.4h-3.1v-9.7c0-3.3-1.5-4.6-3.8-4.6s-4.1,1.6-4.1,4.9v9.3h-3.1v-16.6h2.9v1.8h0c1.3-1.6,2.6-2.2,4.8-2.2s4.3,1,5.2,2.8c1.2-1.9,2.8-2.8,5.5-2.8,4.3,0,6.8,2.7,6.8,7v10.1h-3.1Z"/>
      <path class="st12" d="M1014.1,54.5v-3.7h3.1v3.7h-3.1ZM1014.1,73.1v-16.6h3.1v16.6h-3.1Z"/>
      <path class="st12" d="M1034.8,73.1v-2.6h0c-1.2,2-3.3,3-5.6,3-4.9,0-8.8-3.7-8.8-8.5s3.8-9,8.7-9,4.5.9,5.8,2.8h0v-2.3h3.1v16.6h-3.1ZM1034.9,64.8c0-3.2-2.3-5.9-5.8-5.9s-5.7,2.7-5.7,5.9,2.5,5.8,5.7,5.8,5.8-2.7,5.8-5.8Z"/>
      <path class="st12" d="M1050.8,78.6v-22.2h2.8v2.5h0c1.4-2,3.5-3,5.9-3,4.9,0,8.6,3.8,8.6,9s-3.6,8.5-8.4,8.5-4.8-1-5.8-2.8h0v7.9h-3.1ZM1065.2,64.8c0-3-2.4-5.9-5.7-5.9s-5.5,2.8-5.5,5.9,2.4,5.9,5.6,5.9,5.6-2.7,5.6-5.9Z"/>
      <path class="st12" d="M1079.4,73.5c-4.7,0-8.8-4-8.8-8.7s4-8.8,9.1-8.8,8.9,3.6,8.8,8.9c0,4.4-3.8,8.6-9.1,8.6ZM1079.5,58.9c-3.1,0-5.8,2.6-5.8,5.9s2.6,5.9,5.8,5.9,5.9-2.6,5.9-5.9-2.6-5.8-5.9-5.8Z"/>
      <path class="st12" d="M1091.7,78.6v-22.2h2.8v2.5h0c1.4-2,3.5-3,5.9-3,4.9,0,8.6,3.8,8.6,9s-3.6,8.5-8.4,8.5-4.8-1-5.8-2.8h0v7.9h-3.1ZM1106,64.8c0-3-2.4-5.9-5.7-5.9s-5.5,2.8-5.5,5.9,2.4,5.9,5.6,5.9,5.6-2.7,5.6-5.9Z"/>
      <path class="st12" d="M1120.2,73.5c-4.7,0-8.8-4-8.8-8.7s4-8.8,9.1-8.8,8.9,3.6,8.8,8.9c0,4.4-3.8,8.6-9.1,8.6ZM1120.3,58.9c-3.1,0-5.8,2.6-5.8,5.9s2.6,5.9,5.8,5.9,5.9-2.6,5.9-5.9-2.6-5.8-5.9-5.8Z"/>
      <path class="st12" d="M1139,60.9c-.2-1.2-.8-2-2.1-2s-1.9.8-1.9,1.8c0,1.4,1.4,1.8,3.1,2.3,2.3.7,4.5,2.1,4.5,5.2s-2.3,5.3-5.6,5.3-5.9-2-5.9-5.9h3.1c.2,2,1.2,3,2.8,3s2.4-.9,2.4-2.3-.9-1.9-2.8-2.5c-4.1-1.3-4.8-3.1-4.8-5,0-2.9,2.5-4.9,5.2-4.9s5,1.9,5.1,4.9c0,0-3.1,0-3.1,0Z"/>
      <path class="st12" d="M1146,73.1v-13.8h-2.2v-2.8h2.2v-5.6h3.1v5.6h2.7v2.8h-2.7v13.8h-3.1Z"/>
      <path class="st12" d="M1167.6,73.1v-2.6h0c-1.2,2-3.3,3-5.6,3-4.9,0-8.8-3.7-8.8-8.5s3.8-9,8.7-9,4.5.9,5.8,2.8h0v-2.3h3.1v16.6h-3.1ZM1167.7,64.8c0-3.2-2.3-5.9-5.8-5.9s-5.7,2.7-5.7,5.9,2.6,5.8,5.7,5.8,5.8-2.7,5.8-5.8Z"/>
    </g>
    <g>
      <path class="st12" d="M396.1,73.1v-22.2h6.5c4.8,0,7.8,2.4,7.8,6.7s-3,6.7-7.8,6.7h-3.2v8.8h-3.2ZM402.5,61.3c2.9,0,4.6-1.3,4.6-3.8s-1.8-3.8-4.6-3.8h-3.2v7.5h3.2Z"/>
      <path class="st12" d="M412.9,73.1v-16.6h2.9v1.5h0c.8-1.1,2-1.8,4.2-2v3.2c-2.7,0-4.1,1.7-4.1,4.5v9.3h-3.1Z"/>
      <path class="st12" d="M430.2,73.5c-4.7,0-8.9-4-8.9-8.7s4-8.8,9.1-8.8,8.9,3.6,8.9,8.9c0,4.4-3.8,8.6-9.1,8.6ZM430.3,58.9c-3.1,0-5.8,2.6-5.8,5.9s2.6,5.9,5.8,5.9,5.9-2.6,5.9-5.9-2.6-5.8-5.9-5.8Z"/>
      <path class="st12" d="M442.5,78.6v-22.2h2.9v2.5h0c1.4-2,3.5-3,5.9-3,5,0,8.6,3.8,8.6,9s-3.6,8.5-8.4,8.5-4.8-1-5.9-2.8h0v7.9h-3.1ZM456.8,64.8c0-3-2.4-5.9-5.7-5.9s-5.5,2.8-5.5,5.9,2.4,5.9,5.6,5.9,5.6-2.7,5.6-5.9Z"/>
      <path class="st12" d="M471.1,73.5c-4.7,0-8.9-4-8.9-8.7s4-8.8,9.1-8.8,8.9,3.6,8.9,8.9c0,4.4-3.8,8.6-9.1,8.6ZM471.2,58.9c-3.1,0-5.8,2.6-5.8,5.9s2.6,5.9,5.8,5.9,5.9-2.6,5.9-5.9-2.6-5.8-5.9-5.8Z"/>
      <path class="st12" d="M489.9,60.9c-.1-1.2-.8-2-2.1-2s-2,.8-2,1.8c0,1.4,1.4,1.8,3.1,2.3,2.3.7,4.5,2.1,4.5,5.2s-2.3,5.3-5.6,5.3-5.9-2-5.9-5.9h3.1c.1,2,1.2,3,2.8,3s2.4-.9,2.4-2.3-.9-1.9-2.8-2.5c-4.1-1.3-4.8-3.1-4.8-5,0-2.9,2.5-4.9,5.2-4.9s5,1.9,5.1,4.9c0,0-3.1,0-3.1,0Z"/>
      <path class="st12" d="M496.9,73.1v-13.8h-2.2v-2.8h2.2v-5.6h3.1v5.6h2.7v2.8h-2.7v13.8h-3.1Z"/>
      <path class="st12" d="M518.5,73.1v-2.6h0c-1.2,2-3.3,3-5.6,3-4.9,0-8.8-3.7-8.8-8.5s3.8-9,8.7-9,4.5.9,5.8,2.8h0v-2.3h3.1v16.6h-3.1ZM518.5,64.8c0-3.2-2.3-5.9-5.8-5.9s-5.7,2.7-5.7,5.9,2.5,5.8,5.7,5.8,5.8-2.7,5.8-5.8Z"/>
      <path class="st12" d="M548.2,73.1v-2.4h0c-1.3,1.8-3.5,2.8-5.9,2.8-4.8,0-8.6-3.7-8.6-8.6s3.6-8.9,8.5-8.9,4.4.8,5.7,2.5h0v-7.6h3.1v22.2h-2.9,0ZM542.4,58.9c-3.2,0-5.7,2.7-5.7,5.9s2.5,5.8,5.7,5.8,5.8-2.6,5.8-5.7-2.3-6.1-5.8-6.1Z"/>
      <path class="st12" d="M555.1,54.5v-3.7h3.1v3.7h-3.1ZM555.1,73.1v-16.6h3.1v16.6h-3.1Z"/>
      <path class="st12" d="M571,73.1v-22.2h12v3h-8.7v6.5h8.7v3h-8.7v6.7h8.7v3h-12Z"/>
      <path class="st12" d="M608.7,73.1v-9.3c0-3.2-1.3-4.9-3.9-4.9s-4,1.5-4,4.9v9.4h-3.1v-9.7c0-3.3-1.5-4.6-3.8-4.6s-4.1,1.6-4.1,4.9v9.3h-3.1v-16.6h2.9v1.8h0c1.3-1.6,2.6-2.2,4.8-2.2s4.3,1,5.2,2.8c1.2-1.9,2.8-2.8,5.5-2.8,4.3,0,6.8,2.7,6.8,7v10.1h-3.1Z"/>
      <path class="st12" d="M629.4,73.1v-2.6h0c-1.2,2-3.3,3-5.6,3-4.9,0-8.8-3.7-8.8-8.5s3.8-9,8.7-9,4.5.9,5.8,2.8h0v-2.3h3.1v16.6h-3.1ZM629.5,64.8c0-3.2-2.3-5.9-5.8-5.9s-5.7,2.7-5.7,5.9,2.5,5.8,5.7,5.8,5.8-2.7,5.8-5.8Z"/>
      <path class="st12" d="M648.2,73.1v-9.1c0-3.5-1.4-5.2-4.1-5.2s-4.4,2-4.4,5.1v9.1h-3.1v-16.6h2.9v1.8h0c1.2-1.6,2.9-2.2,4.9-2.2,4,0,6.9,2.5,6.9,7.1v10h-3.1,0Z"/>
      <path class="st12" d="M666.5,73.1v-1.8h0c-.8,1.4-2.7,2.2-4.9,2.2-3.6,0-6.9-1.9-6.9-7.8v-9.3h3.1v9c0,3.5,1.3,5.2,4.1,5.2s4.3-2,4.3-5.2v-9h3.1v16.6s-2.8,0-2.8,0Z"/>
      <path class="st12" d="M675.7,66.1c.7,2.8,2.9,4.5,5.5,4.5s3.8-1,4.7-2.8h3.1c-1.3,3.4-4.4,5.6-8,5.6s-8.5-4.1-8.5-8.6,4-8.9,8.4-8.9,8.6,3.8,8.6,8.5,0,1,0,1.6h-13.8,0ZM686.4,63.7c-.2-2.8-2.7-4.9-5.4-4.9s-5.1,2-5.3,4.9h10.7Z"/>
      <path class="st12" d="M692.7,73.1v-22.2h3.1v22.2h-3.1Z"/>
      <path class="st12" d="M702.1,66.1c.7,2.8,2.9,4.5,5.5,4.5s3.8-1,4.7-2.8h3.1c-1.3,3.4-4.4,5.6-8,5.6s-8.5-4.1-8.5-8.6,4-8.9,8.4-8.9,8.6,3.8,8.6,8.5,0,1,0,1.6h-13.8,0ZM712.8,63.7c-.2-2.8-2.7-4.9-5.4-4.9s-5.1,2-5.3,4.9h10.7Z"/>
    </g>
  </g>
  <g>
    <path class="st12" d="M554.8,94.7v21.7c0,1,1.5,1,1.5,0v-21.7c0-1-1.5-1-1.5,0h0Z"/>
    <path class="st12" d="M549.3,113l5.8,5.1c.3.3.8.3,1.1,0,1.9-1.8,3.8-3.6,5.8-5.4.7-.7-.4-1.7-1.1-1.1-1.9,1.8-3.8,3.6-5.8,5.4h1.1l-5.8-5.1c-.7-.6-1.8.4-1.1,1.1h0Z"/>
  </g>
  <g>
    <g class="st14">
      <g>
        <g>
          <g>
            <path class="st15" d="M631.7,204.5c-1.5,1.7-2.9,3.4-4.4,5.1-6.9,7.9-12.7,16.9-21,23.5-8.3,6.6-16.8,12.5-27,16.3-.5.2-1.1,0-1.5-.3s-.5-.9-.3-1.4c1.9-5.1,4.4-9.7,7-14.1,5.7-9,12.2-17.4,20.5-24,4.1-3.3,8.3-6.5,12.3-9.9,2.4-2.1,4.8-4.1,7.2-6.2,1.5-1.3,3.1-2.6,4.7-4-1.4-1.5-2.9-2.9-4.6-4.1-1.9-1.5-4-2.8-6.2-4l-10.2-5.2c.1-.3.2-.6.3-1,1-3,1.9-6,2.9-9.1l11.7,6c3.5,1.8,6.7,3.9,9.6,6.4,1.6,1.3,3.1,2.8,4.5,4.3.6.6,1.1,1.2,1.7,1.9,1.6,1.9,3.1,4,4.4,6.2-2.4,2.9-4.8,5.7-7.2,8.5-1.5,1.7-2.9,3.4-4.4,5.2h0Z"/>
            <path class="st15" d="M471.1,228.7c2,.7,4,1.3,6,1.8,8.1,2.4,16.3,4.4,23.7,8.6,9.3,5.1,18,10.8,25.4,18.7.4.4.5,1,.3,1.5h0c-.2.5-.7.8-1.2.9-5.5.2-10.7-.3-15.7-1.1-10.5-1.8-20.7-4.6-30-9.7-.8-.4-1.7-.9-2.5-1.4-2-1.1-4.1-2.3-6.1-3.4v12.6c-.2,0-.5,0-.7,0h-.7c-3,.4-5.9.8-8.7,1,0,0-.1,0-.2,0v-32.9c3.5,1.1,6.9,2.3,10.4,3.4,0,0,0,0,.1,0h0Z"/>
            <path class="st15" d="M640.2,244.5c-2,1.1-4.1,2.3-6.1,3.4-5.4,3-11,5.8-17,7.5-10.2,3-20.3,5.1-31.2,4.8-.5,0-1-.4-1.2-.9h0c-.2-.5,0-1.1.3-1.5,3.7-4,7.8-7.3,11.9-10.3,8.7-6.2,17.9-11.4,28.1-14.3,3-.9,6.1-1.7,9.2-2.6,2.1-.6,4.1-1.2,6.1-1.9h0v-11.5c0-3.9-.5-7.7-1.6-11.3.7-.9,1.4-1.7,2.2-2.5,1.9-2.2,3.7-4.4,5.5-6.6,2.8,6.3,4.3,13.2,4.3,20.4v22c-1.7.9-3.4,1.7-5.1,2.6-1.8.9-3.5,1.8-5.3,2.8h0Z"/>
            <path class="st15" d="M602.7,173.3h0c-.6,2-1.3,3.9-1.9,5.9-.8,2.6-1.7,5.1-2.5,7.6-3.3,10-5.2,20.5-10.4,29.7-5.1,9.3-10.8,18-18.7,25.4-.4.4-1,.5-1.5.3h0c-.5-.2-.8-.7-.8-1.2-.2-5.5.3-10.6,1.1-15.7,1.8-10.5,4.6-20.7,9.7-30,2.5-4.6,5.2-9.2,7.6-13.9,1.3-2.7,2.7-5.4,4.1-8.1.9-1.8,1.8-3.6,2.8-5.4l-5.4-2.8-19.6-10.1h0c-.1-1.3-.2-2.6-.3-3.9-.3-3-.5-5.8-.8-8.4l25.5,13.1,5.5,2.8,9,4.6c-1,3.4-2.1,6.7-3.2,10h0Z"/>
            <path class="st15" d="M464.9,196.7c.9-2,1.9-4,3.1-5.9h0c1.3-2.2,2.8-4.2,4.4-6.2.5-.6,1.1-1.3,1.7-1.9,2.7,2.2,5.3,4.4,8,6.7,1.6,1.3,3.1,2.6,4.7,4,2.4,2.1,4.8,4.1,7.2,6.2,7.9,6.9,16.9,12.7,23.5,21,6.7,8.3,12.5,16.9,16.3,27,.2.5,0,1.1-.3,1.5h0c-.4.4-.9.5-1.4.3-5.2-1.9-9.7-4.4-14.1-7.1-9-5.7-17.4-12.1-24-20.5-3.3-4.1-6.5-8.4-10-12.3-1.5-1.7-2.9-3.4-4.4-5.1-1.5-1.7-2.9-3.4-4.4-5.2-1,2.1-1.9,4.2-2.5,6.5-1,3.6-1.6,7.4-1.6,11.3v5c-3.2-1.1-6-2-8.5-2.8l-1.9-.6v-1.7c0-7.2,1.5-14.1,4.3-20.4h0Z"/>
            <path class="st15" d="M471,263.3c2-.2,4.1-.5,6.1-.7,5.2-.5,10.4-.7,15.6-.1,10.5,1.1,20.8,3.1,30.7,7.6.5.2.8.7.8,1.3h0c0,.5-.3,1-.8,1.2-5,2.3-10,3.8-14.9,5-10.3,2.4-20.8,3.7-31.3,2.5,0,0-.1,0-.1,0-2-.2-4-.5-6-.7v46.3c0,.5,0,1.1,0,1.6,0,.5,0,1.1.1,1.6.5,6.1,2.4,12,5.4,17.1.4.6.7,1.2,1.1,1.8.4.6.9,1.3,1.3,1.9,3.6,4.8,8.2,8.8,13.8,11.6l6.7,3.4,5,2.5,5.5,2.8h0l45.6,23.5,45.7-23.5,5.5-2.8,5-2.5h0l6.7-3.4c5.5-2.8,10.2-6.8,13.8-11.6.5-.6.9-1.3,1.3-1.9.4-.6.8-1.2,1.1-1.8,3-5.1,4.9-11,5.4-17.1,0-.5,0-1.1,0-1.6,0-.5,0-1.1,0-1.6v-40.1c.2,0,.5,0,.7,0h.7c3-.4,5.9-.8,8.8-1h.2v41c0,.2,0,.3,0,.5,0,.4,0,.8,0,1.2,0,.4,0,.8,0,1.2-.4,6.3-1.9,12.4-4.4,17.9-.2.5-.4,1-.7,1.4-.2.5-.5,1-.7,1.4-.5.9-1,1.7-1.5,2.6-3.1,5.1-7.2,9.8-12,13.5-.8.7-1.7,1.3-2.6,1.9-1.1.8-2.2,1.5-3.4,2.1-.7.4-1.4.8-2.1,1.1l-67.5,34.7-67.5-34.7c-.7-.4-1.4-.7-2.1-1.1h0c-1.2-.7-2.3-1.4-3.4-2.1-.9-.6-1.8-1.3-2.6-1.9-5.6-4.4-10.2-9.9-13.5-16.1-.3-.5-.5-1-.8-1.5-.2-.5-.5-.9-.6-1.4-.1-.2-.2-.4-.3-.6-2.3-5.4-3.8-11.2-4.1-17.3,0-.4,0-.8,0-1.2,0-.4,0-.8,0-1.2,0-.2,0-.3,0-.5v-61.2h0c3.5-.2,6.9-.6,10.4-1h0Z"/>
            <path class="st15" d="M640.2,279.4c-2,.2-4.1.5-6.1.7-5.2.5-10.4.7-15.6.1-10.5-1.1-20.8-3.1-30.7-7.6-.5-.2-.8-.7-.8-1.3h0c0-.5.3-1,.8-1.2,5-2.3,10-3.8,14.9-5,10.3-2.4,20.8-3.7,31.3-2.5,0,0,0,0,.2,0,2,.2,4,.5,6,.7v-11.8c1-.6,2-1.1,2.9-1.6,1.9-1.1,3.5-1.9,5.1-2.7.8-.4,1.6-.8,2.4-1.2v32.3h0c-3.5.2-6.9.6-10.4,1h0Z"/>
            <path class="st15" d="M526,181.4c4.7,9.4,10.8,18.2,13.7,28.4,3,10.2,5.1,20.4,4.8,31.2,0,.5-.4,1-.9,1.2h0c-.5.2-1.1.1-1.5-.3-4-3.7-7.3-7.8-10.3-11.9-6.2-8.7-11.4-17.9-14.3-28.1-1.5-5.1-2.8-10.2-4.5-15.2-.8-2.5-1.7-5.1-2.5-7.6-.6-2-1.3-3.9-1.9-5.9h0l-5.5,2.8-10.2,5.2c-2.2,1.1-4.3,2.5-6.2,3.9-.2-.1-.4-.3-.6-.5h0c-2.5-2.2-5-4.3-7.5-6.3,2.9-2.5,6.1-4.6,9.6-6.4l11.7-6,5.5-2.8,8.9-4.6h0c1.6,3.1,3.2,6.1,4.8,9.2.9,1.8,1.9,3.6,2.8,5.4,1.4,2.7,2.7,5.4,4.1,8.1h0Z"/>
            <path class="st15" d="M555.6,239.9h0c-.5,0-1-.3-1.2-.8-2.3-5-3.8-10-5-14.9-2.4-10.4-3.7-20.9-2.5-31.5.6-5.2,1.3-10.5,1.7-15.7.4-6,.9-12.1,1.4-18.1.2-2.4.4-4.8.7-7.2l-6.4,3.3h0l-19.6,10.1c-1.6-3.1-3.2-6.1-4.8-9.2l25.5-13.1,6.5-3.4,3.8-1.9,3.8,1.9c.4,4.1.8,8.2,1.2,12.3.2,2.4.4,4.8.7,7.2.5,6,1,12,1.4,18.1.8,10.5,3,20.9,1.8,31.5-1.2,10.6-3.1,20.8-7.6,30.7-.2.5-.7.8-1.3.8h0Z"/>
          </g>
          <path class="st15" d="M587,370.2l-31.4,16.2-31.4-16.1c20.9,1,41.9,1,62.8,0Z"/>
          <path class="st15" d="M623.5,349.8c-3.1,3.5-10.8,7.3-17.3,10.5h0c-2.4,1.2-4.7,2.3-6.4,3.2l-1.1.6-2.6,1.3c-12.5-.7-26.2-1-40.5-1s-28.1.4-40.7,1.1l-2.6-1.3-1.8-.9-3.1-1.6-3.9-2h0l-7.7-4c-3-1.6-5.8-3.5-8.2-5.9,46.4,2,89,2,135.8,0h0Z"/>
          <path class="st15" d="M477.5,329c52.2,2.4,104,2.4,156.1,0-.6,6.1-2.9,11.8-6.4,16.6-48.5-2.2-94.4-2.2-143.2,0-3.5-4.8-5.8-10.5-6.4-16.6h0Z"/>
          <path class="st15" d="M477.4,308.5c52.3,2.4,104.2,2.4,156.5,0v16.8c-52.3-2.4-104.2-2.4-156.5,0v-16.8Z"/>
          <path class="st15" d="M477.4,289.6h156.5v15.2c-52.3-2.4-104.2-2.4-156.5,0v-15.2Z"/>
        </g>
        <g>
          <path class="st9" d="M621.2,270.1c-.9-34.5-28.8-62.4-63.3-63.3"/>
          <polygon class="st11" points="621.2 271.9 622.2 269.4 621.2 270 620.1 269.4 621.2 271.9"/>
          <polygon class="st11" points="556.1 206.8 558.6 205.8 558 206.8 558.6 207.9 556.1 206.8"/>
        </g>
        <rect class="st10" x="460.6" y="137.4" width="190" height="267.8"/>
        <line class="st10" x1="555" y1="137.4" x2="702.7" y2="212.8"/>
        <polyline class="st10" points="560.6 151.7 592.1 167.9 702.7 225.8"/>
        <line class="st10" x1="555.6" y1="137.4" x2="408.4" y2="212.5"/>
        <polyline class="st10" points="550 151.7 518.5 167.9 408.4 225.2"/>
        <line class="st10" x1="555.6" y1="405.2" x2="408.4" y2="329.8"/>
        <polyline class="st10" points="550 390.5 518.5 374.4 408.4 317"/>
        <line class="st10" x1="555.6" y1="405.2" x2="702.2" y2="329.8"/>
        <polyline class="st10" points="555.6 393.6 593 374.4 703.1 317"/>
        <line class="st10" x1="408.4" y1="289.6" x2="703.1" y2="289.6"/>
        <g>
          <circle class="st10" cx="605.1" cy="214.3" r="34.3"/>
          <circle class="st10" cx="506.1" cy="213.8" r="34.3" transform="translate(114.9 599.6) rotate(-67.5)"/>
          <circle class="st10" cx="605.1" cy="329.4" r="34.3"/>
          <circle class="st10" cx="506.1" cy="328.9" r="34.3" transform="translate(100.4 775.8) rotate(-80.8)"/>
          <ellipse class="st10" cx="505.4" cy="329" rx="43.7" ry="44.3"/>
          <ellipse class="st10" cx="605.8" cy="329" rx="43.7" ry="44.3"/>
          <ellipse class="st10" cx="605.8" cy="213.2" rx="43.7" ry="44.3"/>
          <ellipse class="st10" cx="505.4" cy="213.2" rx="43.7" ry="44.3"/>
          <circle class="st10" cx="555.5" cy="271.4" r="31.4"/>
          <rect class="st10" x="627.4" y="151.7" width="13.1" height="13.3"/>
          <rect class="st10" x="614.3" y="151.7" width="13.1" height="13.3"/>
          <rect class="st10" x="601.3" y="151.7" width="13.1" height="13.3"/>
          <rect class="st10" x="588.2" y="151.7" width="13.1" height="13.3"/>
          <rect class="st10" x="575.2" y="151.7" width="13.1" height="13.3"/>
          <rect class="st10" x="562.1" y="151.7" width="13.1" height="13.3"/>
          <rect class="st10" x="549" y="151.7" width="13.1" height="13.3"/>
          <rect class="st10" x="536" y="151.7" width="13.1" height="13.3"/>
          <rect class="st10" x="522.9" y="151.7" width="13.1" height="13.3"/>
          <rect class="st10" x="509.9" y="151.7" width="13.1" height="13.3"/>
          <rect class="st10" x="496.8" y="151.7" width="13.1" height="13.3"/>
          <rect class="st10" x="483.8" y="151.7" width="13.1" height="13.3"/>
          <rect class="st10" x="470.7" y="151.7" width="13.1" height="13.3"/>
          <rect class="st10" x="627.4" y="165" width="13.1" height="13.3"/>
          <rect class="st10" x="614.3" y="165" width="13.1" height="13.3"/>
          <rect class="st10" x="601.3" y="165" width="13.1" height="13.3"/>
          <rect class="st10" x="588.2" y="165" width="13.1" height="13.3"/>
          <rect class="st10" x="575.2" y="165" width="13.1" height="13.3"/>
          <rect class="st10" x="562.1" y="165" width="13.1" height="13.3"/>
          <rect class="st10" x="549" y="165" width="13.1" height="13.3"/>
          <rect class="st10" x="536" y="165" width="13.1" height="13.3"/>
          <rect class="st10" x="522.9" y="165" width="13.1" height="13.3"/>
          <rect class="st10" x="509.9" y="165" width="13.1" height="13.3"/>
          <rect class="st10" x="496.8" y="165" width="13.1" height="13.3"/>
          <rect class="st10" x="483.8" y="165" width="13.1" height="13.3"/>
          <rect class="st10" x="470.7" y="165" width="13.1" height="13.3"/>
          <rect class="st10" x="627.4" y="178.3" width="13.1" height="13.3"/>
          <rect class="st10" x="614.3" y="178.3" width="13.1" height="13.3"/>
          <rect class="st10" x="601.3" y="178.3" width="13.1" height="13.3"/>
          <rect class="st10" x="588.2" y="178.3" width="13.1" height="13.3"/>
          <rect class="st10" x="575.2" y="178.3" width="13.1" height="13.3"/>
          <rect class="st10" x="562.1" y="178.3" width="13.1" height="13.3"/>
          <rect class="st10" x="549" y="178.3" width="13.1" height="13.3"/>
          <rect class="st10" x="536" y="178.3" width="13.1" height="13.3"/>
          <rect class="st10" x="522.9" y="178.3" width="13.1" height="13.3"/>
          <rect class="st10" x="509.9" y="178.3" width="13.1" height="13.3"/>
          <rect class="st10" x="496.8" y="178.3" width="13.1" height="13.3"/>
          <rect class="st10" x="483.8" y="178.3" width="13.1" height="13.3"/>
          <rect class="st10" x="470.7" y="178.3" width="13.1" height="13.3"/>
          <rect class="st10" x="627.4" y="191.6" width="13.1" height="13.3"/>
          <rect class="st10" x="614.3" y="191.6" width="13.1" height="13.3"/>
          <rect class="st10" x="601.3" y="191.6" width="13.1" height="13.3"/>
          <rect class="st10" x="588.2" y="191.6" width="13.1" height="13.3"/>
          <rect class="st10" x="575.2" y="191.6" width="13.1" height="13.3"/>
          <rect class="st10" x="562.1" y="191.6" width="13.1" height="13.3"/>
          <rect class="st10" x="549" y="191.6" width="13.1" height="13.3"/>
          <rect class="st10" x="536" y="191.6" width="13.1" height="13.3"/>
          <rect class="st10" x="522.9" y="191.6" width="13.1" height="13.3"/>
          <rect class="st10" x="509.9" y="191.6" width="13.1" height="13.3"/>
          <rect class="st10" x="496.8" y="191.6" width="13.1" height="13.3"/>
          <rect class="st10" x="483.8" y="191.6" width="13.1" height="13.3"/>
          <rect class="st10" x="470.7" y="191.6" width="13.1" height="13.3"/>
          <rect class="st10" x="627.4" y="204.9" width="13.1" height="13.3"/>
          <rect class="st10" x="614.3" y="204.9" width="13.1" height="13.3"/>
          <rect class="st10" x="601.3" y="204.9" width="13.1" height="13.3"/>
          <rect class="st10" x="588.2" y="204.9" width="13.1" height="13.3"/>
          <rect class="st10" x="575.2" y="204.9" width="13.1" height="13.3"/>
          <rect class="st10" x="562.1" y="204.9" width="13.1" height="13.3"/>
          <rect class="st10" x="549" y="204.9" width="13.1" height="13.3"/>
          <rect class="st10" x="536" y="204.9" width="13.1" height="13.3"/>
          <rect class="st10" x="522.9" y="204.9" width="13.1" height="13.3"/>
          <rect class="st10" x="509.9" y="204.9" width="13.1" height="13.3"/>
          <rect class="st10" x="496.8" y="204.9" width="13.1" height="13.3"/>
          <rect class="st10" x="483.8" y="204.9" width="13.1" height="13.3"/>
          <rect class="st10" x="470.7" y="204.9" width="13.1" height="13.3"/>
          <rect class="st10" x="627.4" y="218.2" width="13.1" height="13.3"/>
          <rect class="st10" x="614.3" y="218.2" width="13.1" height="13.3"/>
          <rect class="st10" x="601.3" y="218.2" width="13.1" height="13.3"/>
          <rect class="st10" x="588.2" y="218.2" width="13.1" height="13.3"/>
          <rect class="st10" x="575.2" y="218.2" width="13.1" height="13.3"/>
          <rect class="st10" x="562.1" y="218.2" width="13.1" height="13.3"/>
          <rect class="st10" x="549" y="218.2" width="13.1" height="13.3"/>
          <rect class="st10" x="536" y="218.2" width="13.1" height="13.3"/>
          <rect class="st10" x="522.9" y="218.2" width="13.1" height="13.3"/>
          <rect class="st10" x="509.9" y="218.2" width="13.1" height="13.3"/>
          <rect class="st10" x="496.8" y="218.2" width="13.1" height="13.3"/>
          <rect class="st10" x="483.8" y="218.2" width="13.1" height="13.3"/>
          <rect class="st10" x="470.7" y="218.2" width="13.1" height="13.3"/>
          <rect class="st10" x="627.4" y="231.5" width="13.1" height="13.3"/>
          <rect class="st10" x="614.3" y="231.5" width="13.1" height="13.3"/>
          <rect class="st10" x="601.3" y="231.5" width="13.1" height="13.3"/>
          <rect class="st10" x="588.2" y="231.5" width="13.1" height="13.3"/>
          <rect class="st10" x="575.2" y="231.5" width="13.1" height="13.3"/>
          <rect class="st10" x="562.1" y="231.5" width="13.1" height="13.3"/>
          <rect class="st10" x="549" y="231.5" width="13.1" height="13.3"/>
          <rect class="st10" x="536" y="231.5" width="13.1" height="13.3"/>
          <rect class="st10" x="522.9" y="231.5" width="13.1" height="13.3"/>
          <rect class="st10" x="509.9" y="231.5" width="13.1" height="13.3"/>
          <rect class="st10" x="496.8" y="231.5" width="13.1" height="13.3"/>
          <rect class="st10" x="483.8" y="231.5" width="13.1" height="13.3"/>
          <rect class="st10" x="470.7" y="231.5" width="13.1" height="13.3"/>
          <rect class="st10" x="627.4" y="244.8" width="13.1" height="13.3"/>
          <rect class="st10" x="614.3" y="244.8" width="13.1" height="13.3"/>
          <rect class="st10" x="601.3" y="244.8" width="13.1" height="13.3"/>
          <rect class="st10" x="588.2" y="244.8" width="13.1" height="13.3"/>
          <rect class="st10" x="575.2" y="244.8" width="13.1" height="13.3"/>
          <rect class="st10" x="562.1" y="244.8" width="13.1" height="13.3"/>
          <rect class="st10" x="549" y="244.8" width="13.1" height="13.3"/>
          <rect class="st10" x="536" y="244.8" width="13.1" height="13.3"/>
          <rect class="st10" x="522.9" y="244.8" width="13.1" height="13.3"/>
          <rect class="st10" x="509.9" y="244.8" width="13.1" height="13.3"/>
          <rect class="st10" x="496.8" y="244.8" width="13.1" height="13.3"/>
          <rect class="st10" x="483.8" y="244.8" width="13.1" height="13.3"/>
          <rect class="st10" x="470.7" y="244.8" width="13.1" height="13.3"/>
          <rect class="st10" x="627.4" y="258" width="13.1" height="13.3"/>
          <rect class="st10" x="614.3" y="258" width="13.1" height="13.3"/>
          <rect class="st10" x="601.3" y="258" width="13.1" height="13.3"/>
          <rect class="st10" x="588.2" y="258" width="13.1" height="13.3"/>
          <rect class="st10" x="575.2" y="258" width="13.1" height="13.3"/>
          <rect class="st10" x="562.1" y="258" width="13.1" height="13.3"/>
          <rect class="st10" x="549" y="258" width="13.1" height="13.3"/>
          <rect class="st10" x="536" y="258" width="13.1" height="13.3"/>
          <rect class="st10" x="522.9" y="258" width="13.1" height="13.3"/>
          <rect class="st10" x="509.9" y="258" width="13.1" height="13.3"/>
          <rect class="st10" x="496.8" y="258" width="13.1" height="13.3"/>
          <rect class="st10" x="483.8" y="258" width="13.1" height="13.3"/>
          <rect class="st10" x="470.7" y="258" width="13.1" height="13.3"/>
          <rect class="st10" x="627.4" y="271.3" width="13.1" height="13.3"/>
          <rect class="st10" x="614.3" y="271.3" width="13.1" height="13.3"/>
          <rect class="st10" x="601.3" y="271.3" width="13.1" height="13.3"/>
          <rect class="st10" x="588.2" y="271.3" width="13.1" height="13.3"/>
          <rect class="st10" x="575.2" y="271.3" width="13.1" height="13.3"/>
          <rect class="st10" x="562.1" y="271.3" width="13.1" height="13.3"/>
          <rect class="st10" x="549" y="271.3" width="13.1" height="13.3"/>
          <rect class="st10" x="536" y="271.3" width="13.1" height="13.3"/>
          <rect class="st10" x="522.9" y="271.3" width="13.1" height="13.3"/>
          <rect class="st10" x="509.9" y="271.3" width="13.1" height="13.3"/>
          <rect class="st10" x="496.8" y="271.3" width="13.1" height="13.3"/>
          <rect class="st10" x="483.8" y="271.3" width="13.1" height="13.3"/>
          <rect class="st10" x="470.7" y="271.3" width="13.1" height="13.3"/>
          <rect class="st10" x="627.4" y="284.6" width="13.1" height="13.3"/>
          <rect class="st10" x="614.3" y="284.6" width="13.1" height="13.3"/>
          <rect class="st10" x="601.3" y="284.6" width="13.1" height="13.3"/>
          <rect class="st10" x="588.2" y="284.6" width="13.1" height="13.3"/>
          <rect class="st10" x="575.2" y="284.6" width="13.1" height="13.3"/>
          <rect class="st10" x="562.1" y="284.6" width="13.1" height="13.3"/>
          <rect class="st10" x="549" y="284.6" width="13.1" height="13.3"/>
          <rect class="st10" x="536" y="284.6" width="13.1" height="13.3"/>
          <rect class="st10" x="522.9" y="284.6" width="13.1" height="13.3"/>
          <rect class="st10" x="509.9" y="284.6" width="13.1" height="13.3"/>
          <rect class="st10" x="496.8" y="284.6" width="13.1" height="13.3"/>
          <rect class="st10" x="483.8" y="284.6" width="13.1" height="13.3"/>
          <rect class="st10" x="470.7" y="284.6" width="13.1" height="13.3"/>
          <rect class="st10" x="627.4" y="297.9" width="13.1" height="13.3"/>
          <rect class="st10" x="614.3" y="297.9" width="13.1" height="13.3"/>
          <rect class="st10" x="601.3" y="297.9" width="13.1" height="13.3"/>
          <rect class="st10" x="588.2" y="297.9" width="13.1" height="13.3"/>
          <rect class="st10" x="575.2" y="297.9" width="13.1" height="13.3"/>
          <rect class="st10" x="562.1" y="297.9" width="13.1" height="13.3"/>
          <rect class="st10" x="549" y="297.9" width="13.1" height="13.3"/>
          <rect class="st10" x="536" y="297.9" width="13.1" height="13.3"/>
          <rect class="st10" x="522.9" y="297.9" width="13.1" height="13.3"/>
          <rect class="st10" x="509.9" y="297.9" width="13.1" height="13.3"/>
          <rect class="st10" x="496.8" y="297.9" width="13.1" height="13.3"/>
          <rect class="st10" x="483.8" y="297.9" width="13.1" height="13.3"/>
          <rect class="st10" x="470.7" y="297.9" width="13.1" height="13.3"/>
          <rect class="st10" x="627.4" y="311.2" width="13.1" height="13.3"/>
          <rect class="st10" x="614.3" y="311.2" width="13.1" height="13.3"/>
          <rect class="st10" x="601.3" y="311.2" width="13.1" height="13.3"/>
          <rect class="st10" x="588.2" y="311.2" width="13.1" height="13.3"/>
          <rect class="st10" x="575.2" y="311.2" width="13.1" height="13.3"/>
          <rect class="st10" x="562.1" y="311.2" width="13.1" height="13.3"/>
          <rect class="st10" x="549" y="311.2" width="13.1" height="13.3"/>
          <rect class="st10" x="536" y="311.2" width="13.1" height="13.3"/>
          <rect class="st10" x="522.9" y="311.2" width="13.1" height="13.3"/>
          <rect class="st10" x="509.9" y="311.2" width="13.1" height="13.3"/>
          <rect class="st10" x="496.8" y="311.2" width="13.1" height="13.3"/>
          <rect class="st10" x="483.8" y="311.2" width="13.1" height="13.3"/>
          <rect class="st10" x="470.7" y="311.2" width="13.1" height="13.3"/>
          <rect class="st10" x="627.4" y="324.5" width="13.1" height="13.3"/>
          <rect class="st10" x="614.3" y="324.5" width="13.1" height="13.3"/>
          <rect class="st10" x="601.3" y="324.5" width="13.1" height="13.3"/>
          <rect class="st10" x="588.2" y="324.5" width="13.1" height="13.3"/>
          <rect class="st10" x="575.2" y="324.5" width="13.1" height="13.3"/>
          <rect class="st10" x="562.1" y="324.5" width="13.1" height="13.3"/>
          <rect class="st10" x="549" y="324.5" width="13.1" height="13.3"/>
          <rect class="st10" x="536" y="324.5" width="13.1" height="13.3"/>
          <rect class="st10" x="522.9" y="324.5" width="13.1" height="13.3"/>
          <rect class="st10" x="509.9" y="324.5" width="13.1" height="13.3"/>
          <rect class="st10" x="496.8" y="324.5" width="13.1" height="13.3"/>
          <rect class="st10" x="483.8" y="324.5" width="13.1" height="13.3"/>
          <rect class="st10" x="470.7" y="324.5" width="13.1" height="13.3"/>
          <rect class="st10" x="627.4" y="337.8" width="13.1" height="13.3"/>
          <rect class="st10" x="614.3" y="337.8" width="13.1" height="13.3"/>
          <rect class="st10" x="601.3" y="337.8" width="13.1" height="13.3"/>
          <rect class="st10" x="588.2" y="337.8" width="13.1" height="13.3"/>
          <rect class="st10" x="575.2" y="337.8" width="13.1" height="13.3"/>
          <rect class="st10" x="562.1" y="337.8" width="13.1" height="13.3"/>
          <rect class="st10" x="549" y="337.8" width="13.1" height="13.3"/>
          <rect class="st10" x="536" y="337.8" width="13.1" height="13.3"/>
          <rect class="st10" x="522.9" y="337.8" width="13.1" height="13.3"/>
          <rect class="st10" x="509.9" y="337.8" width="13.1" height="13.3"/>
          <rect class="st10" x="496.8" y="337.8" width="13.1" height="13.3"/>
          <rect class="st10" x="483.8" y="337.8" width="13.1" height="13.3"/>
          <rect class="st10" x="470.7" y="337.8" width="13.1" height="13.3"/>
          <rect class="st10" x="627.4" y="351.1" width="13.1" height="13.3"/>
          <rect class="st10" x="614.3" y="351.1" width="13.1" height="13.3"/>
          <rect class="st10" x="601.3" y="351.1" width="13.1" height="13.3"/>
          <rect class="st10" x="588.2" y="351.1" width="13.1" height="13.3"/>
          <rect class="st10" x="575.2" y="351.1" width="13.1" height="13.3"/>
          <rect class="st10" x="562.1" y="351.1" width="13.1" height="13.3"/>
          <rect class="st10" x="549" y="351.1" width="13.1" height="13.3"/>
          <rect class="st10" x="536" y="351.1" width="13.1" height="13.3"/>
          <rect class="st10" x="522.9" y="351.1" width="13.1" height="13.3"/>
          <rect class="st10" x="509.9" y="351.1" width="13.1" height="13.3"/>
          <rect class="st10" x="496.8" y="351.1" width="13.1" height="13.3"/>
          <rect class="st10" x="483.8" y="351.1" width="13.1" height="13.3"/>
          <rect class="st10" x="470.7" y="351.1" width="13.1" height="13.3"/>
          <rect class="st10" x="627.4" y="364.4" width="13.1" height="13.3"/>
          <rect class="st10" x="614.3" y="364.4" width="13.1" height="13.3"/>
          <rect class="st10" x="601.3" y="364.4" width="13.1" height="13.3"/>
          <rect class="st10" x="588.2" y="364.4" width="13.1" height="13.3"/>
          <rect class="st10" x="575.2" y="364.4" width="13.1" height="13.3"/>
          <rect class="st10" x="562.1" y="364.4" width="13.1" height="13.3"/>
          <rect class="st10" x="549" y="364.4" width="13.1" height="13.3"/>
          <rect class="st10" x="536" y="364.4" width="13.1" height="13.3"/>
          <rect class="st10" x="522.9" y="364.4" width="13.1" height="13.3"/>
          <rect class="st10" x="509.9" y="364.4" width="13.1" height="13.3"/>
          <rect class="st10" x="496.8" y="364.4" width="13.1" height="13.3"/>
          <rect class="st10" x="483.8" y="364.4" width="13.1" height="13.3"/>
          <rect class="st10" x="470.7" y="364.4" width="13.1" height="13.3"/>
          <rect class="st10" x="627.4" y="377.7" width="13.1" height="13.3"/>
          <rect class="st10" x="614.3" y="377.7" width="13.1" height="13.3"/>
          <rect class="st10" x="601.3" y="377.7" width="13.1" height="13.3"/>
          <rect class="st10" x="588.2" y="377.7" width="13.1" height="13.3"/>
          <rect class="st10" x="575.2" y="377.7" width="13.1" height="13.3"/>
          <rect class="st10" x="562.1" y="377.7" width="13.1" height="13.3"/>
          <rect class="st10" x="549" y="377.7" width="13.1" height="13.3"/>
          <rect class="st10" x="536" y="377.7" width="13.1" height="13.3"/>
          <rect class="st10" x="522.9" y="377.7" width="13.1" height="13.3"/>
          <rect class="st10" x="509.9" y="377.7" width="13.1" height="13.3"/>
          <rect class="st10" x="496.8" y="377.7" width="13.1" height="13.3"/>
          <rect class="st10" x="483.8" y="377.7" width="13.1" height="13.3"/>
          <rect class="st10" x="470.7" y="377.7" width="13.1" height="13.3"/>
          <rect class="st10" x="408.4" y="137.4" width="294.3" height="267.8"/>
          <polyline class="st10" points="620 137.4 608.2 176.1 602.6 173.4 614.3 137.4"/>
          <line class="st10" x1="638.8" y1="205.9" x2="696.2" y2="137.4"/>
          <polyline class="st10" points="687.3 137.4 643.2 190.9 636 199.5"/>
          <line class="st10" x1="565.3" y1="137.4" x2="567.1" y2="155"/>
          <line class="st10" x1="559.4" y1="139.4" x2="559.2" y2="137.4"/>
          <line class="st10" x1="524.6" y1="165" x2="509.9" y2="137.4"/>
          <line class="st10" x1="519" y1="167.7" x2="503.4" y2="137.3"/>
          <polyline class="st10" points="486.6 185.3 429.5 137.4 420.7 137.4 482 189.4"/>
          <polyline class="st10" points="471.2 222.2 408.4 201.9 408.4 207.5 470.7 228.6"/>
          <polyline class="st10" points="650.6 239.3 702.7 212.8 702.7 219.5 650.6 246"/>
          <line class="st10" x1="471" y1="257" x2="408.4" y2="264.7"/>
          <line class="st10" x1="470.7" y1="263.3" x2="408.4" y2="270.4"/>
          <polyline class="st10" points="640.4 279.4 702.7 272.4 702.7 279.4 640.4 285.6"/>
          <line class="st10" x1="555.6" y1="137.4" x2="555.6" y2="405.2"/>
          <line class="st10" x1="408.4" y1="271.3" x2="702.8" y2="271.3"/>
          <line class="st10" x1="650.6" y1="137.4" x2="650.2" y2="138"/>
          <line class="st6" x1="649.4" y1="139.1" x2="461.4" y2="404.1"/>
          <line class="st10" x1="461" y1="404.7" x2="460.6" y2="405.2"/>
          <line class="st10" x1="460.6" y1="137.4" x2="461" y2="138"/>
          <line class="st6" x1="461.8" y1="139.1" x2="649.8" y2="404.1"/>
          <line class="st10" x1="650.2" y1="404.7" x2="650.6" y2="405.2"/>
          <line class="st6" x1="702.7" y1="270" x2="639.4" y2="263.3"/>
          <line class="st6" x1="471.5" y1="279.1" x2="408.1" y2="272.4"/>
          <line class="st6" x1="470.7" y1="244.8" x2="408.4" y2="207.5"/>
          <line class="st6" x1="640.4" y1="228.6" x2="702.7" y2="212.8"/>
          <line class="st6" x1="629.2" y1="189.5" x2="686.9" y2="137.4"/>
          <line class="st6" x1="474.9" y1="199" x2="420.7" y2="137.4"/>
          <line class="st6" x1="508.6" y1="173.4" x2="496.8" y2="137.4"/>
          <line class="st6" x1="607.8" y1="137.4" x2="583.2" y2="184.9"/>
          <line class="st6" x1="549.8" y1="160.7" x2="551.7" y2="137.3"/>
          <path class="st10" d="M618.3,271.4c0,5,4.1,9.1,9.1,9.1s9.1-4.1,9.1-9.1-4.1-9.1-9.1-9.1-9.1,4.1-9.1,9.1Z"/>
          <path class="st10" d="M610.9,244.8c0,5,4.1,9.1,9.1,9.1s9.1-4.1,9.1-9.1-4.1-9.1-9.1-9.1-9.1,4.1-9.1,9.1Z"/>
          <path class="st10" d="M594.8,222.9c0,5,4.1,9.1,9.1,9.1s9.1-4.1,9.1-9.1-4.1-9.1-9.1-9.1-9.1,4.1-9.1,9.1Z"/>
          <path class="st10" d="M572.6,208.2c0,5,4.1,9.1,9.1,9.1s9.1-4.1,9.1-9.1-4.1-9.1-9.1-9.1-9.1,4.1-9.1,9.1h0Z"/>
          <path class="st10" d="M546.5,200.5c0,5,4.1,9.1,9.1,9.1s9.1-4.1,9.1-9.1-4.1-9.1-9.1-9.1-9.1,4.1-9.1,9.1h0Z"/>
          <path class="st10" d="M492.9,271.4c0,5-4.1,9.1-9.1,9.1s-9.1-4.1-9.1-9.1,4.1-9.1,9.1-9.1,9.1,4.1,9.1,9.1Z"/>
          <path class="st10" d="M500.3,244.8c0,5-4.1,9.1-9.1,9.1s-9.1-4.1-9.1-9.1,4.1-9.1,9.1-9.1,9.1,4.1,9.1,9.1Z"/>
          <path class="st10" d="M516.5,222.9c0,5-4.1,9.1-9.1,9.1s-9.1-4.1-9.1-9.1,4.1-9.1,9.1-9.1,9.1,4.1,9.1,9.1Z"/>
          <path class="st10" d="M538.6,208.2c0,5-4.1,9.1-9.1,9.1s-9.1-4.1-9.1-9.1,4.1-9.1,9.1-9.1,9.1,4.1,9.1,9.1h0Z"/>
          <rect class="st10" x="551.7" y="137.3" width="7.7" height="253.6"/>
          <circle class="st10" cx="588.2" cy="327.2" r="3.3"/>
          <circle class="st10" cx="588.2" cy="347.7" r="3.3"/>
          <path class="st10" d="M572.2,367.7c0,1.7,1.3,3,3,3s3-1.4,3-3-1.3-3-3-3-3,1.4-3,3Z"/>
          <path class="st10" d="M584.9,306.7c0,1.8,1.5,3.3,3.3,3.3s3.3-1.5,3.3-3.3-1.5-3.3-3.3-3.3-3.3,1.5-3.3,3.3Z"/>
          <polyline class="st10" points="634.1 304.9 640.2 304.9 640.2 308.5 634.1 308.5"/>
          <polyline class="st10" points="634.1 325.3 640.2 325.3 640.2 329 634.1 329"/>
          <polyline class="st10" points="627.4 345.8 634.8 345.8 631.9 350 623.3 350"/>
          <line class="st10" x1="587.1" y1="370.5" x2="600.5" y2="370.5"/>
        </g>
        <g class="st2">
          <text class="st4" transform="translate(602.5 222.9)"><tspan x="0" y="0">r20</tspan></text>
        </g>
        <g class="st2">
          <text class="st1" transform="translate(550.3 198.2)"><tspan x="0" y="0">14</tspan></text>
          <text class="st1" transform="translate(554.2 198.2)"><tspan x="0" y="0">p</tspan></text>
          <text class="st1" transform="translate(556.6 198.2)"><tspan x="0" y="0">t</tspan></text>
          <text class="st0" transform="translate(558.1 198.2)"><tspan x="0" y="0">-</tspan></text>
          <text class="st1" transform="translate(559.6 198.2)"><tspan x="0" y="0">t</tspan></text>
        </g>
        <g class="st2">
          <text class="st1" transform="translate(550.7 171.1)"><tspan x="0" y="0">9</tspan></text>
          <text class="st1" transform="translate(553.2 171.1)"><tspan x="0" y="0">p</tspan></text>
          <text class="st1" transform="translate(555.7 171.1)"><tspan x="0" y="0">t</tspan></text>
          <text class="st0" transform="translate(557.2 171.1)"><tspan x="0" y="0">-</tspan></text>
          <text class="st1" transform="translate(558.6 171.1)"><tspan x="0" y="0">t</tspan></text>
        </g>
        <g>
          <line class="st8" x1="548.3" y1="200.7" x2="562.6" y2="200.7"/>
          <polygon class="st5" points="546.6 200.7 549 201.8 548.5 200.7 549 199.7 546.6 200.7"/>
          <polygon class="st5" points="564.4 200.7 561.9 201.8 562.5 200.7 561.9 199.7 564.4 200.7"/>
        </g>
        <g>
          <line class="st8" x1="550.6" y1="173.7" x2="560.3" y2="173.7"/>
          <polygon class="st5" points="548.9 173.7 551.4 174.7 550.8 173.7 551.4 172.6 548.9 173.7"/>
          <polygon class="st5" points="562 173.7 559.6 174.7 560.2 173.7 559.6 172.6 562 173.7"/>
        </g>
      </g>
    </g>
    <g>
      <g>
        <path class="st15" d="M631.7,204.5c-1.5,1.7-2.9,3.4-4.4,5.1-6.9,7.9-12.7,16.9-21,23.5-8.3,6.6-16.8,12.5-27,16.3-.5.2-1.1,0-1.5-.3s-.5-.9-.3-1.4c1.9-5.1,4.4-9.7,7-14.1,5.7-9,12.2-17.4,20.5-24,4.1-3.3,8.3-6.5,12.3-9.9,2.4-2.1,4.8-4.1,7.2-6.2,1.5-1.3,3.1-2.6,4.7-4-1.4-1.5-2.9-2.9-4.6-4.1-1.9-1.5-4-2.8-6.2-4l-10.2-5.2c.1-.3.2-.6.3-1,1-3,1.9-6,2.9-9.1l11.7,6c3.5,1.8,6.7,3.9,9.6,6.4,1.6,1.3,3.1,2.8,4.5,4.3.6.6,1.1,1.2,1.7,1.9,1.6,1.9,3.1,4,4.4,6.2-2.4,2.9-4.8,5.7-7.2,8.5-1.5,1.7-2.9,3.4-4.4,5.2h0Z"/>
        <path class="st15" d="M471.1,228.7c2,.7,4,1.3,6,1.8,8.1,2.4,16.3,4.4,23.7,8.6,9.3,5.1,18,10.8,25.4,18.7.4.4.5,1,.3,1.5h0c-.2.5-.7.8-1.2.9-5.5.2-10.7-.3-15.7-1.1-10.5-1.8-20.7-4.6-30-9.7-.8-.4-1.7-.9-2.5-1.4-2-1.1-4.1-2.3-6.1-3.4v12.6c-.2,0-.5,0-.7,0h-.7c-3,.4-5.9.8-8.7,1,0,0-.1,0-.2,0v-32.9c3.5,1.1,6.9,2.3,10.4,3.4,0,0,0,0,.1,0h0Z"/>
        <path class="st15" d="M640.2,244.5c-2,1.1-4.1,2.3-6.1,3.4-5.4,3-11,5.8-17,7.5-10.2,3-20.3,5.1-31.2,4.8-.5,0-1-.4-1.2-.9h0c-.2-.5,0-1.1.3-1.5,3.7-4,7.8-7.3,11.9-10.3,8.7-6.2,17.9-11.4,28.1-14.3,3-.9,6.1-1.7,9.2-2.6,2.1-.6,4.1-1.2,6.1-1.9h0v-11.5c0-3.9-.5-7.7-1.6-11.3.7-.9,1.4-1.7,2.2-2.5,1.9-2.2,3.7-4.4,5.5-6.6,2.8,6.3,4.3,13.2,4.3,20.4v22c-1.7.9-3.4,1.7-5.1,2.6-1.8.9-3.5,1.8-5.3,2.8h0Z"/>
        <path class="st15" d="M602.7,173.3h0c-.6,2-1.3,3.9-1.9,5.9-.8,2.6-1.7,5.1-2.5,7.6-3.3,10-5.2,20.5-10.4,29.7-5.1,9.3-10.8,18-18.7,25.4-.4.4-1,.5-1.5.3h0c-.5-.2-.8-.7-.8-1.2-.2-5.5.3-10.6,1.1-15.7,1.8-10.5,4.6-20.7,9.7-30,2.5-4.6,5.2-9.2,7.6-13.9,1.3-2.7,2.7-5.4,4.1-8.1.9-1.8,1.8-3.6,2.8-5.4l-5.4-2.8-19.6-10.1h0c-.1-1.3-.2-2.6-.3-3.9-.3-3-.5-5.8-.8-8.4l25.5,13.1,5.5,2.8,9,4.6c-1,3.4-2.1,6.7-3.2,10h0Z"/>
        <path class="st15" d="M464.9,196.7c.9-2,1.9-4,3.1-5.9h0c1.3-2.2,2.8-4.2,4.4-6.2.5-.6,1.1-1.3,1.7-1.9,2.7,2.2,5.3,4.4,8,6.7,1.6,1.3,3.1,2.6,4.7,4,2.4,2.1,4.8,4.1,7.2,6.2,7.9,6.9,16.9,12.7,23.5,21,6.7,8.3,12.5,16.9,16.3,27,.2.5,0,1.1-.3,1.5h0c-.4.4-.9.5-1.4.3-5.2-1.9-9.7-4.4-14.1-7.1-9-5.7-17.4-12.1-24-20.5-3.3-4.1-6.5-8.4-10-12.3-1.5-1.7-2.9-3.4-4.4-5.1-1.5-1.7-2.9-3.4-4.4-5.2-1,2.1-1.9,4.2-2.5,6.5-1,3.6-1.6,7.4-1.6,11.3v5c-3.2-1.1-6-2-8.5-2.8l-1.9-.6v-1.7c0-7.2,1.5-14.1,4.3-20.4h0Z"/>
        <path class="st15" d="M471,263.3c2-.2,4.1-.5,6.1-.7,5.2-.5,10.4-.7,15.6-.1,10.5,1.1,20.8,3.1,30.7,7.6.5.2.8.7.8,1.3h0c0,.5-.3,1-.8,1.2-5,2.3-10,3.8-14.9,5-10.3,2.4-20.8,3.7-31.3,2.5,0,0-.1,0-.1,0-2-.2-4-.5-6-.7v46.3c0,.5,0,1.1,0,1.6,0,.5,0,1.1.1,1.6.5,6.1,2.4,12,5.4,17.1.4.6.7,1.2,1.1,1.8.4.6.9,1.3,1.3,1.9,3.6,4.8,8.2,8.8,13.8,11.6l6.7,3.4,5,2.5,5.5,2.8h0l45.6,23.5,45.7-23.5,5.5-2.8,5-2.5h0l6.7-3.4c5.5-2.8,10.2-6.8,13.8-11.6.5-.6.9-1.3,1.3-1.9.4-.6.8-1.2,1.1-1.8,3-5.1,4.9-11,5.4-17.1,0-.5,0-1.1,0-1.6,0-.5,0-1.1,0-1.6v-40.1c.2,0,.5,0,.7,0h.7c3-.4,5.9-.8,8.8-1h.2v41c0,.2,0,.3,0,.5,0,.4,0,.8,0,1.2,0,.4,0,.8,0,1.2-.4,6.3-1.9,12.4-4.4,17.9-.2.5-.4,1-.7,1.4-.2.5-.5,1-.7,1.4-.5.9-1,1.7-1.5,2.6-3.1,5.1-7.2,9.8-12,13.5-.8.7-1.7,1.3-2.6,1.9-1.1.8-2.2,1.5-3.4,2.1-.7.4-1.4.8-2.1,1.1l-67.5,34.7-67.5-34.7c-.7-.4-1.4-.7-2.1-1.1h0c-1.2-.7-2.3-1.4-3.4-2.1-.9-.6-1.8-1.3-2.6-1.9-5.6-4.4-10.2-9.9-13.5-16.1-.3-.5-.5-1-.8-1.5-.2-.5-.5-.9-.6-1.4-.1-.2-.2-.4-.3-.6-2.3-5.4-3.8-11.2-4.1-17.3,0-.4,0-.8,0-1.2,0-.4,0-.8,0-1.2,0-.2,0-.3,0-.5v-61.2h0c3.5-.2,6.9-.6,10.4-1h0Z"/>
        <path class="st15" d="M640.2,279.4c-2,.2-4.1.5-6.1.7-5.2.5-10.4.7-15.6.1-10.5-1.1-20.8-3.1-30.7-7.6-.5-.2-.8-.7-.8-1.3h0c0-.5.3-1,.8-1.2,5-2.3,10-3.8,14.9-5,10.3-2.4,20.8-3.7,31.3-2.5,0,0,0,0,.2,0,2,.2,4,.5,6,.7v-11.8c1-.6,2-1.1,2.9-1.6,1.9-1.1,3.5-1.9,5.1-2.7.8-.4,1.6-.8,2.4-1.2v32.3h0c-3.5.2-6.9.6-10.4,1h0Z"/>
        <path class="st15" d="M526,181.4c4.7,9.4,10.8,18.2,13.7,28.4,3,10.2,5.1,20.4,4.8,31.2,0,.5-.4,1-.9,1.2h0c-.5.2-1.1.1-1.5-.3-4-3.7-7.3-7.8-10.3-11.9-6.2-8.7-11.4-17.9-14.3-28.1-1.5-5.1-2.8-10.2-4.5-15.2-.8-2.5-1.7-5.1-2.5-7.6-.6-2-1.3-3.9-1.9-5.9h0l-5.5,2.8-10.2,5.2c-2.2,1.1-4.3,2.5-6.2,3.9-.2-.1-.4-.3-.6-.5h0c-2.5-2.2-5-4.3-7.5-6.3,2.9-2.5,6.1-4.6,9.6-6.4l11.7-6,5.5-2.8,8.9-4.6h0c1.6,3.1,3.2,6.1,4.8,9.2.9,1.8,1.9,3.6,2.8,5.4,1.4,2.7,2.7,5.4,4.1,8.1h0Z"/>
        <path class="st15" d="M555.6,239.9h0c-.5,0-1-.3-1.2-.8-2.3-5-3.8-10-5-14.9-2.4-10.4-3.7-20.9-2.5-31.5.6-5.2,1.3-10.5,1.7-15.7.4-6,.9-12.1,1.4-18.1.2-2.4.4-4.8.7-7.2l-6.4,3.3h0l-19.6,10.1c-1.6-3.1-3.2-6.1-4.8-9.2l25.5-13.1,6.5-3.4,3.8-1.9,3.8,1.9c.4,4.1.8,8.2,1.2,12.3.2,2.4.4,4.8.7,7.2.5,6,1,12,1.4,18.1.8,10.5,3,20.9,1.8,31.5-1.2,10.6-3.1,20.8-7.6,30.7-.2.5-.7.8-1.3.8h0Z"/>
      </g>
      <path class="st15" d="M587,370.2l-31.4,16.2-31.4-16.1c20.9,1,41.9,1,62.8,0Z"/>
      <path class="st15" d="M623.5,349.8c-3.1,3.5-10.8,7.3-17.3,10.5h0c-2.4,1.2-4.7,2.3-6.4,3.2l-1.1.6-2.6,1.3c-12.5-.7-26.2-1-40.5-1s-28.1.4-40.7,1.1l-2.6-1.3-1.8-.9-3.1-1.6-3.9-2h0l-7.7-4c-3-1.6-5.8-3.5-8.2-5.9,46.4,2,89,2,135.8,0h0Z"/>
      <path class="st15" d="M477.5,329c52.2,2.4,104,2.4,156.1,0-.6,6.1-2.9,11.8-6.4,16.6-48.5-2.2-94.4-2.2-143.2,0-3.5-4.8-5.8-10.5-6.4-16.6h0Z"/>
      <path class="st15" d="M477.4,308.5c52.3,2.4,104.2,2.4,156.5,0v16.8c-52.3-2.4-104.2-2.4-156.5,0v-16.8Z"/>
      <path class="st15" d="M477.4,289.6h156.5v15.2c-52.3-2.4-104.2-2.4-156.5,0v-15.2Z"/>
    </g>
  </g>
</svg>