<?xml version="1.0" encoding="UTF-8"?>
<svg id="Livello_1" xmlns="http://www.w3.org/2000/svg" version="1.1" viewBox="0 0 1274.7 473.9">
  <!-- Generator: Adobe Illustrator 29.8.4, SVG Export Plug-In . SVG Version: 2.1.1 Build 6)  -->
  <defs>
    <style>
      .st0, .st1 {
        font-size: 3.7px;
      }

      .st0, .st1, .st2, .st3 {
        isolation: isolate;
      }

      .st0, .st1, .st3 {
        font-family: AreaNormal-SemiBold, 'Area Normal';
        font-weight: 600;
      }

      .st0, .st3 {
        fill: #1d1e1c;
      }

      .st4 {
        fill: #1d1d1b;
      }

      .st1 {
        fill: #e00c19;
      }

      .st5, .st6, .st7 {
        stroke: #9d9d9c;
      }

      .st5, .st6, .st7, .st8, .st9, .st10, .st11, .st12, .st13 {
        fill: none;
      }

      .st5, .st8, .st9, .st12, .st13 {
        stroke-miterlimit: 10;
        stroke-width: .5px;
      }

      .st6 {
        stroke-miterlimit: 10;
        stroke-width: .5px;
      }

      .st7, .st10 {
        stroke-miterlimit: 10;
        stroke-width: .5px;
      }

      .st14 {
        fill: #e20613;
      }

      .st15 {
        fill: #fff;
      }

      .st8 {
        stroke: #1d1d1b;
      }

      .st16 {
        opacity: .6;
      }

      .st9 {
        stroke: #e20613;
      }

      .st3 {
        font-size: 4.4px;
      }

      .st10, .st11, .st12, .st13 {
        stroke: #9c9b99;
      }

      .st11 {
        stroke-miterlimit: 10;
        stroke-width: .5px;
      }

      .st17 {
        fill: #ededed;
      }

      .st13 {
        stroke-dasharray: 1.3 1.3;
      }
    </style>
  </defs>
  <rect x="-149.2" width="1573.1" height="473.9"/>
  <g>
    <g class="st16">
      <g>
        <path class="st17" d="M944.3,138h-74.4c-31.7,0-57.4,25.7-57.4,57.4v125.1c0,45.6,36.9,82.5,82.5,82.5h24.3c45.6,0,82.5-36.9,82.5-82.5v-125.1c0-31.7-25.7-57.4-57.4-57.4h0ZM981.9,320.5c0,16.7-6.5,32.5-18.3,44.3s-27.6,18.3-44.3,18.3h-24.3c-16.7,0-32.5-6.5-44.3-18.3s-18.3-27.5-18.3-44.3v-125.1c0-20.7,16.8-37.6,37.5-37.6h74.4c20.7,0,37.6,16.8,37.6,37.6v125.1h0Z"/>
        <path class="st17" d="M947.9,176.9h-81.7c-9.1,0-16.4,7.4-16.4,16.4v78.7h19.9v-18.4h74.8v18.4h19.9v-78.7c0-9.1-7.4-16.4-16.4-16.4h0ZM869.7,233.7v-36.9h74.8v36.9h-74.8Z"/>
        <polygon class="st17" points="849.8 310.5 883 310.5 853 340.5 867.1 354.6 897.1 324.6 897.1 367 917.1 367 917.1 324.6 947.1 354.6 961.2 340.5 931.2 310.5 964.4 310.5 964.4 290.5 849.8 290.5 849.8 310.5"/>
      </g>
      <line class="st5" x1="1002" y1="138" x2="1002" y2="403"/>
      <line class="st5" x1="1029.8" y1="138" x2="784.7" y2="138"/>
      <line class="st5" x1="1029.8" y1="157.9" x2="784.7" y2="157.9"/>
      <polyline class="st5" points="1029.8 176.9 1016.4 176.9 797.7 176.9 784.7 176.9"/>
      <polyline class="st5" points="1029.8 196.8 1024.9 196.8 996.5 196.8 817.6 196.8 789.3 196.8 784.7 196.8"/>
      <polyline class="st5" points="784.7 233.7 826.2 233.7 854.5 233.7 959.6 233.7 988 233.7 1029.8 233.7"/>
      <polyline class="st5" points="1029.8 253.6 968.1 253.6 939.7 253.6 874.3 253.6 846.1 253.6 784.7 253.6"/>
      <polyline class="st5" points="1029.8 272.1 1029.6 272.1 949.7 272.1 921.3 272.1 892.8 272.1 864.6 272.1 784.7 272.1 784.6 272.1"/>
      <polyline class="st5" points="1029.8 290.5 1011.2 290.5 931.2 290.5 911.2 290.5 902.8 290.5 883 290.5 803 290.5 784.7 290.5"/>
      <polyline class="st5" points="1029.8 310.5 991.2 310.5 931.2 310.5 911.3 310.5 903 310.5 882.9 310.5 823 310.5 784.7 310.5"/>
      <polyline class="st5" points="1029.8 383.1 1003.9 383.1 975.6 383.1 918.6 383.1 895.6 383.1 838.6 383.1 810.2 383.1 784.7 383.1"/>
      <polyline class="st5" points="1029.8 367 987.7 367 959.5 367 934.7 367 879.5 367 854.7 367 826.3 367 784.7 367"/>
      <polyline class="st5" points="1029.8 403 1023.7 403 995.5 403 915.5 403 898.7 403 818.7 403 790.3 403 784.7 403"/>
      <line class="st5" x1="981.9" y1="138" x2="981.9" y2="403"/>
      <line class="st5" x1="964.4" y1="138" x2="964.4" y2="403"/>
      <polyline class="st5" points="944.5 403 944.5 357.2 944.5 352 944.5 323.8 944.5 277.2 944.5 248.8 944.5 138"/>
      <polyline class="st5" points="917.1 403 917.1 384.6 917.1 324.6 917.1 304.7 917.1 296.4 917.1 276.2 917.1 138"/>
      <line class="st5" x1="812.4" y1="138" x2="812.5" y2="403"/>
      <line class="st5" x1="832.3" y1="138" x2="832.3" y2="403"/>
      <line class="st5" x1="849.8" y1="138" x2="849.8" y2="403"/>
      <line class="st5" x1="869.7" y1="138" x2="869.7" y2="403"/>
      <line class="st5" x1="897.1" y1="138" x2="897.1" y2="403"/>
      <polyline class="st5" points="898.7 403 907.1 394.6 917.1 384.6 918.6 383.1 934.7 367 944.5 357.2 947.1 354.6 961.2 340.5 964.4 337.3 981.9 319.8 991.2 310.5 1002 299.7 1011.2 290.5 1029.6 272.1 1029.8 272"/>
      <polyline class="st5" points="1029.8 192 1024.9 196.8 988 233.7 968.1 253.6 949.7 272.1 931.2 290.5 921.2 300.5 911.3 310.5 907.1 314.6 867.1 354.6 854.7 367 838.6 383.1 818.7 403"/>
      <polyline class="st5" points="1029.8 163.6 1016.4 176.9 996.5 196.8 959.6 233.7 939.7 253.6 921.3 272.1 907 286.3 902.8 290.5 892.9 300.4 882.9 310.5 852.9 340.4 826.3 367 810.2 383.1 790.3 403"/>
      <polyline class="st5" points="915.5 403 907.1 394.6 897.1 384.6 895.6 383.1 879.5 367 869.7 357.2 867.1 354.6 852.9 340.4 849.8 337.3 832.3 319.8 823 310.5 812.5 300 803 290.5 784.7 272.2 784.6 272.1"/>
      <polyline class="st5" points="784.7 192.2 789.3 196.8 826.2 233.7 846.1 253.6 864.6 272.1 883 290.5 892.9 300.4 903 310.5 907.1 314.6 947.1 354.6 959.5 367 975.6 383.1 995.5 403"/>
      <polyline class="st5" points="784.7 164 797.7 176.9 817.6 196.8 854.5 233.7 874.3 253.6 892.8 272.1 907 286.3 911.2 290.5 921.2 300.5 931.2 310.5 961.2 340.5 987.7 367 1003.9 383.1 1023.7 403"/>
      <circle class="st5" cx="866.3" cy="193.4" r="16.5"/>
      <circle class="st5" cx="869.9" cy="195.4" r="37.5"/>
      <circle class="st7" cx="894.6" cy="320.4" r="62.5"/>
      <circle class="st6" cx="895.1" cy="320.4" r="82.7" transform="translate(35.6 726.8) rotate(-45)"/>
      <circle class="st5" cx="948" cy="193.4" r="16.5"/>
      <circle class="st5" cx="944.5" cy="195.4" r="37.5"/>
      <circle class="st7" cx="919" cy="320.7" r="62.5"/>
      <circle class="st6" cx="919.1" cy="320.6" r="82.7" transform="translate(42.5 743.8) rotate(-45)"/>
      <polyline class="st5" points="917.1 403 784.7 403 784.7 138 1029.8 138 1029.8 403 944.5 403"/>
      <g>
        <path class="st8" d="M947.9,176.9h-81.7c-9.1,0-16.4,7.4-16.4,16.4v78.7h19.9v-18.4h74.8v18.4h19.9v-78.7c0-9.1-7.4-16.4-16.4-16.4h0ZM869.7,233.7v-36.9h74.8v36.9h-74.8Z"/>
        <polygon class="st8" points="849.8 310.5 883 310.5 853 340.5 867.1 354.6 897.1 324.6 897.1 367 917.1 367 917.1 324.6 947.1 354.6 961.2 340.5 931.2 310.5 964.4 310.5 964.4 290.5 849.8 290.5 849.8 310.5"/>
        <path class="st8" d="M944.3,138h-74.4c-31.7,0-57.4,25.7-57.4,57.4v125.1c0,45.6,36.9,82.5,82.5,82.5h24.3c45.6,0,82.5-36.9,82.5-82.5v-125.1c0-31.7-25.7-57.4-57.4-57.4h0ZM981.9,320.5c0,16.7-6.5,32.5-18.3,44.3s-27.6,18.3-44.3,18.3h-24.3c-16.7,0-32.5-6.5-44.3-18.3s-18.3-27.5-18.3-44.3v-125.1c0-20.7,16.8-37.6,37.5-37.6h74.4c20.7,0,37.6,16.8,37.6,37.6v125.1h0Z"/>
      </g>
      <g class="st2">
        <g class="st2">
          <text class="st3" transform="translate(797.3 272)"><tspan x="0" y="0">18pt-t</tspan></text>
        </g>
      </g>
      <g>
        <line class="st8" x1="830.6" y1="270.6" x2="814.2" y2="270.6"/>
        <polygon class="st4" points="832.3 270.6 829.8 269.6 830.4 270.6 829.8 271.6 832.3 270.6"/>
        <polygon class="st4" points="812.5 270.6 814.9 269.6 814.3 270.6 814.9 271.6 812.5 270.6"/>
      </g>
    </g>
    <g>
      <path class="st17" d="M944.4,138h-74.4c-31.7,0-57.4,25.7-57.4,57.4v125.1c0,45.6,36.9,82.5,82.5,82.5h24.3c45.6,0,82.5-36.9,82.5-82.5v-125.1c0-31.7-25.7-57.4-57.4-57.4h0ZM981.9,320.5c0,16.7-6.5,32.5-18.3,44.3s-27.6,18.3-44.3,18.3h-24.3c-16.7,0-32.5-6.5-44.3-18.3s-18.3-27.5-18.3-44.3v-125.1c0-20.7,16.8-37.6,37.5-37.6h74.4c20.7,0,37.6,16.8,37.6,37.6v125.1h0Z"/>
      <path class="st17" d="M948,176.9h-81.7c-9.1,0-16.4,7.4-16.4,16.4v78.7h19.9v-18.4h74.8v18.4h19.9v-78.7c0-9.1-7.4-16.4-16.4-16.4h0ZM869.8,233.7v-36.9h74.8v36.9h-74.8Z"/>
      <polygon class="st17" points="849.9 310.5 883 310.5 853.1 340.5 867.2 354.6 897.2 324.6 897.2 367 917.1 367 917.1 324.6 947.1 354.6 961.3 340.5 931.3 310.5 964.4 310.5 964.4 290.5 849.9 290.5 849.9 310.5"/>
    </g>
  </g>
  <g>
    <path class="st15" d="M906.4,94.7v21.7c0,1,1.5,1,1.5,0v-21.7c0-1-1.5-1-1.5,0h0Z"/>
    <path class="st15" d="M900.9,113l5.8,5.1c.3.3.8.3,1.1,0,1.9-1.8,3.8-3.6,5.8-5.4.7-.7-.4-1.7-1.1-1.1-1.9,1.8-3.8,3.6-5.8,5.4h1.1l-5.8-5.1c-.7-.6-1.8.4-1.1,1.1h0Z"/>
  </g>
  <g>
    <g>
      <path class="st15" d="M793.1,73.1v-22.2h3.2v19.2h7.7v3h-11,0Z"/>
      <path class="st15" d="M819.7,73.1v-2.6h0c-1.2,2-3.3,3-5.6,3-4.9,0-8.8-3.7-8.8-8.5s3.8-9,8.7-9,4.5.9,5.8,2.8h0v-2.3h3.1v16.6h-3.2ZM819.8,64.8c0-3.2-2.3-5.9-5.8-5.9s-5.7,2.7-5.7,5.9,2.5,5.8,5.7,5.8,5.8-2.7,5.8-5.8Z"/>
      <path class="st15" d="M857.8,73.1v-9.3c0-3.2-1.3-4.9-3.9-4.9s-4,1.5-4,4.9v9.4h-3.1v-9.7c0-3.3-1.5-4.6-3.8-4.6s-4.1,1.6-4.1,4.9v9.3h-3.1v-16.6h2.9v1.8h0c1.3-1.6,2.6-2.2,4.8-2.2s4.3,1,5.2,2.8c1.2-1.9,2.8-2.8,5.5-2.8,4.3,0,6.8,2.7,6.8,7v10.1h-3.2Z"/>
      <path class="st15" d="M864.9,54.5v-3.7h3.1v3.7h-3.1ZM864.9,73.1v-16.6h3.1v16.6h-3.1Z"/>
      <path class="st15" d="M885.6,73.1v-2.6h0c-1.2,2-3.3,3-5.6,3-4.9,0-8.8-3.7-8.8-8.5s3.8-9,8.7-9,4.5.9,5.8,2.8h0v-2.3h3.1v16.6h-3.2ZM885.7,64.8c0-3.2-2.3-5.9-5.8-5.9s-5.7,2.7-5.7,5.9,2.5,5.8,5.7,5.8,5.8-2.7,5.8-5.8Z"/>
      <path class="st15" d="M901.6,78.6v-22.2h2.8v2.5h0c1.4-2,3.5-3,5.9-3,4.9,0,8.6,3.8,8.6,9s-3.6,8.5-8.4,8.5-4.8-1-5.8-2.8h0v7.9h-3.1ZM916,64.8c0-3-2.4-5.9-5.7-5.9s-5.5,2.8-5.5,5.9,2.4,5.9,5.6,5.9,5.6-2.7,5.6-5.9Z"/>
      <path class="st15" d="M930.2,73.5c-4.7,0-8.8-4-8.8-8.7s4-8.8,9.1-8.8,8.9,3.6,8.8,8.9c0,4.4-3.8,8.6-9.1,8.6ZM930.3,58.9c-3.1,0-5.8,2.6-5.8,5.9s2.6,5.9,5.8,5.9,5.9-2.6,5.9-5.9-2.6-5.8-5.9-5.8h0Z"/>
      <path class="st15" d="M942.5,78.6v-22.2h2.8v2.5h0c1.4-2,3.5-3,5.9-3,4.9,0,8.6,3.8,8.6,9s-3.6,8.5-8.4,8.5-4.8-1-5.8-2.8h0v7.9h-3.1ZM956.8,64.8c0-3-2.4-5.9-5.7-5.9s-5.5,2.8-5.5,5.9,2.4,5.9,5.6,5.9,5.6-2.7,5.6-5.9Z"/>
      <path class="st15" d="M971,73.5c-4.7,0-8.8-4-8.8-8.7s4-8.8,9.1-8.8,8.9,3.6,8.8,8.9c0,4.4-3.8,8.6-9.1,8.6ZM971.1,58.9c-3.1,0-5.8,2.6-5.8,5.9s2.6,5.9,5.8,5.9,5.9-2.6,5.9-5.9-2.6-5.8-5.9-5.8h0Z"/>
      <path class="st15" d="M989.8,60.9c-.2-1.2-.8-2-2.1-2s-1.9.8-1.9,1.8,1.4,1.8,3.1,2.3c2.3.7,4.5,2.1,4.5,5.2s-2.3,5.3-5.6,5.3-5.9-2-5.9-5.9h3.1c.2,2,1.2,3,2.8,3s2.4-.9,2.4-2.3-.9-1.9-2.8-2.5c-4.1-1.3-4.8-3.1-4.8-5,0-2.9,2.5-4.9,5.2-4.9s5,1.9,5.1,4.9h-3.1,0Z"/>
      <path class="st15" d="M996.8,73.1v-13.8h-2.2v-2.8h2.2v-5.6h3.1v5.6h2.7v2.8h-2.7v13.8h-3.1Z"/>
      <path class="st15" d="M1018.4,73.1v-2.6h0c-1.2,2-3.3,3-5.6,3-4.9,0-8.8-3.7-8.8-8.5s3.8-9,8.7-9,4.5.9,5.8,2.8h0v-2.3h3.1v16.6h-3.2ZM1018.5,64.8c0-3.2-2.3-5.9-5.8-5.9s-5.7,2.7-5.7,5.9,2.6,5.8,5.7,5.8,5.8-2.7,5.8-5.8Z"/>
    </g>
    <g>
      <path class="st15" d="M246.9,73.1v-22.2h6.5c4.8,0,7.8,2.4,7.8,6.7s-3,6.7-7.8,6.7h-3.2v8.8h-3.3ZM253.3,61.3c2.9,0,4.6-1.3,4.6-3.8s-1.8-3.8-4.6-3.8h-3.2v7.5h3.2Z"/>
      <path class="st15" d="M263.7,73.1v-16.6h2.9v1.5h0c.8-1.1,2-1.8,4.2-2v3.2c-2.7,0-4.1,1.7-4.1,4.5v9.3h-3.1.1Z"/>
      <path class="st15" d="M281,73.5c-4.7,0-8.9-4-8.9-8.7s4-8.8,9.1-8.8,8.9,3.6,8.9,8.9-3.8,8.6-9.1,8.6ZM281.1,58.9c-3.1,0-5.8,2.6-5.8,5.9s2.6,5.9,5.8,5.9,5.9-2.6,5.9-5.9-2.6-5.8-5.9-5.8h0Z"/>
      <path class="st15" d="M293.3,78.6v-22.2h2.9v2.5h0c1.4-2,3.5-3,5.9-3,5,0,8.6,3.8,8.6,9s-3.6,8.5-8.4,8.5-4.8-1-5.9-2.8h0v7.9h-3.1ZM307.6,64.8c0-3-2.4-5.9-5.7-5.9s-5.5,2.8-5.5,5.9,2.4,5.9,5.6,5.9,5.6-2.7,5.6-5.9Z"/>
      <path class="st15" d="M321.9,73.5c-4.7,0-8.9-4-8.9-8.7s4-8.8,9.1-8.8,8.9,3.6,8.9,8.9-3.8,8.6-9.1,8.6ZM322,58.9c-3.1,0-5.8,2.6-5.8,5.9s2.6,5.9,5.8,5.9,5.9-2.6,5.9-5.9-2.6-5.8-5.9-5.8h0Z"/>
      <path class="st15" d="M340.7,60.9c-.1-1.2-.8-2-2.1-2s-2,.8-2,1.8,1.4,1.8,3.1,2.3c2.3.7,4.5,2.1,4.5,5.2s-2.3,5.3-5.6,5.3-5.9-2-5.9-5.9h3.1c.1,2,1.2,3,2.8,3s2.4-.9,2.4-2.3-.9-1.9-2.8-2.5c-4.1-1.3-4.8-3.1-4.8-5,0-2.9,2.5-4.9,5.2-4.9s5,1.9,5.1,4.9h-3.1,0Z"/>
      <path class="st15" d="M347.7,73.1v-13.8h-2.2v-2.8h2.2v-5.6h3.1v5.6h2.7v2.8h-2.7v13.8h-3.1Z"/>
      <path class="st15" d="M369.3,73.1v-2.6h0c-1.2,2-3.3,3-5.6,3-4.9,0-8.8-3.7-8.8-8.5s3.8-9,8.7-9,4.5.9,5.8,2.8h0v-2.3h3.1v16.6h-3.2ZM369.3,64.8c0-3.2-2.3-5.9-5.8-5.9s-5.7,2.7-5.7,5.9,2.5,5.8,5.7,5.8,5.8-2.7,5.8-5.8Z"/>
      <path class="st15" d="M399,73.1v-2.4h0c-1.3,1.8-3.5,2.8-5.9,2.8-4.8,0-8.6-3.7-8.6-8.6s3.6-8.9,8.5-8.9,4.4.8,5.7,2.5h0v-7.6h3.1v22.2h-2.9.1ZM393.2,58.9c-3.2,0-5.7,2.7-5.7,5.9s2.5,5.8,5.7,5.8,5.8-2.6,5.8-5.7-2.3-6.1-5.8-6.1h0Z"/>
      <path class="st15" d="M405.9,54.5v-3.7h3.1v3.7h-3.1ZM405.9,73.1v-16.6h3.1v16.6h-3.1Z"/>
      <path class="st15" d="M421.8,73.1v-22.2h12v3h-8.7v6.5h8.7v3h-8.7v6.7h8.7v3h-12Z"/>
      <path class="st15" d="M459.5,73.1v-9.3c0-3.2-1.3-4.9-3.9-4.9s-4,1.5-4,4.9v9.4h-3.1v-9.7c0-3.3-1.5-4.6-3.8-4.6s-4.1,1.6-4.1,4.9v9.3h-3.1v-16.6h2.9v1.8h0c1.3-1.6,2.6-2.2,4.8-2.2s4.3,1,5.2,2.8c1.2-1.9,2.8-2.8,5.5-2.8,4.3,0,6.8,2.7,6.8,7v10.1h-3.2Z"/>
      <path class="st15" d="M480.2,73.1v-2.6h0c-1.2,2-3.3,3-5.6,3-4.9,0-8.8-3.7-8.8-8.5s3.8-9,8.7-9,4.5.9,5.8,2.8h0v-2.3h3.1v16.6h-3.2ZM480.3,64.8c0-3.2-2.3-5.9-5.8-5.9s-5.7,2.7-5.7,5.9,2.5,5.8,5.7,5.8,5.8-2.7,5.8-5.8Z"/>
      <path class="st15" d="M499,73.1v-9.1c0-3.5-1.4-5.2-4.1-5.2s-4.4,2-4.4,5.1v9.1h-3.1v-16.6h2.9v1.8h0c1.2-1.6,2.9-2.2,4.9-2.2,4,0,6.9,2.5,6.9,7.1v10h-3.1Z"/>
      <path class="st15" d="M517.3,73.1v-1.8h0c-.8,1.4-2.7,2.2-4.9,2.2-3.6,0-6.9-1.9-6.9-7.8v-9.3h3.1v9c0,3.5,1.3,5.2,4.1,5.2s4.3-2,4.3-5.2v-9h3.1v16.6h-2.8,0Z"/>
      <path class="st15" d="M526.5,66.1c.7,2.8,2.9,4.5,5.5,4.5s3.8-1,4.7-2.8h3.1c-1.3,3.4-4.4,5.6-8,5.6s-8.5-4.1-8.5-8.6,4-8.9,8.4-8.9,8.6,3.8,8.6,8.5,0,1,0,1.6h-13.8ZM537.2,63.7c-.2-2.8-2.7-4.9-5.4-4.9s-5.1,2-5.3,4.9h10.7Z"/>
      <path class="st15" d="M543.5,73.1v-22.2h3.1v22.2h-3.1Z"/>
      <path class="st15" d="M552.9,66.1c.7,2.8,2.9,4.5,5.5,4.5s3.8-1,4.7-2.8h3.1c-1.3,3.4-4.4,5.6-8,5.6s-8.5-4.1-8.5-8.6,4-8.9,8.4-8.9,8.6,3.8,8.6,8.5,0,1,0,1.6h-13.8ZM563.6,63.7c-.2-2.8-2.7-4.9-5.4-4.9s-5.1,2-5.3,4.9h10.7Z"/>
    </g>
  </g>
  <g>
    <path class="st15" d="M405.6,94.7v21.7c0,1,1.5,1,1.5,0v-21.7c0-1-1.5-1-1.5,0h0Z"/>
    <path class="st15" d="M400.1,113l5.8,5.1c.3.3.8.3,1.1,0,1.9-1.8,3.8-3.6,5.8-5.4.7-.7-.4-1.7-1.1-1.1-1.9,1.8-3.8,3.6-5.8,5.4h1.1l-5.8-5.1c-.7-.6-1.8.4-1.1,1.1h0Z"/>
  </g>
  <g>
    <g class="st16">
      <g>
        <g>
          <g>
            <path class="st17" d="M482.5,204.5c-1.5,1.7-2.9,3.4-4.4,5.1-6.9,7.9-12.7,16.9-21,23.5s-16.8,12.5-27,16.3c-.5.2-1.1,0-1.5-.3s-.5-.9-.3-1.4c1.9-5.1,4.4-9.7,7-14.1,5.7-9,12.2-17.4,20.5-24,4.1-3.3,8.3-6.5,12.3-9.9,2.4-2.1,4.8-4.1,7.2-6.2,1.5-1.3,3.1-2.6,4.7-4-1.4-1.5-2.9-2.9-4.6-4.1-1.9-1.5-4-2.8-6.2-4l-10.2-5.2c0-.3.2-.6.3-1,1-3,1.9-6,2.9-9.1l11.7,6c3.5,1.8,6.7,3.9,9.6,6.4,1.6,1.3,3.1,2.8,4.5,4.3.6.6,1.1,1.2,1.7,1.9,1.6,1.9,3.1,4,4.4,6.2-2.4,2.9-4.8,5.7-7.2,8.5-1.5,1.7-2.9,3.4-4.4,5.2h0Z"/>
            <path class="st17" d="M321.9,228.7c2,.7,4,1.3,6,1.8,8.1,2.4,16.3,4.4,23.7,8.6,9.3,5.1,18,10.8,25.4,18.7.4.4.5,1,.3,1.5h0c-.2.5-.7.8-1.2.9-5.5.2-10.7-.3-15.7-1.1-10.5-1.8-20.7-4.6-30-9.7-.8-.4-1.7-.9-2.5-1.4-2-1.1-4.1-2.3-6.1-3.4v12.6h-1.4c-3,.4-5.9.8-8.7,1h-.2v-32.9c3.5,1.1,6.9,2.3,10.4,3.4h.1,0Z"/>
            <path class="st17" d="M491,244.5c-2,1.1-4.1,2.3-6.1,3.4-5.4,3-11,5.8-17,7.5-10.2,3-20.3,5.1-31.2,4.8-.5,0-1-.4-1.2-.9h0c-.2-.5,0-1.1.3-1.5,3.7-4,7.8-7.3,11.9-10.3,8.7-6.2,17.9-11.4,28.1-14.3,3-.9,6.1-1.7,9.2-2.6,2.1-.6,4.1-1.2,6.1-1.9h0v-11.5c0-3.9-.5-7.7-1.6-11.3.7-.9,1.4-1.7,2.2-2.5,1.9-2.2,3.7-4.4,5.5-6.6,2.8,6.3,4.3,13.2,4.3,20.4v22c-1.7.9-3.4,1.7-5.1,2.6-1.8.9-3.5,1.8-5.3,2.8h-.1Z"/>
            <path class="st17" d="M453.5,173.3h0c-.6,2-1.3,3.9-1.9,5.9-.8,2.6-1.7,5.1-2.5,7.6-3.3,10-5.2,20.5-10.4,29.7-5.1,9.3-10.8,18-18.7,25.4-.4.4-1,.5-1.5.3h0c-.5-.2-.8-.7-.8-1.2-.2-5.5.3-10.6,1.1-15.7,1.8-10.5,4.6-20.7,9.7-30,2.5-4.6,5.2-9.2,7.6-13.9,1.3-2.7,2.7-5.4,4.1-8.1.9-1.8,1.8-3.6,2.8-5.4l-5.4-2.8-19.6-10.1h0c0-1.3-.2-2.6-.3-3.9-.3-3-.5-5.8-.8-8.4l25.5,13.1,5.5,2.8,9,4.6c-1,3.4-2.1,6.7-3.2,10h-.2Z"/>
            <path class="st17" d="M315.7,196.7c.9-2,1.9-4,3.1-5.9h0c1.3-2.2,2.8-4.2,4.4-6.2.5-.6,1.1-1.3,1.7-1.9,2.7,2.2,5.3,4.4,8,6.7,1.6,1.3,3.1,2.6,4.7,4,2.4,2.1,4.8,4.1,7.2,6.2,7.9,6.9,16.9,12.7,23.5,21,6.7,8.3,12.5,16.9,16.3,27,.2.5,0,1.1-.3,1.5h0c-.4.4-.9.5-1.4.3-5.2-1.9-9.7-4.4-14.1-7.1-9-5.7-17.4-12.1-24-20.5-3.3-4.1-6.5-8.4-10-12.3-1.5-1.7-2.9-3.4-4.4-5.1-1.5-1.7-2.9-3.4-4.4-5.2-1,2.1-1.9,4.2-2.5,6.5-1,3.6-1.6,7.4-1.6,11.3v5c-3.2-1.1-6-2-8.5-2.8l-1.9-.6v-1.7c0-7.2,1.5-14.1,4.3-20.4h0v.2Z"/>
            <path class="st17" d="M321.8,263.3c2-.2,4.1-.5,6.1-.7,5.2-.5,10.4-.7,15.6-.1,10.5,1.1,20.8,3.1,30.7,7.6.5.2.8.7.8,1.3h0c0,.5-.3,1-.8,1.2-5,2.3-10,3.8-14.9,5-10.3,2.4-20.8,3.7-31.3,2.5h-.1c-2-.2-4-.5-6-.7v47.9c0,.5,0,1.1.1,1.6.5,6.1,2.4,12,5.4,17.1.4.6.7,1.2,1.1,1.8.4.6.9,1.3,1.3,1.9,3.6,4.8,8.2,8.8,13.8,11.6l6.7,3.4,5,2.5,5.5,2.8h0l45.6,23.5,45.7-23.5,5.5-2.8,5-2.5h0l6.7-3.4c5.5-2.8,10.2-6.8,13.8-11.6.5-.6.9-1.3,1.3-1.9.4-.6.8-1.2,1.1-1.8,3-5.1,4.9-11,5.4-17.1v-43.3h1.4c3-.4,5.9-.8,8.8-1h.2v43.9c-.4,6.3-1.9,12.4-4.4,17.9-.2.5-.4,1-.7,1.4-.2.5-.5,1-.7,1.4-.5.9-1,1.7-1.5,2.6-3.1,5.1-7.2,9.8-12,13.5-.8.7-1.7,1.3-2.6,1.9-1.1.8-2.2,1.5-3.4,2.1-.7.4-1.4.8-2.1,1.1l-67.5,34.7-67.5-34.7c-.7-.4-1.4-.7-2.1-1.1h0c-1.2-.7-2.3-1.4-3.4-2.1-.9-.6-1.8-1.3-2.6-1.9-5.6-4.4-10.2-9.9-13.5-16.1-.3-.5-.5-1-.8-1.5-.2-.5-.5-.9-.6-1.4-.1-.2-.2-.4-.3-.6-2.3-5.4-3.8-11.2-4.1-17.3v-64.1h0c3.5-.2,6.9-.6,10.4-1h-.1Z"/>
            <path class="st17" d="M491,279.4c-2,.2-4.1.5-6.1.7-5.2.5-10.4.7-15.6.1-10.5-1.1-20.8-3.1-30.7-7.6-.5-.2-.8-.7-.8-1.3h0c0-.5.3-1,.8-1.2,5-2.3,10-3.8,14.9-5,10.3-2.4,20.8-3.7,31.3-2.5h.2c2,.2,4,.5,6,.7v-11.8c1-.6,2-1.1,2.9-1.6,1.9-1.1,3.5-1.9,5.1-2.7.8-.4,1.6-.8,2.4-1.2v32.3h0c-3.5.2-6.9.6-10.4,1h0Z"/>
            <path class="st17" d="M376.8,181.4c4.7,9.4,10.8,18.2,13.7,28.4,3,10.2,5.1,20.4,4.8,31.2,0,.5-.4,1-.9,1.2h0c-.5.2-1.1.1-1.5-.3-4-3.7-7.3-7.8-10.3-11.9-6.2-8.7-11.4-17.9-14.3-28.1-1.5-5.1-2.8-10.2-4.5-15.2-.8-2.5-1.7-5.1-2.5-7.6-.6-2-1.3-3.9-1.9-5.9h0l-5.5,2.8-10.2,5.2c-2.2,1.1-4.3,2.5-6.2,3.9-.2-.1-.4-.3-.6-.5h0c-2.5-2.2-5-4.3-7.5-6.3,2.9-2.5,6.1-4.6,9.6-6.4l11.7-6,5.5-2.8,8.9-4.6h0c1.6,3.1,3.2,6.1,4.8,9.2.9,1.8,1.9,3.6,2.8,5.4,1.4,2.7,2.7,5.4,4.1,8.1h0v.2Z"/>
            <path class="st17" d="M406.4,239.9h0c-.5,0-1-.3-1.2-.8-2.3-5-3.8-10-5-14.9-2.4-10.4-3.7-20.9-2.5-31.5.6-5.2,1.3-10.5,1.7-15.7.4-6,.9-12.1,1.4-18.1.2-2.4.4-4.8.7-7.2l-6.4,3.3h0l-19.6,10.1c-1.6-3.1-3.2-6.1-4.8-9.2l25.5-13.1,6.5-3.4,3.8-1.9,3.8,1.9c.4,4.1.8,8.2,1.2,12.3.2,2.4.4,4.8.7,7.2.5,6,1,12,1.4,18.1.8,10.5,3,20.9,1.8,31.5s-3.1,20.8-7.6,30.7c-.2.5-.7.8-1.3.8h-.1Z"/>
          </g>
          <path class="st17" d="M437.8,370.2l-31.4,16.2-31.4-16.1c20.9,1,41.9,1,62.8,0h0Z"/>
          <path class="st17" d="M474.3,349.8c-3.1,3.5-10.8,7.3-17.3,10.5h0c-2.4,1.2-4.7,2.3-6.4,3.2l-1.1.6-2.6,1.3c-12.5-.7-26.2-1-40.5-1s-28.1.4-40.7,1.1l-2.6-1.3-1.8-.9-3.1-1.6-3.9-2h0l-7.7-4c-3-1.6-5.8-3.5-8.2-5.9,46.4,2,89,2,135.8,0h0Z"/>
          <path class="st17" d="M328.3,329c52.2,2.4,104,2.4,156.1,0-.6,6.1-2.9,11.8-6.4,16.6-48.5-2.2-94.4-2.2-143.2,0-3.5-4.8-5.8-10.5-6.4-16.6h0Z"/>
          <path class="st17" d="M328.2,308.5c52.3,2.4,104.2,2.4,156.5,0v16.8c-52.3-2.4-104.2-2.4-156.5,0v-16.8h0Z"/>
          <path class="st17" d="M328.2,289.6h156.5v15.2c-52.3-2.4-104.2-2.4-156.5,0v-15.2h0Z"/>
        </g>
        <g>
          <path class="st9" d="M472,270.1c-.9-34.5-28.8-62.4-63.3-63.3"/>
          <polygon class="st14" points="472 271.9 473 269.4 472 270 470.9 269.4 472 271.9"/>
          <polygon class="st14" points="406.9 206.8 409.4 205.8 408.8 206.8 409.4 207.9 406.9 206.8"/>
        </g>
        <rect class="st12" x="311.4" y="137.4" width="190" height="267.8"/>
        <line class="st12" x1="405.8" y1="137.4" x2="553.5" y2="212.8"/>
        <polyline class="st12" points="411.4 151.7 442.9 167.9 553.5 225.8"/>
        <line class="st12" x1="406.4" y1="137.4" x2="259.2" y2="212.5"/>
        <polyline class="st12" points="400.8 151.7 369.3 167.9 259.2 225.2"/>
        <line class="st12" x1="406.4" y1="405.2" x2="259.2" y2="329.8"/>
        <polyline class="st12" points="400.8 390.5 369.3 374.4 259.2 317"/>
        <line class="st12" x1="406.4" y1="405.2" x2="553" y2="329.8"/>
        <polyline class="st12" points="406.4 393.6 443.8 374.4 553.9 317"/>
        <line class="st12" x1="259.2" y1="289.6" x2="553.9" y2="289.6"/>
        <g>
          <circle class="st12" cx="455.9" cy="214.3" r="34.3"/>
          <circle class="st11" cx="356.9" cy="213.8" r="34.3" transform="translate(-46.7 315) rotate(-45)"/>
          <circle class="st12" cx="455.9" cy="329.4" r="34.3"/>
          <circle class="st10" cx="356.8" cy="328.8" r="34.3" transform="translate(-67.9 563.4) rotate(-71.6)"/>
          <ellipse class="st12" cx="356.2" cy="329" rx="43.7" ry="44.3"/>
          <ellipse class="st12" cx="456.6" cy="329" rx="43.7" ry="44.3"/>
          <ellipse class="st12" cx="456.6" cy="213.2" rx="43.7" ry="44.3"/>
          <ellipse class="st12" cx="356.2" cy="213.2" rx="43.7" ry="44.3"/>
          <circle class="st12" cx="406.3" cy="271.4" r="31.4"/>
          <rect class="st12" x="478.2" y="151.7" width="13.1" height="13.3"/>
          <rect class="st12" x="465.1" y="151.7" width="13.1" height="13.3"/>
          <rect class="st12" x="452.1" y="151.7" width="13.1" height="13.3"/>
          <rect class="st12" x="439" y="151.7" width="13.1" height="13.3"/>
          <rect class="st12" x="426" y="151.7" width="13.1" height="13.3"/>
          <rect class="st12" x="412.9" y="151.7" width="13.1" height="13.3"/>
          <rect class="st12" x="399.8" y="151.7" width="13.1" height="13.3"/>
          <rect class="st12" x="386.8" y="151.7" width="13.1" height="13.3"/>
          <rect class="st12" x="373.7" y="151.7" width="13.1" height="13.3"/>
          <rect class="st12" x="360.7" y="151.7" width="13.1" height="13.3"/>
          <rect class="st12" x="347.6" y="151.7" width="13.1" height="13.3"/>
          <rect class="st12" x="334.6" y="151.7" width="13.1" height="13.3"/>
          <rect class="st12" x="321.5" y="151.7" width="13.1" height="13.3"/>
          <rect class="st12" x="478.2" y="165" width="13.1" height="13.3"/>
          <rect class="st12" x="465.1" y="165" width="13.1" height="13.3"/>
          <rect class="st12" x="452.1" y="165" width="13.1" height="13.3"/>
          <rect class="st12" x="439" y="165" width="13.1" height="13.3"/>
          <rect class="st12" x="426" y="165" width="13.1" height="13.3"/>
          <rect class="st12" x="412.9" y="165" width="13.1" height="13.3"/>
          <rect class="st12" x="399.8" y="165" width="13.1" height="13.3"/>
          <rect class="st12" x="386.8" y="165" width="13.1" height="13.3"/>
          <rect class="st12" x="373.7" y="165" width="13.1" height="13.3"/>
          <rect class="st12" x="360.7" y="165" width="13.1" height="13.3"/>
          <rect class="st12" x="347.6" y="165" width="13.1" height="13.3"/>
          <rect class="st12" x="334.6" y="165" width="13.1" height="13.3"/>
          <rect class="st12" x="321.5" y="165" width="13.1" height="13.3"/>
          <rect class="st12" x="478.2" y="178.3" width="13.1" height="13.3"/>
          <rect class="st12" x="465.1" y="178.3" width="13.1" height="13.3"/>
          <rect class="st12" x="452.1" y="178.3" width="13.1" height="13.3"/>
          <rect class="st12" x="439" y="178.3" width="13.1" height="13.3"/>
          <rect class="st12" x="426" y="178.3" width="13.1" height="13.3"/>
          <rect class="st12" x="412.9" y="178.3" width="13.1" height="13.3"/>
          <rect class="st12" x="399.8" y="178.3" width="13.1" height="13.3"/>
          <rect class="st12" x="386.8" y="178.3" width="13.1" height="13.3"/>
          <rect class="st12" x="373.7" y="178.3" width="13.1" height="13.3"/>
          <rect class="st12" x="360.7" y="178.3" width="13.1" height="13.3"/>
          <rect class="st12" x="347.6" y="178.3" width="13.1" height="13.3"/>
          <rect class="st12" x="334.6" y="178.3" width="13.1" height="13.3"/>
          <rect class="st12" x="321.5" y="178.3" width="13.1" height="13.3"/>
          <rect class="st12" x="478.2" y="191.6" width="13.1" height="13.3"/>
          <rect class="st12" x="465.1" y="191.6" width="13.1" height="13.3"/>
          <rect class="st12" x="452.1" y="191.6" width="13.1" height="13.3"/>
          <rect class="st12" x="439" y="191.6" width="13.1" height="13.3"/>
          <rect class="st12" x="426" y="191.6" width="13.1" height="13.3"/>
          <rect class="st12" x="412.9" y="191.6" width="13.1" height="13.3"/>
          <rect class="st12" x="399.8" y="191.6" width="13.1" height="13.3"/>
          <rect class="st12" x="386.8" y="191.6" width="13.1" height="13.3"/>
          <rect class="st12" x="373.7" y="191.6" width="13.1" height="13.3"/>
          <rect class="st12" x="360.7" y="191.6" width="13.1" height="13.3"/>
          <rect class="st12" x="347.6" y="191.6" width="13.1" height="13.3"/>
          <rect class="st12" x="334.6" y="191.6" width="13.1" height="13.3"/>
          <rect class="st12" x="321.5" y="191.6" width="13.1" height="13.3"/>
          <rect class="st12" x="478.2" y="204.9" width="13.1" height="13.3"/>
          <rect class="st12" x="465.1" y="204.9" width="13.1" height="13.3"/>
          <rect class="st12" x="452.1" y="204.9" width="13.1" height="13.3"/>
          <rect class="st12" x="439" y="204.9" width="13.1" height="13.3"/>
          <rect class="st12" x="426" y="204.9" width="13.1" height="13.3"/>
          <rect class="st12" x="412.9" y="204.9" width="13.1" height="13.3"/>
          <rect class="st12" x="399.8" y="204.9" width="13.1" height="13.3"/>
          <rect class="st12" x="386.8" y="204.9" width="13.1" height="13.3"/>
          <rect class="st12" x="373.7" y="204.9" width="13.1" height="13.3"/>
          <rect class="st12" x="360.7" y="204.9" width="13.1" height="13.3"/>
          <rect class="st12" x="347.6" y="204.9" width="13.1" height="13.3"/>
          <rect class="st12" x="334.6" y="204.9" width="13.1" height="13.3"/>
          <rect class="st12" x="321.5" y="204.9" width="13.1" height="13.3"/>
          <rect class="st12" x="478.2" y="218.2" width="13.1" height="13.3"/>
          <rect class="st12" x="465.1" y="218.2" width="13.1" height="13.3"/>
          <rect class="st12" x="452.1" y="218.2" width="13.1" height="13.3"/>
          <rect class="st12" x="439" y="218.2" width="13.1" height="13.3"/>
          <rect class="st12" x="426" y="218.2" width="13.1" height="13.3"/>
          <rect class="st12" x="412.9" y="218.2" width="13.1" height="13.3"/>
          <rect class="st12" x="399.8" y="218.2" width="13.1" height="13.3"/>
          <rect class="st12" x="386.8" y="218.2" width="13.1" height="13.3"/>
          <rect class="st12" x="373.7" y="218.2" width="13.1" height="13.3"/>
          <rect class="st12" x="360.7" y="218.2" width="13.1" height="13.3"/>
          <rect class="st12" x="347.6" y="218.2" width="13.1" height="13.3"/>
          <rect class="st12" x="334.6" y="218.2" width="13.1" height="13.3"/>
          <rect class="st12" x="321.5" y="218.2" width="13.1" height="13.3"/>
          <rect class="st12" x="478.2" y="231.5" width="13.1" height="13.3"/>
          <rect class="st12" x="465.1" y="231.5" width="13.1" height="13.3"/>
          <rect class="st12" x="452.1" y="231.5" width="13.1" height="13.3"/>
          <rect class="st12" x="439" y="231.5" width="13.1" height="13.3"/>
          <rect class="st12" x="426" y="231.5" width="13.1" height="13.3"/>
          <rect class="st12" x="412.9" y="231.5" width="13.1" height="13.3"/>
          <rect class="st12" x="399.8" y="231.5" width="13.1" height="13.3"/>
          <rect class="st12" x="386.8" y="231.5" width="13.1" height="13.3"/>
          <rect class="st12" x="373.7" y="231.5" width="13.1" height="13.3"/>
          <rect class="st12" x="360.7" y="231.5" width="13.1" height="13.3"/>
          <rect class="st12" x="347.6" y="231.5" width="13.1" height="13.3"/>
          <rect class="st12" x="334.6" y="231.5" width="13.1" height="13.3"/>
          <rect class="st12" x="321.5" y="231.5" width="13.1" height="13.3"/>
          <rect class="st12" x="478.2" y="244.8" width="13.1" height="13.3"/>
          <rect class="st12" x="465.1" y="244.8" width="13.1" height="13.3"/>
          <rect class="st12" x="452.1" y="244.8" width="13.1" height="13.3"/>
          <rect class="st12" x="439" y="244.8" width="13.1" height="13.3"/>
          <rect class="st12" x="426" y="244.8" width="13.1" height="13.3"/>
          <rect class="st12" x="412.9" y="244.8" width="13.1" height="13.3"/>
          <rect class="st12" x="399.8" y="244.8" width="13.1" height="13.3"/>
          <rect class="st12" x="386.8" y="244.8" width="13.1" height="13.3"/>
          <rect class="st12" x="373.7" y="244.8" width="13.1" height="13.3"/>
          <rect class="st12" x="360.7" y="244.8" width="13.1" height="13.3"/>
          <rect class="st12" x="347.6" y="244.8" width="13.1" height="13.3"/>
          <rect class="st12" x="334.6" y="244.8" width="13.1" height="13.3"/>
          <rect class="st12" x="321.5" y="244.8" width="13.1" height="13.3"/>
          <rect class="st12" x="478.2" y="258" width="13.1" height="13.3"/>
          <rect class="st12" x="465.1" y="258" width="13.1" height="13.3"/>
          <rect class="st12" x="452.1" y="258" width="13.1" height="13.3"/>
          <rect class="st12" x="439" y="258" width="13.1" height="13.3"/>
          <rect class="st12" x="426" y="258" width="13.1" height="13.3"/>
          <rect class="st12" x="412.9" y="258" width="13.1" height="13.3"/>
          <rect class="st12" x="399.8" y="258" width="13.1" height="13.3"/>
          <rect class="st12" x="386.8" y="258" width="13.1" height="13.3"/>
          <rect class="st12" x="373.7" y="258" width="13.1" height="13.3"/>
          <rect class="st12" x="360.7" y="258" width="13.1" height="13.3"/>
          <rect class="st12" x="347.6" y="258" width="13.1" height="13.3"/>
          <rect class="st12" x="334.6" y="258" width="13.1" height="13.3"/>
          <rect class="st12" x="321.5" y="258" width="13.1" height="13.3"/>
          <rect class="st12" x="478.2" y="271.3" width="13.1" height="13.3"/>
          <rect class="st12" x="465.1" y="271.3" width="13.1" height="13.3"/>
          <rect class="st12" x="452.1" y="271.3" width="13.1" height="13.3"/>
          <rect class="st12" x="439" y="271.3" width="13.1" height="13.3"/>
          <rect class="st12" x="426" y="271.3" width="13.1" height="13.3"/>
          <rect class="st12" x="412.9" y="271.3" width="13.1" height="13.3"/>
          <rect class="st12" x="399.8" y="271.3" width="13.1" height="13.3"/>
          <rect class="st12" x="386.8" y="271.3" width="13.1" height="13.3"/>
          <rect class="st12" x="373.7" y="271.3" width="13.1" height="13.3"/>
          <rect class="st12" x="360.7" y="271.3" width="13.1" height="13.3"/>
          <rect class="st12" x="347.6" y="271.3" width="13.1" height="13.3"/>
          <rect class="st12" x="334.6" y="271.3" width="13.1" height="13.3"/>
          <rect class="st12" x="321.5" y="271.3" width="13.1" height="13.3"/>
          <rect class="st12" x="478.2" y="284.6" width="13.1" height="13.3"/>
          <rect class="st12" x="465.1" y="284.6" width="13.1" height="13.3"/>
          <rect class="st12" x="452.1" y="284.6" width="13.1" height="13.3"/>
          <rect class="st12" x="439" y="284.6" width="13.1" height="13.3"/>
          <rect class="st12" x="426" y="284.6" width="13.1" height="13.3"/>
          <rect class="st12" x="412.9" y="284.6" width="13.1" height="13.3"/>
          <rect class="st12" x="399.8" y="284.6" width="13.1" height="13.3"/>
          <rect class="st12" x="386.8" y="284.6" width="13.1" height="13.3"/>
          <rect class="st12" x="373.7" y="284.6" width="13.1" height="13.3"/>
          <rect class="st12" x="360.7" y="284.6" width="13.1" height="13.3"/>
          <rect class="st12" x="347.6" y="284.6" width="13.1" height="13.3"/>
          <rect class="st12" x="334.6" y="284.6" width="13.1" height="13.3"/>
          <rect class="st12" x="321.5" y="284.6" width="13.1" height="13.3"/>
          <rect class="st12" x="478.2" y="297.9" width="13.1" height="13.3"/>
          <rect class="st12" x="465.1" y="297.9" width="13.1" height="13.3"/>
          <rect class="st12" x="452.1" y="297.9" width="13.1" height="13.3"/>
          <rect class="st12" x="439" y="297.9" width="13.1" height="13.3"/>
          <rect class="st12" x="426" y="297.9" width="13.1" height="13.3"/>
          <rect class="st12" x="412.9" y="297.9" width="13.1" height="13.3"/>
          <rect class="st12" x="399.8" y="297.9" width="13.1" height="13.3"/>
          <rect class="st12" x="386.8" y="297.9" width="13.1" height="13.3"/>
          <rect class="st12" x="373.7" y="297.9" width="13.1" height="13.3"/>
          <rect class="st12" x="360.7" y="297.9" width="13.1" height="13.3"/>
          <rect class="st12" x="347.6" y="297.9" width="13.1" height="13.3"/>
          <rect class="st12" x="334.6" y="297.9" width="13.1" height="13.3"/>
          <rect class="st12" x="321.5" y="297.9" width="13.1" height="13.3"/>
          <rect class="st12" x="478.2" y="311.2" width="13.1" height="13.3"/>
          <rect class="st12" x="465.1" y="311.2" width="13.1" height="13.3"/>
          <rect class="st12" x="452.1" y="311.2" width="13.1" height="13.3"/>
          <rect class="st12" x="439" y="311.2" width="13.1" height="13.3"/>
          <rect class="st12" x="426" y="311.2" width="13.1" height="13.3"/>
          <rect class="st12" x="412.9" y="311.2" width="13.1" height="13.3"/>
          <rect class="st12" x="399.8" y="311.2" width="13.1" height="13.3"/>
          <rect class="st12" x="386.8" y="311.2" width="13.1" height="13.3"/>
          <rect class="st12" x="373.7" y="311.2" width="13.1" height="13.3"/>
          <rect class="st12" x="360.7" y="311.2" width="13.1" height="13.3"/>
          <rect class="st12" x="347.6" y="311.2" width="13.1" height="13.3"/>
          <rect class="st12" x="334.6" y="311.2" width="13.1" height="13.3"/>
          <rect class="st12" x="321.5" y="311.2" width="13.1" height="13.3"/>
          <rect class="st12" x="478.2" y="324.5" width="13.1" height="13.3"/>
          <rect class="st12" x="465.1" y="324.5" width="13.1" height="13.3"/>
          <rect class="st12" x="452.1" y="324.5" width="13.1" height="13.3"/>
          <rect class="st12" x="439" y="324.5" width="13.1" height="13.3"/>
          <rect class="st12" x="426" y="324.5" width="13.1" height="13.3"/>
          <rect class="st12" x="412.9" y="324.5" width="13.1" height="13.3"/>
          <rect class="st12" x="399.8" y="324.5" width="13.1" height="13.3"/>
          <rect class="st12" x="386.8" y="324.5" width="13.1" height="13.3"/>
          <rect class="st12" x="373.7" y="324.5" width="13.1" height="13.3"/>
          <rect class="st12" x="360.7" y="324.5" width="13.1" height="13.3"/>
          <rect class="st12" x="347.6" y="324.5" width="13.1" height="13.3"/>
          <rect class="st12" x="334.6" y="324.5" width="13.1" height="13.3"/>
          <rect class="st12" x="321.5" y="324.5" width="13.1" height="13.3"/>
          <rect class="st12" x="478.2" y="337.8" width="13.1" height="13.3"/>
          <rect class="st12" x="465.1" y="337.8" width="13.1" height="13.3"/>
          <rect class="st12" x="452.1" y="337.8" width="13.1" height="13.3"/>
          <rect class="st12" x="439" y="337.8" width="13.1" height="13.3"/>
          <rect class="st12" x="426" y="337.8" width="13.1" height="13.3"/>
          <rect class="st12" x="412.9" y="337.8" width="13.1" height="13.3"/>
          <rect class="st12" x="399.8" y="337.8" width="13.1" height="13.3"/>
          <rect class="st12" x="386.8" y="337.8" width="13.1" height="13.3"/>
          <rect class="st12" x="373.7" y="337.8" width="13.1" height="13.3"/>
          <rect class="st12" x="360.7" y="337.8" width="13.1" height="13.3"/>
          <rect class="st12" x="347.6" y="337.8" width="13.1" height="13.3"/>
          <rect class="st12" x="334.6" y="337.8" width="13.1" height="13.3"/>
          <rect class="st12" x="321.5" y="337.8" width="13.1" height="13.3"/>
          <rect class="st12" x="478.2" y="351.1" width="13.1" height="13.3"/>
          <rect class="st12" x="465.1" y="351.1" width="13.1" height="13.3"/>
          <rect class="st12" x="452.1" y="351.1" width="13.1" height="13.3"/>
          <rect class="st12" x="439" y="351.1" width="13.1" height="13.3"/>
          <rect class="st12" x="426" y="351.1" width="13.1" height="13.3"/>
          <rect class="st12" x="412.9" y="351.1" width="13.1" height="13.3"/>
          <rect class="st12" x="399.8" y="351.1" width="13.1" height="13.3"/>
          <rect class="st12" x="386.8" y="351.1" width="13.1" height="13.3"/>
          <rect class="st12" x="373.7" y="351.1" width="13.1" height="13.3"/>
          <rect class="st12" x="360.7" y="351.1" width="13.1" height="13.3"/>
          <rect class="st12" x="347.6" y="351.1" width="13.1" height="13.3"/>
          <rect class="st12" x="334.6" y="351.1" width="13.1" height="13.3"/>
          <rect class="st12" x="321.5" y="351.1" width="13.1" height="13.3"/>
          <rect class="st12" x="478.2" y="364.4" width="13.1" height="13.3"/>
          <rect class="st12" x="465.1" y="364.4" width="13.1" height="13.3"/>
          <rect class="st12" x="452.1" y="364.4" width="13.1" height="13.3"/>
          <rect class="st12" x="439" y="364.4" width="13.1" height="13.3"/>
          <rect class="st12" x="426" y="364.4" width="13.1" height="13.3"/>
          <rect class="st12" x="412.9" y="364.4" width="13.1" height="13.3"/>
          <rect class="st12" x="399.8" y="364.4" width="13.1" height="13.3"/>
          <rect class="st12" x="386.8" y="364.4" width="13.1" height="13.3"/>
          <rect class="st12" x="373.7" y="364.4" width="13.1" height="13.3"/>
          <rect class="st12" x="360.7" y="364.4" width="13.1" height="13.3"/>
          <rect class="st12" x="347.6" y="364.4" width="13.1" height="13.3"/>
          <rect class="st12" x="334.6" y="364.4" width="13.1" height="13.3"/>
          <rect class="st12" x="321.5" y="364.4" width="13.1" height="13.3"/>
          <rect class="st12" x="478.2" y="377.7" width="13.1" height="13.3"/>
          <rect class="st12" x="465.1" y="377.7" width="13.1" height="13.3"/>
          <rect class="st12" x="452.1" y="377.7" width="13.1" height="13.3"/>
          <rect class="st12" x="439" y="377.7" width="13.1" height="13.3"/>
          <rect class="st12" x="426" y="377.7" width="13.1" height="13.3"/>
          <rect class="st12" x="412.9" y="377.7" width="13.1" height="13.3"/>
          <rect class="st12" x="399.8" y="377.7" width="13.1" height="13.3"/>
          <rect class="st12" x="386.8" y="377.7" width="13.1" height="13.3"/>
          <rect class="st12" x="373.7" y="377.7" width="13.1" height="13.3"/>
          <rect class="st12" x="360.7" y="377.7" width="13.1" height="13.3"/>
          <rect class="st12" x="347.6" y="377.7" width="13.1" height="13.3"/>
          <rect class="st12" x="334.6" y="377.7" width="13.1" height="13.3"/>
          <rect class="st12" x="321.5" y="377.7" width="13.1" height="13.3"/>
          <rect class="st12" x="259.2" y="137.4" width="294.3" height="267.8"/>
          <polyline class="st12" points="470.8 137.4 459 176.1 453.4 173.4 465.1 137.4"/>
          <line class="st12" x1="489.6" y1="205.9" x2="547" y2="137.4"/>
          <polyline class="st12" points="538.1 137.4 494 190.9 486.8 199.5"/>
          <line class="st12" x1="416.1" y1="137.4" x2="417.9" y2="155"/>
          <line class="st12" x1="410.2" y1="139.4" x2="410" y2="137.4"/>
          <line class="st12" x1="375.4" y1="165" x2="360.7" y2="137.4"/>
          <line class="st12" x1="369.8" y1="167.7" x2="354.2" y2="137.3"/>
          <polyline class="st12" points="337.4 185.3 280.3 137.4 271.5 137.4 332.8 189.4"/>
          <polyline class="st12" points="322 222.2 259.2 201.9 259.2 207.5 321.5 228.6"/>
          <polyline class="st12" points="501.4 239.3 553.5 212.8 553.5 219.5 501.4 246"/>
          <line class="st12" x1="321.8" y1="257" x2="259.2" y2="264.7"/>
          <line class="st12" x1="321.5" y1="263.3" x2="259.2" y2="270.4"/>
          <polyline class="st12" points="491.2 279.4 553.5 272.4 553.5 279.4 491.2 285.6"/>
          <line class="st12" x1="406.4" y1="137.4" x2="406.4" y2="405.2"/>
          <line class="st12" x1="259.2" y1="271.3" x2="553.6" y2="271.3"/>
          <line class="st12" x1="501.4" y1="137.4" x2="501" y2="138"/>
          <line class="st13" x1="500.2" y1="139.1" x2="312.2" y2="404.1"/>
          <line class="st12" x1="311.8" y1="404.7" x2="311.4" y2="405.2"/>
          <line class="st12" x1="311.4" y1="137.4" x2="311.8" y2="138"/>
          <line class="st13" x1="312.6" y1="139.1" x2="500.6" y2="404.1"/>
          <line class="st12" x1="501" y1="404.7" x2="501.4" y2="405.2"/>
          <line class="st13" x1="553.5" y1="270" x2="490.2" y2="263.3"/>
          <line class="st13" x1="322.3" y1="279.1" x2="258.9" y2="272.4"/>
          <line class="st13" x1="321.5" y1="244.8" x2="259.2" y2="207.5"/>
          <line class="st13" x1="491.2" y1="228.6" x2="553.5" y2="212.8"/>
          <line class="st13" x1="480" y1="189.5" x2="537.7" y2="137.4"/>
          <line class="st13" x1="325.7" y1="199" x2="271.5" y2="137.4"/>
          <line class="st13" x1="359.4" y1="173.4" x2="347.6" y2="137.4"/>
          <line class="st13" x1="458.6" y1="137.4" x2="434" y2="184.9"/>
          <line class="st13" x1="400.6" y1="160.7" x2="402.5" y2="137.3"/>
          <path class="st12" d="M469.1,271.4c0,5,4.1,9.1,9.1,9.1s9.1-4.1,9.1-9.1-4.1-9.1-9.1-9.1-9.1,4.1-9.1,9.1Z"/>
          <path class="st12" d="M461.7,244.8c0,5,4.1,9.1,9.1,9.1s9.1-4.1,9.1-9.1-4.1-9.1-9.1-9.1-9.1,4.1-9.1,9.1Z"/>
          <path class="st12" d="M445.6,222.9c0,5,4.1,9.1,9.1,9.1s9.1-4.1,9.1-9.1-4.1-9.1-9.1-9.1-9.1,4.1-9.1,9.1Z"/>
          <path class="st12" d="M423.4,208.2c0,5,4.1,9.1,9.1,9.1s9.1-4.1,9.1-9.1-4.1-9.1-9.1-9.1-9.1,4.1-9.1,9.1h0Z"/>
          <path class="st12" d="M397.3,200.5c0,5,4.1,9.1,9.1,9.1s9.1-4.1,9.1-9.1-4.1-9.1-9.1-9.1-9.1,4.1-9.1,9.1h0Z"/>
          <path class="st12" d="M343.7,271.4c0,5-4.1,9.1-9.1,9.1s-9.1-4.1-9.1-9.1,4.1-9.1,9.1-9.1,9.1,4.1,9.1,9.1Z"/>
          <path class="st12" d="M351.1,244.8c0,5-4.1,9.1-9.1,9.1s-9.1-4.1-9.1-9.1,4.1-9.1,9.1-9.1,9.1,4.1,9.1,9.1Z"/>
          <path class="st12" d="M367.3,222.9c0,5-4.1,9.1-9.1,9.1s-9.1-4.1-9.1-9.1,4.1-9.1,9.1-9.1,9.1,4.1,9.1,9.1Z"/>
          <path class="st12" d="M389.4,208.2c0,5-4.1,9.1-9.1,9.1s-9.1-4.1-9.1-9.1,4.1-9.1,9.1-9.1,9.1,4.1,9.1,9.1h0Z"/>
          <rect class="st12" x="402.5" y="137.3" width="7.7" height="253.6"/>
          <circle class="st12" cx="439" cy="327.2" r="3.3"/>
          <circle class="st12" cx="439" cy="347.7" r="3.3"/>
          <path class="st12" d="M423,367.7c0,1.7,1.3,3,3,3s3-1.4,3-3-1.3-3-3-3-3,1.4-3,3Z"/>
          <path class="st12" d="M435.7,306.7c0,1.8,1.5,3.3,3.3,3.3s3.3-1.5,3.3-3.3-1.5-3.3-3.3-3.3-3.3,1.5-3.3,3.3Z"/>
          <polyline class="st12" points="484.9 304.9 491 304.9 491 308.5 484.9 308.5"/>
          <polyline class="st12" points="484.9 325.3 491 325.3 491 329 484.9 329"/>
          <polyline class="st12" points="478.2 345.8 485.6 345.8 482.7 350 474.1 350"/>
          <line class="st12" x1="437.9" y1="370.5" x2="451.3" y2="370.5"/>
        </g>
        <g class="st2">
          <g class="st2">
            <text class="st1" transform="translate(453.3 222.9)"><tspan x="0" y="0">r20</tspan></text>
          </g>
        </g>
        <g class="st2">
          <g class="st2">
            <text class="st0" transform="translate(401.1 198.2)"><tspan x="0" y="0">14</tspan></text>
          </g>
          <g class="st2">
            <text class="st0" transform="translate(405 198.2)"><tspan x="0" y="0">p</tspan></text>
          </g>
          <g class="st2">
            <text class="st0" transform="translate(407.4 198.2)"><tspan x="0" y="0">t</tspan></text>
          </g>
          <g class="st2">
            <text class="st0" transform="translate(408.9 198.2)"><tspan x="0" y="0">-</tspan></text>
          </g>
          <g class="st2">
            <text class="st0" transform="translate(410.4 198.2)"><tspan x="0" y="0">t</tspan></text>
          </g>
        </g>
        <g class="st2">
          <g class="st2">
            <text class="st0" transform="translate(401.5 171.1)"><tspan x="0" y="0">9</tspan></text>
          </g>
          <g class="st2">
            <text class="st0" transform="translate(404 171.1)"><tspan x="0" y="0">p</tspan></text>
          </g>
          <g class="st2">
            <text class="st0" transform="translate(406.5 171.1)"><tspan x="0" y="0">t</tspan></text>
          </g>
          <g class="st2">
            <text class="st0" transform="translate(408 171.1)"><tspan x="0" y="0">-</tspan></text>
          </g>
          <g class="st2">
            <text class="st0" transform="translate(409.4 171.1)"><tspan x="0" y="0">t</tspan></text>
          </g>
        </g>
        <g>
          <line class="st8" x1="399.1" y1="200.7" x2="413.4" y2="200.7"/>
          <polygon class="st4" points="397.4 200.7 399.8 201.8 399.3 200.7 399.8 199.7 397.4 200.7"/>
          <polygon class="st4" points="415.2 200.7 412.7 201.8 413.3 200.7 412.7 199.7 415.2 200.7"/>
        </g>
        <g>
          <line class="st8" x1="401.4" y1="173.7" x2="411.1" y2="173.7"/>
          <polygon class="st4" points="399.7 173.7 402.2 174.7 401.6 173.7 402.2 172.6 399.7 173.7"/>
          <polygon class="st4" points="412.8 173.7 410.4 174.7 411 173.7 410.4 172.6 412.8 173.7"/>
        </g>
      </g>
    </g>
    <g>
      <g>
        <path class="st17" d="M482.5,204.5c-1.5,1.7-2.9,3.4-4.4,5.1-6.9,7.9-12.7,16.9-21,23.5s-16.8,12.5-27,16.3c-.5.2-1.1,0-1.5-.3s-.5-.9-.3-1.4c1.9-5.1,4.4-9.7,7-14.1,5.7-9,12.2-17.4,20.5-24,4.1-3.3,8.3-6.5,12.3-9.9,2.4-2.1,4.8-4.1,7.2-6.2,1.5-1.3,3.1-2.6,4.7-4-1.4-1.5-2.9-2.9-4.6-4.1-1.9-1.5-4-2.8-6.2-4l-10.2-5.2c0-.3.2-.6.3-1,1-3,1.9-6,2.9-9.1l11.7,6c3.5,1.8,6.7,3.9,9.6,6.4,1.6,1.3,3.1,2.8,4.5,4.3.6.6,1.1,1.2,1.7,1.9,1.6,1.9,3.1,4,4.4,6.2-2.4,2.9-4.8,5.7-7.2,8.5-1.5,1.7-2.9,3.4-4.4,5.2h0Z"/>
        <path class="st17" d="M321.9,228.7c2,.7,4,1.3,6,1.8,8.1,2.4,16.3,4.4,23.7,8.6,9.3,5.1,18,10.8,25.4,18.7.4.4.5,1,.3,1.5h0c-.2.5-.7.8-1.2.9-5.5.2-10.7-.3-15.7-1.1-10.5-1.8-20.7-4.6-30-9.7-.8-.4-1.7-.9-2.5-1.4-2-1.1-4.1-2.3-6.1-3.4v12.6h-1.4c-3,.4-5.9.8-8.7,1h-.2v-32.9c3.5,1.1,6.9,2.3,10.4,3.4h.1,0Z"/>
        <path class="st17" d="M491,244.5c-2,1.1-4.1,2.3-6.1,3.4-5.4,3-11,5.8-17,7.5-10.2,3-20.3,5.1-31.2,4.8-.5,0-1-.4-1.2-.9h0c-.2-.5,0-1.1.3-1.5,3.7-4,7.8-7.3,11.9-10.3,8.7-6.2,17.9-11.4,28.1-14.3,3-.9,6.1-1.7,9.2-2.6,2.1-.6,4.1-1.2,6.1-1.9h0v-11.5c0-3.9-.5-7.7-1.6-11.3.7-.9,1.4-1.7,2.2-2.5,1.9-2.2,3.7-4.4,5.5-6.6,2.8,6.3,4.3,13.2,4.3,20.4v22c-1.7.9-3.4,1.7-5.1,2.6-1.8.9-3.5,1.8-5.3,2.8h-.1Z"/>
        <path class="st17" d="M453.5,173.3h0c-.6,2-1.3,3.9-1.9,5.9-.8,2.6-1.7,5.1-2.5,7.6-3.3,10-5.2,20.5-10.4,29.7-5.1,9.3-10.8,18-18.7,25.4-.4.4-1,.5-1.5.3h0c-.5-.2-.8-.7-.8-1.2-.2-5.5.3-10.6,1.1-15.7,1.8-10.5,4.6-20.7,9.7-30,2.5-4.6,5.2-9.2,7.6-13.9,1.3-2.7,2.7-5.4,4.1-8.1.9-1.8,1.8-3.6,2.8-5.4l-5.4-2.8-19.6-10.1h0c0-1.3-.2-2.6-.3-3.9-.3-3-.5-5.8-.8-8.4l25.5,13.1,5.5,2.8,9,4.6c-1,3.4-2.1,6.7-3.2,10h-.2Z"/>
        <path class="st17" d="M315.7,196.7c.9-2,1.9-4,3.1-5.9h0c1.3-2.2,2.8-4.2,4.4-6.2.5-.6,1.1-1.3,1.7-1.9,2.7,2.2,5.3,4.4,8,6.7,1.6,1.3,3.1,2.6,4.7,4,2.4,2.1,4.8,4.1,7.2,6.2,7.9,6.9,16.9,12.7,23.5,21,6.7,8.3,12.5,16.9,16.3,27,.2.5,0,1.1-.3,1.5h0c-.4.4-.9.5-1.4.3-5.2-1.9-9.7-4.4-14.1-7.1-9-5.7-17.4-12.1-24-20.5-3.3-4.1-6.5-8.4-10-12.3-1.5-1.7-2.9-3.4-4.4-5.1-1.5-1.7-2.9-3.4-4.4-5.2-1,2.1-1.9,4.2-2.5,6.5-1,3.6-1.6,7.4-1.6,11.3v5c-3.2-1.1-6-2-8.5-2.8l-1.9-.6v-1.7c0-7.2,1.5-14.1,4.3-20.4h0v.2Z"/>
        <path class="st17" d="M321.8,263.3c2-.2,4.1-.5,6.1-.7,5.2-.5,10.4-.7,15.6-.1,10.5,1.1,20.8,3.1,30.7,7.6.5.2.8.7.8,1.3h0c0,.5-.3,1-.8,1.2-5,2.3-10,3.8-14.9,5-10.3,2.4-20.8,3.7-31.3,2.5h-.1c-2-.2-4-.5-6-.7v47.9c0,.5,0,1.1.1,1.6.5,6.1,2.4,12,5.4,17.1.4.6.7,1.2,1.1,1.8.4.6.9,1.3,1.3,1.9,3.6,4.8,8.2,8.8,13.8,11.6l6.7,3.4,5,2.5,5.5,2.8h0l45.6,23.5,45.7-23.5,5.5-2.8,5-2.5h0l6.7-3.4c5.5-2.8,10.2-6.8,13.8-11.6.5-.6.9-1.3,1.3-1.9.4-.6.8-1.2,1.1-1.8,3-5.1,4.9-11,5.4-17.1v-43.3h1.4c3-.4,5.9-.8,8.8-1h.2v43.9c-.4,6.3-1.9,12.4-4.4,17.9-.2.5-.4,1-.7,1.4-.2.5-.5,1-.7,1.4-.5.9-1,1.7-1.5,2.6-3.1,5.1-7.2,9.8-12,13.5-.8.7-1.7,1.3-2.6,1.9-1.1.8-2.2,1.5-3.4,2.1-.7.4-1.4.8-2.1,1.1l-67.5,34.7-67.5-34.7c-.7-.4-1.4-.7-2.1-1.1h0c-1.2-.7-2.3-1.4-3.4-2.1-.9-.6-1.8-1.3-2.6-1.9-5.6-4.4-10.2-9.9-13.5-16.1-.3-.5-.5-1-.8-1.5-.2-.5-.5-.9-.6-1.4-.1-.2-.2-.4-.3-.6-2.3-5.4-3.8-11.2-4.1-17.3v-64.1h0c3.5-.2,6.9-.6,10.4-1h-.1Z"/>
        <path class="st17" d="M491,279.4c-2,.2-4.1.5-6.1.7-5.2.5-10.4.7-15.6.1-10.5-1.1-20.8-3.1-30.7-7.6-.5-.2-.8-.7-.8-1.3h0c0-.5.3-1,.8-1.2,5-2.3,10-3.8,14.9-5,10.3-2.4,20.8-3.7,31.3-2.5h.2c2,.2,4,.5,6,.7v-11.8c1-.6,2-1.1,2.9-1.6,1.9-1.1,3.5-1.9,5.1-2.7.8-.4,1.6-.8,2.4-1.2v32.3h0c-3.5.2-6.9.6-10.4,1h0Z"/>
        <path class="st17" d="M376.8,181.4c4.7,9.4,10.8,18.2,13.7,28.4,3,10.2,5.1,20.4,4.8,31.2,0,.5-.4,1-.9,1.2h0c-.5.2-1.1.1-1.5-.3-4-3.7-7.3-7.8-10.3-11.9-6.2-8.7-11.4-17.9-14.3-28.1-1.5-5.1-2.8-10.2-4.5-15.2-.8-2.5-1.7-5.1-2.5-7.6-.6-2-1.3-3.9-1.9-5.9h0l-5.5,2.8-10.2,5.2c-2.2,1.1-4.3,2.5-6.2,3.9-.2-.1-.4-.3-.6-.5h0c-2.5-2.2-5-4.3-7.5-6.3,2.9-2.5,6.1-4.6,9.6-6.4l11.7-6,5.5-2.8,8.9-4.6h0c1.6,3.1,3.2,6.1,4.8,9.2.9,1.8,1.9,3.6,2.8,5.4,1.4,2.7,2.7,5.4,4.1,8.1h0v.2Z"/>
        <path class="st17" d="M406.4,239.9h0c-.5,0-1-.3-1.2-.8-2.3-5-3.8-10-5-14.9-2.4-10.4-3.7-20.9-2.5-31.5.6-5.2,1.3-10.5,1.7-15.7.4-6,.9-12.1,1.4-18.1.2-2.4.4-4.8.7-7.2l-6.4,3.3h0l-19.6,10.1c-1.6-3.1-3.2-6.1-4.8-9.2l25.5-13.1,6.5-3.4,3.8-1.9,3.8,1.9c.4,4.1.8,8.2,1.2,12.3.2,2.4.4,4.8.7,7.2.5,6,1,12,1.4,18.1.8,10.5,3,20.9,1.8,31.5s-3.1,20.8-7.6,30.7c-.2.5-.7.8-1.3.8h-.1Z"/>
      </g>
      <path class="st17" d="M437.8,370.2l-31.4,16.2-31.4-16.1c20.9,1,41.9,1,62.8,0h0Z"/>
      <path class="st17" d="M474.3,349.8c-3.1,3.5-10.8,7.3-17.3,10.5h0c-2.4,1.2-4.7,2.3-6.4,3.2l-1.1.6-2.6,1.3c-12.5-.7-26.2-1-40.5-1s-28.1.4-40.7,1.1l-2.6-1.3-1.8-.9-3.1-1.6-3.9-2h0l-7.7-4c-3-1.6-5.8-3.5-8.2-5.9,46.4,2,89,2,135.8,0h0Z"/>
      <path class="st17" d="M328.3,329c52.2,2.4,104,2.4,156.1,0-.6,6.1-2.9,11.8-6.4,16.6-48.5-2.2-94.4-2.2-143.2,0-3.5-4.8-5.8-10.5-6.4-16.6h0Z"/>
      <path class="st17" d="M328.2,308.5c52.3,2.4,104.2,2.4,156.5,0v16.8c-52.3-2.4-104.2-2.4-156.5,0v-16.8h0Z"/>
      <path class="st17" d="M328.2,289.6h156.5v15.2c-52.3-2.4-104.2-2.4-156.5,0v-15.2h0Z"/>
    </g>
  </g>
</svg>