<?xml version="1.0" encoding="UTF-8"?>
<svg id="Livello_1" data-name="Livello 1" xmlns="http://www.w3.org/2000/svg" viewBox="0 0 1573.09 473.89">
  <defs>
    <style>
      .cls-1 {
        stroke-dasharray: 1.26 1.26;
      }

      .cls-1, .cls-2, .cls-3, .cls-4, .cls-5, .cls-6 {
        fill: none;
        stroke-miterlimit: 10;
        stroke-width: .5px;
      }

      .cls-1, .cls-5, .cls-6 {
        stroke: #9c9b99;
      }

      .cls-7 {
        fill: #e00c19;
      }

      .cls-7, .cls-8, .cls-9 {
        font-family: AreaNormal-SemiBold, 'Area Normal';
        font-weight: 600;
      }

      .cls-7, .cls-9 {
        font-size: 3.69px;
      }

      .cls-8 {
        font-size: 4.42px;
        letter-spacing: 0em;
      }

      .cls-8, .cls-9 {
        fill: #1d1e1c;
      }

      .cls-10 {
        fill: #1d1d1b;
      }

      .cls-2 {
        stroke: #9d9d9c;
      }

      .cls-11 {
        fill: #e20613;
      }

      .cls-12 {
        fill: #fff;
      }

      .cls-3 {
        stroke: #1d1d1b;
      }

      .cls-13 {
        opacity: .6;
      }

      .cls-4 {
        stroke: #e20613;
      }

      .cls-14 {
        letter-spacing: -.02em;
      }

      .cls-15 {
        letter-spacing: 0em;
      }

      .cls-16 {
        letter-spacing: 0em;
      }

      .cls-17 {
        letter-spacing: 0em;
      }

      .cls-18 {
        fill: #ededed;
      }

      .cls-6 {
        stroke-dasharray: 1.26 1.26;
      }
    </style>
  </defs>
  <rect width="1573.09" height="473.89"/>
  <g>
    <g>
      <g>
        <path class="cls-18" d="M1093.52,137.99h-74.43c-31.72,0-57.44,25.72-57.44,57.44v125.08c0,45.57,36.94,82.51,82.51,82.51h24.28c45.57,0,82.51-36.94,82.51-82.51v-125.08c0-31.72-25.72-57.44-57.44-57.44ZM1131.07,320.5c0,16.73-6.51,32.45-18.34,44.28-11.83,11.83-27.55,18.34-44.28,18.34h-24.28c-16.73,0-32.45-6.51-44.28-18.34-11.83-11.83-18.34-27.55-18.34-44.28v-125.08c0-20.71,16.84-37.55,37.55-37.55h74.43c20.71,0,37.55,16.84,37.55,37.55v125.08Z"/>
        <path class="cls-18" d="M1097.14,176.93h-81.68c-9.06,0-16.43,7.37-16.43,16.43v78.7h19.89v-18.45h74.77v18.45h19.89v-78.7c0-9.06-7.37-16.43-16.43-16.43ZM1018.92,233.72v-36.9h74.77v36.9h-74.77Z"/>
        <polygon class="cls-18" points="999.03 310.47 1032.2 310.47 1002.2 340.47 1016.32 354.59 1046.32 324.59 1046.32 367.02 1066.29 367.02 1066.29 324.59 1096.29 354.59 1110.41 340.47 1080.41 310.47 1113.57 310.47 1113.57 290.5 999.03 290.5 999.03 310.47"/>
      </g>
      <line class="cls-2" x1="1151.23" y1="137.98" x2="1151.23" y2="403.01"/>
      <line class="cls-2" x1="1178.96" y1="137.99" x2="933.93" y2="137.99"/>
      <line class="cls-2" x1="1178.96" y1="157.87" x2="933.93" y2="157.87"/>
      <polyline class="cls-2" points="1178.96 176.92 1165.61 176.92 946.86 176.92 933.93 176.92"/>
      <polyline class="cls-2" points="1178.96 196.81 1174.12 196.81 1145.72 196.81 966.75 196.81 938.5 196.81 933.93 196.81"/>
      <polyline class="cls-2" points="933.93 233.72 975.41 233.72 1003.66 233.72 1108.81 233.72 1137.21 233.72 1178.96 233.72"/>
      <polyline class="cls-2" points="1178.96 253.61 1117.32 253.61 1088.92 253.61 1023.55 253.61 995.3 253.61 933.93 253.61"/>
      <polyline class="cls-2" points="1178.96 272.06 1178.85 272.06 1098.87 272.06 1070.47 272.06 1042 272.06 1013.75 272.06 933.93 272.06 933.76 272.06"/>
      <polyline class="cls-2" points="1178.96 290.5 1160.41 290.5 1080.43 290.5 1060.45 290.5 1052.03 290.5 1032.19 290.5 952.2 290.5 933.93 290.5"/>
      <polyline class="cls-2" points="1178.96 310.48 1140.44 310.48 1080.41 310.48 1060.46 310.48 1052.17 310.48 1032.05 310.48 972.18 310.48 933.93 310.48"/>
      <polyline class="cls-2" points="1178.96 383.13 1153.06 383.13 1124.81 383.13 1067.79 383.13 1044.82 383.13 987.81 383.13 959.4 383.13 933.93 383.13"/>
      <polyline class="cls-2" points="1178.96 367.02 1136.95 367.02 1108.7 367.02 1083.9 367.02 1028.71 367.02 1003.92 367.02 975.51 367.02 933.93 367.02"/>
      <polyline class="cls-2" points="1178.96 403.01 1172.95 403.01 1144.7 403.01 1064.71 403.01 1047.9 403.01 967.92 403.01 939.51 403.01 933.93 403.01"/>
      <line class="cls-2" x1="1131.06" y1="137.98" x2="1131.07" y2="403.01"/>
      <line class="cls-2" x1="1113.57" y1="137.98" x2="1113.57" y2="403.01"/>
      <polyline class="cls-2" points="1093.69 403.01 1093.69 357.22 1093.69 352 1093.69 323.75 1093.69 277.24 1093.69 248.83 1093.68 137.99"/>
      <polyline class="cls-2" points="1066.29 403.01 1066.29 384.62 1066.29 324.59 1066.29 304.66 1066.29 296.35 1066.29 276.24 1066.28 137.99"/>
      <line class="cls-2" x1="961.64" y1="137.98" x2="961.65" y2="403.01"/>
      <line class="cls-2" x1="981.53" y1="137.98" x2="981.54" y2="403.01"/>
      <line class="cls-2" x1="999.03" y1="137.98" x2="999.03" y2="403.01"/>
      <line class="cls-2" x1="1018.91" y1="137.98" x2="1018.92" y2="403.01"/>
      <line class="cls-2" x1="1046.31" y1="137.98" x2="1046.32" y2="403.01"/>
      <polyline class="cls-2" points="1047.9 403.01 1056.3 394.6 1066.29 384.62 1067.78 383.12 1083.9 367.02 1093.69 357.22 1096.3 354.61 1110.42 340.48 1113.57 337.34 1131.06 319.84 1140.43 310.47 1151.23 299.69 1160.41 290.5 1178.85 272.06 1178.97 271.95"/>
      <polyline class="cls-2" points="1178.96 191.97 1174.12 196.81 1137.21 233.72 1117.32 253.61 1098.87 272.06 1080.43 290.5 1070.44 300.5 1060.46 310.48 1056.31 314.62 1016.32 354.62 1003.92 367.02 987.81 383.13 967.92 403.01"/>
      <polyline class="cls-2" points="1178.96 163.57 1165.61 176.92 1145.72 196.81 1108.81 233.72 1088.92 253.61 1070.47 272.06 1056.24 286.3 1052.03 290.5 1042.11 300.42 1032.05 310.48 1002.11 340.41 975.51 367.02 959.4 383.13 939.51 403.01"/>
      <polyline class="cls-2" points="1064.7 403.01 1056.3 394.6 1046.32 384.62 1044.82 383.12 1028.71 367.02 1018.92 357.22 1016.32 354.62 1002.12 340.42 999.03 337.34 981.54 319.84 972.17 310.47 961.65 299.95 952.2 290.5 933.92 272.22 933.75 272.06"/>
      <polyline class="cls-2" points="933.93 192.24 938.5 196.81 975.41 233.72 995.3 253.61 1013.75 272.06 1032.19 290.5 1042.11 300.42 1052.17 310.48 1056.31 314.62 1096.3 354.61 1108.7 367.02 1124.81 383.13 1144.7 403.01"/>
      <polyline class="cls-2" points="933.93 163.99 946.86 176.92 966.75 196.81 1003.66 233.72 1023.55 253.61 1042 272.06 1056.24 286.3 1060.45 290.5 1070.44 300.5 1080.41 310.48 1110.42 340.49 1136.95 367.02 1153.06 383.13 1172.95 403.01"/>
      <circle class="cls-2" cx="1015.5" cy="193.4" r="16.47"/>
      <circle class="cls-2" cx="1019.06" cy="195.4" r="37.53"/>
      <circle class="cls-2" cx="1044.08" cy="320.58" r="62.55"/>
      <circle class="cls-2" cx="1044.34" cy="320.33" r="82.69"/>
      <circle class="cls-2" cx="1097.25" cy="193.4" r="16.47"/>
      <circle class="cls-2" cx="1093.69" cy="195.4" r="37.53"/>
      <circle class="cls-2" cx="1068.52" cy="320.83" r="62.55"/>
      <circle class="cls-2" cx="1068.27" cy="320.58" r="82.69"/>
      <polyline class="cls-2" points="1066.29 403.01 933.92 403.01 933.92 137.99 1178.96 137.99 1178.97 403.01 1093.69 403.01"/>
      <g>
        <path class="cls-3" d="M1097.14,176.93h-81.68c-9.06,0-16.43,7.37-16.43,16.43v78.7h19.89v-18.45h74.77v18.45h19.89v-78.7c0-9.06-7.37-16.43-16.43-16.43ZM1018.92,233.72v-36.9h74.77v36.9h-74.77Z"/>
        <polygon class="cls-3" points="999.03 310.47 1032.2 310.47 1002.2 340.47 1016.32 354.59 1046.32 324.59 1046.32 367.02 1066.29 367.02 1066.29 324.59 1096.29 354.59 1110.41 340.47 1080.41 310.47 1113.57 310.47 1113.57 290.5 999.03 290.5 999.03 310.47"/>
        <path class="cls-3" d="M1093.52,137.99h-74.43c-31.72,0-57.44,25.72-57.44,57.44v125.08c0,45.57,36.94,82.51,82.51,82.51h24.28c45.57,0,82.51-36.94,82.51-82.51v-125.08c0-31.72-25.72-57.44-57.44-57.44ZM1131.07,320.5c0,16.73-6.51,32.45-18.34,44.28-11.83,11.83-27.55,18.34-44.28,18.34h-24.28c-16.73,0-32.45-6.51-44.28-18.34-11.83-11.83-18.34-27.55-18.34-44.28v-125.08c0-20.71,16.84-37.55,37.55-37.55h74.43c20.71,0,37.55,16.84,37.55,37.55v125.08Z"/>
      </g>
      <text class="cls-8" transform="translate(946.52 271.96)"><tspan x="0" y="0">18pt-t</tspan></text>
      <g>
        <line class="cls-3" x1="979.77" y1="270.62" x2="963.42" y2="270.62"/>
        <polygon class="cls-10" points="981.54 270.62 979.05 269.61 979.64 270.62 979.05 271.64 981.54 270.62"/>
        <polygon class="cls-10" points="961.65 270.62 964.14 269.61 963.55 270.62 964.14 271.64 961.65 270.62"/>
      </g>
    </g>
    <g>
      <path class="cls-18" d="M1093.58,137.99h-74.43c-31.72,0-57.44,25.72-57.44,57.44v125.08c0,45.57,36.94,82.51,82.51,82.51h24.28c45.57,0,82.51-36.94,82.51-82.51v-125.08c0-31.72-25.72-57.44-57.44-57.44ZM1131.13,320.5c0,16.73-6.51,32.45-18.34,44.28-11.83,11.83-27.55,18.34-44.28,18.34h-24.28c-16.73,0-32.45-6.51-44.28-18.34-11.83-11.83-18.34-27.55-18.34-44.28v-125.08c0-20.71,16.84-37.55,37.55-37.55h74.43c20.71,0,37.55,16.84,37.55,37.55v125.08Z"/>
      <path class="cls-18" d="M1097.2,176.93h-81.68c-9.06,0-16.43,7.37-16.43,16.43v78.7h19.89v-18.45h74.77v18.45h19.89v-78.7c0-9.06-7.37-16.43-16.43-16.43ZM1018.98,233.72v-36.9h74.77v36.9h-74.77Z"/>
      <polygon class="cls-18" points="999.09 310.47 1032.25 310.47 1002.26 340.47 1016.38 354.59 1046.38 324.59 1046.38 367.02 1066.35 367.02 1066.35 324.59 1096.34 354.59 1110.47 340.47 1080.47 310.47 1113.63 310.47 1113.63 290.5 999.09 290.5 999.09 310.47"/>
    </g>
  </g>
  <g>
    <path class="cls-12" d="M1055.61,94.7v21.67c0,.97,1.5.97,1.5,0v-21.67c0-.97-1.5-.97-1.5,0h0Z"/>
    <path class="cls-12" d="M1050.08,113.02l5.75,5.08c.31.27.75.29,1.06,0,1.92-1.82,3.84-3.63,5.76-5.45.7-.66-.36-1.72-1.06-1.06-1.92,1.82-3.84,3.63-5.76,5.45h1.06l-5.75-5.08c-.72-.64-1.79.42-1.06,1.06h0Z"/>
  </g>
  <g>
    <g>
      <path class="cls-12" d="M942.33,73.08v-22.2h3.24v19.23h7.71v2.97h-10.95Z"/>
      <path class="cls-12" d="M968.94,73.08v-2.58h-.06c-1.17,1.98-3.27,3-5.64,3-4.86,0-8.82-3.66-8.82-8.46,0-5.31,3.81-9.03,8.7-9.03,2.43,0,4.47.9,5.76,2.79h.06v-2.34h3.12v16.62h-3.12ZM969,64.8c0-3.24-2.34-5.94-5.79-5.94-3.12,0-5.67,2.67-5.67,5.94s2.55,5.85,5.67,5.85,5.79-2.7,5.79-5.85Z"/>
      <path class="cls-12" d="M1006.95,73.08v-9.3c0-3.15-1.32-4.92-3.93-4.92-2.76,0-3.96,1.53-3.96,4.86v9.36h-3.12v-9.66c0-3.27-1.53-4.56-3.78-4.56-2.76,0-4.11,1.62-4.11,4.89v9.33h-3.12v-16.62h2.88v1.8h.06c1.35-1.59,2.61-2.25,4.77-2.25s4.32,1.05,5.16,2.79c1.2-1.89,2.85-2.79,5.49-2.79,4.32,0,6.78,2.7,6.78,6.99v10.08h-3.12Z"/>
      <path class="cls-12" d="M1014.06,54.54v-3.66h3.12v3.66h-3.12ZM1014.06,73.08v-16.62h3.12v16.62h-3.12Z"/>
      <path class="cls-12" d="M1034.85,73.08v-2.58h-.06c-1.17,1.98-3.27,3-5.64,3-4.86,0-8.82-3.66-8.82-8.46,0-5.31,3.81-9.03,8.7-9.03,2.43,0,4.47.9,5.76,2.79h.06v-2.34h3.12v16.62h-3.12ZM1034.91,64.8c0-3.24-2.34-5.94-5.79-5.94-3.12,0-5.67,2.67-5.67,5.94s2.55,5.85,5.67,5.85,5.79-2.7,5.79-5.85Z"/>
      <path class="cls-12" d="M1050.84,78.63v-22.17h2.85v2.55h.06c1.41-2.01,3.54-3,5.91-3,4.95,0,8.61,3.84,8.61,8.97,0,4.68-3.63,8.52-8.4,8.52-2.52,0-4.77-1.02-5.85-2.82h-.06v7.95h-3.12ZM1065.15,64.8c0-3.03-2.4-5.94-5.73-5.94-3.12,0-5.52,2.79-5.52,5.88s2.4,5.91,5.64,5.91,5.61-2.67,5.61-5.85Z"/>
      <path class="cls-12" d="M1079.4,73.5c-4.68,0-8.85-3.99-8.85-8.67,0-5.07,3.99-8.82,9.09-8.82,4.59,0,8.91,3.6,8.85,8.88-.06,4.44-3.78,8.61-9.09,8.61ZM1079.49,58.86c-3.12,0-5.82,2.64-5.82,5.88s2.61,5.91,5.76,5.91,5.94-2.58,5.94-5.94-2.61-5.85-5.88-5.85Z"/>
      <path class="cls-12" d="M1091.67,78.63v-22.17h2.85v2.55h.06c1.41-2.01,3.54-3,5.91-3,4.95,0,8.61,3.84,8.61,8.97,0,4.68-3.63,8.52-8.4,8.52-2.52,0-4.77-1.02-5.85-2.82h-.06v7.95h-3.12ZM1105.98,64.8c0-3.03-2.4-5.94-5.73-5.94-3.12,0-5.52,2.79-5.52,5.88s2.4,5.91,5.64,5.91,5.61-2.67,5.61-5.85Z"/>
      <path class="cls-12" d="M1120.23,73.5c-4.68,0-8.85-3.99-8.85-8.67,0-5.07,3.99-8.82,9.09-8.82,4.59,0,8.91,3.6,8.85,8.88-.06,4.44-3.78,8.61-9.09,8.61ZM1120.32,58.86c-3.12,0-5.82,2.64-5.82,5.88s2.61,5.91,5.76,5.91,5.94-2.58,5.94-5.94-2.61-5.85-5.88-5.85Z"/>
      <path class="cls-12" d="M1139.04,60.87c-.15-1.2-.84-2.01-2.13-2.01-1.2,0-1.95.81-1.95,1.77,0,1.41,1.44,1.83,3.09,2.34,2.34.72,4.5,2.13,4.5,5.22s-2.34,5.31-5.58,5.31c-3,0-5.88-2.04-5.88-5.88h3.12c.15,2.01,1.17,3.03,2.82,3.03,1.44,0,2.4-.93,2.4-2.28,0-1.14-.87-1.89-2.82-2.52-4.08-1.29-4.77-3.06-4.77-4.95,0-2.94,2.49-4.89,5.22-4.89s5.01,1.92,5.1,4.86h-3.12Z"/>
      <path class="cls-12" d="M1146.03,73.08v-13.77h-2.25v-2.85h2.25v-5.58h3.12v5.58h2.73v2.85h-2.73v13.77h-3.12Z"/>
      <path class="cls-12" d="M1167.63,73.08v-2.58h-.06c-1.17,1.98-3.27,3-5.64,3-4.86,0-8.82-3.66-8.82-8.46,0-5.31,3.81-9.03,8.7-9.03,2.43,0,4.47.9,5.76,2.79h.06v-2.34h3.12v16.62h-3.12ZM1167.69,64.8c0-3.24-2.34-5.94-5.79-5.94-3.12,0-5.67,2.67-5.67,5.94s2.55,5.85,5.67,5.85,5.79-2.7,5.79-5.85Z"/>
    </g>
    <g>
      <path class="cls-12" d="M396.07,73.08v-22.2h6.45c4.77,0,7.8,2.37,7.8,6.72s-2.97,6.72-7.77,6.72h-3.24v8.76h-3.24ZM402.52,61.35c2.85,0,4.56-1.35,4.56-3.75s-1.77-3.75-4.59-3.75h-3.18v7.5h3.21Z"/>
      <path class="cls-12" d="M412.9,73.08v-16.62h2.91v1.5h.06c.75-1.11,2.04-1.83,4.23-1.95v3.21c-2.7.09-4.08,1.74-4.08,4.53v9.33h-3.12Z"/>
      <path class="cls-12" d="M430.24,73.5c-4.68,0-8.85-3.99-8.85-8.67,0-5.07,3.99-8.82,9.09-8.82,4.59,0,8.91,3.6,8.85,8.88-.06,4.44-3.78,8.61-9.09,8.61ZM430.33,58.86c-3.12,0-5.82,2.64-5.82,5.88s2.61,5.91,5.76,5.91,5.94-2.58,5.94-5.94-2.61-5.85-5.88-5.85Z"/>
      <path class="cls-12" d="M442.51,78.63v-22.17h2.85v2.55h.06c1.41-2.01,3.54-3,5.91-3,4.95,0,8.61,3.84,8.61,8.97,0,4.68-3.63,8.52-8.4,8.52-2.52,0-4.77-1.02-5.85-2.82h-.06v7.95h-3.12ZM456.82,64.8c0-3.03-2.4-5.94-5.73-5.94-3.12,0-5.52,2.79-5.52,5.88s2.4,5.91,5.64,5.91,5.61-2.67,5.61-5.85Z"/>
      <path class="cls-12" d="M471.07,73.5c-4.68,0-8.85-3.99-8.85-8.67,0-5.07,3.99-8.82,9.09-8.82,4.59,0,8.91,3.6,8.85,8.88-.06,4.44-3.78,8.61-9.09,8.61ZM471.16,58.86c-3.12,0-5.82,2.64-5.82,5.88s2.61,5.91,5.76,5.91,5.94-2.58,5.94-5.94-2.61-5.85-5.88-5.85Z"/>
      <path class="cls-12" d="M489.88,60.87c-.15-1.2-.84-2.01-2.13-2.01-1.2,0-1.95.81-1.95,1.77,0,1.41,1.44,1.83,3.09,2.34,2.34.72,4.5,2.13,4.5,5.22s-2.34,5.31-5.58,5.31c-3,0-5.88-2.04-5.88-5.88h3.12c.15,2.01,1.17,3.03,2.82,3.03,1.44,0,2.4-.93,2.4-2.28,0-1.14-.87-1.89-2.82-2.52-4.08-1.29-4.77-3.06-4.77-4.95,0-2.94,2.49-4.89,5.22-4.89s5.01,1.92,5.1,4.86h-3.12Z"/>
      <path class="cls-12" d="M496.87,73.08v-13.77h-2.25v-2.85h2.25v-5.58h3.12v5.58h2.73v2.85h-2.73v13.77h-3.12Z"/>
      <path class="cls-12" d="M518.47,73.08v-2.58h-.06c-1.17,1.98-3.27,3-5.64,3-4.86,0-8.82-3.66-8.82-8.46,0-5.31,3.81-9.03,8.7-9.03,2.43,0,4.47.9,5.76,2.79h.06v-2.34h3.12v16.62h-3.12ZM518.53,64.8c0-3.24-2.34-5.94-5.79-5.94-3.12,0-5.67,2.67-5.67,5.94s2.55,5.85,5.67,5.85,5.79-2.7,5.79-5.85Z"/>
      <path class="cls-12" d="M548.17,73.08v-2.37h-.06c-1.29,1.8-3.45,2.79-5.88,2.79-4.83,0-8.64-3.66-8.64-8.55s3.6-8.94,8.55-8.94c2.25,0,4.38.81,5.73,2.49h.06v-7.62h3.12v22.2h-2.88ZM542.38,58.86c-3.18,0-5.67,2.67-5.67,5.94s2.55,5.85,5.67,5.85,5.79-2.58,5.79-5.73c0-3.39-2.28-6.06-5.79-6.06Z"/>
      <path class="cls-12" d="M555.07,54.54v-3.66h3.12v3.66h-3.12ZM555.07,73.08v-16.62h3.12v16.62h-3.12Z"/>
      <path class="cls-12" d="M571,73.08v-22.2h11.97v2.97h-8.73v6.54h8.73v2.97h-8.73v6.75h8.73v2.97h-11.97Z"/>
      <path class="cls-12" d="M608.67,73.08v-9.3c0-3.15-1.32-4.92-3.93-4.92-2.76,0-3.96,1.53-3.96,4.86v9.36h-3.12v-9.66c0-3.27-1.53-4.56-3.78-4.56-2.76,0-4.11,1.62-4.11,4.89v9.33h-3.12v-16.62h2.88v1.8h.06c1.35-1.59,2.61-2.25,4.77-2.25s4.32,1.05,5.16,2.79c1.2-1.89,2.85-2.79,5.49-2.79,4.32,0,6.78,2.7,6.78,6.99v10.08h-3.12Z"/>
      <path class="cls-12" d="M629.44,73.08v-2.58h-.06c-1.17,1.98-3.27,3-5.64,3-4.86,0-8.82-3.66-8.82-8.46,0-5.31,3.81-9.03,8.7-9.03,2.43,0,4.47.9,5.76,2.79h.06v-2.34h3.12v16.62h-3.12ZM629.5,64.8c0-3.24-2.34-5.94-5.79-5.94-3.12,0-5.67,2.67-5.67,5.94s2.55,5.85,5.67,5.85,5.79-2.7,5.79-5.85Z"/>
      <path class="cls-12" d="M648.19,73.08v-9.06c0-3.51-1.38-5.16-4.14-5.16s-4.38,2.01-4.38,5.13v9.09h-3.12v-16.62h2.91v1.77h.06c1.23-1.59,2.94-2.22,4.86-2.22,3.99,0,6.93,2.52,6.93,7.11v9.96h-3.12Z"/>
      <path class="cls-12" d="M666.55,73.08v-1.8h-.06c-.81,1.41-2.7,2.22-4.89,2.22-3.57,0-6.93-1.92-6.93-7.77v-9.27h3.12v9.03c0,3.48,1.29,5.16,4.14,5.16s4.35-2.01,4.35-5.22v-8.97h3.12v16.62h-2.85Z"/>
      <path class="cls-12" d="M675.7,66.12c.72,2.76,2.91,4.53,5.46,4.53,1.95,0,3.78-1.02,4.74-2.79h3.12c-1.29,3.42-4.41,5.64-7.98,5.64-4.68,0-8.46-4.14-8.46-8.58,0-5.25,3.96-8.91,8.37-8.91,4.89,0,8.61,3.78,8.61,8.55,0,.51,0,.99-.09,1.56h-13.77ZM686.43,63.72c-.24-2.82-2.73-4.86-5.4-4.86s-5.1,2.01-5.34,4.86h10.74Z"/>
      <path class="cls-12" d="M692.68,73.08v-22.2h3.12v22.2h-3.12Z"/>
      <path class="cls-12" d="M702.1,66.12c.72,2.76,2.91,4.53,5.46,4.53,1.95,0,3.78-1.02,4.74-2.79h3.12c-1.29,3.42-4.41,5.64-7.98,5.64-4.68,0-8.46-4.14-8.46-8.58,0-5.25,3.96-8.91,8.37-8.91,4.89,0,8.61,3.78,8.61,8.55,0,.51,0,.99-.09,1.56h-13.77ZM712.83,63.72c-.24-2.82-2.73-4.86-5.4-4.86s-5.1,2.01-5.34,4.86h10.74Z"/>
    </g>
  </g>
  <g>
    <path class="cls-12" d="M554.84,94.7v21.67c0,.97,1.5.97,1.5,0v-21.67c0-.97-1.5-.97-1.5,0h0Z"/>
    <path class="cls-12" d="M549.31,113.02l5.75,5.08c.31.27.75.29,1.06,0,1.92-1.82,3.84-3.63,5.76-5.45.7-.66-.36-1.72-1.06-1.06-1.92,1.82-3.84,3.63-5.76,5.45h1.06l-5.75-5.08c-.72-.64-1.79.42-1.06,1.06h0Z"/>
  </g>
  <g>
    <g class="cls-13">
      <g>
        <g>
          <g>
            <path class="cls-18" d="M631.68,204.54c-1.46,1.69-2.92,3.37-4.37,5.06-6.87,7.92-12.66,16.94-21,23.48-8.27,6.65-16.85,12.5-27.02,16.33-.5.19-1.08.06-1.46-.32-.38-.38-.51-.94-.32-1.44,1.89-5.15,4.37-9.71,7.05-14.08,5.67-9.02,12.15-17.38,20.48-24.01,4.11-3.32,8.35-6.48,12.3-9.95,2.38-2.07,4.77-4.13,7.17-6.18,1.55-1.33,3.11-2.65,4.67-3.98-1.41-1.49-2.94-2.87-4.59-4.13-1.92-1.5-4-2.82-6.22-3.97l-10.18-5.23c.11-.32.21-.65.32-.98.96-3.01,1.92-6.04,2.86-9.05l11.74,6.04c3.48,1.78,6.69,3.93,9.59,6.39,1.58,1.33,3.07,2.75,4.46,4.26.58.62,1.13,1.25,1.68,1.9,1.63,1.94,3.11,4.01,4.41,6.16-2.37,2.85-4.76,5.69-7.16,8.52-1.47,1.73-2.94,3.45-4.41,5.17Z"/>
            <path class="cls-18" d="M471.08,228.71c1.98.66,3.99,1.26,6,1.84,8.11,2.35,16.34,4.39,23.74,8.57,9.31,5.09,18,10.78,25.43,18.71.37.39.47.97.27,1.47h0c-.2.5-.68.83-1.21.86-5.49.23-10.65-.33-15.71-1.12-10.5-1.81-20.7-4.58-30.01-9.74-.84-.45-1.66-.91-2.5-1.38-2.04-1.15-4.08-2.3-6.12-3.43v12.63c-.24.03-.48.06-.73.09l-.7.08c-3.02.35-5.86.67-8.71.88-.05,0-.14.01-.23.01v-32.93c3.47,1.11,6.93,2.26,10.38,3.41.04.02.08.03.12.04Z"/>
            <path class="cls-18" d="M640.2,244.52c-2.05,1.12-4.08,2.27-6.12,3.39-5.44,3-10.97,5.8-17,7.49-10.17,2.98-20.35,5.11-31.22,4.75-.54-.02-1.02-.36-1.23-.86h0c-.2-.49-.1-1.07.26-1.46,3.72-4.04,7.76-7.3,11.9-10.31,8.7-6.16,17.88-11.4,28.11-14.34,3.05-.89,6.12-1.73,9.17-2.61,2.06-.6,4.1-1.23,6.12-1.9,0,0,0,0,0,0v-11.51c0-3.89-.55-7.68-1.6-11.29.72-.85,1.43-1.7,2.15-2.53,1.86-2.2,3.71-4.39,5.55-6.61,2.78,6.31,4.27,13.25,4.27,20.43v22.01c-1.7.86-3.4,1.72-5.11,2.57-1.77.89-3.52,1.83-5.26,2.79Z"/>
            <path class="cls-18" d="M602.66,173.29h0c-.63,1.97-1.27,3.93-1.92,5.9-.84,2.56-1.69,5.1-2.53,7.64-3.3,9.96-5.2,20.51-10.41,29.74-5.09,9.31-10.78,18-18.71,25.43-.39.37-.97.47-1.47.27h0c-.49-.2-.83-.68-.85-1.21-.23-5.49.33-10.65,1.12-15.71,1.81-10.5,4.57-20.7,9.74-30.01,2.52-4.63,5.23-9.19,7.57-13.89,1.35-2.72,2.72-5.43,4.1-8.14.92-1.82,1.85-3.63,2.79-5.45l-5.44-2.8-19.59-10.08h-.01c-.11-1.29-.22-2.58-.34-3.88-.28-3.01-.54-5.78-.8-8.38l25.54,13.13,5.45,2.8,8.95,4.6c-1.05,3.35-2.1,6.7-3.17,10.03h0Z"/>
            <path class="cls-18" d="M464.86,196.73c.89-2.03,1.92-3.99,3.06-5.88,0,0,0,0,0,0,1.31-2.16,2.78-4.22,4.41-6.16.54-.65,1.1-1.28,1.68-1.9,2.68,2.2,5.33,4.44,7.99,6.67,1.56,1.32,3.13,2.64,4.68,3.98,2.4,2.05,4.78,4.11,7.16,6.18,7.92,6.87,16.94,12.66,23.48,21,6.65,8.27,12.5,16.85,16.33,27.02.19.5.06,1.08-.32,1.46h0c-.38.38-.94.51-1.44.32-5.15-1.89-9.71-4.37-14.08-7.05-9.02-5.67-17.38-12.15-24.01-20.48-3.31-4.11-6.48-8.35-9.95-12.3-1.45-1.69-2.91-3.37-4.37-5.06-1.46-1.72-2.94-3.44-4.41-5.17-1.02,2.08-1.87,4.25-2.52,6.5-1.05,3.61-1.6,7.4-1.6,11.29v5.04c-3.22-1.07-5.95-1.97-8.5-2.79l-1.87-.59v-1.66c0-7.18,1.5-14.12,4.27-20.43Z"/>
            <path class="cls-18" d="M470.96,263.3c2.04-.24,4.09-.47,6.12-.67,5.18-.5,10.38-.73,15.58-.1,10.54,1.15,20.75,3.07,30.65,7.56.49.22.81.72.81,1.26h0c0,.54-.31,1.03-.79,1.25-4.98,2.3-9.96,3.77-14.93,4.97-10.34,2.35-20.78,3.69-31.31,2.51-.06,0-.1,0-.15-.01-1.99-.21-3.99-.45-5.97-.69v46.29c0,.54.01,1.07.04,1.61.01.54.05,1.08.1,1.62.51,6.15,2.39,11.98,5.44,17.13.36.62.74,1.22,1.13,1.81.43.65.87,1.28,1.34,1.89,3.58,4.76,8.25,8.75,13.79,11.6l6.66,3.43,4.96,2.54,5.48,2.83h.01l45.65,23.46,45.65-23.46,5.5-2.83,4.95-2.53h.01l6.66-3.44c5.53-2.84,10.2-6.83,13.79-11.59.46-.62.91-1.26,1.34-1.91.4-.58.77-1.19,1.13-1.81,3.05-5.14,4.93-10.98,5.44-17.14.04-.53.09-1.07.1-1.61.03-.54.04-1.08.04-1.62v-40.1c.24-.03.48-.06.73-.09l.68-.08c3.04-.35,5.9-.68,8.78-.88h.19s0,41.02,0,41.02c0,.17,0,.34-.01.51,0,.42,0,.84-.02,1.24-.01.42-.03.83-.05,1.23-.36,6.3-1.87,12.36-4.39,17.91-.21.47-.43.95-.66,1.41-.23.48-.47.97-.73,1.44-.46.88-.95,1.74-1.46,2.58-3.14,5.15-7.2,9.75-12.05,13.51-.85.67-1.73,1.31-2.63,1.93-1.1.76-2.24,1.47-3.4,2.13-.67.41-1.37.77-2.06,1.13l-67.52,34.71-67.52-34.71c-.71-.36-1.41-.74-2.09-1.13h-.01c-1.17-.67-2.28-1.38-3.38-2.13-.9-.62-1.77-1.26-2.63-1.94-5.63-4.38-10.2-9.87-13.47-16.07-.28-.48-.52-.97-.75-1.45-.23-.46-.45-.93-.65-1.39-.11-.21-.2-.43-.3-.64-2.34-5.4-3.76-11.22-4.11-17.28-.02-.41-.04-.83-.05-1.24-.02-.41-.02-.83-.02-1.23-.01-.18-.01-.34-.01-.52v-61.18s0,0,0,0c3.45-.22,6.91-.64,10.37-1.03Z"/>
            <path class="cls-18" d="M640.2,279.38c-2.04.24-4.09.47-6.12.67-5.18.5-10.38.73-15.58.1-10.54-1.15-20.75-3.08-30.65-7.56-.49-.22-.81-.72-.81-1.26h0c0-.54.31-1.03.79-1.25,4.98-2.31,9.96-3.77,14.94-4.97,10.34-2.35,20.78-3.69,31.31-2.51.05,0,.1,0,.15.01,1.99.21,3.99.45,5.97.69v-11.79c.98-.55,1.95-1.09,2.94-1.63,1.89-1.05,3.55-1.92,5.08-2.69.78-.39,1.56-.78,2.36-1.18v32.32s0,0,0,0c-3.45.22-6.91.64-10.37,1.03Z"/>
            <path class="cls-18" d="M525.98,181.45c4.7,9.37,10.82,18.17,13.67,28.38,2.98,10.18,5.11,20.35,4.75,31.22-.02.54-.36,1.02-.86,1.23h0c-.49.2-1.06.11-1.46-.26-4.04-3.72-7.3-7.76-10.31-11.9-6.16-8.7-11.4-17.88-14.34-28.11-1.49-5.06-2.8-10.2-4.47-15.18-.85-2.54-1.7-5.09-2.53-7.64-.65-1.97-1.29-3.93-1.92-5.9h0s0,0,0,0l-5.53,2.84-10.17,5.23c-2.22,1.15-4.31,2.47-6.22,3.95-.19-.15-.37-.32-.56-.47l-.09-.07c-2.48-2.09-4.96-4.19-7.47-6.26,2.91-2.46,6.11-4.6,9.59-6.39l11.74-6.04,5.53-2.84,8.95-4.6h0s0,0,0,0c1.62,3.06,3.22,6.13,4.8,9.21.94,1.82,1.86,3.63,2.79,5.45,1.38,2.71,2.74,5.42,4.1,8.14Z"/>
            <path class="cls-18" d="M555.58,239.88h0c-.53,0-1.03-.31-1.25-.79-2.3-4.98-3.77-9.96-4.97-14.93-2.36-10.4-3.7-20.88-2.5-31.47.56-5.24,1.32-10.49,1.67-15.73.42-6.02.88-12.05,1.4-18.06.21-2.41.43-4.81.65-7.23l-6.44,3.32h-.01l-19.58,10.07c-1.6-3.07-3.18-6.15-4.8-9.2l25.54-13.13,6.51-3.35,3.79-1.95,3.79,1.95c.44,4.1.84,8.19,1.21,12.29.22,2.41.44,4.81.65,7.23.52,6.01.98,12.04,1.4,18.06.75,10.46,3.04,20.94,1.76,31.46-1.15,10.55-3.07,20.76-7.56,30.66-.22.49-.72.81-1.26.81Z"/>
          </g>
          <path class="cls-18" d="M586.99,370.24l-31.41,16.16-31.4-16.15c20.93,1.03,41.88,1.04,62.81-.01Z"/>
          <path class="cls-18" d="M623.5,349.84c-3.09,3.46-10.83,7.34-17.27,10.53h-.02c-2.42,1.21-4.66,2.31-6.39,3.25l-1.11.57-2.61,1.32c-12.55-.67-26.21-1.05-40.51-1.05s-28.07.37-40.65,1.06l-2.58-1.33-1.81-.93-3.15-1.62-3.9-2.01h0l-7.68-3.95c-3.05-1.56-5.79-3.54-8.17-5.85,46.38,2.03,88.97,2.03,135.84.01Z"/>
          <path class="cls-18" d="M477.54,329.02c52.21,2.38,103.98,2.38,156.07,0-.64,6.09-2.89,11.81-6.43,16.61-48.47-2.16-94.36-2.16-143.21-.01-3.55-4.8-5.8-10.5-6.43-16.6Z"/>
          <path class="cls-18" d="M477.36,308.52c52.33,2.39,104.23,2.39,156.45,0v16.84c-52.33-2.4-104.23-2.4-156.45,0v-16.84Z"/>
          <path class="cls-18" d="M477.36,289.65h156.45v15.23c-52.33-2.4-104.23-2.41-156.45,0v-15.23Z"/>
        </g>
        <g>
          <path class="cls-4" d="M621.18,270.1c-.92-34.54-28.76-62.38-63.3-63.29"/>
          <polygon class="cls-11" points="621.2 271.87 622.15 269.35 621.15 269.97 620.12 269.41 621.2 271.87"/>
          <polygon class="cls-11" points="556.12 206.78 558.63 205.83 558.01 206.83 558.58 207.86 556.12 206.78"/>
        </g>
        <rect class="cls-5" x="460.58" y="137.43" width="189.99" height="267.82"/>
        <line class="cls-5" x1="554.95" y1="137.43" x2="702.73" y2="212.77"/>
        <polyline class="cls-5" points="560.59 151.71 592.07 167.86 702.73 225.83"/>
        <line class="cls-5" x1="555.58" y1="137.43" x2="408.39" y2="212.47"/>
        <polyline class="cls-5" points="549.95 151.71 518.46 167.86 408.39 225.25"/>
        <line class="cls-5" x1="555.58" y1="405.25" x2="408.39" y2="329.78"/>
        <polyline class="cls-5" points="549.95 390.53 518.46 374.39 408.39 316.99"/>
        <line class="cls-5" x1="555.58" y1="405.25" x2="702.15" y2="329.78"/>
        <polyline class="cls-5" points="555.58 393.57 593.01 374.39 703.09 316.99"/>
        <line class="cls-5" x1="408.39" y1="289.6" x2="703.09" y2="289.6"/>
        <g>
          <circle class="cls-5" cx="605.07" cy="214.31" r="34.3"/>
          <circle class="cls-5" cx="506.1" cy="213.83" r="34.3"/>
          <circle class="cls-5" cx="605.07" cy="329.35" r="34.3"/>
          <circle class="cls-5" cx="506.1" cy="328.87" r="34.3"/>
          <ellipse class="cls-5" cx="505.37" cy="328.95" rx="43.68" ry="44.32"/>
          <ellipse class="cls-5" cx="605.83" cy="328.95" rx="43.68" ry="44.32"/>
          <ellipse class="cls-5" cx="605.83" cy="213.19" rx="43.68" ry="44.32"/>
          <ellipse class="cls-5" cx="505.37" cy="213.19" rx="43.68" ry="44.32"/>
          <circle class="cls-5" cx="555.54" cy="271.41" r="31.42"/>
          <rect class="cls-5" x="627.39" y="151.71" width="13.06" height="13.29"/>
          <rect class="cls-5" x="614.33" y="151.71" width="13.06" height="13.29"/>
          <rect class="cls-5" x="601.28" y="151.71" width="13.06" height="13.29"/>
          <rect class="cls-5" x="588.22" y="151.71" width="13.06" height="13.29"/>
          <rect class="cls-5" x="575.17" y="151.71" width="13.06" height="13.29"/>
          <rect class="cls-5" x="562.11" y="151.71" width="13.06" height="13.29"/>
          <rect class="cls-5" x="549.05" y="151.71" width="13.06" height="13.29"/>
          <rect class="cls-5" x="536" y="151.71" width="13.06" height="13.29"/>
          <rect class="cls-5" x="522.94" y="151.71" width="13.06" height="13.29"/>
          <rect class="cls-5" x="509.89" y="151.71" width="13.06" height="13.29"/>
          <rect class="cls-5" x="496.83" y="151.71" width="13.06" height="13.29"/>
          <rect class="cls-5" x="483.78" y="151.71" width="13.06" height="13.29"/>
          <rect class="cls-5" x="470.72" y="151.71" width="13.06" height="13.29"/>
          <rect class="cls-5" x="627.39" y="165.01" width="13.06" height="13.29"/>
          <rect class="cls-5" x="614.33" y="165.01" width="13.06" height="13.29"/>
          <rect class="cls-5" x="601.28" y="165.01" width="13.06" height="13.29"/>
          <rect class="cls-5" x="588.22" y="165.01" width="13.06" height="13.29"/>
          <rect class="cls-5" x="575.17" y="165.01" width="13.06" height="13.29"/>
          <rect class="cls-5" x="562.11" y="165.01" width="13.06" height="13.29"/>
          <rect class="cls-5" x="549.05" y="165.01" width="13.06" height="13.29"/>
          <rect class="cls-5" x="536" y="165.01" width="13.06" height="13.29"/>
          <rect class="cls-5" x="522.94" y="165.01" width="13.06" height="13.29"/>
          <rect class="cls-5" x="509.89" y="165.01" width="13.06" height="13.29"/>
          <rect class="cls-5" x="496.83" y="165.01" width="13.06" height="13.29"/>
          <rect class="cls-5" x="483.78" y="165.01" width="13.06" height="13.29"/>
          <rect class="cls-5" x="470.72" y="165.01" width="13.06" height="13.29"/>
          <rect class="cls-5" x="627.39" y="178.3" width="13.06" height="13.29"/>
          <rect class="cls-5" x="614.33" y="178.3" width="13.06" height="13.29"/>
          <rect class="cls-5" x="601.28" y="178.3" width="13.06" height="13.29"/>
          <rect class="cls-5" x="588.22" y="178.3" width="13.06" height="13.29"/>
          <rect class="cls-5" x="575.17" y="178.3" width="13.06" height="13.29"/>
          <rect class="cls-5" x="562.11" y="178.3" width="13.06" height="13.29"/>
          <rect class="cls-5" x="549.05" y="178.3" width="13.06" height="13.29"/>
          <rect class="cls-5" x="536" y="178.3" width="13.06" height="13.29"/>
          <rect class="cls-5" x="522.94" y="178.3" width="13.06" height="13.29"/>
          <rect class="cls-5" x="509.89" y="178.3" width="13.06" height="13.29"/>
          <rect class="cls-5" x="496.83" y="178.3" width="13.06" height="13.29"/>
          <rect class="cls-5" x="483.78" y="178.3" width="13.06" height="13.29"/>
          <rect class="cls-5" x="470.72" y="178.3" width="13.06" height="13.29"/>
          <rect class="cls-5" x="627.39" y="191.59" width="13.06" height="13.29"/>
          <rect class="cls-5" x="614.33" y="191.59" width="13.06" height="13.29"/>
          <rect class="cls-5" x="601.28" y="191.59" width="13.06" height="13.29"/>
          <rect class="cls-5" x="588.22" y="191.59" width="13.06" height="13.29"/>
          <rect class="cls-5" x="575.17" y="191.59" width="13.06" height="13.29"/>
          <rect class="cls-5" x="562.11" y="191.59" width="13.06" height="13.29"/>
          <rect class="cls-5" x="549.05" y="191.59" width="13.06" height="13.29"/>
          <rect class="cls-5" x="536" y="191.59" width="13.06" height="13.29"/>
          <rect class="cls-5" x="522.94" y="191.59" width="13.06" height="13.29"/>
          <rect class="cls-5" x="509.89" y="191.59" width="13.06" height="13.29"/>
          <rect class="cls-5" x="496.83" y="191.59" width="13.06" height="13.29"/>
          <rect class="cls-5" x="483.78" y="191.59" width="13.06" height="13.29"/>
          <rect class="cls-5" x="470.72" y="191.59" width="13.06" height="13.29"/>
          <rect class="cls-5" x="627.39" y="204.88" width="13.06" height="13.29"/>
          <rect class="cls-5" x="614.33" y="204.88" width="13.06" height="13.29"/>
          <rect class="cls-5" x="601.28" y="204.88" width="13.06" height="13.29"/>
          <rect class="cls-5" x="588.22" y="204.88" width="13.06" height="13.29"/>
          <rect class="cls-5" x="575.17" y="204.88" width="13.06" height="13.29"/>
          <rect class="cls-5" x="562.11" y="204.88" width="13.06" height="13.29"/>
          <rect class="cls-5" x="549.05" y="204.88" width="13.06" height="13.29"/>
          <rect class="cls-5" x="536" y="204.88" width="13.06" height="13.29"/>
          <rect class="cls-5" x="522.94" y="204.88" width="13.06" height="13.29"/>
          <rect class="cls-5" x="509.89" y="204.88" width="13.06" height="13.29"/>
          <rect class="cls-5" x="496.83" y="204.88" width="13.06" height="13.29"/>
          <rect class="cls-5" x="483.78" y="204.88" width="13.06" height="13.29"/>
          <rect class="cls-5" x="470.72" y="204.88" width="13.06" height="13.29"/>
          <rect class="cls-5" x="627.39" y="218.17" width="13.06" height="13.29"/>
          <rect class="cls-5" x="614.33" y="218.17" width="13.06" height="13.29"/>
          <rect class="cls-5" x="601.28" y="218.17" width="13.06" height="13.29"/>
          <rect class="cls-5" x="588.22" y="218.17" width="13.06" height="13.29"/>
          <rect class="cls-5" x="575.17" y="218.17" width="13.06" height="13.29"/>
          <rect class="cls-5" x="562.11" y="218.17" width="13.06" height="13.29"/>
          <rect class="cls-5" x="549.05" y="218.17" width="13.06" height="13.29"/>
          <rect class="cls-5" x="536" y="218.17" width="13.06" height="13.29"/>
          <rect class="cls-5" x="522.94" y="218.17" width="13.06" height="13.29"/>
          <rect class="cls-5" x="509.89" y="218.17" width="13.06" height="13.29"/>
          <rect class="cls-5" x="496.83" y="218.17" width="13.06" height="13.29"/>
          <rect class="cls-5" x="483.78" y="218.17" width="13.06" height="13.29"/>
          <rect class="cls-5" x="470.72" y="218.17" width="13.06" height="13.29"/>
          <rect class="cls-5" x="627.39" y="231.46" width="13.06" height="13.29"/>
          <rect class="cls-5" x="614.33" y="231.46" width="13.06" height="13.29"/>
          <rect class="cls-5" x="601.28" y="231.46" width="13.06" height="13.29"/>
          <rect class="cls-5" x="588.22" y="231.46" width="13.06" height="13.29"/>
          <rect class="cls-5" x="575.17" y="231.46" width="13.06" height="13.29"/>
          <rect class="cls-5" x="562.11" y="231.46" width="13.06" height="13.29"/>
          <rect class="cls-5" x="549.05" y="231.46" width="13.06" height="13.29"/>
          <rect class="cls-5" x="536" y="231.46" width="13.06" height="13.29"/>
          <rect class="cls-5" x="522.94" y="231.46" width="13.06" height="13.29"/>
          <rect class="cls-5" x="509.89" y="231.46" width="13.06" height="13.29"/>
          <rect class="cls-5" x="496.83" y="231.46" width="13.06" height="13.29"/>
          <rect class="cls-5" x="483.78" y="231.46" width="13.06" height="13.29"/>
          <rect class="cls-5" x="470.72" y="231.46" width="13.06" height="13.29"/>
          <rect class="cls-5" x="627.39" y="244.75" width="13.06" height="13.29"/>
          <rect class="cls-5" x="614.33" y="244.75" width="13.06" height="13.29"/>
          <rect class="cls-5" x="601.28" y="244.75" width="13.06" height="13.29"/>
          <rect class="cls-5" x="588.22" y="244.75" width="13.06" height="13.29"/>
          <rect class="cls-5" x="575.17" y="244.75" width="13.06" height="13.29"/>
          <rect class="cls-5" x="562.11" y="244.75" width="13.06" height="13.29"/>
          <rect class="cls-5" x="549.05" y="244.75" width="13.06" height="13.29"/>
          <rect class="cls-5" x="536" y="244.75" width="13.06" height="13.29"/>
          <rect class="cls-5" x="522.94" y="244.75" width="13.06" height="13.29"/>
          <rect class="cls-5" x="509.89" y="244.75" width="13.06" height="13.29"/>
          <rect class="cls-5" x="496.83" y="244.75" width="13.06" height="13.29"/>
          <rect class="cls-5" x="483.78" y="244.75" width="13.06" height="13.29"/>
          <rect class="cls-5" x="470.72" y="244.75" width="13.06" height="13.29"/>
          <rect class="cls-5" x="627.39" y="258.05" width="13.06" height="13.29"/>
          <rect class="cls-5" x="614.33" y="258.05" width="13.06" height="13.29"/>
          <rect class="cls-5" x="601.28" y="258.05" width="13.06" height="13.29"/>
          <rect class="cls-5" x="588.22" y="258.05" width="13.06" height="13.29"/>
          <rect class="cls-5" x="575.17" y="258.05" width="13.06" height="13.29"/>
          <rect class="cls-5" x="562.11" y="258.05" width="13.06" height="13.29"/>
          <rect class="cls-5" x="549.05" y="258.05" width="13.06" height="13.29"/>
          <rect class="cls-5" x="536" y="258.05" width="13.06" height="13.29"/>
          <rect class="cls-5" x="522.94" y="258.05" width="13.06" height="13.29"/>
          <rect class="cls-5" x="509.89" y="258.05" width="13.06" height="13.29"/>
          <rect class="cls-5" x="496.83" y="258.05" width="13.06" height="13.29"/>
          <rect class="cls-5" x="483.78" y="258.05" width="13.06" height="13.29"/>
          <rect class="cls-5" x="470.72" y="258.05" width="13.06" height="13.29"/>
          <rect class="cls-5" x="627.39" y="271.34" width="13.06" height="13.29"/>
          <rect class="cls-5" x="614.33" y="271.34" width="13.06" height="13.29"/>
          <rect class="cls-5" x="601.28" y="271.34" width="13.06" height="13.29"/>
          <rect class="cls-5" x="588.22" y="271.34" width="13.06" height="13.29"/>
          <rect class="cls-5" x="575.17" y="271.34" width="13.06" height="13.29"/>
          <rect class="cls-5" x="562.11" y="271.34" width="13.06" height="13.29"/>
          <rect class="cls-5" x="549.05" y="271.34" width="13.06" height="13.29"/>
          <rect class="cls-5" x="536" y="271.34" width="13.06" height="13.29"/>
          <rect class="cls-5" x="522.94" y="271.34" width="13.06" height="13.29"/>
          <rect class="cls-5" x="509.89" y="271.34" width="13.06" height="13.29"/>
          <rect class="cls-5" x="496.83" y="271.34" width="13.06" height="13.29"/>
          <rect class="cls-5" x="483.78" y="271.34" width="13.06" height="13.29"/>
          <rect class="cls-5" x="470.72" y="271.34" width="13.06" height="13.29"/>
          <rect class="cls-5" x="627.39" y="284.63" width="13.06" height="13.29"/>
          <rect class="cls-5" x="614.33" y="284.63" width="13.06" height="13.29"/>
          <rect class="cls-5" x="601.28" y="284.63" width="13.06" height="13.29"/>
          <rect class="cls-5" x="588.22" y="284.63" width="13.06" height="13.29"/>
          <rect class="cls-5" x="575.17" y="284.63" width="13.06" height="13.29"/>
          <rect class="cls-5" x="562.11" y="284.63" width="13.06" height="13.29"/>
          <rect class="cls-5" x="549.05" y="284.63" width="13.06" height="13.29"/>
          <rect class="cls-5" x="536" y="284.63" width="13.06" height="13.29"/>
          <rect class="cls-5" x="522.94" y="284.63" width="13.06" height="13.29"/>
          <rect class="cls-5" x="509.89" y="284.63" width="13.06" height="13.29"/>
          <rect class="cls-5" x="496.83" y="284.63" width="13.06" height="13.29"/>
          <rect class="cls-5" x="483.78" y="284.63" width="13.06" height="13.29"/>
          <rect class="cls-5" x="470.72" y="284.63" width="13.06" height="13.29"/>
          <rect class="cls-5" x="627.39" y="297.92" width="13.06" height="13.29"/>
          <rect class="cls-5" x="614.33" y="297.92" width="13.06" height="13.29"/>
          <rect class="cls-5" x="601.28" y="297.92" width="13.06" height="13.29"/>
          <rect class="cls-5" x="588.22" y="297.92" width="13.06" height="13.29"/>
          <rect class="cls-5" x="575.17" y="297.92" width="13.06" height="13.29"/>
          <rect class="cls-5" x="562.11" y="297.92" width="13.06" height="13.29"/>
          <rect class="cls-5" x="549.05" y="297.92" width="13.06" height="13.29"/>
          <rect class="cls-5" x="536" y="297.92" width="13.06" height="13.29"/>
          <rect class="cls-5" x="522.94" y="297.92" width="13.06" height="13.29"/>
          <rect class="cls-5" x="509.89" y="297.92" width="13.06" height="13.29"/>
          <rect class="cls-5" x="496.83" y="297.92" width="13.06" height="13.29"/>
          <rect class="cls-5" x="483.78" y="297.92" width="13.06" height="13.29"/>
          <rect class="cls-5" x="470.72" y="297.92" width="13.06" height="13.29"/>
          <rect class="cls-5" x="627.39" y="311.21" width="13.06" height="13.29"/>
          <rect class="cls-5" x="614.33" y="311.21" width="13.06" height="13.29"/>
          <rect class="cls-5" x="601.28" y="311.21" width="13.06" height="13.29"/>
          <rect class="cls-5" x="588.22" y="311.21" width="13.06" height="13.29"/>
          <rect class="cls-5" x="575.17" y="311.21" width="13.06" height="13.29"/>
          <rect class="cls-5" x="562.11" y="311.21" width="13.06" height="13.29"/>
          <rect class="cls-5" x="549.05" y="311.21" width="13.06" height="13.29"/>
          <rect class="cls-5" x="536" y="311.21" width="13.06" height="13.29"/>
          <rect class="cls-5" x="522.94" y="311.21" width="13.06" height="13.29"/>
          <rect class="cls-5" x="509.89" y="311.21" width="13.06" height="13.29"/>
          <rect class="cls-5" x="496.83" y="311.21" width="13.06" height="13.29"/>
          <rect class="cls-5" x="483.78" y="311.21" width="13.06" height="13.29"/>
          <rect class="cls-5" x="470.72" y="311.21" width="13.06" height="13.29"/>
          <rect class="cls-5" x="627.39" y="324.5" width="13.06" height="13.29"/>
          <rect class="cls-5" x="614.33" y="324.5" width="13.06" height="13.29"/>
          <rect class="cls-5" x="601.28" y="324.5" width="13.06" height="13.29"/>
          <rect class="cls-5" x="588.22" y="324.5" width="13.06" height="13.29"/>
          <rect class="cls-5" x="575.17" y="324.5" width="13.06" height="13.29"/>
          <rect class="cls-5" x="562.11" y="324.5" width="13.06" height="13.29"/>
          <rect class="cls-5" x="549.05" y="324.5" width="13.06" height="13.29"/>
          <rect class="cls-5" x="536" y="324.5" width="13.06" height="13.29"/>
          <rect class="cls-5" x="522.94" y="324.5" width="13.06" height="13.29"/>
          <rect class="cls-5" x="509.89" y="324.5" width="13.06" height="13.29"/>
          <rect class="cls-5" x="496.83" y="324.5" width="13.06" height="13.29"/>
          <rect class="cls-5" x="483.78" y="324.5" width="13.06" height="13.29"/>
          <rect class="cls-5" x="470.72" y="324.5" width="13.06" height="13.29"/>
          <rect class="cls-5" x="627.39" y="337.79" width="13.06" height="13.29"/>
          <rect class="cls-5" x="614.33" y="337.79" width="13.06" height="13.29"/>
          <rect class="cls-5" x="601.28" y="337.79" width="13.06" height="13.29"/>
          <rect class="cls-5" x="588.22" y="337.79" width="13.06" height="13.29"/>
          <rect class="cls-5" x="575.17" y="337.79" width="13.06" height="13.29"/>
          <rect class="cls-5" x="562.11" y="337.79" width="13.06" height="13.29"/>
          <rect class="cls-5" x="549.05" y="337.79" width="13.06" height="13.29"/>
          <rect class="cls-5" x="536" y="337.79" width="13.06" height="13.29"/>
          <rect class="cls-5" x="522.94" y="337.79" width="13.06" height="13.29"/>
          <rect class="cls-5" x="509.89" y="337.79" width="13.06" height="13.29"/>
          <rect class="cls-5" x="496.83" y="337.79" width="13.06" height="13.29"/>
          <rect class="cls-5" x="483.78" y="337.79" width="13.06" height="13.29"/>
          <rect class="cls-5" x="470.72" y="337.79" width="13.06" height="13.29"/>
          <rect class="cls-5" x="627.39" y="351.09" width="13.06" height="13.29"/>
          <rect class="cls-5" x="614.33" y="351.09" width="13.06" height="13.29"/>
          <rect class="cls-5" x="601.28" y="351.09" width="13.06" height="13.29"/>
          <rect class="cls-5" x="588.22" y="351.09" width="13.06" height="13.29"/>
          <rect class="cls-5" x="575.17" y="351.09" width="13.06" height="13.29"/>
          <rect class="cls-5" x="562.11" y="351.09" width="13.06" height="13.29"/>
          <rect class="cls-5" x="549.05" y="351.09" width="13.06" height="13.29"/>
          <rect class="cls-5" x="536" y="351.09" width="13.06" height="13.29"/>
          <rect class="cls-5" x="522.94" y="351.09" width="13.06" height="13.29"/>
          <rect class="cls-5" x="509.89" y="351.09" width="13.06" height="13.29"/>
          <rect class="cls-5" x="496.83" y="351.09" width="13.06" height="13.29"/>
          <rect class="cls-5" x="483.78" y="351.09" width="13.06" height="13.29"/>
          <rect class="cls-5" x="470.72" y="351.09" width="13.06" height="13.29"/>
          <rect class="cls-5" x="627.39" y="364.38" width="13.06" height="13.29"/>
          <rect class="cls-5" x="614.33" y="364.38" width="13.06" height="13.29"/>
          <rect class="cls-5" x="601.28" y="364.38" width="13.06" height="13.29"/>
          <rect class="cls-5" x="588.22" y="364.38" width="13.06" height="13.29"/>
          <rect class="cls-5" x="575.17" y="364.38" width="13.06" height="13.29"/>
          <rect class="cls-5" x="562.11" y="364.38" width="13.06" height="13.29"/>
          <rect class="cls-5" x="549.05" y="364.38" width="13.06" height="13.29"/>
          <rect class="cls-5" x="536" y="364.38" width="13.06" height="13.29"/>
          <rect class="cls-5" x="522.94" y="364.38" width="13.06" height="13.29"/>
          <rect class="cls-5" x="509.89" y="364.38" width="13.06" height="13.29"/>
          <rect class="cls-5" x="496.83" y="364.38" width="13.06" height="13.29"/>
          <rect class="cls-5" x="483.78" y="364.38" width="13.06" height="13.29"/>
          <rect class="cls-5" x="470.72" y="364.38" width="13.06" height="13.29"/>
          <rect class="cls-5" x="627.39" y="377.67" width="13.06" height="13.29"/>
          <rect class="cls-5" x="614.33" y="377.67" width="13.06" height="13.29"/>
          <rect class="cls-5" x="601.28" y="377.67" width="13.06" height="13.29"/>
          <rect class="cls-5" x="588.22" y="377.67" width="13.06" height="13.29"/>
          <rect class="cls-5" x="575.17" y="377.67" width="13.06" height="13.29"/>
          <rect class="cls-5" x="562.11" y="377.67" width="13.06" height="13.29"/>
          <rect class="cls-5" x="549.05" y="377.67" width="13.06" height="13.29"/>
          <rect class="cls-5" x="536" y="377.67" width="13.06" height="13.29"/>
          <rect class="cls-5" x="522.94" y="377.67" width="13.06" height="13.29"/>
          <rect class="cls-5" x="509.89" y="377.67" width="13.06" height="13.29"/>
          <rect class="cls-5" x="496.83" y="377.67" width="13.06" height="13.29"/>
          <rect class="cls-5" x="483.78" y="377.67" width="13.06" height="13.29"/>
          <rect class="cls-5" x="470.72" y="377.67" width="13.06" height="13.29"/>
          <rect class="cls-5" x="408.39" y="137.43" width="294.35" height="267.82"/>
          <polyline class="cls-5" points="619.95 137.43 608.18 176.13 602.62 173.39 614.33 137.43"/>
          <line class="cls-5" x1="638.84" y1="205.93" x2="696.21" y2="137.43"/>
          <polyline class="cls-5" points="687.35 137.43 643.24 190.85 636 199.47"/>
          <line class="cls-5" x1="565.26" y1="137.43" x2="567.07" y2="155.04"/>
          <line class="cls-5" x1="559.37" y1="139.38" x2="559.15" y2="137.43"/>
          <line class="cls-5" x1="524.58" y1="165.03" x2="509.89" y2="137.43"/>
          <line class="cls-5" x1="518.99" y1="167.66" x2="503.36" y2="137.34"/>
          <polyline class="cls-5" points="486.59 185.32 429.53 137.43 420.66 137.43 482.03 189.41"/>
          <polyline class="cls-5" points="471.16 222.21 408.39 201.87 408.39 207.5 470.72 228.59"/>
          <polyline class="cls-5" points="650.58 239.28 702.73 212.77 702.73 219.46 650.58 246.03"/>
          <line class="cls-5" x1="470.99" y1="256.95" x2="408.39" y2="264.69"/>
          <line class="cls-5" x1="470.72" y1="263.32" x2="408.39" y2="270.37"/>
          <polyline class="cls-5" points="640.44 279.35 702.73 272.4 702.73 279.35 640.44 285.65"/>
          <line class="cls-5" x1="555.58" y1="137.43" x2="555.58" y2="405.25"/>
          <line class="cls-5" x1="408.39" y1="271.34" x2="702.78" y2="271.34"/>
          <line class="cls-5" x1="650.58" y1="137.43" x2="650.19" y2="137.98"/>
          <line class="cls-1" x1="649.4" y1="139.09" x2="461.37" y2="404.14"/>
          <line class="cls-5" x1="460.98" y1="404.69" x2="460.58" y2="405.25"/>
          <line class="cls-5" x1="460.58" y1="137.43" x2="460.98" y2="137.98"/>
          <line class="cls-1" x1="461.76" y1="139.09" x2="649.79" y2="404.14"/>
          <line class="cls-5" x1="650.19" y1="404.69" x2="650.58" y2="405.25"/>
          <line class="cls-6" x1="702.73" y1="270" x2="639.37" y2="263.28"/>
          <line class="cls-6" x1="471.46" y1="279.13" x2="408.09" y2="272.4"/>
          <line class="cls-6" x1="470.72" y1="244.75" x2="408.39" y2="207.5"/>
          <line class="cls-6" x1="640.44" y1="228.59" x2="702.73" y2="212.77"/>
          <line class="cls-6" x1="629.17" y1="189.46" x2="686.86" y2="137.43"/>
          <line class="cls-6" x1="474.85" y1="199" x2="420.66" y2="137.43"/>
          <line class="cls-6" x1="508.63" y1="173.45" x2="496.83" y2="137.43"/>
          <line class="cls-6" x1="607.8" y1="137.43" x2="583.24" y2="184.94"/>
          <line class="cls-6" x1="549.78" y1="160.69" x2="551.67" y2="137.34"/>
          <path class="cls-5" d="M618.32,271.41c0,5.01,4.06,9.07,9.07,9.07s9.07-4.06,9.07-9.07-4.06-9.07-9.07-9.07-9.07,4.06-9.07,9.07Z"/>
          <path class="cls-5" d="M610.88,244.75c0,5.01,4.06,9.07,9.07,9.07s9.07-4.06,9.07-9.07-4.06-9.07-9.07-9.07-9.07,4.06-9.07,9.07Z"/>
          <path class="cls-5" d="M594.75,222.9c0,5.01,4.06,9.07,9.07,9.07s9.07-4.06,9.07-9.07-4.06-9.07-9.07-9.07-9.07,4.06-9.07,9.07Z"/>
          <path class="cls-5" d="M572.62,208.2c0,5.01,4.06,9.07,9.07,9.07s9.07-4.06,9.07-9.07-4.06-9.07-9.07-9.07-9.07,4.06-9.07,9.07Z"/>
          <path class="cls-5" d="M546.47,200.52c0,5.01,4.06,9.07,9.07,9.07s9.07-4.06,9.07-9.07-4.06-9.07-9.07-9.07-9.07,4.06-9.07,9.07Z"/>
          <path class="cls-5" d="M492.89,271.41c0,5.01-4.06,9.07-9.07,9.07s-9.07-4.06-9.07-9.07,4.06-9.07,9.07-9.07,9.07,4.06,9.07,9.07Z"/>
          <path class="cls-5" d="M500.32,244.75c0,5.01-4.06,9.07-9.07,9.07s-9.07-4.06-9.07-9.07,4.06-9.07,9.07-9.07,9.07,4.06,9.07,9.07Z"/>
          <path class="cls-5" d="M516.46,222.9c0,5.01-4.06,9.07-9.07,9.07s-9.07-4.06-9.07-9.07,4.06-9.07,9.07-9.07,9.07,4.06,9.07,9.07Z"/>
          <path class="cls-5" d="M538.58,208.2c0,5.01-4.06,9.07-9.07,9.07s-9.07-4.06-9.07-9.07,4.06-9.07,9.07-9.07,9.07,4.06,9.07,9.07Z"/>
          <rect class="cls-5" x="551.73" y="137.34" width="7.71" height="253.62"/>
          <circle class="cls-5" cx="588.22" cy="327.18" r="3.31"/>
          <circle class="cls-5" cx="588.22" cy="347.67" r="3.31"/>
          <path class="cls-5" d="M572.15,367.7c0,1.66,1.35,3.01,3.01,3.01s3.01-1.35,3.01-3.01-1.35-3.01-3.01-3.01-3.01,1.35-3.01,3.01Z"/>
          <path class="cls-5" d="M584.92,306.7c0,1.82,1.48,3.3,3.3,3.3s3.3-1.48,3.3-3.3-1.48-3.3-3.3-3.3-3.3,1.48-3.3,3.3Z"/>
          <polyline class="cls-5" points="634.08 304.89 640.2 304.89 640.2 308.54 634.08 308.54"/>
          <polyline class="cls-5" points="634.08 325.31 640.2 325.31 640.2 328.97 634.08 328.97"/>
          <polyline class="cls-5" points="627.39 345.77 634.76 345.77 631.93 350 623.33 350.02"/>
          <line class="cls-5" x1="587.1" y1="370.48" x2="600.53" y2="370.48"/>
        </g>
        <text class="cls-7" transform="translate(602.53 222.9)"><tspan x="0" y="0">r20</tspan></text>
        <text class="cls-9" transform="translate(550.27 198.23)"><tspan x="0" y="0">14</tspan><tspan class="cls-17" x="3.92" y="0">p</tspan><tspan class="cls-15" x="6.36" y="0">t</tspan><tspan class="cls-14" x="7.85" y="0">-</tspan><tspan x="9.32" y="0">t</tspan></text>
        <text class="cls-9" transform="translate(550.71 171.09)"><tspan x="0" y="0">9</tspan><tspan class="cls-17" x="2.52" y="0">p</tspan><tspan class="cls-16" x="4.95" y="0">t</tspan><tspan class="cls-14" x="6.44" y="0">-</tspan><tspan x="7.91" y="0">t</tspan></text>
        <g>
          <line class="cls-3" x1="548.32" y1="200.73" x2="562.6" y2="200.73"/>
          <polygon class="cls-10" points="546.56 200.73 549.05 201.75 548.46 200.73 549.05 199.72 546.56 200.73"/>
          <polygon class="cls-10" points="564.36 200.73 561.87 201.75 562.46 200.73 561.87 199.72 564.36 200.73"/>
        </g>
        <g>
          <line class="cls-3" x1="550.63" y1="173.67" x2="560.29" y2="173.67"/>
          <polygon class="cls-10" points="548.87 173.67 551.36 174.68 550.77 173.67 551.36 172.65 548.87 173.67"/>
          <polygon class="cls-10" points="562.05 173.67 559.56 174.68 560.15 173.67 559.56 172.65 562.05 173.67"/>
        </g>
      </g>
    </g>
    <g>
      <g>
        <path class="cls-18" d="M631.68,204.54c-1.46,1.69-2.92,3.37-4.37,5.06-6.87,7.92-12.66,16.94-21,23.48-8.27,6.65-16.85,12.5-27.02,16.33-.5.19-1.08.06-1.46-.32-.38-.38-.51-.94-.32-1.44,1.89-5.15,4.37-9.71,7.05-14.08,5.67-9.02,12.15-17.38,20.48-24.01,4.11-3.32,8.35-6.48,12.3-9.95,2.38-2.07,4.77-4.13,7.17-6.18,1.55-1.33,3.11-2.65,4.67-3.98-1.41-1.49-2.94-2.87-4.59-4.13-1.92-1.5-4-2.82-6.22-3.97l-10.18-5.23c.11-.32.21-.65.32-.98.96-3.01,1.92-6.04,2.86-9.05l11.74,6.04c3.48,1.78,6.69,3.93,9.59,6.39,1.58,1.33,3.07,2.75,4.46,4.26.58.62,1.13,1.25,1.68,1.9,1.63,1.94,3.11,4.01,4.41,6.16-2.37,2.85-4.76,5.69-7.16,8.52-1.47,1.73-2.94,3.45-4.41,5.17Z"/>
        <path class="cls-18" d="M471.08,228.71c1.98.66,3.99,1.26,6,1.84,8.11,2.35,16.34,4.39,23.74,8.57,9.31,5.09,18,10.78,25.43,18.71.37.39.47.97.27,1.47h0c-.2.5-.68.83-1.21.86-5.49.23-10.65-.33-15.71-1.12-10.5-1.81-20.7-4.58-30.01-9.74-.84-.45-1.66-.91-2.5-1.38-2.04-1.15-4.08-2.3-6.12-3.43v12.63c-.24.03-.48.06-.73.09l-.7.08c-3.02.35-5.86.67-8.71.88-.05,0-.14.01-.23.01v-32.93c3.47,1.11,6.93,2.26,10.38,3.41.04.02.08.03.12.04Z"/>
        <path class="cls-18" d="M640.2,244.52c-2.05,1.12-4.08,2.27-6.12,3.39-5.44,3-10.97,5.8-17,7.49-10.17,2.98-20.35,5.11-31.22,4.75-.54-.02-1.02-.36-1.23-.86h0c-.2-.49-.1-1.07.26-1.46,3.72-4.04,7.76-7.3,11.9-10.31,8.7-6.16,17.88-11.4,28.11-14.34,3.05-.89,6.12-1.73,9.17-2.61,2.06-.6,4.1-1.23,6.12-1.9,0,0,0,0,0,0v-11.51c0-3.89-.55-7.68-1.6-11.29.72-.85,1.43-1.7,2.15-2.53,1.86-2.2,3.71-4.39,5.55-6.61,2.78,6.31,4.27,13.25,4.27,20.43v22.01c-1.7.86-3.4,1.72-5.11,2.57-1.77.89-3.52,1.83-5.26,2.79Z"/>
        <path class="cls-18" d="M602.66,173.29h0c-.63,1.97-1.27,3.93-1.92,5.9-.84,2.56-1.69,5.1-2.53,7.64-3.3,9.96-5.2,20.51-10.41,29.74-5.09,9.31-10.78,18-18.71,25.43-.39.37-.97.47-1.47.27h0c-.49-.2-.83-.68-.85-1.21-.23-5.49.33-10.65,1.12-15.71,1.81-10.5,4.57-20.7,9.74-30.01,2.52-4.63,5.23-9.19,7.57-13.89,1.35-2.72,2.72-5.43,4.1-8.14.92-1.82,1.85-3.63,2.79-5.45l-5.44-2.8-19.59-10.08h-.01c-.11-1.29-.22-2.58-.34-3.88-.28-3.01-.54-5.78-.8-8.38l25.54,13.13,5.45,2.8,8.95,4.6c-1.05,3.35-2.1,6.7-3.17,10.03h0Z"/>
        <path class="cls-18" d="M464.86,196.73c.89-2.03,1.92-3.99,3.06-5.88,0,0,0,0,0,0,1.31-2.16,2.78-4.22,4.41-6.16.54-.65,1.1-1.28,1.68-1.9,2.68,2.2,5.33,4.44,7.99,6.67,1.56,1.32,3.13,2.64,4.68,3.98,2.4,2.05,4.78,4.11,7.16,6.18,7.92,6.87,16.94,12.66,23.48,21,6.65,8.27,12.5,16.85,16.33,27.02.19.5.06,1.08-.32,1.46h0c-.38.38-.94.51-1.44.32-5.15-1.89-9.71-4.37-14.08-7.05-9.02-5.67-17.38-12.15-24.01-20.48-3.31-4.11-6.48-8.35-9.95-12.3-1.45-1.69-2.91-3.37-4.37-5.06-1.46-1.72-2.94-3.44-4.41-5.17-1.02,2.08-1.87,4.25-2.52,6.5-1.05,3.61-1.6,7.4-1.6,11.29v5.04c-3.22-1.07-5.95-1.97-8.5-2.79l-1.87-.59v-1.66c0-7.18,1.5-14.12,4.27-20.43Z"/>
        <path class="cls-18" d="M470.96,263.3c2.04-.24,4.09-.47,6.12-.67,5.18-.5,10.38-.73,15.58-.1,10.54,1.15,20.75,3.07,30.65,7.56.49.22.81.72.81,1.26h0c0,.54-.31,1.03-.79,1.25-4.98,2.3-9.96,3.77-14.93,4.97-10.34,2.35-20.78,3.69-31.31,2.51-.06,0-.1,0-.15-.01-1.99-.21-3.99-.45-5.97-.69v46.29c0,.54.01,1.07.04,1.61.01.54.05,1.08.1,1.62.51,6.15,2.39,11.98,5.44,17.13.36.62.74,1.22,1.13,1.81.43.65.87,1.28,1.34,1.89,3.58,4.76,8.25,8.75,13.79,11.6l6.66,3.43,4.96,2.54,5.48,2.83h.01l45.65,23.46,45.65-23.46,5.5-2.83,4.95-2.53h.01l6.66-3.44c5.53-2.84,10.2-6.83,13.79-11.59.46-.62.91-1.26,1.34-1.91.4-.58.77-1.19,1.13-1.81,3.05-5.14,4.93-10.98,5.44-17.14.04-.53.09-1.07.1-1.61.03-.54.04-1.08.04-1.62v-40.1c.24-.03.48-.06.73-.09l.68-.08c3.04-.35,5.9-.68,8.78-.88h.19s0,41.02,0,41.02c0,.17,0,.34-.01.51,0,.42,0,.84-.02,1.24-.01.42-.03.83-.05,1.23-.36,6.3-1.87,12.36-4.39,17.91-.21.47-.43.95-.66,1.41-.23.48-.47.97-.73,1.44-.46.88-.95,1.74-1.46,2.58-3.14,5.15-7.2,9.75-12.05,13.51-.85.67-1.73,1.31-2.63,1.93-1.1.76-2.24,1.47-3.4,2.13-.67.41-1.37.77-2.06,1.13l-67.52,34.71-67.52-34.71c-.71-.36-1.41-.74-2.09-1.13h-.01c-1.17-.67-2.28-1.38-3.38-2.13-.9-.62-1.77-1.26-2.63-1.94-5.63-4.38-10.2-9.87-13.47-16.07-.28-.48-.52-.97-.75-1.45-.23-.46-.45-.93-.65-1.39-.11-.21-.2-.43-.3-.64-2.34-5.4-3.76-11.22-4.11-17.28-.02-.41-.04-.83-.05-1.24-.02-.41-.02-.83-.02-1.23-.01-.18-.01-.34-.01-.52v-61.18s0,0,0,0c3.45-.22,6.91-.64,10.37-1.03Z"/>
        <path class="cls-18" d="M640.2,279.38c-2.04.24-4.09.47-6.12.67-5.18.5-10.38.73-15.58.1-10.54-1.15-20.75-3.08-30.65-7.56-.49-.22-.81-.72-.81-1.26h0c0-.54.31-1.03.79-1.25,4.98-2.31,9.96-3.77,14.94-4.97,10.34-2.35,20.78-3.69,31.31-2.51.05,0,.1,0,.15.01,1.99.21,3.99.45,5.97.69v-11.79c.98-.55,1.95-1.09,2.94-1.63,1.89-1.05,3.55-1.92,5.08-2.69.78-.39,1.56-.78,2.36-1.18v32.32s0,0,0,0c-3.45.22-6.91.64-10.37,1.03Z"/>
        <path class="cls-18" d="M525.98,181.45c4.7,9.37,10.82,18.17,13.67,28.38,2.98,10.18,5.11,20.35,4.75,31.22-.02.54-.36,1.02-.86,1.23h0c-.49.2-1.06.11-1.46-.26-4.04-3.72-7.3-7.76-10.31-11.9-6.16-8.7-11.4-17.88-14.34-28.11-1.49-5.06-2.8-10.2-4.47-15.18-.85-2.54-1.7-5.09-2.53-7.64-.65-1.97-1.29-3.93-1.92-5.9h0s0,0,0,0l-5.53,2.84-10.17,5.23c-2.22,1.15-4.31,2.47-6.22,3.95-.19-.15-.37-.32-.56-.47l-.09-.07c-2.48-2.09-4.96-4.19-7.47-6.26,2.91-2.46,6.11-4.6,9.59-6.39l11.74-6.04,5.53-2.84,8.95-4.6h0s0,0,0,0c1.62,3.06,3.22,6.13,4.8,9.21.94,1.82,1.86,3.63,2.79,5.45,1.38,2.71,2.74,5.42,4.1,8.14Z"/>
        <path class="cls-18" d="M555.58,239.88h0c-.53,0-1.03-.31-1.25-.79-2.3-4.98-3.77-9.96-4.97-14.93-2.36-10.4-3.7-20.88-2.5-31.47.56-5.24,1.32-10.49,1.67-15.73.42-6.02.88-12.05,1.4-18.06.21-2.41.43-4.81.65-7.23l-6.44,3.32h-.01l-19.58,10.07c-1.6-3.07-3.18-6.15-4.8-9.2l25.54-13.13,6.51-3.35,3.79-1.95,3.79,1.95c.44,4.1.84,8.19,1.21,12.29.22,2.41.44,4.81.65,7.23.52,6.01.98,12.04,1.4,18.06.75,10.46,3.04,20.94,1.76,31.46-1.15,10.55-3.07,20.76-7.56,30.66-.22.49-.72.81-1.26.81Z"/>
      </g>
      <path class="cls-18" d="M586.99,370.24l-31.41,16.16-31.4-16.15c20.93,1.03,41.88,1.04,62.81-.01Z"/>
      <path class="cls-18" d="M623.5,349.84c-3.09,3.46-10.83,7.34-17.27,10.53h-.02c-2.42,1.21-4.66,2.31-6.39,3.25l-1.11.57-2.61,1.32c-12.55-.67-26.21-1.05-40.51-1.05s-28.07.37-40.65,1.06l-2.58-1.33-1.81-.93-3.15-1.62-3.9-2.01h0l-7.68-3.95c-3.05-1.56-5.79-3.54-8.17-5.85,46.38,2.03,88.97,2.03,135.84.01Z"/>
      <path class="cls-18" d="M477.54,329.02c52.21,2.38,103.98,2.38,156.07,0-.64,6.09-2.89,11.81-6.43,16.61-48.47-2.16-94.36-2.16-143.21-.01-3.55-4.8-5.8-10.5-6.43-16.6Z"/>
      <path class="cls-18" d="M477.36,308.52c52.33,2.39,104.23,2.39,156.45,0v16.84c-52.33-2.4-104.23-2.4-156.45,0v-16.84Z"/>
      <path class="cls-18" d="M477.36,289.65h156.45v15.23c-52.33-2.4-104.23-2.41-156.45,0v-15.23Z"/>
    </g>
  </g>
</svg>