<?xml version="1.0" encoding="UTF-8"?>
<svg id="Livello_1" data-name="Livello 1" xmlns="http://www.w3.org/2000/svg" viewBox="0 0 1573.09 503.67">
  <defs>
    <style>
      .cls-1 {
        fill: #c11937;
      }

      .cls-2 {
        fill: #fff;
      }

      .cls-3 {
        fill: #67b657;
      }
    </style>
  </defs>
  <rect y="-58.14" width="1573.09" height="687.49"/>
  <g>
    <path class="cls-3" d="M520.18,232.41l-16.68-16.68c-8.66-8.66-22.7-8.66-31.37,0-8.53,8.53-8.53,22.37,0,30.9l16.93,16.93h-23.93c-12.07,0-21.85,9.78-21.85,21.85v.34c0,12.07,9.78,21.85,21.85,21.85h23.93l-16.93,16.93c-8.53,8.53-8.53,22.37,0,30.9l.25.25c8.53,8.53,22.37,8.53,30.9,0l16.9-16.9v23.6c0,12.25,9.92,22.19,22.19,22.19h21.85v-197.88h-21.85c-12.25,0-22.19,9.92-22.19,22.19v23.58-.02Z"/>
    <path class="cls-1" d="M580.78,187.23v44.02c29.96,0,54.32,24.36,54.32,54.32s-24.36,54.32-54.32,54.32v44.02c54.23,0,98.33-44.11,98.33-98.33s-44.11-98.33-98.33-98.33"/>
    <path class="cls-2" d="M815.76,262.17h-5.37l-24.81-57.88h4.21c3.47,0,6.31-2.82,6.31-6.31,0-1.75-.72-3.31-1.86-4.46s-2.73-1.84-4.46-1.84h-36.05c-3.47,0-6.29,2.82-6.29,6.31,0,1.75.69,3.31,1.84,4.46,1.14,1.14,2.71,1.84,4.46,1.84h4.23l-24.61,57.88h-5.22c-3.47,0-6.31,2.82-6.31,6.31v.11c0,3.49,2.82,6.31,6.31,6.31h27.92c3.49,0,6.31-2.82,6.31-6.31v-.11c0-3.49-2.82-6.31-6.31-6.31h-7.68l6.09-15.78h33.36l6.11,15.78h-6.58c-3.49,0-6.31,2.82-6.31,6.31v.11c0,3.49,2.82,6.31,6.31,6.31h28.39c3.49,0,6.31-2.82,6.31-6.31v-.11c0-3.49-2.82-6.31-6.31-6.31M758.83,235.12l11.91-30.83h.76l11.96,30.83h-24.63Z"/>
    <path class="cls-2" d="M835.73,268.3c2.96,2.71,6.36,4.79,10.19,6.25,3.85,1.46,7.86,2.19,12.07,2.19,5.17,0,9.96-1.01,14.37-3.02,2.57-1.19,4.99-2.57,7.23-4.14,2.62-1.84,3.34-5.4,1.61-8.08-1.79-2.78-5.49-3.56-8.24-1.75-1.21.78-2.42,1.5-3.63,2.15-2.87,1.5-6.25,2.22-10.14,2.13-3.16,0-6.05-.74-8.69-2.24-2.64-1.5-4.72-3.6-6.31-6.31-1.57-2.71-2.37-5.84-2.37-9.4,0-2.57.45-4.95,1.34-7.1.9-2.15,2.13-3.99,3.69-5.53,1.57-1.54,3.45-2.71,5.57-3.52,2.15-.81,4.48-1.21,6.99-1.21s4.93.38,7.03,1.14,3.99,1.9,5.64,3.4c1.12,1.01,2.17,2.17,3.11,3.45.87,1.19,2.28,1.86,3.74,1.75,2.19-.18,3.87-1.99,3.87-4.19v-12.29c0-2.33-1.88-4.21-4.21-4.21h-2.15c-2.33,0-4.21,1.88-4.21,4.21v1.68c-.29-.34-.56-.67-.85-.96-1.95-2.06-4.25-3.65-6.92-4.72-2.66-1.1-5.91-1.63-9.72-1.63s-7.43.74-10.93,2.24c-3.47,1.5-6.56,3.6-9.22,6.31-2.66,2.71-4.75,5.89-6.25,9.52-1.5,3.65-2.24,7.61-2.24,11.89,0,4.52.85,8.66,2.55,12.38s4.03,6.94,6.99,9.65"/>
    <path class="cls-2" d="M916.13,191.66h-21.11c-3.29,0-5.93,2.66-5.93,5.96s2.66,5.96,5.93,5.96h6.07v59.47h-6.18c-3.29,0-5.96,2.66-5.96,5.96h0c0,3.29,2.66,5.96,5.96,5.96h27.67c3.29,0,5.96-2.66,5.96-5.96h0c0-3.29-2.66-5.96-5.96-5.96h-6.43v-71.38h-.02Z"/>
    <path class="cls-2" d="M943.85,204.58c2.06,1.59,4.55,2.37,7.46,2.37,3.16,0,5.73-.78,7.7-2.37,1.99-1.57,2.98-3.54,2.98-5.89,0-2.51-.99-4.57-2.98-6.18s-4.55-2.42-7.7-2.42c-2.91,0-5.4.81-7.46,2.42s-3.09,3.67-3.09,6.18c0,2.35,1.03,4.3,3.09,5.89"/>
    <path class="cls-2" d="M960.17,263.02v-45.25h-21.23c-3.29,0-5.96,2.66-5.96,5.96s2.66,5.96,5.96,5.96h6.18v33.36h-6.18c-3.29,0-5.96,2.66-5.96,5.96h0c0,3.29,2.66,5.96,5.96,5.96h27.54c3.29,0,5.96-2.66,5.96-5.96h0c0-3.29-2.66-5.96-5.96-5.96h-6.31v-.02Z"/>
    <path class="cls-2" d="M881.94,369.55c-.22-.81-1.1-1.28-1.9-1.01h0c-.6.2-1.23.31-1.88.31-1.05,0-1.93-.38-2.62-1.16-.69-.76-1.03-1.99-1.03-3.69v-19.17c0-4.86-1.01-8.98-3.04-12.38-2.02-3.4-4.99-6.02-8.91-7.88-3.94-1.86-8.71-2.78-14.37-2.78-4.21,0-8.66.54-13.34,1.63-2.91.67-5.78,1.52-8.64,2.53-2.96,1.05-4.63,4.16-3.83,7.19.87,3.29,4.32,5.24,7.57,4.19,1.93-.63,3.83-1.16,5.69-1.61,3.76-.9,7.25-1.32,10.5-1.32,2.57,0,4.95.34,7.1,1.03,2.15.69,3.83,1.75,5.08,3.16,1.25,1.43,1.88,3.31,1.88,5.64v4.52c-2.04-.85-4.07-1.61-6.07-2.28-3.47-1.16-7.68-1.75-12.63-1.75-3.96,0-7.77.69-11.42,2.13-3.63,1.41-6.65,3.54-9.02,6.36-2.4,2.82-3.63,6.36-3.69,10.57,0,4.05.9,7.43,2.73,10.19s4.25,4.79,7.3,6.13c3.02,1.34,6.29,1.99,9.76,1.99s6.52-.56,9.58-1.7c3.07-1.12,6.11-2.78,9.11-4.9,1.77-1.25,3.47-2.66,5.15-4.21.29.96.65,1.88,1.1,2.73,1.25,2.4,2.91,4.21,4.97,5.46,2.06,1.25,4.37,1.88,6.85,1.88s4.57-.29,6.45-.85c1.21-.36,2.24-.74,3.07-1.1.69-.31,1.03-1.05.83-1.79l-2.28-8.06h-.02ZM860.18,361.69c-1.48,1.12-2.93,2.1-4.37,2.98-2.91,1.75-5.6,3-8.08,3.76-2.46.76-4.59,1.16-6.36,1.16-1.54,0-3-.22-4.37-.67-1.37-.45-2.49-1.14-3.34-2.13-.85-.96-1.28-2.17-1.28-3.63,0-1.79.58-3.2,1.7-4.25s2.6-1.86,4.43-2.42c1.81-.56,3.76-.85,5.89-.85,2.51,0,5.46.29,8.87.85,2.13.36,4.43.99,6.92,1.88v3.34l-.02-.02Z"/>
    <path class="cls-2" d="M891.68,339.86c-1.5,3.65-2.24,7.61-2.24,11.89,0,4.52.85,8.66,2.55,12.38,1.7,3.72,4.03,6.94,6.99,9.65,2.96,2.71,6.36,4.79,10.19,6.25,3.85,1.46,7.86,2.19,12.07,2.19,5.17,0,9.96-1.01,14.37-3.04,2.6-1.19,4.99-2.57,7.23-4.14,2.62-1.84,3.34-5.4,1.61-8.08-1.79-2.78-5.49-3.56-8.24-1.75-1.21.78-2.42,1.5-3.63,2.15-2.87,1.5-6.25,2.19-10.14,2.13-3.16,0-6.05-.74-8.69-2.24-2.64-1.5-4.72-3.6-6.31-6.31-1.57-2.71-2.37-5.84-2.37-9.4,0-2.6.45-4.95,1.34-7.1.9-2.15,2.13-3.99,3.69-5.53s3.45-2.71,5.57-3.52c2.15-.81,4.48-1.21,6.99-1.21s4.93.38,7.03,1.14c2.1.76,3.99,1.9,5.64,3.4,1.12,1.01,2.15,2.17,3.11,3.45.87,1.19,2.28,1.88,3.74,1.75,2.19-.16,3.87-1.99,3.87-4.19v-11.22c0-2.91-2.35-5.28-5.28-5.28s-5.28,2.37-5.28,5.28v.6c-.29-.34-.56-.67-.85-.96-1.95-2.06-4.25-3.65-6.92-4.72-2.66-1.1-5.91-1.63-9.72-1.63s-7.43.76-10.93,2.24c-3.47,1.5-6.56,3.6-9.22,6.31-2.66,2.71-4.75,5.89-6.25,9.52"/>
    <path class="cls-2" d="M1020.29,369.57c-.22-.83-1.1-1.3-1.9-1.03h0c-.6.2-1.23.31-1.88.31-1.05,0-1.93-.38-2.6-1.14-.69-.76-1.03-1.99-1.03-3.69v-19.17c0-4.86-1.01-8.98-3.04-12.38-2.02-3.4-4.99-6.02-8.93-7.88-3.92-1.86-8.71-2.78-14.37-2.78-4.21,0-8.66.54-13.34,1.63-2.93.69-5.82,1.54-8.69,2.55-2.93,1.03-4.57,4.16-3.78,7.16.87,3.29,4.32,5.26,7.57,4.21,1.93-.63,3.81-1.16,5.69-1.61,3.76-.9,7.25-1.32,10.5-1.32,2.6,0,4.95.34,7.1,1.03,2.15.69,3.83,1.75,5.08,3.16,1.25,1.41,1.88,3.31,1.88,5.64v4.52c-2.06-.85-4.07-1.61-6.07-2.28-3.47-1.16-7.68-1.75-12.63-1.75-3.96,0-7.77.69-11.4,2.13-3.63,1.41-6.65,3.54-9.05,6.36-2.4,2.82-3.63,6.36-3.69,10.57,0,4.05.92,7.43,2.73,10.19s4.25,4.79,7.28,6.13c3.04,1.34,6.29,1.99,9.76,1.99s6.52-.56,9.58-1.7c3.07-1.12,6.11-2.78,9.09-4.9,1.77-1.25,3.47-2.66,5.15-4.19.29.96.65,1.88,1.1,2.73,1.25,2.4,2.91,4.21,4.97,5.46,2.06,1.25,4.34,1.88,6.85,1.88s4.57-.29,6.43-.85c1.21-.36,2.24-.74,3.07-1.1.69-.31,1.05-1.07.83-1.79l-2.28-8.04.04-.07ZM998.53,361.69c-1.48,1.12-2.93,2.1-4.37,2.98-2.91,1.75-5.6,3-8.06,3.76-2.46.76-4.59,1.14-6.38,1.14-1.52,0-3-.22-4.37-.67-1.37-.45-2.49-1.14-3.34-2.13-.85-.96-1.28-2.17-1.28-3.63,0-1.77.56-3.2,1.7-4.25s2.62-1.86,4.43-2.42,3.78-.85,5.89-.85c2.51,0,5.46.29,8.87.85,2.13.36,4.43.99,6.92,1.88v3.34h-.02Z"/>
    <path class="cls-2" d="M1026.31,374.43h0c0,3.29,2.66,5.96,5.96,5.96h27.67c3.29,0,5.96-2.66,5.96-5.96s-2.66-5.96-5.96-5.96h-6.43v-71.35h-21.11c-3.29,0-5.96,2.66-5.96,5.96s2.66,5.96,5.96,5.96h6.07v59.47h-6.18c-3.29,0-5.96,2.66-5.96,5.96"/>
    <path class="cls-2" d="M1128.38,366.95c-1.75-2.71-5.28-3.54-8.08-1.95-1.39.78-2.87,1.5-4.43,2.15-3.47,1.46-7.46,2.19-11.89,2.19-3.4,0-6.52-.65-9.36-1.95-2.82-1.3-5.08-3.2-6.78-5.78-1.68-2.51-2.53-5.53-2.55-9.05,2.57,1.1,5.19,2.06,7.81,2.91,3.76,1.21,8.1,1.81,13.05,1.81,4.05,0,7.86-.65,11.46-1.95s6.52-3.2,8.8-5.71c2.26-2.51,3.4-5.71,3.4-9.58s-1.1-6.96-3.34-9.72c-2.24-2.75-5.28-4.88-9.16-6.38s-8.37-2.24-13.48-2.24c-4.21,0-8.28.72-12.2,2.13s-7.46,3.47-10.61,6.2c-3.16,2.71-5.64,5.98-7.46,9.83s-2.73,8.24-2.73,13.16.92,8.87,2.73,12.49c1.84,3.63,4.3,6.67,7.41,9.09,3.11,2.42,6.6,4.28,10.5,5.53,3.87,1.25,7.88,1.88,12.02,1.88,3.87,0,7.52-.45,10.93-1.32,3.4-.9,6.49-2.13,9.29-3.69,1.03-.58,2.04-1.21,3-1.84,2.73-1.81,3.45-5.49,1.68-8.24M1091.46,338.7c1.86-1.66,3.96-2.93,6.31-3.83,2.35-.9,4.72-1.32,7.16-1.32,2.91,0,5.28.6,7.1,1.81,1.81,1.21,2.73,2.78,2.73,4.72,0,1.46-.51,2.71-1.57,3.76s-2.49,1.84-4.3,2.37c-1.84.54-3.94.83-6.38.92-2.75,0-5.78-.31-9.09-.92-1.93-.36-4.03-.94-6.31-1.75,1.12-2.24,2.57-4.16,4.37-5.78"/>
    <path class="cls-2" d="M809.72,368.11c-.85-.36-1.79-.58-2.78-.58-.47,0-.94.04-1.39.13-.78.13-1.7.2-2.78.2-1.46,0-3.09-.36-4.9-1.03-1.81-.69-3.67-2.06-5.53-4.12s-3.67-5.15-5.46-9.29l-3.67-8.64c1.75-.43,3.4-.96,4.97-1.63,4.72-1.99,8.4-4.81,10.97-8.49s3.9-8.08,3.9-13.16-1.32-9.45-3.94-13.1c-2.62-3.63-6.36-6.43-11.17-8.37-4.81-1.95-10.41-2.91-16.79-2.91h-42.72c-3.49,0-6.31,2.82-6.31,6.31,0,1.75.72,3.31,1.84,4.46,1.14,1.14,2.73,1.84,4.46,1.84h8.24v58.01h-8.24c-3.49,0-6.31,2.82-6.31,6.29,0,1.75.72,3.31,1.84,4.46,1.14,1.14,2.73,1.84,4.46,1.84h32.15c3.49,0,6.31-2.82,6.31-6.31,0-1.72-.69-3.31-1.84-4.46-1.14-1.14-2.73-1.84-4.46-1.84h-7.88v-21.61h17.49l3.99,11.42c2.1,6.38,4.55,11.35,7.34,14.87s5.84,5.98,9.16,7.41c3.31,1.41,6.81,2.17,10.43,2.24,2.26,0,4.39-.25,6.38-.72.51-.13,1.03-.27,1.52-.43,1.32-.4,2.49-1.23,3.34-2.31.92-1.16,1.48-2.64,1.48-4.25,0-2.8-1.68-5.19-4.07-6.27M779.06,332.94c-2.4.9-4.88,1.34-7.46,1.34h-18.92v-24.52h18.92c2.69,0,5.22.43,7.66,1.28,2.42.85,4.37,2.15,5.82,3.9,1.46,1.72,2.19,3.94,2.19,6.6,0,2.91-.76,5.33-2.31,7.23-1.54,1.9-3.49,3.29-5.89,4.19"/>
  </g>
  <path class="cls-2" d="M465.2,80.11c18.6-3.65,38.32-.95,55.32,7.42,16.23,7.99,29.5,21.16,37.97,37.11,4.66,8.78,7.8,18.33,9.24,28.16.14.95,1.58.55,1.45-.4-2.61-17.88-10.92-34.79-23.29-47.94s-30.33-22.93-48.96-26.13c-10.64-1.83-21.54-1.75-32.13.33-.95.19-.55,1.63.4,1.45h0Z"/>
  <path class="cls-2" d="M1016.93,114.57c-14.12,1.41-27.81,5.99-40.06,13.12s-23.02,16.77-31.42,28.19c-4.74,6.45-8.66,13.46-11.67,20.88-.36.89,1.09,1.28,1.45.4,5.24-12.9,13.41-24.5,23.52-34.05,10.11-9.54,22.18-17.06,35.26-21.79,7.4-2.68,15.1-4.46,22.93-5.24.95-.09.96-1.6,0-1.5h0Z"/>
  <path class="cls-2" d="M1231,401.92c-11.24-22.02-32.77-37.68-57.22-41.45-7.3-1.13-14.72-1.23-22.05-.27-.94.12-.96,1.63,0,1.5,24.93-3.27,50.27,6.09,66.99,24.88,4.34,4.87,8.02,10.29,10.98,16.1.44.86,1.73.1,1.3-.76h0Z"/>
  <path class="cls-2" d="M558,147.52c3.96,1.45,7.43,3.96,10.1,7.22.4.48,1.07.14,1.25-.33,1.52-3.82,3.03-7.64,4.55-11.47.36-.9-1.09-1.29-1.45-.4-1.52,3.82-3.03,7.64-4.55,11.47l1.25-.33c-2.84-3.46-6.57-6.07-10.77-7.6-.91-.33-1.3,1.12-.4,1.45h0Z"/>
  <path class="cls-2" d="M929.91,166.41c2.1,3.65,3.18,7.79,3.13,12,0,.58.64.91,1.13.65,3.62-1.95,7.24-3.91,10.85-5.86.85-.46.09-1.75-.76-1.3-3.62,1.95-7.24,3.91-10.85,5.86l1.13.65c.05-4.47-1.11-8.88-3.34-12.76-.48-.84-1.78-.08-1.3.76h0Z"/>
  <path class="cls-2" d="M1158.67,352.14c-2.4,3.47-5.7,6.2-9.53,7.97-.56.26-.41,1,0,1.3,3.32,2.43,6.64,4.86,9.95,7.29.78.57,1.53-.73.76-1.3-3.32-2.43-6.64-4.86-9.95-7.29v1.3c4.06-1.88,7.52-4.83,10.06-8.51.55-.8-.75-1.55-1.3-.76h0Z"/>
  <path class="cls-2" d="M409.85,441.63c12.96-3.53,25.4-8.96,36.84-16s21.9-15.69,30.93-25.63c5.11-5.62,9.75-11.65,13.88-18.02.53-.81-.77-1.57-1.3-.76-7.24,11.17-16.11,21.25-26.21,29.92s-21.3,15.84-33.34,21.36c-6.84,3.14-13.94,5.7-21.21,7.68-.93.25-.54,1.7.4,1.45h0Z"/>
  <path class="cls-2" d="M494.78,392.61c-1.8-3.81-2.51-8.04-2.12-12.23.06-.63-.67-.85-1.13-.65-3.76,1.66-7.53,3.31-11.29,4.97-.88.39-.12,1.68.76,1.3,3.76-1.66,7.53-3.31,11.29-4.97l-1.13-.65c-.41,4.46.41,8.94,2.32,12.98.41.87,1.71.11,1.3-.76h0Z"/>
  <g>
    <path class="cls-2" d="M263.12,413.46c0-1.34-.86-2.14-2.08-2.14-1.04,0-1.98.94-1.98,2.02s.7,1.64,2.14,2.1c3.2,1.02,4.38,2.22,4.38,4.78s-1.92,4.48-4.54,4.48-4.52-1.88-4.56-4.66h2.16c.02,1.6.96,2.68,2.4,2.68s2.38-1.04,2.38-2.5c0-1.08-.48-1.76-2.06-2.3-3.66-1.24-4.46-2.44-4.46-4.54,0-2.26,1.86-4.04,4.14-4.04,2.44,0,4.2,1.54,4.24,4.12h-2.16Z"/>
    <path class="cls-2" d="M269.56,419.78c.48,1.84,1.94,3.02,3.64,3.02,1.3,0,2.52-.68,3.16-1.86h2.08c-.86,2.28-2.94,3.76-5.32,3.76-3.12,0-5.64-2.76-5.64-5.72,0-3.5,2.64-5.94,5.58-5.94,3.26,0,5.74,2.52,5.74,5.7,0,.34,0,.66-.06,1.04h-9.18ZM276.72,418.18c-.16-1.88-1.82-3.24-3.6-3.24s-3.4,1.34-3.56,3.24h7.16Z"/>
    <path class="cls-2" d="M295.56,424.42v-6.2c0-2.1-.88-3.28-2.62-3.28-1.84,0-2.64,1.02-2.64,3.24v6.24h-2.08v-6.44c0-2.18-1.02-3.04-2.52-3.04-1.84,0-2.74,1.08-2.74,3.26v6.22h-2.08v-11.08h1.92v1.2h.04c.9-1.06,1.74-1.5,3.18-1.5s2.88.7,3.44,1.86c.8-1.26,1.9-1.86,3.66-1.86,2.88,0,4.52,1.8,4.52,4.66v6.72h-2.08Z"/>
    <path class="cls-2" d="M300.3,428.12v-14.78h1.9v1.7h.04c.94-1.34,2.36-2,3.94-2,3.3,0,5.74,2.56,5.74,5.98,0,3.12-2.42,5.68-5.6,5.68-1.68,0-3.18-.68-3.9-1.88h-.04v5.3h-2.08ZM309.84,418.9c0-2.02-1.6-3.96-3.82-3.96-2.08,0-3.68,1.86-3.68,3.92s1.6,3.94,3.76,3.94,3.74-1.78,3.74-3.9Z"/>
    <path class="cls-2" d="M314.02,424.42v-14.8h2.08v14.8h-2.08Z"/>
    <path class="cls-2" d="M318.78,412.06v-2.44h2.08v2.44h-2.08ZM318.78,424.42v-11.08h2.08v11.08h-2.08Z"/>
    <path class="cls-2" d="M334.1,420.76c-.88,2.5-3,3.94-5.46,3.94-3.18,0-5.68-2.56-5.68-5.72,0-3.34,2.42-5.94,5.66-5.94,2.52,0,4.82,1.58,5.48,3.98h-2.3c-.62-1.3-1.62-2.08-3.12-2.08-2.18,0-3.64,1.66-3.64,3.92s1.5,3.94,3.6,3.94c1.42,0,2.56-.76,3.14-2.04h2.32Z"/>
    <path class="cls-2" d="M337.6,419.78c.48,1.84,1.94,3.02,3.64,3.02,1.3,0,2.52-.68,3.16-1.86h2.08c-.86,2.28-2.94,3.76-5.32,3.76-3.12,0-5.64-2.76-5.64-5.72,0-3.5,2.64-5.94,5.58-5.94,3.26,0,5.74,2.52,5.74,5.7,0,.34,0,.66-.06,1.04h-9.18ZM344.76,418.18c-.16-1.88-1.82-3.24-3.6-3.24s-3.4,1.34-3.56,3.24h7.16Z"/>
    <path class="cls-2" d="M348.88,425.72c.54-.2.74-.44.74-1.3h-.74v-2.44h2.08v2.3c0,1.48-.66,2.4-2.08,2.68v-1.24Z"/>
    <path class="cls-2" d="M358.52,412.06v-2.44h2.08v2.44h-2.08ZM358.52,424.42v-11.08h2.08v11.08h-2.08Z"/>
    <path class="cls-2" d="M373.84,420.76c-.88,2.5-3,3.94-5.46,3.94-3.18,0-5.68-2.56-5.68-5.72,0-3.34,2.42-5.94,5.66-5.94,2.52,0,4.82,1.58,5.48,3.98h-2.3c-.62-1.3-1.62-2.08-3.12-2.08-2.18,0-3.64,1.66-3.64,3.92s1.5,3.94,3.6,3.94c1.42,0,2.56-.76,3.14-2.04h2.32Z"/>
    <path class="cls-2" d="M381.14,424.7c-3.12,0-5.9-2.66-5.9-5.78,0-3.38,2.66-5.88,6.06-5.88,3.06,0,5.94,2.4,5.9,5.92-.04,2.96-2.52,5.74-6.06,5.74ZM381.2,414.94c-2.08,0-3.88,1.76-3.88,3.92s1.74,3.94,3.84,3.94,3.96-1.72,3.96-3.96-1.74-3.9-3.92-3.9Z"/>
    <path class="cls-2" d="M397.06,424.42v-6.04c0-2.34-.92-3.44-2.76-3.44s-2.92,1.34-2.92,3.42v6.06h-2.08v-11.08h1.94v1.18h.04c.82-1.06,1.96-1.48,3.24-1.48,2.66,0,4.62,1.68,4.62,4.74v6.64h-2.08Z"/>
    <path class="cls-2" d="M401.8,412.06v-2.44h2.08v2.44h-2.08ZM401.8,424.42v-11.08h2.08v11.08h-2.08Z"/>
    <path class="cls-2" d="M417.12,420.76c-.88,2.5-3,3.94-5.46,3.94-3.18,0-5.68-2.56-5.68-5.72,0-3.34,2.42-5.94,5.66-5.94,2.52,0,4.82,1.58,5.48,3.98h-2.3c-.62-1.3-1.62-2.08-3.12-2.08-2.18,0-3.64,1.66-3.64,3.92s1.5,3.94,3.6,3.94c1.42,0,2.56-.76,3.14-2.04h2.32Z"/>
    <path class="cls-2" d="M424.42,424.7c-3.12,0-5.9-2.66-5.9-5.78,0-3.38,2.66-5.88,6.06-5.88,3.06,0,5.94,2.4,5.9,5.92-.04,2.96-2.52,5.74-6.06,5.74ZM424.48,414.94c-2.08,0-3.88,1.76-3.88,3.92s1.74,3.94,3.84,3.94,3.96-1.72,3.96-3.96-1.74-3.9-3.92-3.9Z"/>
    <path class="cls-2" d="M292.22,443.78c.48,1.84,1.94,3.02,3.64,3.02,1.3,0,2.52-.68,3.16-1.86h2.08c-.86,2.28-2.94,3.76-5.32,3.76-3.12,0-5.64-2.76-5.64-5.72,0-3.5,2.64-5.94,5.58-5.94,3.26,0,5.74,2.52,5.74,5.7,0,.34,0,.66-.06,1.04h-9.18ZM299.38,442.18c-.16-1.88-1.82-3.24-3.6-3.24s-3.4,1.34-3.56,3.24h7.16Z"/>
    <path class="cls-2" d="M313.8,440.28c-.1-.8-.56-1.34-1.42-1.34-.8,0-1.3.54-1.3,1.18,0,.94.96,1.22,2.06,1.56,1.56.48,3,1.42,3,3.48s-1.56,3.54-3.72,3.54c-2,0-3.92-1.36-3.92-3.92h2.08c.1,1.34.78,2.02,1.88,2.02.96,0,1.6-.62,1.6-1.52,0-.76-.58-1.26-1.88-1.68-2.72-.86-3.18-2.04-3.18-3.3,0-1.96,1.66-3.26,3.48-3.26s3.34,1.28,3.4,3.24h-2.08Z"/>
    <path class="cls-2" d="M328.48,444.76c-.88,2.5-3,3.94-5.46,3.94-3.18,0-5.68-2.56-5.68-5.72,0-3.34,2.42-5.94,5.66-5.94,2.52,0,4.82,1.58,5.48,3.98h-2.3c-.62-1.3-1.62-2.08-3.12-2.08-2.18,0-3.64,1.66-3.64,3.92s1.5,3.94,3.6,3.94c1.42,0,2.56-.76,3.14-2.04h2.32Z"/>
    <path class="cls-2" d="M339.56,448.42v-1.72h-.04c-.78,1.32-2.18,2-3.76,2-3.24,0-5.88-2.44-5.88-5.64,0-3.54,2.54-6.02,5.8-6.02,1.62,0,2.98.6,3.84,1.86h.04v-1.56h2.08v11.08h-2.08ZM339.6,442.9c0-2.16-1.56-3.96-3.86-3.96-2.08,0-3.78,1.78-3.78,3.96s1.7,3.9,3.78,3.9,3.86-1.8,3.86-3.9Z"/>
    <path class="cls-2" d="M344.42,448.42v-14.8h2.08v14.8h-2.08Z"/>
    <path class="cls-2" d="M358.28,448.42v-1.72h-.04c-.78,1.32-2.18,2-3.76,2-3.24,0-5.88-2.44-5.88-5.64,0-3.54,2.54-6.02,5.8-6.02,1.62,0,2.98.6,3.84,1.86h.04v-1.56h2.08v11.08h-2.08ZM358.32,442.9c0-2.16-1.56-3.96-3.86-3.96-2.08,0-3.78,1.78-3.78,3.96s1.7,3.9,3.78,3.9,3.86-1.8,3.86-3.9Z"/>
    <path class="cls-2" d="M363.14,448.42v-14.8h2.08v5.26h.04c.9-1.22,2.3-1.84,3.8-1.84,3.14,0,5.74,2.64,5.74,5.84s-2.44,5.82-5.56,5.82c-1.6,0-3.08-.64-4-1.88h-.04v1.6h-2.06ZM372.72,442.88c0-2.1-1.66-3.94-3.8-3.94s-3.76,1.8-3.76,3.9,1.66,3.96,3.78,3.96,3.78-1.76,3.78-3.92Z"/>
    <path class="cls-2" d="M376.9,436.06v-2.44h2.08v2.44h-2.08ZM376.9,448.42v-11.08h2.08v11.08h-2.08Z"/>
    <path class="cls-2" d="M381.76,448.42v-14.8h2.08v14.8h-2.08Z"/>
    <path class="cls-2" d="M388.04,443.78c.48,1.84,1.94,3.02,3.64,3.02,1.3,0,2.52-.68,3.16-1.86h2.08c-.86,2.28-2.94,3.76-5.32,3.76-3.12,0-5.64-2.76-5.64-5.72,0-3.5,2.64-5.94,5.58-5.94,3.26,0,5.74,2.52,5.74,5.7,0,.34,0,.66-.06,1.04h-9.18ZM395.2,442.18c-.16-1.88-1.82-3.24-3.6-3.24s-3.4,1.34-3.56,3.24h7.16Z"/>
  </g>
  <g>
    <path class="cls-2" d="M249.79,66.27v-12.5h-.06l-4.98,12.5h-1.3l-5-12.5h-.04v12.5h-2.16v-14.8h3.4l4.44,11.34,4.46-11.34h3.4v14.8h-2.16Z"/>
    <path class="cls-2" d="M263.87,66.27v-1.72h-.04c-.78,1.32-2.18,2-3.76,2-3.24,0-5.88-2.44-5.88-5.64,0-3.54,2.54-6.02,5.8-6.02,1.62,0,2.98.6,3.84,1.86h.04v-1.56h2.08v11.08h-2.08ZM263.91,60.75c0-2.16-1.56-3.96-3.86-3.96-2.08,0-3.78,1.78-3.78,3.96s1.7,3.9,3.78,3.9,3.86-1.8,3.86-3.9Z"/>
    <path class="cls-2" d="M276.37,66.27v-6.04c0-2.34-.92-3.44-2.76-3.44s-2.92,1.34-2.92,3.42v6.06h-2.08v-11.08h1.94v1.18h.04c.82-1.06,1.96-1.48,3.24-1.48,2.66,0,4.62,1.68,4.62,4.74v6.64h-2.08Z"/>
    <path class="cls-2" d="M281.35,66.27v-9.18h-1.5v-1.9h1.5v-3.72h2.08v3.72h1.82v1.9h-1.82v9.18h-2.08Z"/>
    <path class="cls-2" d="M286.65,53.9v-2.44h2.08v2.44h-2.08ZM286.65,66.27v-11.08h2.08v11.08h-2.08Z"/>
    <path class="cls-2" d="M292.93,61.62c.48,1.84,1.94,3.02,3.64,3.02,1.3,0,2.52-.68,3.16-1.86h2.08c-.86,2.28-2.94,3.76-5.32,3.76-3.12,0-5.64-2.76-5.64-5.72,0-3.5,2.64-5.94,5.58-5.94,3.26,0,5.74,2.52,5.74,5.7,0,.34,0,.66-.06,1.04h-9.18ZM300.09,60.03c-.16-1.88-1.82-3.24-3.6-3.24s-3.4,1.34-3.56,3.24h7.16Z"/>
    <path class="cls-2" d="M311.99,66.27v-6.04c0-2.34-.92-3.44-2.76-3.44s-2.92,1.34-2.92,3.42v6.06h-2.08v-11.08h1.94v1.18h.04c.82-1.06,1.96-1.48,3.24-1.48,2.66,0,4.62,1.68,4.62,4.74v6.64h-2.08Z"/>
    <path class="cls-2" d="M318.25,61.62c.48,1.84,1.94,3.02,3.64,3.02,1.3,0,2.52-.68,3.16-1.86h2.08c-.86,2.28-2.94,3.76-5.32,3.76-3.12,0-5.64-2.76-5.64-5.72,0-3.5,2.64-5.94,5.58-5.94,3.26,0,5.74,2.52,5.74,5.7,0,.34,0,.66-.06,1.04h-9.18ZM325.41,60.03c-.16-1.88-1.82-3.24-3.6-3.24s-3.4,1.34-3.56,3.24h7.16Z"/>
    <path class="cls-2" d="M344.63,64.81c-.86,1.16-2.24,1.74-3.82,1.74-3.18,0-5.92-2.74-5.92-5.74,0-3.34,2.6-5.92,5.94-5.92,1.44,0,2.96.6,3.84,1.58v-1.28h2.08v9.62c0,3.6-2.22,5.82-5.98,5.82-2.54,0-4.54-1.34-5.48-3.5h2.32c.78,1.1,1.82,1.6,3.18,1.6,2.54,0,3.88-1.38,3.88-3.92h-.04ZM344.67,60.73c0-2.6-1.98-3.94-3.9-3.94-2.06,0-3.8,1.78-3.8,3.94s1.76,3.92,3.82,3.92c2.42,0,3.88-2.12,3.88-3.92Z"/>
    <path class="cls-2" d="M349.41,66.27v-14.8h2.08v14.8h-2.08Z"/>
    <path class="cls-2" d="M354.17,53.9v-2.44h2.08v2.44h-2.08ZM354.17,66.27v-11.08h2.08v11.08h-2.08Z"/>
    <path class="cls-2" d="M369.19,58.12c-.1-.8-.56-1.34-1.42-1.34-.8,0-1.3.54-1.3,1.18,0,.94.96,1.22,2.06,1.56,1.56.48,3,1.42,3,3.48s-1.56,3.54-3.72,3.54c-2,0-3.92-1.36-3.92-3.92h2.08c.1,1.34.78,2.02,1.88,2.02.96,0,1.6-.62,1.6-1.52,0-.76-.58-1.26-1.88-1.68-2.72-.86-3.18-2.04-3.18-3.3,0-1.96,1.66-3.26,3.48-3.26s3.34,1.28,3.4,3.24h-2.08Z"/>
    <path class="cls-2" d="M373.84,66.27v-9.18h-1.5v-1.9h1.5v-3.72h2.08v3.72h1.82v1.9h-1.82v9.18h-2.08Z"/>
    <path class="cls-2" d="M380.67,61.62c.48,1.84,1.94,3.02,3.64,3.02,1.3,0,2.52-.68,3.16-1.86h2.08c-.86,2.28-2.94,3.76-5.32,3.76-3.12,0-5.64-2.76-5.64-5.72,0-3.5,2.64-5.94,5.58-5.94,3.26,0,5.74,2.52,5.74,5.7,0,.34,0,.66-.06,1.04h-9.18ZM387.83,60.03c-.16-1.88-1.82-3.24-3.6-3.24s-3.4,1.34-3.56,3.24h7.16Z"/>
    <path class="cls-2" d="M396.35,58.12c-.1-.8-.56-1.34-1.42-1.34-.8,0-1.3.54-1.3,1.18,0,.94.96,1.22,2.06,1.56,1.56.48,3,1.42,3,3.48s-1.56,3.54-3.72,3.54c-2,0-3.92-1.36-3.92-3.92h2.08c.1,1.34.78,2.02,1.88,2.02.96,0,1.6-.62,1.6-1.52,0-.76-.58-1.26-1.88-1.68-2.72-.86-3.18-2.04-3.18-3.3,0-1.96,1.66-3.26,3.48-3.26s3.34,1.28,3.4,3.24h-2.08Z"/>
    <path class="cls-2" d="M404.83,58.12c-.1-.8-.56-1.34-1.42-1.34-.8,0-1.3.54-1.3,1.18,0,.94.96,1.22,2.06,1.56,1.56.48,3,1.42,3,3.48s-1.56,3.54-3.72,3.54c-2,0-3.92-1.36-3.92-3.92h2.08c.1,1.34.78,2.02,1.88,2.02.96,0,1.6-.62,1.6-1.52,0-.76-.58-1.26-1.88-1.68-2.72-.86-3.18-2.04-3.18-3.3,0-1.96,1.66-3.26,3.48-3.26s3.34,1.28,3.4,3.24h-2.08Z"/>
    <path class="cls-2" d="M408.94,53.9v-2.44h2.08v2.44h-2.08ZM408.94,66.27v-11.08h2.08v11.08h-2.08Z"/>
    <path class="cls-2" d="M421.12,61.62c.48,1.84,1.94,3.02,3.64,3.02,1.3,0,2.52-.68,3.16-1.86h2.08c-.86,2.28-2.94,3.76-5.32,3.76-3.12,0-5.64-2.76-5.64-5.72,0-3.5,2.64-5.94,5.58-5.94,3.26,0,5.74,2.52,5.74,5.7,0,.34,0,.66-.06,1.04h-9.18ZM428.29,60.03c-.16-1.88-1.82-3.24-3.6-3.24s-3.4,1.34-3.56,3.24h7.16Z"/>
    <path class="cls-2" d="M432.44,66.27v-14.8h2.08v14.8h-2.08Z"/>
    <path class="cls-2" d="M438.72,61.62c.48,1.84,1.94,3.02,3.64,3.02,1.3,0,2.52-.68,3.16-1.86h2.08c-.86,2.28-2.94,3.76-5.32,3.76-3.12,0-5.64-2.76-5.64-5.72,0-3.5,2.64-5.94,5.58-5.94,3.26,0,5.74,2.52,5.74,5.7,0,.34,0,.66-.06,1.04h-9.18ZM445.89,60.03c-.16-1.88-1.82-3.24-3.6-3.24s-3.4,1.34-3.56,3.24h7.16Z"/>
    <path class="cls-2" d="M464.73,66.27v-6.2c0-2.1-.88-3.28-2.62-3.28-1.84,0-2.64,1.02-2.64,3.24v6.24h-2.08v-6.44c0-2.18-1.02-3.04-2.52-3.04-1.84,0-2.74,1.08-2.74,3.26v6.22h-2.08v-11.08h1.92v1.2h.04c.9-1.06,1.74-1.5,3.18-1.5s2.88.7,3.44,1.86c.8-1.26,1.9-1.86,3.66-1.86,2.88,0,4.52,1.8,4.52,4.66v6.72h-2.08Z"/>
    <path class="cls-2" d="M470.98,61.62c.48,1.84,1.94,3.02,3.64,3.02,1.3,0,2.52-.68,3.16-1.86h2.08c-.86,2.28-2.94,3.76-5.32,3.76-3.12,0-5.64-2.76-5.64-5.72,0-3.5,2.64-5.94,5.58-5.94,3.26,0,5.74,2.52,5.74,5.7,0,.34,0,.66-.06,1.04h-9.18ZM478.15,60.03c-.16-1.88-1.82-3.24-3.6-3.24s-3.4,1.34-3.56,3.24h7.16Z"/>
    <path class="cls-2" d="M490.05,66.27v-6.04c0-2.34-.92-3.44-2.76-3.44s-2.92,1.34-2.92,3.42v6.06h-2.08v-11.08h1.94v1.18h.04c.82-1.06,1.96-1.48,3.24-1.48,2.66,0,4.62,1.68,4.62,4.74v6.64h-2.08Z"/>
    <path class="cls-2" d="M495.02,66.27v-9.18h-1.5v-1.9h1.5v-3.72h2.08v3.72h1.82v1.9h-1.82v9.18h-2.08Z"/>
    <path class="cls-2" d="M500.32,53.9v-2.44h2.08v2.44h-2.08ZM500.32,66.27v-11.08h2.08v11.08h-2.08Z"/>
    <path class="cls-2" d="M291.55,90.27v-1.58h-.04c-.86,1.2-2.3,1.86-3.92,1.86-3.22,0-5.76-2.44-5.76-5.7s2.4-5.96,5.7-5.96c1.5,0,2.92.54,3.82,1.66h.04v-5.08h2.08v14.8h-1.92ZM287.69,80.78c-2.12,0-3.78,1.78-3.78,3.96s1.7,3.9,3.78,3.9,3.86-1.72,3.86-3.82c0-2.26-1.52-4.04-3.86-4.04Z"/>
    <path class="cls-2" d="M297.67,85.62c.48,1.84,1.94,3.02,3.64,3.02,1.3,0,2.52-.68,3.16-1.86h2.08c-.86,2.28-2.94,3.76-5.32,3.76-3.12,0-5.64-2.76-5.64-5.72,0-3.5,2.64-5.94,5.58-5.94,3.26,0,5.74,2.52,5.74,5.7,0,.34,0,.66-.06,1.04h-9.18ZM304.83,84.03c-.16-1.88-1.82-3.24-3.6-3.24s-3.4,1.34-3.56,3.24h7.16Z"/>
    <path class="cls-2" d="M308.99,90.27v-14.8h2.08v14.8h-2.08Z"/>
    <path class="cls-2" d="M319.65,90.27v-14.8h2.08v14.8h-2.08Z"/>
    <path class="cls-2" d="M329.73,90.55c-3.12,0-5.9-2.66-5.9-5.78,0-3.38,2.66-5.88,6.06-5.88,3.06,0,5.94,2.4,5.9,5.92-.04,2.96-2.52,5.74-6.06,5.74ZM329.79,80.78c-2.08,0-3.88,1.76-3.88,3.92s1.74,3.94,3.84,3.94,3.96-1.72,3.96-3.96-1.74-3.9-3.92-3.9Z"/>
    <path class="cls-2" d="M347.07,88.81c-.86,1.16-2.24,1.74-3.82,1.74-3.18,0-5.92-2.74-5.92-5.74,0-3.34,2.6-5.92,5.94-5.92,1.44,0,2.96.6,3.84,1.58v-1.28h2.08v9.62c0,3.6-2.22,5.82-5.98,5.82-2.54,0-4.54-1.34-5.48-3.5h2.32c.78,1.1,1.82,1.6,3.18,1.6,2.54,0,3.88-1.38,3.88-3.92h-.04ZM347.11,84.73c0-2.6-1.98-3.94-3.9-3.94-2.06,0-3.8,1.78-3.8,3.94s1.76,3.92,3.82,3.92c2.42,0,3.88-2.12,3.88-3.92Z"/>
    <path class="cls-2" d="M356.87,90.55c-3.12,0-5.9-2.66-5.9-5.78,0-3.38,2.66-5.88,6.06-5.88,3.06,0,5.94,2.4,5.9,5.92-.04,2.96-2.52,5.74-6.06,5.74ZM356.93,80.78c-2.08,0-3.88,1.76-3.88,3.92s1.74,3.94,3.84,3.94,3.96-1.72,3.96-3.96-1.74-3.9-3.92-3.9Z"/>
    <path class="cls-2" d="M376.27,90.55c-3.12,0-5.9-2.66-5.9-5.78,0-3.38,2.66-5.88,6.06-5.88,3.06,0,5.94,2.4,5.9,5.92-.04,2.96-2.52,5.74-6.06,5.74ZM376.33,80.78c-2.08,0-3.88,1.76-3.88,3.92s1.74,3.94,3.84,3.94,3.96-1.72,3.96-3.96-1.74-3.9-3.92-3.9Z"/>
    <path class="cls-2" d="M384.44,90.27v-11.08h1.94v1h.04c.5-.74,1.36-1.22,2.82-1.3v2.14c-1.8.06-2.72,1.16-2.72,3.02v6.22h-2.08Z"/>
    <path class="cls-2" d="M391.26,77.9v-2.44h2.08v2.44h-2.08ZM391.26,90.27v-11.08h2.08v11.08h-2.08Z"/>
    <path class="cls-2" d="M405.19,88.81c-.86,1.16-2.24,1.74-3.82,1.74-3.18,0-5.92-2.74-5.92-5.74,0-3.34,2.6-5.92,5.94-5.92,1.44,0,2.96.6,3.84,1.58v-1.28h2.08v9.62c0,3.6-2.22,5.82-5.98,5.82-2.54,0-4.54-1.34-5.48-3.5h2.32c.78,1.1,1.82,1.6,3.18,1.6,2.54,0,3.88-1.38,3.88-3.92h-.04ZM405.23,84.73c0-2.6-1.98-3.94-3.9-3.94-2.06,0-3.8,1.78-3.8,3.94s1.76,3.92,3.82,3.92c2.42,0,3.88-2.12,3.88-3.92Z"/>
    <path class="cls-2" d="M409.96,77.9v-2.44h2.08v2.44h-2.08ZM409.96,90.27v-11.08h2.08v11.08h-2.08Z"/>
    <path class="cls-2" d="M422.47,90.27v-6.04c0-2.34-.92-3.44-2.76-3.44s-2.92,1.34-2.92,3.42v6.06h-2.08v-11.08h1.94v1.18h.04c.82-1.06,1.96-1.48,3.24-1.48,2.66,0,4.62,1.68,4.62,4.74v6.64h-2.08Z"/>
    <path class="cls-2" d="M436.31,90.27v-1.72h-.04c-.78,1.32-2.18,2-3.76,2-3.24,0-5.88-2.44-5.88-5.64,0-3.54,2.54-6.02,5.8-6.02,1.62,0,2.98.6,3.84,1.86h.04v-1.56h2.08v11.08h-2.08ZM436.35,84.75c0-2.16-1.56-3.96-3.86-3.96-2.08,0-3.78,1.78-3.78,3.96s1.7,3.9,3.78,3.9,3.86-1.8,3.86-3.9Z"/>
    <path class="cls-2" d="M441.16,90.27v-14.8h2.08v14.8h-2.08Z"/>
    <path class="cls-2" d="M447.44,85.62c.48,1.84,1.94,3.02,3.64,3.02,1.3,0,2.52-.68,3.16-1.86h2.08c-.86,2.28-2.94,3.76-5.32,3.76-3.12,0-5.64-2.76-5.64-5.72,0-3.5,2.64-5.94,5.58-5.94,3.26,0,5.74,2.52,5.74,5.7,0,.34,0,.66-.06,1.04h-9.18ZM454.61,84.03c-.16-1.88-1.82-3.24-3.6-3.24s-3.4,1.34-3.56,3.24h7.16Z"/>
  </g>
  <g>
    <path class="cls-2" d="M1002.88,99.46v-12.82h-2.84v-1.98h7.84v1.98h-2.84v12.82h-2.16Z"/>
    <path class="cls-2" d="M1008.78,87.1v-2.44h2.08v2.44h-2.08ZM1008.78,99.46v-11.08h2.08v11.08h-2.08Z"/>
    <path class="cls-2" d="M1013.94,103.16v-14.78h1.9v1.7h.04c.94-1.34,2.36-2,3.94-2,3.3,0,5.74,2.56,5.74,5.98,0,3.12-2.42,5.68-5.6,5.68-1.68,0-3.18-.68-3.9-1.88h-.04v5.3h-2.08ZM1023.49,93.94c0-2.02-1.6-3.96-3.82-3.96-2.08,0-3.68,1.86-3.68,3.92s1.6,3.94,3.76,3.94,3.74-1.78,3.74-3.9Z"/>
    <path class="cls-2" d="M1032.99,99.74c-3.12,0-5.9-2.66-5.9-5.78,0-3.38,2.66-5.88,6.06-5.88,3.06,0,5.94,2.4,5.9,5.92-.04,2.96-2.52,5.74-6.06,5.74ZM1033.05,89.98c-2.08,0-3.88,1.76-3.88,3.92s1.74,3.94,3.84,3.94,3.96-1.72,3.96-3.96-1.74-3.9-3.92-3.9Z"/>
    <path class="cls-2" d="M1050.33,98c-.86,1.16-2.24,1.74-3.82,1.74-3.18,0-5.92-2.74-5.92-5.74,0-3.34,2.6-5.92,5.94-5.92,1.44,0,2.96.6,3.84,1.58v-1.28h2.08v9.62c0,3.6-2.22,5.82-5.98,5.82-2.54,0-4.54-1.34-5.48-3.5h2.32c.78,1.1,1.82,1.6,3.18,1.6,2.54,0,3.88-1.38,3.88-3.92h-.04ZM1050.37,93.92c0-2.6-1.98-3.94-3.9-3.94-2.06,0-3.8,1.78-3.8,3.94s1.76,3.92,3.82,3.92c2.42,0,3.88-2.12,3.88-3.92Z"/>
    <path class="cls-2" d="M1055.1,99.46v-11.08h1.94v1h.04c.5-.74,1.36-1.22,2.82-1.3v2.14c-1.8.06-2.72,1.16-2.72,3.02v6.22h-2.08Z"/>
    <path class="cls-2" d="M1070.45,99.46v-1.72h-.04c-.78,1.32-2.18,2-3.76,2-3.24,0-5.88-2.44-5.88-5.64,0-3.54,2.54-6.02,5.8-6.02,1.62,0,2.98.6,3.84,1.86h.04v-1.56h2.08v11.08h-2.08ZM1070.49,93.94c0-2.16-1.56-3.96-3.86-3.96-2.08,0-3.78,1.78-3.78,3.96s1.7,3.9,3.78,3.9,3.86-1.8,3.86-3.9Z"/>
    <path class="cls-2" d="M1080.16,99.46v-9.18h-2.82v9.18h-2.08v-9.18h-.98v-1.9h.98v-.58c0-1.92,1.42-3.14,3.56-3.14h.46v1.9c-1.24,0-1.94.38-1.94,1.32v.5h4.9v11.08h-2.08ZM1080.16,87.1v-2.44h2.08v2.44h-2.08Z"/>
    <path class="cls-2" d="M1094.03,99.46v-1.72h-.04c-.78,1.32-2.18,2-3.76,2-3.24,0-5.88-2.44-5.88-5.64,0-3.54,2.54-6.02,5.8-6.02,1.62,0,2.98.6,3.84,1.86h.04v-1.56h2.08v11.08h-2.08ZM1094.07,93.94c0-2.16-1.56-3.96-3.86-3.96-2.08,0-3.78,1.78-3.78,3.96s1.7,3.9,3.78,3.9,3.86-1.8,3.86-3.9Z"/>
    <path class="cls-2" d="M1104.68,99.46v-14.8h2.08v14.8h-2.08Z"/>
    <path class="cls-2" d="M1110.96,94.82c.48,1.84,1.94,3.02,3.64,3.02,1.3,0,2.52-.68,3.16-1.86h2.08c-.86,2.28-2.94,3.76-5.32,3.76-3.12,0-5.64-2.76-5.64-5.72,0-3.5,2.64-5.94,5.58-5.94,3.26,0,5.74,2.52,5.74,5.7,0,.34,0,.66-.06,1.04h-9.18ZM1118.12,93.22c-.16-1.88-1.82-3.24-3.6-3.24s-3.4,1.34-3.56,3.24h7.16Z"/>
    <path class="cls-2" d="M1131.44,98c-.86,1.16-2.24,1.74-3.82,1.74-3.18,0-5.92-2.74-5.92-5.74,0-3.34,2.6-5.92,5.94-5.92,1.44,0,2.96.6,3.84,1.58v-1.28h2.08v9.62c0,3.6-2.22,5.82-5.98,5.82-2.54,0-4.54-1.34-5.48-3.5h2.32c.78,1.1,1.82,1.6,3.18,1.6,2.54,0,3.88-1.38,3.88-3.92h-.04ZM1131.49,93.92c0-2.6-1.98-3.94-3.9-3.94-2.06,0-3.8,1.78-3.8,3.94s1.76,3.92,3.82,3.92c2.42,0,3.88-2.12,3.88-3.92Z"/>
    <path class="cls-2" d="M1145.09,98c-.86,1.16-2.24,1.74-3.82,1.74-3.18,0-5.92-2.74-5.92-5.74,0-3.34,2.6-5.92,5.94-5.92,1.44,0,2.96.6,3.84,1.58v-1.28h2.08v9.62c0,3.6-2.22,5.82-5.98,5.82-2.54,0-4.54-1.34-5.48-3.5h2.32c.78,1.1,1.82,1.6,3.18,1.6,2.54,0,3.88-1.38,3.88-3.92h-.04ZM1145.13,93.92c0-2.6-1.98-3.94-3.9-3.94-2.06,0-3.8,1.78-3.8,3.94s1.76,3.92,3.82,3.92c2.42,0,3.88-2.12,3.88-3.92Z"/>
    <path class="cls-2" d="M1149.86,87.1v-2.44h2.08v2.44h-2.08ZM1149.86,99.46v-11.08h2.08v11.08h-2.08Z"/>
    <path class="cls-2" d="M1154.72,99.46v-14.8h2.08v5.26h.04c.9-1.22,2.3-1.84,3.8-1.84,3.14,0,5.74,2.64,5.74,5.84s-2.44,5.82-5.56,5.82c-1.6,0-3.08-.64-4-1.88h-.04v1.6h-2.06ZM1164.3,93.92c0-2.1-1.66-3.94-3.8-3.94s-3.76,1.8-3.76,3.9,1.66,3.96,3.78,3.96,3.78-1.76,3.78-3.92Z"/>
    <path class="cls-2" d="M1168.48,87.1v-2.44h2.08v2.44h-2.08ZM1168.48,99.46v-11.08h2.08v11.08h-2.08Z"/>
    <path class="cls-2" d="M1173.34,99.46v-14.8h2.08v14.8h-2.08Z"/>
    <path class="cls-2" d="M1179.62,94.82c.48,1.84,1.94,3.02,3.64,3.02,1.3,0,2.52-.68,3.16-1.86h2.08c-.86,2.28-2.94,3.76-5.32,3.76-3.12,0-5.64-2.76-5.64-5.72,0-3.5,2.64-5.94,5.58-5.94,3.26,0,5.74,2.52,5.74,5.7,0,.34,0,.66-.06,1.04h-9.18ZM1186.78,93.22c-.16-1.88-1.82-3.24-3.6-3.24s-3.4,1.34-3.56,3.24h7.16Z"/>
    <path class="cls-2" d="M1034.9,118.82c.48,1.84,1.94,3.02,3.64,3.02,1.3,0,2.52-.68,3.16-1.86h2.08c-.86,2.28-2.94,3.76-5.32,3.76-3.12,0-5.64-2.76-5.64-5.72,0-3.5,2.64-5.94,5.58-5.94,3.26,0,5.74,2.52,5.74,5.7,0,.34,0,.66-.06,1.04h-9.18ZM1042.07,117.22c-.16-1.88-1.82-3.24-3.6-3.24s-3.4,1.34-3.56,3.24h7.16Z"/>
    <path class="cls-2" d="M1061.23,123.46v-1.72h-.04c-.78,1.32-2.18,2-3.76,2-3.24,0-5.88-2.44-5.88-5.64,0-3.54,2.54-6.02,5.8-6.02,1.62,0,2.98.6,3.84,1.86h.04v-1.56h2.08v11.08h-2.08ZM1061.27,117.94c0-2.16-1.56-3.96-3.86-3.96-2.08,0-3.78,1.78-3.78,3.96s1.7,3.9,3.78,3.9,3.86-1.8,3.86-3.9Z"/>
    <path class="cls-2" d="M1065.98,123.46v-11.08h1.94v1h.04c.5-.74,1.36-1.22,2.82-1.3v2.14c-1.8.06-2.72,1.16-2.72,3.02v6.22h-2.08Z"/>
    <path class="cls-2" d="M1087.49,123.46v-6.2c0-2.1-.88-3.28-2.62-3.28-1.84,0-2.64,1.02-2.64,3.24v6.24h-2.08v-6.44c0-2.18-1.02-3.04-2.52-3.04-1.84,0-2.74,1.08-2.74,3.26v6.22h-2.08v-11.08h1.92v1.2h.04c.9-1.06,1.74-1.5,3.18-1.5s2.88.7,3.44,1.86c.8-1.26,1.9-1.86,3.66-1.86,2.88,0,4.52,1.8,4.52,4.66v6.72h-2.08Z"/>
    <path class="cls-2" d="M1097.54,123.74c-3.12,0-5.9-2.66-5.9-5.78,0-3.38,2.66-5.88,6.06-5.88,3.06,0,5.94,2.4,5.9,5.92-.04,2.96-2.52,5.74-6.06,5.74ZM1097.6,113.98c-2.08,0-3.88,1.76-3.88,3.92s1.74,3.94,3.84,3.94,3.96-1.72,3.96-3.96-1.74-3.9-3.92-3.9Z"/>
    <path class="cls-2" d="M1113.46,123.46v-6.04c0-2.34-.92-3.44-2.76-3.44s-2.92,1.34-2.92,3.42v6.06h-2.08v-11.08h1.94v1.18h.04c.82-1.06,1.96-1.48,3.24-1.48,2.66,0,4.62,1.68,4.62,4.74v6.64h-2.08Z"/>
    <path class="cls-2" d="M1118.2,111.1v-2.44h2.08v2.44h-2.08ZM1118.2,123.46v-11.08h2.08v11.08h-2.08Z"/>
    <path class="cls-2" d="M1128.28,123.74c-3.12,0-5.9-2.66-5.9-5.78,0-3.38,2.66-5.88,6.06-5.88,3.06,0,5.94,2.4,5.9,5.92-.04,2.96-2.52,5.74-6.06,5.74ZM1128.34,113.98c-2.08,0-3.88,1.76-3.88,3.92s1.74,3.94,3.84,3.94,3.96-1.72,3.96-3.96-1.74-3.9-3.92-3.9Z"/>
    <path class="cls-2" d="M1140.82,115.32c-.1-.8-.56-1.34-1.42-1.34-.8,0-1.3.54-1.3,1.18,0,.94.96,1.22,2.06,1.56,1.56.48,3,1.42,3,3.48s-1.56,3.54-3.72,3.54c-2,0-3.92-1.36-3.92-3.92h2.08c.1,1.34.78,2.02,1.88,2.02.96,0,1.6-.62,1.6-1.52,0-.76-.58-1.26-1.88-1.68-2.72-.86-3.18-2.04-3.18-3.3,0-1.96,1.66-3.26,3.48-3.26s3.34,1.28,3.4,3.24h-2.08Z"/>
    <path class="cls-2" d="M1154.04,123.46v-1.72h-.04c-.78,1.32-2.18,2-3.76,2-3.24,0-5.88-2.44-5.88-5.64,0-3.54,2.54-6.02,5.8-6.02,1.62,0,2.98.6,3.84,1.86h.04v-1.56h2.08v11.08h-2.08ZM1154.08,117.94c0-2.16-1.56-3.96-3.86-3.96-2.08,0-3.78,1.78-3.78,3.96s1.7,3.9,3.78,3.9,3.86-1.8,3.86-3.9Z"/>
  </g>
  <g>
    <path class="cls-2" d="M1080.48,430.12v-14.8h5.14c4.48,0,7.22,3.54,7.22,7.4,0,4.52-2.86,7.4-7.54,7.4h-4.82ZM1085.22,428.14c3.42,0,5.46-2,5.46-5.38s-2.34-5.46-5.36-5.46h-2.68v10.84h2.58Z"/>
    <path class="cls-2" d="M1095.16,417.76v-2.44h2.08v2.44h-2.08ZM1095.16,430.12v-11.08h2.08v11.08h-2.08Z"/>
    <path class="cls-2" d="M1099.92,430.12v-11.08h1.94v1h.04c.5-.74,1.36-1.22,2.82-1.3v2.14c-1.8.06-2.72,1.16-2.72,3.02v6.22h-2.08Z"/>
    <path class="cls-2" d="M1107.68,425.48c.48,1.84,1.94,3.02,3.64,3.02,1.3,0,2.52-.68,3.16-1.86h2.08c-.86,2.28-2.94,3.76-5.32,3.76-3.12,0-5.64-2.76-5.64-5.72,0-3.5,2.64-5.94,5.58-5.94,3.26,0,5.74,2.52,5.74,5.7,0,.34,0,.66-.06,1.04h-9.18ZM1114.84,423.88c-.16-1.88-1.82-3.24-3.6-3.24s-3.4,1.34-3.56,3.24h7.16Z"/>
    <path class="cls-2" d="M1117.72,430.12v-1.62l5.32-7.56h-4.8v-1.9h7.08v2.02l-5.02,7.16h5.44v1.9h-8.02Z"/>
    <path class="cls-2" d="M1127.14,417.76v-2.44h2.08v2.44h-2.08ZM1127.14,430.12v-11.08h2.08v11.08h-2.08Z"/>
    <path class="cls-2" d="M1137.22,430.4c-3.12,0-5.9-2.66-5.9-5.78,0-3.38,2.66-5.88,6.06-5.88,3.06,0,5.94,2.4,5.9,5.92-.04,2.96-2.52,5.74-6.06,5.74ZM1137.28,420.64c-2.08,0-3.88,1.76-3.88,3.92s1.74,3.94,3.84,3.94,3.96-1.72,3.96-3.96-1.74-3.9-3.92-3.9Z"/>
    <path class="cls-2" d="M1153.14,430.12v-6.04c0-2.34-.92-3.44-2.76-3.44s-2.92,1.34-2.92,3.42v6.06h-2.08v-11.08h1.94v1.18h.04c.82-1.06,1.96-1.48,3.24-1.48,2.66,0,4.62,1.68,4.62,4.74v6.64h-2.08Z"/>
    <path class="cls-2" d="M1159.4,425.48c.48,1.84,1.94,3.02,3.64,3.02,1.3,0,2.52-.68,3.16-1.86h2.08c-.86,2.28-2.94,3.76-5.32,3.76-3.12,0-5.64-2.76-5.64-5.72,0-3.5,2.64-5.94,5.58-5.94,3.26,0,5.74,2.52,5.74,5.7,0,.34,0,.66-.06,1.04h-9.18ZM1166.56,423.88c-.16-1.88-1.82-3.24-3.6-3.24s-3.4,1.34-3.56,3.24h7.16Z"/>
    <path class="cls-2" d="M1187.18,426.46c-.88,2.5-3,3.94-5.46,3.94-3.18,0-5.68-2.56-5.68-5.72,0-3.34,2.42-5.94,5.66-5.94,2.52,0,4.82,1.58,5.48,3.98h-2.3c-.62-1.3-1.62-2.08-3.12-2.08-2.18,0-3.64,1.66-3.64,3.92s1.5,3.94,3.6,3.94c1.42,0,2.56-.76,3.14-2.04h2.32Z"/>
    <path class="cls-2" d="M1189.16,430.12v-11.08h1.94v1h.04c.5-.74,1.36-1.22,2.82-1.3v2.14c-1.8.06-2.72,1.16-2.72,3.02v6.22h-2.08Z"/>
    <path class="cls-2" d="M1196.92,425.48c.48,1.84,1.94,3.02,3.64,3.02,1.3,0,2.52-.68,3.16-1.86h2.08c-.86,2.28-2.94,3.76-5.32,3.76-3.12,0-5.64-2.76-5.64-5.72,0-3.5,2.64-5.94,5.58-5.94,3.26,0,5.74,2.52,5.74,5.7,0,.34,0,.66-.06,1.04h-9.18ZM1204.08,423.88c-.16-1.88-1.82-3.24-3.6-3.24s-3.4,1.34-3.56,3.24h7.16Z"/>
    <path class="cls-2" d="M1217.34,430.12v-1.72h-.04c-.78,1.32-2.18,2-3.76,2-3.24,0-5.88-2.44-5.88-5.64,0-3.54,2.54-6.02,5.8-6.02,1.62,0,2.98.6,3.84,1.86h.04v-1.56h2.08v11.08h-2.08ZM1217.38,424.6c0-2.16-1.56-3.96-3.86-3.96-2.08,0-3.78,1.78-3.78,3.96s1.7,3.9,3.78,3.9,3.86-1.8,3.86-3.9Z"/>
    <path class="cls-2" d="M1222.44,430.12v-9.18h-1.5v-1.9h1.5v-3.72h2.08v3.72h1.82v1.9h-1.82v9.18h-2.08Z"/>
    <path class="cls-2" d="M1227.74,417.76v-2.44h2.08v2.44h-2.08ZM1227.74,430.12v-11.08h2.08v11.08h-2.08Z"/>
    <path class="cls-2" d="M1235.82,430.12l-4.4-11.08h2.22l2.9,7.92h.04l2.84-7.92h2.22l-4.36,11.08h-1.46Z"/>
    <path class="cls-2" d="M1251.94,430.12v-1.72h-.04c-.78,1.32-2.18,2-3.76,2-3.24,0-5.88-2.44-5.88-5.64,0-3.54,2.54-6.02,5.8-6.02,1.62,0,2.98.6,3.84,1.86h.04v-1.56h2.08v11.08h-2.08ZM1251.98,424.6c0-2.16-1.56-3.96-3.86-3.96-2.08,0-3.78,1.78-3.78,3.96s1.7,3.9,3.78,3.9,3.86-1.8,3.86-3.9Z"/>
    <path class="cls-2" d="M1273.16,426.46c-.88,2.5-3,3.94-5.46,3.94-3.18,0-5.68-2.56-5.68-5.72,0-3.34,2.42-5.94,5.66-5.94,2.52,0,4.82,1.58,5.48,3.98h-2.3c-.62-1.3-1.62-2.08-3.12-2.08-2.18,0-3.64,1.66-3.64,3.92s1.5,3.94,3.6,3.94c1.42,0,2.56-.76,3.14-2.04h2.32Z"/>
    <path class="cls-2" d="M1280.46,430.4c-3.12,0-5.9-2.66-5.9-5.78,0-3.38,2.66-5.88,6.06-5.88,3.06,0,5.94,2.4,5.9,5.92-.04,2.96-2.52,5.74-6.06,5.74ZM1280.52,420.64c-2.08,0-3.88,1.76-3.88,3.92s1.74,3.94,3.84,3.94,3.96-1.72,3.96-3.96-1.74-3.9-3.92-3.9Z"/>
    <path class="cls-2" d="M1290.16,425.48c.48,1.84,1.94,3.02,3.64,3.02,1.3,0,2.52-.68,3.16-1.86h2.08c-.86,2.28-2.94,3.76-5.32,3.76-3.12,0-5.64-2.76-5.64-5.72,0-3.5,2.64-5.94,5.58-5.94,3.26,0,5.74,2.52,5.74,5.7,0,.34,0,.66-.06,1.04h-9.18ZM1297.32,423.88c-.16-1.88-1.82-3.24-3.6-3.24s-3.4,1.34-3.56,3.24h7.16Z"/>
    <path class="cls-2" d="M1301.48,430.12v-11.08h1.94v1h.04c.5-.74,1.36-1.22,2.82-1.3v2.14c-1.8.06-2.72,1.16-2.72,3.02v6.22h-2.08Z"/>
    <path class="cls-2" d="M1309.24,425.48c.48,1.84,1.94,3.02,3.64,3.02,1.3,0,2.52-.68,3.16-1.86h2.08c-.86,2.28-2.94,3.76-5.32,3.76-3.12,0-5.64-2.76-5.64-5.72,0-3.5,2.64-5.94,5.58-5.94,3.26,0,5.74,2.52,5.74,5.7,0,.34,0,.66-.06,1.04h-9.18ZM1316.4,423.88c-.16-1.88-1.82-3.24-3.6-3.24s-3.4,1.34-3.56,3.24h7.16Z"/>
    <path class="cls-2" d="M1328.3,430.12v-6.04c0-2.34-.92-3.44-2.76-3.44s-2.92,1.34-2.92,3.42v6.06h-2.08v-11.08h1.94v1.18h.04c.82-1.06,1.96-1.48,3.24-1.48,2.66,0,4.62,1.68,4.62,4.74v6.64h-2.08Z"/>
    <path class="cls-2" d="M1333.28,430.12v-9.18h-1.5v-1.9h1.5v-3.72h2.08v3.72h1.82v1.9h-1.82v9.18h-2.08Z"/>
    <path class="cls-2" d="M1340.1,425.48c.48,1.84,1.94,3.02,3.64,3.02,1.3,0,2.52-.68,3.16-1.86h2.08c-.86,2.28-2.94,3.76-5.32,3.76-3.12,0-5.64-2.76-5.64-5.72,0-3.5,2.64-5.94,5.58-5.94,3.26,0,5.74,2.52,5.74,5.7,0,.34,0,.66-.06,1.04h-9.18ZM1347.26,423.88c-.16-1.88-1.82-3.24-3.6-3.24s-3.4,1.34-3.56,3.24h7.16Z"/>
    <path class="cls-2" d="M1134.13,454.12v-1.72h-.04c-.78,1.32-2.18,2-3.76,2-3.24,0-5.88-2.44-5.88-5.64,0-3.54,2.54-6.02,5.8-6.02,1.62,0,2.98.6,3.84,1.86h.04v-1.56h2.08v11.08h-2.08ZM1134.17,448.6c0-2.16-1.56-3.96-3.86-3.96-2.08,0-3.78,1.78-3.78,3.96s1.7,3.9,3.78,3.9,3.86-1.8,3.86-3.9Z"/>
    <path class="cls-2" d="M1138.89,441.76v-2.44h2.08v2.44h-2.08ZM1138.89,454.12v-11.08h2.08v11.08h-2.08Z"/>
    <path class="cls-2" d="M1152.87,454.12l-4.4-11.08h2.22l2.9,7.92h.04l2.84-7.92h2.22l-4.36,11.08h-1.46Z"/>
    <path class="cls-2" d="M1168.99,454.12v-1.72h-.04c-.78,1.32-2.18,2-3.76,2-3.24,0-5.88-2.44-5.88-5.64,0-3.54,2.54-6.02,5.8-6.02,1.62,0,2.98.6,3.84,1.86h.04v-1.56h2.08v11.08h-2.08ZM1169.03,448.6c0-2.16-1.56-3.96-3.86-3.96-2.08,0-3.78,1.78-3.78,3.96s1.7,3.9,3.78,3.9,3.86-1.8,3.86-3.9Z"/>
    <path class="cls-2" d="M1173.85,454.12v-14.8h2.08v14.8h-2.08Z"/>
    <path class="cls-2" d="M1183.93,454.4c-3.12,0-5.9-2.66-5.9-5.78,0-3.38,2.66-5.88,6.06-5.88,3.06,0,5.94,2.4,5.9,5.92-.04,2.96-2.52,5.74-6.06,5.74ZM1183.99,444.64c-2.08,0-3.88,1.76-3.88,3.92s1.74,3.94,3.84,3.94,3.96-1.72,3.96-3.96-1.74-3.9-3.92-3.9Z"/>
    <path class="cls-2" d="M1192.11,454.12v-11.08h1.94v1h.04c.5-.74,1.36-1.22,2.82-1.3v2.14c-1.8.06-2.72,1.16-2.72,3.02v6.22h-2.08Z"/>
    <path class="cls-2" d="M1198.93,441.76v-2.44h2.08v2.44h-2.08ZM1198.93,454.12v-11.08h2.08v11.08h-2.08Z"/>
    <path class="cls-2" d="M1218.73,454.12v-1.58h-.04c-.86,1.2-2.3,1.86-3.92,1.86-3.22,0-5.76-2.44-5.76-5.7s2.4-5.96,5.7-5.96c1.5,0,2.92.54,3.82,1.66h.04v-5.08h2.08v14.8h-1.92ZM1214.87,444.64c-2.12,0-3.78,1.78-3.78,3.96s1.7,3.9,3.78,3.9,3.86-1.72,3.86-3.82c0-2.26-1.52-4.04-3.86-4.04Z"/>
    <path class="cls-2" d="M1224.85,449.48c.48,1.84,1.94,3.02,3.64,3.02,1.3,0,2.52-.68,3.16-1.86h2.08c-.86,2.28-2.94,3.76-5.32,3.76-3.12,0-5.64-2.76-5.64-5.72,0-3.5,2.64-5.94,5.58-5.94,3.26,0,5.74,2.52,5.74,5.7,0,.34,0,.66-.06,1.04h-9.18ZM1232.01,447.88c-.16-1.88-1.82-3.24-3.6-3.24s-3.4,1.34-3.56,3.24h7.16Z"/>
    <path class="cls-2" d="M1236.17,454.12v-14.8h2.08v14.8h-2.08Z"/>
    <path class="cls-2" d="M1246.83,454.12v-14.8h2.08v5.26h.04c.9-1.22,2.3-1.84,3.8-1.84,3.14,0,5.74,2.64,5.74,5.84s-2.44,5.82-5.56,5.82c-1.6,0-3.08-.64-4-1.88h-.04v1.6h-2.06ZM1256.41,448.58c0-2.1-1.66-3.94-3.8-3.94s-3.76,1.8-3.76,3.9,1.66,3.96,3.78,3.96,3.78-1.76,3.78-3.92Z"/>
    <path class="cls-2" d="M1260.59,454.12v-11.08h1.94v1h.04c.5-.74,1.36-1.22,2.82-1.3v2.14c-1.8.06-2.72,1.16-2.72,3.02v6.22h-2.08Z"/>
    <path class="cls-2" d="M1275.93,454.12v-1.72h-.04c-.78,1.32-2.18,2-3.76,2-3.24,0-5.88-2.44-5.88-5.64,0-3.54,2.54-6.02,5.8-6.02,1.62,0,2.98.6,3.84,1.86h.04v-1.56h2.08v11.08h-2.08ZM1275.97,448.6c0-2.16-1.56-3.96-3.86-3.96-2.08,0-3.78,1.78-3.78,3.96s1.7,3.9,3.78,3.9,3.86-1.8,3.86-3.9Z"/>
    <path class="cls-2" d="M1288.43,454.12v-6.04c0-2.34-.92-3.44-2.76-3.44s-2.92,1.34-2.92,3.42v6.06h-2.08v-11.08h1.94v1.18h.04c.82-1.06,1.96-1.48,3.24-1.48,2.66,0,4.62,1.68,4.62,4.74v6.64h-2.08Z"/>
    <path class="cls-2" d="M1302.31,454.12v-1.58h-.04c-.86,1.2-2.3,1.86-3.92,1.86-3.22,0-5.76-2.44-5.76-5.7s2.4-5.96,5.7-5.96c1.5,0,2.92.54,3.82,1.66h.04v-5.08h2.08v14.8h-1.92ZM1298.45,444.64c-2.12,0-3.78,1.78-3.78,3.96s1.7,3.9,3.78,3.9,3.86-1.72,3.86-3.82c0-2.26-1.52-4.04-3.86-4.04Z"/>
  </g>
</svg>