<?xml version="1.0" encoding="UTF-8"?>
<svg id="Livello_1" data-name="Livello 1" xmlns="http://www.w3.org/2000/svg" xmlns:xlink="http://www.w3.org/1999/xlink" viewBox="0 0 237.42 693.8">
  <defs>
    <style>
      .cls-1 {
        fill: none;
      }

      .cls-2 {
        fill: #fff;
      }

      .cls-3 {
        clip-path: url(#clippath);
      }

      .cls-4 {
        fill: #ffdc00;
      }
    </style>
    <clipPath id="clippath">
      <path class="cls-1" d="M110.56,193.37v41.66h16.31v-41.66h-16.31ZM123.58,230.32l-.13.1c-.96-1.39-2.51-2.33-4.28-2.47.45-.96,1.69-4.09,1.69-9.74,0-.98-.05-2.1-.15-3.35l.69-1.03c1.45,2.45,2.88,4.9,4.35,7.3-.27,3.67-1.02,6.93-2.17,9.2Z"/>
    </clipPath>
  </defs>
  <rect x="44.24" y="534.2" width="148.93" height="39.96"/>
  <g>
    <path class="cls-4" d="M118.71,233.02c-4.23,0-6.15-7.69-6.15-14.83,0-3.55.65-8.95,1.67-13.74,1.77-8.39,3.25-9.1,4.49-9.1s2.71.7,4.49,9.1c1.01,4.79,1.67,10.18,1.67,13.74,0,7.14-1.92,14.83-6.15,14.83ZM118.71,199.37c-1.32,3.42-3.15,12.66-3.15,18.83,0,7.68,2.24,11.83,3.15,11.83s3.15-4.14,3.15-11.83c0-6.17-1.83-15.41-3.15-18.83Z"/>
    <path class="cls-2" d="M226.14,404.83c2.11-1.9,2.94-4.4,2.78-7.2-.34-5.99-9.53-12.67-14.56-15.02-3.64-1.7-11.66-3.86-14.06-6.68-2.3-2.71-.87-4.96-1.43-7.99-.51-2.79-2.52-4.7-4.73-6.22-4.7-3.24-9.81-5.23-14.77-7.89-1.27-.68-4.39-2.26-5.03-3.42-1.59-2.89,2.65-3.48,4.44-4.47,1.81-1.01,4.44-3.01,5.77-4.6,6.57-7.87-4.56-12.58-9.49-16.61-2.02-1.65-8.88-7.84-9.28-10.12-.32-1.85,1.13-3.52,2.87-3.95,1.9-.47,4.14.1,6.01.06,4.8-.08,8.63-4.39,7.5-9.22-1.73-7.34-8.47-14.61-15.01-18.03-4.99-2.61-8.07-2.34-10.53-8.1-1.93-4.5-2.37-7.32-6.24-10.85-1.82-1.66-5.59-3.77-6.88-5.6-1.5-2.12-.14-3.14.55-4.95,3.24-8.54-2.34-12.78-7.38-18.07-7.09-7.45-11.73-16.22-17-24.97-.46-.45-1.41-.44-1.84.1-5.2,7.84-9.32,16.65-15.83,23.54-5.28,5.59-10.95,8.57-8.98,17.8.42,1.94,1.86,3.36,1.47,5.42-.31,1.66-5.05,4.52-6.42,5.68-4.69,3.97-5.08,6.8-7.36,12.04-2.5,5.73-6.42,5.59-11.3,8.29-5.71,3.16-10.48,8.41-13.02,14.44-2.03,4.81-1.77,9.31,3.38,11.79,3.26,1.57,13.37-1.85,11.6,5.11-.48,1.88-7.07,7.95-8.84,9.4-5.11,4.18-16.57,8.91-9.3,17,1.56,1.73,3.98,3.66,6.07,4.69,1.96.97,5.26,1.04,3.69,4.12-.58,1.12-3.42,2.57-4.64,3.23-4.47,2.45-15.38,6.78-18.14,10.66-2.88,4.05-.36,7.76-2.75,11.27-1.86,2.72-9.56,4.84-12.77,6.24-7.47,3.26-21.73,13.1-13.89,22.42,2.07,2.46,6.52,2.91,5.24,6.96-4.33,5.02-9.09,9.6-5.9,16.76,2.05,4.6,7.27,6.53,11.93,7.28,4.75.76,9.57.8,14.37.99.97.44,1.5,1.43,1.15,2.48-.7,2.1-8.38,8.13-10.47,9.69-4.67,3.48-13.2,7.41-13.61,13.85-.63,9.99,15.27,13.93,22.93,12.75,2.13-.33,7.12-2.63,8.82-2.07.65.67.63,1.93.95,2.89,3.21,9.58,12.25,12.74,21.5,9.52,2.32-.81,3.82-2.32,6.39-2.07.64.06,1.01.16,1.44.67.54.91-.41,3.41-.41,4.62,0,2.03.61,4.12,1.66,5.84,2.14,3.49,5.72,3.68,6.71,8.27.73,3.36-1.32,9.12-2.64,12.35-.87,2.14-3.82,8.19-5.54,9.45-.85.62-2.69,1.26-3.73,1.28-5.83.07-22.83-.84-28.57-.15-3.65.44-6.53,3.46-6.69,7.14v43.61c.28,3.57,2.34,5.96,5.76,6.93l152.81.09c3.58-.45,6.38-3.6,6.43-7.22.19-13.42.42-27.89-.21-41.28-.05-1.04.17-2.2,0-3.26-.57-3.37-4.11-5.83-7.37-6.07-6.09-.46-23.28.68-29.21,0-2.96-.34-4.71-3.97-5.96-6.33-1.72-3.27-5.43-12.32-4.81-15.76.9-5.02,4.24-5.06,6.71-8.46,1.57-2.16,2.11-4.72,1.84-7.38-.11-1.05-.74-1.99-.57-3.07,2.27-3.22,6.06.2,8.72,1.06,7.26,2.33,14.43.82,18.89-5.52,1.62-2.31,1.94-4.51,2.91-7.07,2.11-.52,3.92.68,5.91,1.2,7.48,1.96,15.5.8,21.8-3.82,5.52-4.05,5.33-10.11.5-14.64-4.87-4.57-11.65-7.88-16.88-12.69-.75-.69-3.51-3.28-3.63-4.05-.31-1.86.64-2.76,2.41-2.95,2.15-.22,4.68.12,6.88-.02,6.49-.42,16.33-1.81,18.63-9.03,2.14-6.7-2.47-11.01-6.41-15.68-1.26-3.53,2.73-4.65,4.68-6.4ZM118.71,227.92c3.18,0,5.76,2.58,5.76,5.76s-2.58,5.76-5.76,5.76-5.76-2.58-5.76-5.76,2.58-5.76,5.76-5.76ZM189.95,536.78v34.86l-.29.29H48.11l-.29-.29v-34.57l.29-.29h141.84Z"/>
    <g class="cls-3">
      <path class="cls-4" d="M118.71,233.02c-4.23,0-6.15-7.69-6.15-14.83,0-3.55.65-8.95,1.67-13.74,1.77-8.39,3.25-9.1,4.49-9.1s2.71.7,4.49,9.1c1.01,4.79,1.67,10.18,1.67,13.74,0,7.14-1.92,14.83-6.15,14.83ZM118.71,199.37c-1.32,3.42-3.15,12.66-3.15,18.83,0,7.68,2.24,11.83,3.15,11.83s3.15-4.14,3.15-11.83c0-6.17-1.83-15.41-3.15-18.83Z"/>
    </g>
  </g>
  <rect class="cls-4" x="117.21" y="-75.09" width="3" height="271.95"/>
  <g>
    <path d="M123.17,267.41l-1.7-4.52h-5.52l-1.7,4.52h-2.37l5.83-15.36h2.01l5.83,15.36h-2.39ZM118.75,254.96h-.04l-1.97,5.87h3.96l-1.95-5.87Z"/>
    <path d="M91.1,299.44l-6.18-15.36h2.41l4.46,11.52,4.46-11.52h2.37l-6.16,15.36h-1.35Z"/>
    <path d="M100.42,299.44v-15.36h2.24v15.36h-2.24Z"/>
    <path d="M111.46,288.07c0-1.39-.89-2.22-2.16-2.22-1.08,0-2.05.98-2.05,2.1s.73,1.7,2.22,2.18c3.32,1.06,4.54,2.3,4.54,4.96s-1.99,4.65-4.71,4.65-4.69-1.95-4.73-4.84h2.24c.02,1.66,1,2.78,2.49,2.78s2.47-1.08,2.47-2.59c0-1.12-.5-1.83-2.14-2.39-3.8-1.29-4.63-2.53-4.63-4.71,0-2.34,1.93-4.19,4.29-4.19,2.53,0,4.36,1.6,4.4,4.27h-2.24Z"/>
    <path d="M116.1,299.44v-15.36h2.24v15.36h-2.24Z"/>
    <path d="M128.53,299.73c-4.25,0-7.86-3.65-7.86-7.8,0-4.71,3.61-8.13,7.93-8.13,4.57,0,8.05,3.59,8.05,7.86,0,4.65-3.59,8.07-8.11,8.07ZM134.41,291.8c0-3.17-2.41-5.96-5.64-5.96-4.15,0-5.85,3.57-5.85,5.85,0,3.09,2.24,5.98,5.75,5.98s5.75-3.07,5.75-5.87Z"/>
    <path d="M148.87,299.44l-7.6-11.87h-.04v11.87h-2.24v-15.36h2.45l7.47,11.68h.04v-11.68h2.24v15.36h-2.32Z"/>
    <path d="M76.78,331.47v-15.36h4.17c2.82,0,4.61,1.76,4.61,4.17,0,1.31-.37,2.14-1.37,2.99,1.47.83,2.28,2.01,2.28,3.74,0,2.74-2.05,4.46-4.86,4.46h-4.83ZM80.87,322.5c1.51,0,2.45-.73,2.45-2.16s-.93-2.18-2.57-2.18h-1.72v4.34h1.85ZM81.43,329.41c1.6,0,2.8-.91,2.8-2.41,0-1.04-.71-2.45-2.74-2.45h-2.47v4.86h2.41Z"/>
    <path d="M88.61,331.47v-15.36h8.28v2.05h-6.04v4.52h6.04v2.05h-6.04v4.67h6.04v2.05h-8.28Z"/>
    <path d="M101.14,331.47v-13.3h-2.95v-2.05h8.13v2.05h-2.95v13.3h-2.24Z"/>
    <path d="M118.7,331.47l-2.78-10.73h-.04l-2.78,10.73h-1.97l-4.3-15.36h2.32l2.93,11.56h.04l2.97-11.56h1.64l2.93,11.48h.04l2.99-11.48h2.28l-4.29,15.36h-1.97Z"/>
    <path d="M126.64,331.47v-15.36h8.28v2.05h-6.04v4.52h6.04v2.05h-6.04v4.67h6.04v2.05h-8.28Z"/>
    <path d="M137.43,331.47v-15.36h8.28v2.05h-6.04v4.52h6.04v2.05h-6.04v4.67h6.04v2.05h-8.28Z"/>
    <path d="M158.31,331.47l-7.6-11.87h-.04v11.87h-2.24v-15.36h2.45l7.47,11.68h.04v-11.68h2.24v15.36h-2.32Z"/>
    <path d="M68.22,363.49v-15.36h4.17c2.82,0,4.61,1.76,4.61,4.17,0,1.31-.37,2.14-1.37,2.99,1.47.83,2.28,2.01,2.28,3.74,0,2.74-2.05,4.46-4.86,4.46h-4.83ZM72.3,354.53c1.51,0,2.45-.73,2.45-2.16s-.93-2.18-2.57-2.18h-1.72v4.34h1.85ZM72.86,361.44c1.6,0,2.8-.91,2.8-2.41,0-1.04-.71-2.45-2.74-2.45h-2.47v4.86h2.41Z"/>
    <path d="M87.39,363.49l-5.06-7.12h-.04v7.12h-2.24v-15.36h4.92c3.69,0,5.33,1.95,5.33,5.1,0,2.93-2.24,4.46-4.4,4.52l4.3,5.73h-2.8ZM83.92,356.07c2.62,0,4.13-1.02,4.13-3.01,0-1.76-1.41-2.86-3.4-2.86h-2.37v5.87h1.64Z"/>
    <path d="M100.58,348.14h2.24v10.5c0,3.22-2.26,5.15-5.15,5.15s-5.15-1.95-5.15-5.15v-10.5h2.24v10.33c0,1.91,1.08,3.26,2.91,3.26s2.91-1.37,2.91-3.26v-10.33Z"/>
    <path d="M107.45,363.49v-13.3h-2.95v-2.05h8.13v2.05h-2.95v13.3h-2.24Z"/>
    <path d="M123.84,363.49l-1.7-4.52h-5.52l-1.7,4.52h-2.37l5.83-15.36h2.01l5.83,15.36h-2.39ZM119.42,351.04h-.04l-1.97,5.87h3.96l-1.95-5.87Z"/>
    <path d="M128.12,363.49v-15.36h2.24v13.3h5.33v2.05h-7.57Z"/>
    <path d="M137.25,363.49v-15.36h2.24v15.36h-2.24Z"/>
    <path d="M148.29,352.12c0-1.39-.89-2.22-2.16-2.22-1.08,0-2.05.98-2.05,2.1s.73,1.7,2.22,2.18c3.32,1.06,4.54,2.3,4.54,4.96s-1.99,4.65-4.71,4.65-4.69-1.95-4.73-4.83h2.24c.02,1.66,1,2.78,2.49,2.78s2.47-1.08,2.47-2.59c0-1.12-.5-1.83-2.14-2.39-3.8-1.29-4.63-2.53-4.63-4.71,0-2.35,1.93-4.19,4.3-4.19,2.53,0,4.36,1.6,4.4,4.27h-2.24Z"/>
    <path d="M166.98,363.49v-12.97h-.06l-5.17,12.97h-1.35l-5.19-12.97h-.04v12.97h-2.24v-15.36h3.53l4.61,11.77,4.63-11.77h3.53v15.36h-2.24Z"/>
    <path d="M44.55,395.52v-15.36h7.76v2.05h-5.52v4.61h5.52v2.05h-5.52v6.64h-2.24Z"/>
    <path d="M62.77,380.17h2.24v10.5c0,3.22-2.26,5.15-5.15,5.15s-5.15-1.95-5.15-5.15v-10.5h2.24v10.33c0,1.91,1.08,3.26,2.91,3.26s2.91-1.37,2.91-3.26v-10.33Z"/>
    <path d="M77.98,395.52l-7.6-11.87h-.04v11.87h-2.24v-15.36h2.45l7.47,11.68h.04v-11.68h2.24v15.36h-2.32Z"/>
    <path d="M97.5,391.73c-1.56,2.68-4.03,4.09-7.1,4.09-4.25,0-7.76-3.82-7.76-7.91,0-4.63,3.65-8.03,7.78-8.03,2.91,0,5.62,1.33,7.18,4.21h-2.7c-1.16-1.35-2.51-2.16-4.32-2.16-3.22,0-5.71,2.72-5.71,5.77,0,3.22,2.43,6.06,5.58,6.06,1.6,0,3.03-.62,4.27-2.03h2.76Z"/>
    <path d="M101.17,395.52v-13.3h-2.95v-2.05h8.13v2.05h-2.95v13.3h-2.24Z"/>
    <path d="M108.09,395.52v-15.36h2.24v15.36h-2.24Z"/>
    <path d="M120.51,395.81c-4.25,0-7.87-3.65-7.87-7.8,0-4.71,3.61-8.13,7.93-8.13,4.57,0,8.05,3.59,8.05,7.87,0,4.65-3.59,8.07-8.11,8.07ZM126.39,387.89c0-3.18-2.41-5.96-5.64-5.96-4.15,0-5.85,3.57-5.85,5.85,0,3.09,2.24,5.98,5.75,5.98s5.75-3.07,5.75-5.87Z"/>
    <path d="M140.85,395.52l-7.6-11.87h-.04v11.87h-2.24v-15.36h2.45l7.47,11.68h.04v-11.68h2.24v15.36h-2.32Z"/>
    <path d="M156.29,395.52l-1.7-4.52h-5.52l-1.7,4.52h-2.37l5.83-15.36h2.01l5.83,15.36h-2.39ZM151.87,383.07h-.04l-1.97,5.87h3.96l-1.95-5.87Z"/>
    <path d="M160.56,395.52v-15.36h2.24v13.3h5.33v2.05h-7.57Z"/>
    <path d="M169.69,395.52v-15.36h2.24v15.36h-2.24Z"/>
    <path d="M176.56,395.52v-13.3h-2.95v-2.05h8.13v2.05h-2.95v13.3h-2.24Z"/>
    <path d="M186.95,395.52v-5.54l-4.77-9.82h2.51l3.38,7.2,3.36-7.2h2.49l-4.73,9.82v5.54h-2.24Z"/>
    <path d="M107.92,427.55l-1.7-4.52h-5.52l-1.7,4.52h-2.37l5.83-15.36h2.01l5.83,15.36h-2.39ZM103.5,415.1h-.04l-1.97,5.87h3.96l-1.95-5.87Z"/>
    <path d="M121.99,427.55l-7.6-11.87h-.04v11.87h-2.24v-15.36h2.45l7.47,11.68h.04v-11.68h2.24v15.36h-2.32Z"/>
    <path d="M127.22,427.55v-15.36h5.33c4.65,0,7.49,3.67,7.49,7.68,0,4.69-2.97,7.68-7.82,7.68h-5ZM132.13,425.5c3.55,0,5.67-2.08,5.67-5.58s-2.43-5.67-5.56-5.67h-2.78v11.25h2.68Z"/>
    <path d="M72.71,459.58v-12.97h-.06l-5.17,12.97h-1.35l-5.19-12.97h-.04v12.97h-2.24v-15.36h3.53l4.61,11.77,4.63-11.77h3.53v15.36h-2.24Z"/>
    <path d="M78.04,459.58v-15.36h2.24v15.36h-2.24Z"/>
    <path d="M93.25,459.58l-7.6-11.87h-.04v11.87h-2.24v-15.36h2.45l7.47,11.68h.04v-11.68h2.24v15.36h-2.32Z"/>
    <path d="M98.68,459.58v-15.36h2.24v15.36h-2.24Z"/>
    <path d="M118.07,459.58v-12.97h-.06l-5.17,12.97h-1.35l-5.19-12.97h-.04v12.97h-2.24v-15.36h3.53l4.61,11.77,4.63-11.77h3.53v15.36h-2.24Z"/>
    <path d="M133.4,459.58l-1.7-4.52h-5.52l-1.7,4.52h-2.37l5.83-15.36h2.01l5.83,15.36h-2.39ZM128.98,447.13h-.04l-1.97,5.87h3.96l-1.95-5.87Z"/>
    <path d="M137.67,459.58v-15.36h2.24v13.3h5.33v2.05h-7.57Z"/>
    <path d="M146.8,459.58v-15.36h2.24v15.36h-2.24Z"/>
    <path d="M157.84,448.21c0-1.39-.89-2.22-2.16-2.22-1.08,0-2.05.98-2.05,2.1s.73,1.7,2.22,2.18c3.32,1.06,4.54,2.3,4.54,4.96s-1.99,4.65-4.71,4.65-4.69-1.95-4.73-4.83h2.24c.02,1.66,1,2.78,2.49,2.78s2.47-1.08,2.47-2.59c0-1.12-.5-1.83-2.14-2.39-3.8-1.29-4.63-2.53-4.63-4.71,0-2.35,1.93-4.19,4.29-4.19,2.53,0,4.36,1.6,4.4,4.27h-2.24Z"/>
    <path d="M176.54,459.58v-12.97h-.06l-5.17,12.97h-1.35l-5.19-12.97h-.04v12.97h-2.24v-15.36h3.53l4.61,11.77,4.63-11.77h3.53v15.36h-2.24Z"/>
  </g>
  <g>
    <path class="cls-2" d="M75.94,558c-1.54,2.64-3.97,4.03-7,4.03-4.2,0-7.66-3.77-7.66-7.8,0-4.56,3.6-7.92,7.68-7.92,2.87,0,5.55,1.31,7.08,4.16h-2.66c-1.15-1.33-2.48-2.13-4.26-2.13-3.17,0-5.63,2.68-5.63,5.69,0,3.17,2.39,5.98,5.51,5.98,1.58,0,2.99-.61,4.22-2.01h2.72Z"/>
    <path class="cls-2" d="M78.13,561.75v-15.15h2.21v13.12h5.26v2.03h-7.47Z"/>
    <path class="cls-2" d="M87.14,561.75v-15.15h2.21v15.15h-2.21Z"/>
    <path class="cls-2" d="M106.29,558c-1.53,2.64-3.97,4.03-7,4.03-4.2,0-7.66-3.77-7.66-7.8,0-4.56,3.6-7.92,7.68-7.92,2.87,0,5.55,1.31,7.08,4.16h-2.66c-1.15-1.33-2.48-2.13-4.26-2.13-3.17,0-5.63,2.68-5.63,5.69,0,3.17,2.4,5.98,5.51,5.98,1.58,0,2.99-.61,4.22-2.01h2.72Z"/>
    <path class="cls-2" d="M122.3,558c-1.53,2.64-3.97,4.03-7,4.03-4.2,0-7.66-3.77-7.66-7.8,0-4.56,3.6-7.92,7.68-7.92,2.87,0,5.55,1.31,7.08,4.16h-2.66c-1.15-1.33-2.48-2.13-4.26-2.13-3.17,0-5.63,2.68-5.63,5.69,0,3.17,2.4,5.98,5.51,5.98,1.58,0,2.99-.61,4.22-2.01h2.72Z"/>
    <path class="cls-2" d="M133.46,561.75l-1.68-4.46h-5.45l-1.68,4.46h-2.33l5.75-15.15h1.99l5.75,15.15h-2.35ZM129.1,549.47h-.04l-1.94,5.79h3.91l-1.92-5.79Z"/>
    <path class="cls-2" d="M158.8,562.04c-1.33,0-2.48-.29-3.81-1.17-1.41.78-2.8,1.17-4.48,1.17-4.18-.02-7.64-3.68-7.64-7.74,0-4.69,3.54-7.98,7.7-7.98,4.46,0,7.9,3.44,7.9,7.86,0,1.9-.57,3.56-1.86,5.28.66.39,1.23.53,2.03.53h.16v2.05ZM156.26,554.18c0-3.05-2.46-5.83-5.44-5.83-3.36,0-5.73,2.76-5.73,5.86,0,.55.04.98.2,1.56.92-.37,1.9-.47,2.87-.47,2.15,0,4.34.94,6.65,2.85,1-1.25,1.45-2.42,1.45-3.95ZM147.95,557.31c-.57,0-1.1.04-1.74.35,1.06,1.47,2.78,2.35,4.52,2.35.88,0,1.58-.16,2.29-.68-1.9-1.41-3.44-2.03-5.08-2.03Z"/>
    <path class="cls-2" d="M168.66,546.6h2.21v10.36c0,3.17-2.23,5.08-5.08,5.08s-5.08-1.92-5.08-5.08v-10.36h2.21v10.19c0,1.88,1.06,3.21,2.87,3.21s2.87-1.35,2.87-3.21v-10.19Z"/>
    <path class="cls-2" d="M173.92,561.75v-15.15h2.21v15.15h-2.21Z"/>
  </g>
  <rect x="117.21" y="478.95" width="3" height="44.13"/>
  <polygon points="118.71 525.65 113.52 520.46 115.64 518.34 118.71 521.41 121.78 518.34 123.9 520.46 118.71 525.65"/>
  <g>
    <path d="M210.37,421.01h-2.47v-2.4h2.47v2.4ZM205.42,421.01h-2.47v-2.4h2.47v2.4ZM200.48,421.01h-2.47v-2.4h2.47v2.4ZM195.53,421.01h-2.47v-2.4h2.47v2.4ZM190.59,421.01h-2.47v-2.4h2.47v2.4ZM185.65,421.01h-2.47v-2.4h2.47v2.4ZM180.7,421.01h-2.47v-2.4h2.47v2.4ZM175.76,421.01h-2.47v-2.4h2.47v2.4ZM170.81,421.01h-2.47v-2.4h2.47v2.4ZM165.87,421.01h-2.47v-2.4h2.47v2.4ZM160.93,421.01h-2.47v-2.4h2.47v2.4ZM155.98,421.01h-2.47v-2.4h2.47v2.4Z"/>
    <path d="M83.91,421.01h-2.47v-2.4h2.47v2.4ZM78.96,421.01h-2.47v-2.4h2.47v2.4ZM74.02,421.01h-2.47v-2.4h2.47v2.4ZM69.08,421.01h-2.47v-2.4h2.47v2.4ZM64.13,421.01h-2.47v-2.4h2.47v2.4ZM59.19,421.01h-2.47v-2.4h2.47v2.4ZM54.24,421.01h-2.47v-2.4h2.47v2.4ZM49.3,421.01h-2.47v-2.4h2.47v2.4ZM44.35,421.01h-2.47v-2.4h2.47v2.4ZM39.41,421.01h-2.47v-2.4h2.47v2.4ZM34.47,421.01h-2.47v-2.4h2.47v2.4ZM29.52,421.01h-2.47v-2.4h2.47v2.4Z"/>
  </g>
</svg>