<?xml version="1.0" encoding="UTF-8"?>
<svg id="Livello_1" xmlns="http://www.w3.org/2000/svg" xmlns:xlink="http://www.w3.org/1999/xlink" version="1.1" viewBox="0 0 595.4 1740.1">
  <!-- Generator: Adobe Illustrator 29.8.4, SVG Export Plug-In . SVG Version: 2.1.1 Build 6)  -->
  <defs>
    <style>
      .st0, .st1 {
        fill: none;
      }

      .st2 {
        stroke-width: .5px;
      }

      .st2, .st1 {
        stroke: #000;
        stroke-miterlimit: 10;
      }

      .st3 {
        fill: #fff;
      }

      .st4 {
        fill: #f7d500;
      }

      .st1 {
        stroke-width: 5px;
      }

      .st5 {
        clip-path: url(#clippath);
      }

      .st6 {
        fill: #ffdc00;
      }
    </style>
    <clipPath id="clippath">
      <path class="st0" d="M277.4,485v104.6h40.9v-104.6h-40.9ZM310,577.6h-.3c-2.5-3.3-6.3-5.5-10.8-6,1-2.5,4.3-10.3,4.3-24.3s0-5.3-.5-8.5l1.8-2.5c3.5,6.3,7.3,12.3,10.8,18.3-.8,9.3-2.5,17.3-5.5,23.1h.3,0Z"/>
    </clipPath>
  </defs>
  <g>
    <path class="st6" d="M297.7,584.4c-10.5,0-15.5-19.3-15.5-37.1s1.8-22.3,4.3-34.4c4.5-21.1,8-22.8,11.3-22.8s6.8,1.8,11.3,22.8c2.5,12,4.3,25.6,4.3,34.4,0,17.8-4.8,37.1-15.5,37.1h-.2,0ZM297.7,500.1c-3.3,8.5-8,31.9-8,47.2s5.5,29.6,8,29.6,8-10.3,8-29.6-4.5-38.6-8-47.2h0Z"/>
    <path class="st4" d="M567.1,1015.2c5.3-4.8,7.3-11,7-18.1-.8-15-23.8-31.9-36.6-37.6-9-4.3-29.3-9.8-35.4-16.8-5.8-6.8-2.3-12.5-3.5-20.1-1.3-7-6.3-11.8-11.8-15.5-11.8-8-24.6-13-37.1-19.8-3.3-1.8-11-5.8-12.5-8.5-4-7.3,6.5-8.8,11-11.3s11-7.5,14.5-11.5c16.6-19.8-11.5-31.6-23.8-41.6-5-4-22.3-19.6-23.3-25.3-.8-4.8,2.8-8.8,7.3-10,4.8-1.3,10.3.3,15,0,12,0,21.6-11,18.8-23.1-4.3-18.3-21.3-36.6-37.6-45.1-12.5-6.5-20.3-5.8-26.3-20.3-4.8-11.3-6-18.3-15.5-27.3-4.5-4.3-14-9.5-17.3-14-3.8-5.3-.3-7.8,1.5-12.3,8-21.3-5.8-32.1-18.6-45.4-17.8-18.6-29.3-40.6-42.6-62.7-1.3-1-3.5-1-4.5.3-13,19.6-23.3,41.6-39.6,58.9-13.3,14-27.3,21.6-22.6,44.6,1,4.8,4.8,8.5,3.8,13.5-.8,4.3-12.8,11.3-16.1,14.3-11.8,10-12.8,17.1-18.6,30.1-6.3,14.3-16.1,14-28.3,20.8-14.3,8-26.3,21.1-32.6,36.1-5,12-4.5,23.3,8.5,29.6,8.3,4,33.6-4.8,29.1,12.8-1.3,4.8-17.8,20.1-22.1,23.6-12.8,10.5-41.6,22.3-23.3,42.6,4,4.3,10,9.3,15.3,11.8,5,2.5,13.3,2.5,9.3,10.3-1.5,2.8-8.5,6.5-11.5,8-11.3,6.3-38.6,17.1-45.4,26.8-7.3,10-1,19.6-7,28.3-4.8,6.8-24.1,12-32.1,15.5-18.8,8.3-54.4,32.9-34.9,56.2,5.3,6.3,16.3,7.3,13,17.6-10.8,12.5-22.8,24.1-14.8,42.1,5.3,11.5,18.3,16.3,29.8,18.3,12,2,24.1,2,36.1,2.5,2.5,1,3.8,3.5,3,6.3-1.8,5.3-21.1,20.3-26.3,24.3-11.8,8.8-33.1,18.6-34.1,34.9-1.5,25.1,38.4,34.9,57.4,32.1,5.3-.8,17.8-6.5,22.1-5.3,1.8,1.8,1.5,4.8,2.5,7.3,8,24.1,30.6,31.9,53.9,23.8,5.8-2,9.5-5.8,16.1-5.3,1.5,0,2.5.5,3.5,1.8,1.3,2.3-1,8.5-1,11.5,0,5,1.5,10.3,4.3,14.5,5.3,8.8,14.3,9.3,16.8,20.8,1.8,8.5-3.3,22.8-6.5,30.8-2.3,5.3-9.5,20.6-13.8,23.8-2,1.5-6.8,3.3-9.3,3.3-14.5,0-57.2-2-71.7-.5-9.3,1-16.3,8.8-16.8,17.8v109.3c.8,9,5.8,15,14.5,17.3h383.2c9-1,16.1-8.8,16.1-17.8.5-33.6,1-70-.5-103.6,0-2.5.5-5.5,0-8.3-1.5-8.5-10.3-14.5-18.6-15.3-15.3-1.3-58.4,1.8-73.2,0-7.5-.8-11.8-10-15-15.8-4.3-8.3-13.5-30.8-12-39.6,2.3-12.5,10.5-12.8,16.8-21.3,4-5.5,5.3-11.8,4.5-18.6-.3-2.5-1.8-5-1.5-7.8,5.8-8,15.3.5,21.8,2.8,18.3,5.8,36.1,2,47.4-13.8,4-5.8,4.8-11.3,7.3-17.8,5.3-1.3,9.8,1.8,14.8,3,18.8,5,38.9,2,54.7-9.5,13.8-10,13.3-25.3,1.3-36.6-12.3-11.5-29.1-19.8-42.4-31.9-2-1.8-8.8-8.3-9-10-.8-4.8,1.5-7,6-7.5,5.3-.5,11.8.3,17.3,0,16.3-1,40.9-4.5,46.6-22.6,5.3-16.8-6.3-27.6-16.1-39.4-3.3-8.8,6.8-11.5,11.8-16.1h0l-.5.5v.2h0ZM297.7,571.6c8,0,14.5,6.5,14.5,14.5s-6.5,14.5-14.5,14.5-14.5-6.5-14.5-14.5,6.5-14.5,14.5-14.5ZM476.3,1346.3v87.5l-.8.8H120.6l-.8-.8v-86.8l.8-.8h355.7,0Z"/>
    <g class="st5">
      <path class="st3" d="M297.7,584.4c-10.5,0-15.5-19.3-15.5-37.1s1.8-22.3,4.3-34.4c4.5-21.1,8-22.8,11.3-22.8s6.8,1.8,11.3,22.8c2.5,12,4.3,25.6,4.3,34.4,0,17.8-4.8,37.1-15.5,37.1h-.2,0ZM297.7,500.1c-3.3,8.5-8,31.9-8,47.2s5.5,29.6,8,29.6,8-10.3,8-29.6-4.5-38.6-8-47.2h0Z"/>
    </g>
  </g>
  <rect class="st3" x="293.9" y="-188.4" width="7.5" height="682.2"/>
  <g>
    <path d="M1284.1,53.4l-4.3-11.3h-13.8l-4.3,11.3h-6l14.5-38.6h5l14.5,38.6h-6,.4ZM1273.1,22.3h0l-5,14.8h10l-4.8-14.8h-.3.1Z"/>
    <path d="M1203.6,133.7l-15.5-38.6h6l11.3,28.8,11.3-28.8h6l-15.5,38.6h-3.6Z"/>
    <path d="M1226.9,133.7v-38.6h5.5v38.6h-5.5Z"/>
    <path d="M1254.8,105.3c0-3.5-2.3-5.5-5.5-5.5s-5.3,2.5-5.3,5.3,1.8,4.3,5.5,5.5c8.3,2.8,11.3,5.8,11.3,12.5s-5,11.5-11.8,11.5-11.8-5-11.8-12h5.5c0,4.3,2.5,7,6.3,7s6.3-2.8,6.3-6.5-1.3-4.5-5.3-6c-9.5-3.3-11.5-6.3-11.5-11.8s4.8-10.5,10.8-10.5,11,4,11,10.8h-5.5v-.3Z"/>
    <path d="M1266.3,133.7v-38.6h5.5v38.6h-5.5Z"/>
    <path d="M1297.4,134.4c-10.5,0-19.8-9-19.8-19.6s9-20.3,19.8-20.3,20.3,9,20.3,19.8-9,20.3-20.3,20.3h0v-.3h0ZM1312.2,114.6c0-8-6-15-14-15s-14.5,9-14.5,14.8,5.5,15,14.5,15,14.5-7.8,14.5-14.8c0,0-.5,0-.5,0Z"/>
    <path d="M1348.6,133.7l-19.1-29.8h0v29.8h-5.5v-38.6h6l18.8,29.3h0v-29.3h5.5v38.6h-5.8,0Z"/>
    <path d="M1167.7,214.2v-38.6h10.5c7,0,11.5,4.5,11.5,10.5s-1,5.3-3.5,7.5c3.8,2,5.8,5,5.8,9.3,0,6.8-5.3,11.3-12.3,11.3h-12ZM1178,191.6c3.8,0,6-1.8,6-5.5s-2.3-5.5-6.5-5.5h-4.3v10.8h4.5l.3.3h0ZM1179.3,208.9c4,0,7-2.3,7-6s-1.8-6.3-6.8-6.3h-6.3v12.3h6.1Z"/>
    <path d="M1197.3,214.2v-38.6h20.8v5h-15v11.3h15v5h-15v11.8h15v5h-20.8v.5h0Z"/>
    <path d="M1228.7,214.2v-33.4h-7.3v-5h20.3v5h-7.3v33.4h-5.8.1Z"/>
    <path d="M1272.8,214.2l-7-26.8h0l-7,26.8h-5l-10.8-38.6h5.8l7.3,29.1h0l7.5-29.1h4l7.3,28.8h0l7.5-28.8h5.8l-10.8,38.6h-5,.5-.1Z"/>
    <path d="M1292.6,214.2v-38.6h20.8v5h-15v11.3h15v5h-15v11.8h15v5h-20.8v.5h0Z"/>
    <path d="M1319.7,214.2v-38.6h20.8v5h-15v11.3h15v5h-15v11.8h15v5h-20.8v.5h0Z"/>
    <path d="M1372.1,214.2l-19.1-29.8h0v29.8h-5.5v-38.6h6l18.8,29.3h0v-29.3h5.5v38.6h-5.8,0Z"/>
    <path d="M1146.2,294.4v-38.6h10.5c7,0,11.5,4.5,11.5,10.5s-1,5.3-3.5,7.5c3.8,2,5.8,5,5.8,9.3,0,6.8-5.3,11.3-12.3,11.3h-12ZM1156.5,271.9c3.8,0,6-1.8,6-5.5s-2.3-5.5-6.5-5.5h-4.3v10.8h4.5l.3.3h0ZM1158,289.2c4,0,7-2.3,7-6s-1.8-6.3-6.8-6.3h-6.3v12.3h6.1Z"/>
    <path d="M1194.3,294.4l-12.8-17.8h0v17.8h-5.5v-38.6h12.3c9.3,0,13.3,5,13.3,12.8s-5.5,11.3-11,11.3l10.8,14.3h-7v.3h-.1ZM1185.5,275.9c6.5,0,10.3-2.5,10.3-7.5s-3.5-7.3-8.5-7.3h-6v14.8h4.3-.1Z"/>
    <path d="M1227.4,255.8h5.5v26.3c0,8-5.8,12.8-13,12.8s-13-5-13-12.8v-26.3h5.5v25.8c0,4.8,2.8,8.3,7.3,8.3s7.3-3.5,7.3-8.3v-25.8h.5-.1Z"/>
    <path d="M1244.5,294.4v-33.4h-7.3v-5h20.3v5h-7.3v33.4h-5.8.1Z"/>
    <path d="M1285.6,294.4l-4.3-11.3h-13.8l-4.3,11.3h-6l14.5-38.6h5l14.5,38.6h-6,.4ZM1274.6,263.1h0l-5,14.8h10l-4.8-14.8h-.3.1Z"/>
    <path d="M1296.4,294.4v-38.6h5.5v33.4h13.3v5h-19.1l.3.3h0Z"/>
    <path d="M1319.2,294.4v-38.6h5.5v38.6h-5.5Z"/>
    <path d="M1347.1,265.8c0-3.5-2.3-5.5-5.5-5.5s-5.3,2.5-5.3,5.3,1.8,4.3,5.5,5.5c8.3,2.8,11.3,5.8,11.3,12.5s-5,11.5-11.8,11.5-11.8-5-11.8-12h5.5c0,4.3,2.5,7,6.3,7s6.3-2.8,6.3-6.5-1.3-4.5-5.3-6c-9.5-3.3-11.5-6.3-11.5-11.8s4.8-10.5,10.8-10.5,11,4,11,10.8h-5.5v-.3Z"/>
    <path d="M1394,294.4v-32.6h0l-13,32.6h-3.5l-13-32.6h0v32.6h-5.5v-38.6h8.8l11.5,29.6,11.5-29.6h8.8v38.6h-5.6Z"/>
    <path d="M1086.7,374.7v-38.6h19.6v5h-13.8v11.5h13.8v5h-13.8v16.6h-5.5l-.3.5h0Z"/>
    <path d="M1132.6,336.3h5.5v26.3c0,8-5.8,12.8-13,12.8s-13-5-13-12.8v-26.3h5.5v25.8c0,4.8,2.8,8.3,7.3,8.3s7.3-3.5,7.3-8.3v-25.8h.5-.1Z"/>
    <path d="M1170.7,374.7l-19.1-29.8h0v29.8h-5.5v-38.6h6l18.8,29.3h0v-29.3h5.5v38.6h-5.8,0Z"/>
    <path d="M1219.7,365.2c-4,6.8-10,10.3-17.8,10.3s-19.6-9.5-19.6-19.8,9.3-20.1,19.6-20.1,14,3.3,18.1,10.5h-6.8c-3-3.5-6.3-5.5-10.8-5.5-8,0-14.3,6.8-14.3,14.5s6,15.3,14,15.3,7.5-1.5,10.8-5h7l-.3-.3h.1Z"/>
    <path d="M1228.9,374.7v-33.4h-7.3v-5h20.3v5h-7.3v33.4h-5.8.1Z"/>
    <path d="M1246.2,374.7v-38.6h5.5v38.6h-5.5Z"/>
    <path d="M1277.3,375.4c-10.5,0-19.8-9-19.8-19.6s9-20.3,19.8-20.3,20.1,9,20.1,19.8-9,20.3-20.3,20.3h0l.3-.3h0ZM1292.1,355.6c0-8-6-15-14-15s-14.5,9-14.5,14.8,5.5,15,14.5,15,14.5-7.8,14.5-14.8h-.5Z"/>
    <path d="M1328.5,374.7l-19.1-29.8h0v29.8h-5.5v-38.6h6l18.8,29.3h0v-29.3h5.5v38.6h-5.8,0Z"/>
    <path d="M1367.1,374.7l-4.3-11.3h-13.8l-4.3,11.3h-6l14.5-38.6h5l14.5,38.6h-6,.4ZM1356.1,343.6h0l-5,14.8h10l-4.8-14.8h-.3.1Z"/>
    <path d="M1377.9,374.7v-38.6h5.5v33.4h13.3v5h-19.1l.3.3h0Z"/>
    <path d="M1400.7,374.7v-38.6h5.5v38.6h-5.5Z"/>
    <path d="M1418,374.7v-33.4h-7.3v-5h20.3v5h-7.3v33.4h-5.8.1Z"/>
    <path d="M1443.9,374.7v-13.8l-12-24.6h6.3l8.5,18.1,8.5-18.1h6.3l-11.8,24.6v13.8h-5.8Z"/>
    <path d="M1245.7,455l-4.3-11.3h-13.8l-4.3,11.3h-6l14.5-38.6h5l14.5,38.6h-6,.4ZM1234.7,423.9h0l-5,14.8h10l-4.8-14.8h-.3.1Z"/>
    <path d="M1281.1,455l-19.1-29.8h0v29.8h-5.5v-38.6h6l18.8,29.3h0v-29.3h5.5v38.6h-5.8,0Z"/>
    <path d="M1294.1,455v-38.6h13.3c11.5,0,18.8,9.3,18.8,19.3s-7.5,19.3-19.6,19.3h-12.5ZM1306.4,449.9c9,0,14.3-5.3,14.3-14s-6-14.3-14-14.3h-7v28.1h6.8v.3h-.1Z"/>
    <path d="M1157.5,535.5v-32.6h0l-13,32.6h-3.3l-13-32.6h0v32.6h-5.5v-38.6h8.8l11.5,29.6,11.5-29.6h8.8v38.6h-5.8Z"/>
    <path d="M1170.7,535.5v-38.6h5.5v38.6h-5.5Z"/>
    <path d="M1208.9,535.5l-19.1-29.8h0v29.8h-5.5v-38.6h6l18.8,29.3h0v-29.3h5.5v38.6h-5.8,0Z"/>
    <path d="M1222.7,535.5v-38.6h5.5v38.6h-5.5Z"/>
    <path d="M1271.3,535.5v-32.6h0l-13,32.6h-3.3l-13-32.6h0v32.6h-5.5v-38.6h8.8l11.5,29.6,11.5-29.6h8.8v38.6h-5.8Z"/>
    <path d="M1309.7,535.5l-4.3-11.3h-13.8l-4.3,11.3h-6l14.5-38.6h5l14.5,38.6h-6,.4ZM1298.7,504.1h0l-5,14.8h10l-4.8-14.8h-.3.1Z"/>
    <path d="M1320.5,535.5v-38.6h5.5v33.4h13.3v5h-19.1l.3.3h0Z"/>
    <path d="M1343.3,535.5v-38.6h5.5v38.6h-5.5Z"/>
    <path d="M1370.9,506.9c0-3.5-2.3-5.5-5.5-5.5s-5.3,2.5-5.3,5.3,1.8,4.3,5.5,5.5c8.3,2.8,11.3,5.8,11.3,12.5s-5,11.5-11.8,11.5-11.8-5-11.8-12h5.5c0,4.3,2.5,7,6.3,7s6.3-2.8,6.3-6.5-1.3-4.5-5.3-6c-9.5-3.3-11.5-6.3-11.5-11.8s4.8-10.5,10.8-10.5,11,4,11,10.8h-5.5v-.3h0Z"/>
    <path d="M1417.8,535.5v-32.6h0l-13,32.6h-3.5l-13-32.6h0v32.6h-5.5v-38.6h8.8l11.5,29.6,11.5-29.6h8.8v38.6h-5.6Z"/>
  </g>
  <g>
    <line class="st1" x1="298.1" y1="1220" x2="298.1" y2="1294.6"/>
    <polyline class="st1" points="309.5 1283.2 298.1 1294.5 286.7 1283.2"/>
  </g>
  <g>
    <path class="st2" d="M308.9,676.8l-4.3-11.5h-14.1l-4.3,11.5h-6l14.9-39.2h5.1l14.9,39.2h-6.2ZM297.7,645h-.1l-5,15h10.1l-5-15Z"/>
    <g>
      <path class="st2" d="M229,759.8l-15.8-39.2h6.1l11.4,29.4,11.4-29.4h6l-15.7,39.2h-3.4Z"/>
      <path class="st2" d="M252.8,759.8v-39.2h5.7v39.2h-5.7Z"/>
      <path class="st2" d="M280.9,730.8c0-3.5-2.3-5.7-5.5-5.7s-5.2,2.5-5.2,5.3,1.9,4.3,5.7,5.6c8.5,2.7,11.6,5.9,11.6,12.6s-5.1,11.9-12,11.9-12-5-12.1-12.3h5.7c0,4.2,2.5,7.1,6.4,7.1s6.3-2.8,6.3-6.6-1.3-4.7-5.5-6.1c-9.7-3.3-11.8-6.5-11.8-12s4.9-10.7,11-10.7,11.1,4.1,11.2,10.9h-5.8Z"/>
      <path class="st2" d="M292.8,759.8v-39.2h5.7v39.2h-5.7Z"/>
      <path class="st2" d="M324.5,760.5c-10.8,0-20.1-9.3-20.1-19.9s9.2-20.7,20.2-20.7,20.5,9.2,20.5,20.1-9.2,20.6-20.7,20.6h.1ZM339.4,740.3c0-8.1-6.1-15.2-14.4-15.2s-14.9,9.1-14.9,14.9,5.7,15.2,14.7,15.2,14.7-7.8,14.7-15h-.1Z"/>
      <path class="st2" d="M376.3,759.8l-19.4-30.3h-.1v30.3h-5.7v-39.2h6.2l19.1,29.8h.1v-29.8h5.7v39.2h-5.9Z"/>
    </g>
    <g>
      <path class="st2" d="M190.8,842.8v-39.2h10.6c7.2,0,11.7,4.5,11.7,10.6s-1,5.5-3.5,7.6c3.8,2.1,5.8,5.1,5.8,9.5,0,7-5.2,11.4-12.4,11.4h-12.3,0ZM201.2,819.9c3.9,0,6.2-1.9,6.2-5.5s-2.4-5.6-6.6-5.6h-4.4v11.1h4.8ZM202.6,837.5c4.1,0,7.1-2.3,7.1-6.1s-1.8-6.2-7-6.2h-6.3v12.4h6.2Z"/>
      <path class="st2" d="M220.9,842.8v-39.2h21.1v5.2h-15.4v11.5h15.4v5.2h-15.4v11.9h15.4v5.2h-21.1v.2h0Z"/>
      <path class="st2" d="M252.9,842.8v-33.9h-7.5v-5.2h20.7v5.2h-7.5v33.9h-5.7Z"/>
      <path class="st2" d="M297.7,842.8l-7.1-27.4h-.1l-7.1,27.4h-5l-11-39.2h5.9l7.5,29.5h.1l7.6-29.5h4.2l7.5,29.3h.1l7.6-29.3h5.8l-11,39.2h-5Z"/>
      <path class="st2" d="M318,842.8v-39.2h21.1v5.2h-15.4v11.5h15.4v5.2h-15.4v11.9h15.4v5.2h-21.1v.2h0Z"/>
      <path class="st2" d="M345.5,842.8v-39.2h21.1v5.2h-15.4v11.5h15.4v5.2h-15.4v11.9h15.4v5.2h-21.1v.2h0Z"/>
      <path class="st2" d="M398.7,842.8l-19.4-30.3h-.1v30.3h-5.7v-39.2h6.2l19.1,29.8h.1v-29.8h5.7v39.2h-5.9Z"/>
    </g>
    <g>
      <path class="st2" d="M181.2,925.8v-39.2h10.6c7.2,0,11.7,4.5,11.7,10.6s-1,5.5-3.5,7.6c3.8,2.1,5.8,5.1,5.8,9.5,0,7-5.2,11.4-12.4,11.4h-12.3,0ZM191.6,902.9c3.9,0,6.2-1.9,6.2-5.5s-2.4-5.6-6.6-5.6h-4.4v11.1h4.8ZM193,920.5c4.1,0,7.1-2.3,7.1-6.1s-1.8-6.2-7-6.2h-6.3v12.4h6.2Z"/>
      <path class="st2" d="M230.1,925.8l-12.9-18.2h-.1v18.2h-5.7v-39.2h12.5c9.4,0,13.6,5,13.6,13s-5.7,11.4-11.2,11.5l11,14.6h-7.2ZM221.2,906.8c6.7,0,10.5-2.6,10.5-7.7s-3.6-7.3-8.7-7.3h-6v15h4.2Z"/>
      <path class="st2" d="M263.7,886.6h5.7v26.8c0,8.2-5.8,13.1-13.1,13.1s-13.1-5-13.1-13.1v-26.8h5.7v26.4c0,4.9,2.8,8.3,7.4,8.3s7.4-3.5,7.4-8.3v-26.4Z"/>
      <path class="st2" d="M281.2,925.8v-33.9h-7.5v-5.2h20.7v5.2h-7.5v33.9h-5.7Z"/>
      <path class="st2" d="M323,925.8l-4.3-11.5h-14.1l-4.3,11.5h-6l14.9-39.2h5.1l14.9,39.2h-6.2ZM311.8,894h-.1l-5,15h10.1l-5-15Z"/>
      <path class="st2" d="M333.9,925.8v-39.2h5.7v33.9h13.6v5.2h-19.3Z"/>
      <path class="st2" d="M357.2,925.8v-39.2h5.7v39.2h-5.7Z"/>
      <path class="st2" d="M385.4,896.8c0-3.5-2.3-5.7-5.5-5.7s-5.2,2.5-5.2,5.3,1.9,4.3,5.7,5.6c8.5,2.7,11.6,5.9,11.6,12.6s-5.1,11.9-12,11.9-12-5-12.1-12.3h5.7c0,4.2,2.5,7.1,6.3,7.1s6.3-2.8,6.3-6.6-1.3-4.7-5.5-6.1c-9.7-3.3-11.8-6.5-11.8-12s4.9-10.7,11-10.7,11.1,4.1,11.2,10.9h-5.7Z"/>
      <path class="st2" d="M401.1,925.8v-33.9h-7.5v-5.2h20.7v5.2h-7.5v33.9h-5.7Z"/>
    </g>
    <g>
      <path class="st2" d="M107.3,1008.8v-39.2h19.8v5.2h-14.1v11.7h14.1v5.2h-14.1v16.9h-5.7v.2h0Z"/>
      <path class="st2" d="M153.7,969.6h5.7v26.8c0,8.2-5.8,13.1-13.1,13.1s-13.1-5-13.1-13.1v-26.8h5.7v26.4c0,4.9,2.8,8.3,7.4,8.3s7.4-3.5,7.4-8.3v-26.4h0Z"/>
      <path class="st2" d="M192.5,1008.8l-19.4-30.3h-.1v30.3h-5.7v-39.2h6.2l19.1,29.8h.1v-29.8h5.7v39.2h-5.9Z"/>
      <path class="st2" d="M242.3,999.1c-4,6.8-10.3,10.4-18.1,10.4s-19.8-9.7-19.8-20.2,9.3-20.5,19.8-20.5,14.3,3.4,18.3,10.7h-6.9c-3-3.4-6.4-5.5-11-5.5-8.2,0-14.6,6.9-14.6,14.7s6.2,15.5,14.2,15.5,7.7-1.6,10.9-5.2h7.2Z"/>
      <path class="st2" d="M251.7,1008.8v-33.9h-7.5v-5.2h20.7v5.2h-7.5v33.9h-5.7Z"/>
      <path class="st2" d="M269.3,1008.8v-39.2h5.7v39.2h-5.7Z"/>
      <path class="st2" d="M301,1009.5c-10.8,0-20.1-9.3-20.1-19.9s9.2-20.7,20.2-20.7,20.5,9.2,20.5,20.1-9.2,20.6-20.7,20.6h.1ZM316,989.3c0-8.1-6.1-15.2-14.4-15.2s-14.9,9.1-14.9,14.9,5.7,15.2,14.7,15.2,14.7-7.8,14.7-15h-.1Z"/>
      <path class="st2" d="M352.9,1008.8l-19.4-30.3h-.1v30.3h-5.7v-39.2h6.2l19.1,29.8h.1v-29.8h5.7v39.2h-5.9Z"/>
      <path class="st2" d="M392.2,1008.8l-4.3-11.5h-14.1l-4.3,11.5h-6l14.9-39.2h5.1l14.9,39.2h-6.2ZM381,977h-.1l-5,15h10.1l-5-15Z"/>
      <path class="st2" d="M403.1,1008.8v-39.2h5.7v33.9h13.6v5.2h-19.3Z"/>
      <path class="st2" d="M426.4,1008.8v-39.2h5.7v39.2h-5.7Z"/>
      <path class="st2" d="M443.9,1008.8v-33.9h-7.5v-5.2h20.7v5.2h-7.5v33.9h-5.7Z"/>
      <path class="st2" d="M470.4,1008.8v-14.1l-12.2-25h6.4l8.6,18.4,8.6-18.4h6.4l-12.1,25v14.1h-5.7,0Z"/>
    </g>
    <g>
      <path class="st2" d="M271.1,1091.8l-4.3-11.5h-14.1l-4.3,11.5h-6l14.9-39.2h5.1l14.9,39.2h-6.2ZM259.8,1060h-.1l-5,15h10.1l-5-15Z"/>
      <path class="st2" d="M307,1091.8l-19.4-30.3h-.1v30.3h-5.7v-39.2h6.2l19.1,29.8h.1v-29.8h5.7v39.2h-5.9Z"/>
      <path class="st2" d="M320.3,1091.8v-39.2h13.6c11.9,0,19.1,9.4,19.1,19.6s-7.6,19.6-20,19.6h-12.8,0ZM332.8,1086.5c9,0,14.4-5.3,14.4-14.2s-6.2-14.4-14.2-14.4h-7.1v28.7h6.9Z"/>
    </g>
    <g>
      <path class="st2" d="M180.4,1174.8v-33.1h-.2l-13.2,33.1h-3.4l-13.2-33.1h-.1v33.1h-5.7v-39.2h9l11.7,30,11.8-30h9v39.2h-5.7Z"/>
      <path class="st2" d="M194,1174.8v-39.2h5.7v39.2h-5.7Z"/>
      <path class="st2" d="M232.8,1174.8l-19.4-30.3h-.1v30.3h-5.7v-39.2h6.2l19.1,29.8h.1v-29.8h5.7v39.2h-5.9Z"/>
      <path class="st2" d="M246.6,1174.8v-39.2h5.7v39.2h-5.7Z"/>
      <path class="st2" d="M296.1,1174.8v-33.1h-.2l-13.2,33.1h-3.4l-13.2-33.1h-.1v33.1h-5.7v-39.2h9l11.7,30,11.8-30h9v39.2h-5.7,0Z"/>
      <path class="st2" d="M335.2,1174.8l-4.3-11.5h-14.1l-4.3,11.5h-6l14.9-39.2h5.1l14.9,39.2h-6.2ZM323.9,1143h-.1l-5,15h10.1l-5-15Z"/>
      <path class="st2" d="M346.1,1174.8v-39.2h5.7v33.9h13.6v5.2h-19.3Z"/>
      <path class="st2" d="M369.3,1174.8v-39.2h5.7v39.2h-5.7Z"/>
      <path class="st2" d="M397.5,1145.8c0-3.5-2.3-5.7-5.5-5.7s-5.2,2.5-5.2,5.3,1.9,4.3,5.7,5.6c8.5,2.7,11.6,5.9,11.6,12.6s-5.1,11.9-12,11.9-12-5-12.1-12.3h5.7c0,4.2,2.5,7.1,6.3,7.1s6.3-2.8,6.3-6.6-1.3-4.7-5.5-6.1c-9.7-3.3-11.8-6.5-11.8-12s4.9-10.7,11-10.7,11.1,4.1,11.2,10.9h-5.7Z"/>
      <path class="st2" d="M445.2,1174.8v-33.1h-.2l-13.2,33.1h-3.4l-13.2-33.1h-.1v33.1h-5.7v-39.2h9l11.7,30,11.8-30h9v39.2h-5.7,0Z"/>
    </g>
  </g>
  <g>
    <circle class="st2" cx="390.6" cy="1062.2" r="5.8"/>
    <circle class="st2" cx="407.3" cy="1082.2" r="5.8"/>
    <circle class="st2" cx="423.9" cy="1062.2" r="5.8"/>
    <circle class="st2" cx="440.5" cy="1082.2" r="5.8"/>
    <circle class="st2" cx="457.1" cy="1062.2" r="5.8"/>
    <circle class="st2" cx="473.8" cy="1082.2" r="5.8"/>
    <circle class="st2" cx="206.9" cy="1062.2" r="5.8"/>
    <circle class="st2" cx="190.2" cy="1082.2" r="5.8"/>
    <circle class="st2" cx="173.6" cy="1062.2" r="5.8"/>
    <circle class="st2" cx="157" cy="1082.2" r="5.8"/>
    <circle class="st2" cx="140.4" cy="1062.2" r="5.8"/>
    <circle class="st2" cx="123.7" cy="1082.2" r="5.8"/>
  </g>
  <rect class="st3" x="110.9" y="1339.8" width="373.4" height="100.3" rx="7.1" ry="7.1"/>
  <g>
    <path class="st2" d="M187,1399.8c-4,6.8-10.3,10.4-18.1,10.4s-19.8-9.7-19.8-20.2,9.3-20.5,19.8-20.5,14.3,3.4,18.3,10.7h-6.9c-3-3.4-6.4-5.5-11-5.5-8.2,0-14.6,6.9-14.6,14.7s6.2,15.5,14.2,15.5,7.7-1.6,10.9-5.2h7.2Z"/>
    <path class="st2" d="M192.7,1409.5v-39.2h5.7v33.9h13.6v5.2h-19.3Z"/>
    <path class="st2" d="M215.9,1409.5v-39.2h5.7v39.2h-5.7Z"/>
    <path class="st2" d="M265.5,1399.8c-4,6.8-10.3,10.4-18.1,10.4s-19.8-9.7-19.8-20.2,9.3-20.5,19.8-20.5,14.3,3.4,18.3,10.7h-6.9c-3-3.4-6.4-5.5-11-5.5-8.2,0-14.6,6.9-14.6,14.7s6.2,15.5,14.2,15.5,7.7-1.6,10.9-5.2h7.2Z"/>
    <path class="st2" d="M306.9,1399.8c-4,6.8-10.3,10.4-18.1,10.4s-19.8-9.7-19.8-20.2,9.3-20.5,19.8-20.5,14.3,3.4,18.3,10.7h-6.9c-3-3.4-6.4-5.5-11-5.5-8.2,0-14.6,6.9-14.6,14.7s6.2,15.5,14.2,15.5,7.7-1.6,10.9-5.2h7.2Z"/>
    <path class="st2" d="M335.7,1409.5l-4.3-11.5h-14.1l-4.3,11.5h-6l14.9-39.2h5.1l14.9,39.2h-6.2ZM324.4,1377.8h-.1l-5,15h10.1l-5-15Z"/>
    <path class="st2" d="M401.2,1410.3c-3.4,0-6.4-.7-9.8-3-3.7,2-7.2,3-11.6,3-10.8,0-19.7-9.5-19.7-20s9.2-20.6,19.9-20.6,20.4,8.9,20.4,20.3-1.5,9.2-4.8,13.7c1.7,1,3.2,1.4,5.2,1.4h.4v5.3h0ZM394.7,1389.9c0-7.9-6.4-15.1-14.1-15.1s-14.8,7.1-14.8,15.1.1,2.5.5,4c2.4-1,4.9-1.2,7.4-1.2,5.6,0,11.2,2.4,17.2,7.4,2.6-3.2,3.8-6.2,3.8-10.2h0ZM373.2,1398c-1.5,0-2.9,0-4.5.9,2.8,3.8,7.2,6.1,11.7,6.1s4.1-.4,5.9-1.7c-4.9-3.7-8.9-5.2-13.1-5.2h0Z"/>
    <path class="st2" d="M426.7,1370.4h5.7v26.8c0,8.2-5.8,13.1-13.1,13.1s-13.1-5-13.1-13.1v-26.8h5.7v26.4c0,4.9,2.8,8.3,7.4,8.3s7.4-3.5,7.4-8.3v-26.4Z"/>
    <path class="st2" d="M440.3,1409.5v-39.2h5.7v39.2h-5.7Z"/>
  </g>
</svg>