<?xml version="1.0" encoding="UTF-8"?>
<svg id="Livello_1" xmlns="http://www.w3.org/2000/svg" version="1.1" viewBox="0 0 819.1 656.5">
  <!-- Generator: Adobe Illustrator 29.8.4, SVG Export Plug-In . SVG Version: 2.1.1 Build 6)  -->
  <defs>
    <style>
      .st0, .st1, .st2, .st3, .st4 {
        fill: none;
        stroke: #fff;
        stroke-miterlimit: 10;
        stroke-width: 3px;
      }

      .st5 {
        fill: #fff;
      }

      .st1, .st2, .st3, .st4 {
        stroke-linecap: round;
      }

      .st2 {
        stroke-dasharray: 10.5 10.5;
      }

      .st3 {
        stroke-dasharray: 10.7 10.7;
      }

      .st4 {
        stroke-dasharray: 10.3 10.3;
      }

      .st6 {
        fill: #ffdc00;
      }
    </style>
  </defs>
  <polyline class="st0" points="18.6 525.8 18.6 641.4 672 641.4 672 616.9 562.1 616.9"/>
  <line class="st0" x1="19" y1="394.3" x2="19" y2="217.3"/>
  <polyline class="st0" points="19 91.5 19 15.1 577 15.1 577 322.8"/>
  <line class="st0" x1="19" y1="512.9" x2="19" y2="407.2"/>
  <line class="st0" x1="19" y1="207" x2="19" y2="101.2"/>
  <rect class="st0" x="119.7" y="395.3" width="145" height="307.2" rx="8.6" ry="8.6" transform="translate(-356.7 741.1) rotate(-90)"/>
  <rect class="st0" x="451.4" y="173.3" width="84.6" height="146.5" transform="translate(247.1 740.3) rotate(-90)"/>
  <rect class="st0" x="482.3" y="-15.6" width="64" height="125.3" transform="translate(467.3 561.4) rotate(-90)"/>
  <rect class="st0" x="388.6" y="16" width="64" height="62.2" transform="translate(373.5 467.7) rotate(-90)"/>
  <rect class="st0" x="335.4" y="25" width="64" height="44.2" transform="translate(320.3 414.5) rotate(-90)"/>
  <rect class="st0" x="249.6" y="-16.6" width="64" height="127.4" transform="translate(234.5 328.7) rotate(-90)"/>
  <rect class="st0" x="143.2" y="31.9" width="57" height="43.3" transform="translate(118.1 225.2) rotate(-90)"/>
  <polyline class="st0" points="672 509.5 672 485 577 485 577 415.6 672 415.6"/>
  <line class="st0" x1="737" y1="15.1" x2="565.6" y2="15.1"/>
  <polyline class="st0" points="788.1 15.1 800.5 15.1 800.5 485 672 485"/>
  <polyline class="st0" points="577 284.6 615 284.6 615 191.8"/>
  <line class="st0" x1="707.8" y1="284.6" x2="800.5" y2="284.6"/>
  <rect class="st0" x="686" y="370.5" width="140.4" height="68.6" transform="translate(351.4 1161) rotate(-90)"/>
  <path class="st0" d="M723.6,242.4c0,12.2,9.9,22.1,22.1,22.1h28.7c12.2,0,16.1-9.9,16.1-22.1s-3.9-22.1-16.1-22.1h-28.7c-12.2,0-22.1,9.9-22.1,22.1Z"/>
  <path class="st0" d="M723.6,178.3c0,12.2,9.9,22.1,22.1,22.1h28.7c12.2,0,16.1-9.9,16.1-22.1s-3.9-22.1-16.1-22.1h-28.7c-12.2,0-22.1,9.9-22.1,22.1Z"/>
  <line class="st1" x1="778.3" y1="178.3" x2="764.6" y2="178.3"/>
  <line class="st1" x1="596.9" y1="62.9" x2="608.5" y2="62.9"/>
  <g>
    <line class="st1" x1="778.3" y1="231.8" x2="777.6" y2="231.8"/>
    <line class="st1" x1="778.3" y1="253.1" x2="777.6" y2="253.1"/>
  </g>
  <g>
    <path class="st0" d="M790.4,56.1c0-2.3-1.8-4.1-4.1-4.1h-38.6c-12.2,0-16.1,29.9-16.1,42.1s3.9,42.1,16.1,42.1h38.6c2.3,0,4.1-1.8,4.1-4.1V56.1Z"/>
    <line class="st1" x1="780.4" y1="94.1" x2="766.7" y2="94.1"/>
  </g>
  <line class="st0" x1="747" y1="15.1" x2="778" y2="15.1"/>
  <rect class="st0" x="577" y="130.8" width="52.2" height="32.2" transform="translate(456.1 750.1) rotate(-90)"/>
  <g>
    <path class="st1" d="M707.8,284.6h0c0-1.8,0-3.7-.2-5.5"/>
    <path class="st4" d="M706.5,268.9c-6.9-40-39.9-71.1-80.8-75.3"/>
    <path class="st1" d="M620.5,193.2c-1.4,0-2.8,0-4.2,0h-1.3"/>
  </g>
  <g>
    <path class="st1" d="M672,415.6h0c0-1.8,0-3.7-.2-5.5"/>
    <path class="st2" d="M670.6,399.7c-7.1-40.7-40.9-72.3-82.9-76.4"/>
    <path class="st1" d="M582.5,322.9c-1.4,0-2.7,0-4.1,0h-1.4"/>
  </g>
  <g>
    <path class="st1" d="M562.1,616.9h0c0-1.8,0-3.7.1-5.5"/>
    <path class="st3" d="M563.3,600.8c7.4-48.7,47.8-86.6,97.9-90.8"/>
    <path class="st1" d="M666.5,509.6c1.3,0,2.6,0,3.9,0h1.6"/>
  </g>
  <rect class="st0" x="21.5" y="524.9" width="113.6" height="48" rx="5.4" ry="5.4" transform="translate(-470.6 627.2) rotate(-90)"/>
  <line class="st0" x1="118.1" y1="476.4" x2="118.1" y2="621.4"/>
  <rect class="st0" x="28.6" y="355" width="28.3" height="28.3" transform="translate(-326.4 411.8) rotate(-90)"/>
  <rect class="st0" x="60" y="195.8" width="28.3" height="91.3" transform="translate(-167.3 315.7) rotate(-90)"/>
  <circle class="st0" cx="68.2" cy="306.3" r="39.7"/>
  <line class="st0" x1="56.9" y1="383.3" x2="28.6" y2="355"/>
  <line class="st0" x1="28.6" y1="383.3" x2="56.9" y2="355"/>
  <line class="st0" x1="28.6" y1="255.6" x2="119.8" y2="227.3"/>
  <line class="st0" x1="119.8" y1="255.6" x2="28.6" y2="227.3"/>
  <line class="st0" x1="451.7" y1="79.1" x2="577" y2="15.1"/>
  <line class="st0" x1="577" y1="79.1" x2="451.7" y2="15.1"/>
  <line class="st0" x1="389.5" y1="79.1" x2="345.3" y2="15.1"/>
  <line class="st0" x1="345.3" y1="79.1" x2="389.5" y2="15.1"/>
  <rect class="st0" x="227.9" y="25.1" width="49.2" height="44"/>
  <rect class="st0" x="286.6" y="25.1" width="49.2" height="44"/>
  <line class="st0" x1="311.2" y1="32.7" x2="311.2" y2="42.4"/>
  <line class="st0" x1="619.2" y1="173" x2="587" y2="120.9"/>
  <line class="st0" x1="587" y1="173" x2="619.2" y2="120.9"/>
  <rect class="st0" x="512.7" y="425.6" width="49.4" height="49.4" transform="translate(87.1 987.7) rotate(-90)"/>
  <line class="st0" x1="562.1" y1="475" x2="512.7" y2="425.6"/>
  <line class="st0" x1="512.7" y1="475" x2="562.1" y2="425.6"/>
  <circle class="st0" cx="75.8" cy="306.5" r="25.1"/>
  <rect class="st0" x="367.4" y="226.7" width="40.6" height="40.6" rx="7.6" ry="7.6" transform="translate(140.7 634.7) rotate(-90)"/>
  <line class="st0" x1="374.5" y1="268" x2="374.5" y2="226.7"/>
  <rect class="st0" x="473.8" y="153.4" width="40.6" height="40.6" rx="7.6" ry="7.6"/>
  <line class="st0" x1="473.1" y1="160.4" x2="514.3" y2="160.4"/>
  <rect class="st0" x="587" y="25.1" width="75.7" height="75.7" transform="translate(561.9 687.8) rotate(-90)"/>
  <circle class="st1" cx="629.1" cy="62.9" r="6.7"/>
  <line class="st1" x1="624.4" y1="67.7" x2="633.9" y2="58.2"/>
  <line class="st1" x1="624.4" y1="58.2" x2="633.9" y2="67.7"/>
  <rect class="st1" x="164.8" y="10.3" width="13.7" height="43.3" transform="translate(139.7 203.6) rotate(-90)"/>
  <circle class="st1" cx="171.6" cy="60.4" r="11.7"/>
  <circle class="st0" cx="51.5" cy="45.6" r="20.7"/>
  <circle class="st0" cx="105.2" cy="45.6" r="20.7"/>
  <g>
    <path class="st5" d="M200.4,209v-19h2.8v19h-2.8Z"/>
    <path class="st5" d="M214.3,209v-19h6.6c5.8,0,9.3,4.6,9.3,9.5s-3.7,9.5-9.7,9.5h-6.2ZM220.4,206.5c4.4,0,7-2.6,7-6.9s-3-7-6.9-7h-3.4v13.9h3.3Z"/>
    <path class="st5" d="M233.2,209v-19h10.3v2.5h-7.5v5.6h7.5v2.5h-7.5v5.8h7.5v2.5h-10.3Z"/>
    <path class="st5" d="M253.9,194.9c0-1.7-1.1-2.8-2.7-2.8s-2.5,1.2-2.5,2.6.9,2.1,2.8,2.7c4.1,1.3,5.6,2.9,5.6,6.1s-2.5,5.8-5.8,5.8-5.8-2.4-5.9-6h2.8c0,2.1,1.2,3.4,3.1,3.4s3.1-1.3,3.1-3.2-.6-2.3-2.6-3c-4.7-1.6-5.7-3.1-5.7-5.8s2.4-5.2,5.3-5.2,5.4,2,5.5,5.3h-2.8Z"/>
    <path class="st5" d="M259.7,209v-19h2.8v19h-2.8Z"/>
    <path class="st5" d="M272.9,202.1v-2.5h12c-.2,6.3-5,9.8-10,9.8s-9.5-4.5-9.5-9.6,4.7-10.1,9.5-10.1,6.8,1.7,8.7,5.1h-3.2c-1.6-1.9-3.2-2.6-5.4-2.6-3.7,0-6.9,3.5-6.9,7.3s3.2,7.4,7,7.4,5.4-1.7,6.6-4.7h-8.9Z"/>
    <path class="st5" d="M299.9,209l-9.4-14.7h0v14.7h-2.8v-19h3l9.3,14.5h0v-14.5h2.8v19h-2.9Z"/>
    <path class="st5" d="M324.9,209v-8.3h-7.8v8.3h-2.8v-19h2.8v8.2h7.8v-8.2h2.8v19h-2.8Z"/>
    <path class="st5" d="M331.2,209v-19h10.3v2.5h-7.5v5.6h7.5v2.5h-7.5v5.8h7.5v2.5h-10.3Z"/>
    <path class="st5" d="M353.7,209l-6.3-8.8h0v8.8h-2.8v-19h6.1c4.6,0,6.6,2.4,6.6,6.3s-2.8,5.5-5.5,5.6l5.3,7.1h-3.5ZM349.4,199.8c3.2,0,5.1-1.3,5.1-3.7s-1.7-3.6-4.2-3.6h-2.9v7.3h2Z"/>
    <path class="st5" d="M359.9,209v-19h10.3v2.5h-7.5v5.6h7.5v2.5h-7.5v5.8h7.5v2.5h-10.3Z"/>
    <path class="st5" d="M373.8,204.3v-14.4h2.7v14.4h-2.7ZM373.8,209v-3.1h2.7v3.1h-2.7Z"/>
  </g>
  <path class="st6" d="M461,143c-9.4-10.5-21.1-18.8-33.9-24.6s-26.7-9-40.7-9.4-27.6,2.2-40.4,7.5-23.8,12.8-33.4,22.2-17.4,20.7-22.6,33.1c-.7,1.6-1.3,3.2-1.9,4.8s2.2,2.6,2.9.8c4.5-12.3,11.5-23.6,20.4-33.1,9-9.6,19.7-17.6,31.6-23.2s25.2-8.8,38.4-9.1,27.2,2.2,39.9,7.2,24.3,12.5,33.9,22.2,2.4,2.5,3.5,3.7,3.4-.7,2.1-2.1h0Z"/>
  <g>
    <path class="st5" d="M252.9,344.4v-19h2.8v19h-2.8Z"/>
    <path class="st5" d="M274.2,330.3c0-1.7-1.1-2.8-2.7-2.8s-2.5,1.2-2.5,2.6.9,2.1,2.8,2.7c4.1,1.3,5.6,2.9,5.6,6.1s-2.5,5.8-5.8,5.8-5.8-2.4-5.9-6h2.8c0,2.1,1.2,3.4,3.1,3.4s3.1-1.3,3.1-3.2-.6-2.3-2.6-3c-4.7-1.6-5.7-3.1-5.7-5.8s2.4-5.2,5.3-5.2,5.4,2,5.5,5.3h-2.8Z"/>
    <path class="st5" d="M280,344.4v-19h2.8v16.5h6.6v2.5h-9.4Z"/>
    <path class="st5" d="M291.1,344.4v-19h10.3v2.5h-7.5v5.6h7.5v2.5h-7.5v5.8h7.5v2.5h-10.3Z"/>
    <path class="st5" d="M304.5,344.4v-19h10.3v2.5h-7.5v5.6h7.5v2.5h-7.5v5.8h7.5v2.5h-10.3Z"/>
    <path class="st5" d="M317.9,344.4v-19h5.5c4.1,0,6.7,2,6.7,5.8s-2.5,5.8-6.7,5.8h-2.8v7.5h-2.8ZM323.4,334.4c2.4,0,3.9-1.2,3.9-3.2s-1.5-3.2-3.9-3.2h-2.7v6.4h2.8Z"/>
    <path class="st5" d="M350.7,344.4v-8.3h-7.8v8.3h-2.8v-19h2.8v8.2h7.8v-8.2h2.8v19h-2.8Z"/>
    <path class="st5" d="M357.1,344.4v-19h10.3v2.5h-7.5v5.6h7.5v2.5h-7.5v5.8h7.5v2.5h-10.3Z"/>
    <path class="st5" d="M379.6,344.4l-6.3-8.8h0v8.8h-2.8v-19h6.1c4.6,0,6.6,2.4,6.6,6.3s-2.8,5.5-5.5,5.6l5.3,7.1h-3.5ZM375.3,335.2c3.2,0,5.1-1.3,5.1-3.7s-1.7-3.6-4.2-3.6h-2.9v7.3h2Z"/>
    <path class="st5" d="M385.8,344.4v-19h10.3v2.5h-7.5v5.6h7.5v2.5h-7.5v5.8h7.5v2.5h-10.3Z"/>
    <path class="st5" d="M399.7,339.7v-14.4h2.7v14.4h-2.7ZM399.7,344.4v-3.1h2.7v3.1h-2.7Z"/>
  </g>
  <path class="st6" d="M155.7,459c-6.6-21.7-4.9-45.8,4.5-66.5s25.4-36.1,45.3-45.6c10.9-5.2,22.8-8.3,34.8-8.9,1.9-.1,1.9-3.1,0-3-22.3,1.2-43.9,10.5-60.4,25.5s-27.8,37.2-30.5,60.2c-1.5,13.1-.4,26.5,3.4,39.1s3.5,1.1,2.9-.8h0Z"/>
  <path class="st6" d="M145.9,457.4c2.6,2,5.2,4.1,7.8,6.1s1.8.6,2.4-.3c1.5-2.8,3.1-5.6,4.6-8.3s-1.7-3.2-2.6-1.5c-1.5,2.8-3.1,5.6-4.6,8.3l2.4-.3c-2.6-2-5.2-4.1-7.8-6.1s-1.5-.6-2.1,0-.6,1.6,0,2.1h0Z"/>
  <path class="st6" d="M452.3,147c3.3.1,6.6.3,9.9.4s1.6-.7,1.5-1.5c-.4-3.2-.7-6.3-1.1-9.5s-.6-1.5-1.5-1.5-1.6.7-1.5,1.5c.4,3.2.7,6.3,1.1,9.5l1.5-1.5c-3.3-.1-6.6-.3-9.9-.4s-1.5.7-1.5,1.5.7,1.5,1.5,1.5h0Z"/>
</svg>