<?xml version="1.0" encoding="UTF-8"?>
<svg xmlns="http://www.w3.org/2000/svg" xmlns:xlink="http://www.w3.org/1999/xlink" viewBox="0 0 800 800">
  <defs>
    <style>
      .cls-1 {
        fill: none;
      }

      .cls-2 {
        fill: url(#linear-gradient);
      }

      .cls-2, .cls-3, .cls-4 {
        mix-blend-mode: soft-light;
      }

      .cls-5 {
        fill: #000013;
      }

      .cls-6 {
        fill: #ce9500;
      }

      .cls-3 {
        fill: #f4f7ff;
      }

      .cls-7 {
        fill: #1a0045;
      }

      .cls-7, .cls-8, .cls-9 {
        mix-blend-mode: multiply;
      }

      .cls-8 {
        fill: #cddecc;
      }

      .cls-10 {
        isolation: isolate;
      }

      .cls-11 {
        fill: #fff;
      }

      .cls-4 {
        fill: url(#linear-gradient-2);
      }

      .cls-12 {
        fill: #000009;
      }

      .cls-9 {
        fill: #b6af99;
      }

      .cls-13 {
        fill: #3d0072;
      }

      .cls-14 {
        clip-path: url(#clippath);
      }
    </style>
    <clipPath id="clippath">
      <rect class="cls-1" x="1377.07" y="1978.41" width="1920" height="1080"/>
    </clipPath>
    <linearGradient id="linear-gradient" x1="390.42" y1="203.49" x2="406.96" y2="203.49" gradientUnits="userSpaceOnUse">
      <stop offset="0" stop-color="#878787"/>
      <stop offset=".23" stop-color="#8a8a8a"/>
      <stop offset=".4" stop-color="#949494"/>
      <stop offset=".57" stop-color="#a4a4a4"/>
      <stop offset=".72" stop-color="#bcbcbc"/>
      <stop offset=".86" stop-color="#dadada"/>
      <stop offset="1" stop-color="#fff"/>
    </linearGradient>
    <linearGradient id="linear-gradient-2" x1="400" y1="203.61" x2="407.18" y2="203.61" xlink:href="#linear-gradient"/>
  </defs>
  <g class="cls-10">
    <g id="Livello_1" data-name="Livello 1">
      <g class="cls-14">
        <image width="4240" height="2714" transform="translate(581.13 705.05) scale(1.01)" xlink:href="../bg.png"/>
      </g>
      <g>
        <path class="cls-11" d="M484.51,493.79l84.49,84.49c-23.33,23.33-53.91,34.99-84.49,34.99-30.58,0-61.16-11.67-84.49-35l-.02-.02-.02.02c-23.33,23.33-53.91,34.99-84.49,35-30.58,0-61.16-11.66-84.49-34.99l84.49-84.49c23.33-23.33,53.91-35,84.49-35,0,0,.01,0,.02,0s.01,0,.02,0c30.58,0,61.16,11.66,84.49,35ZM400,316.75c35.91,0,65.01-29.11,65.01-65.01s-29.11-65.01-65.01-65.01-65.01,29.11-65.01,65.01,29.11,65.01,65.01,65.01ZM513.45,315.29c-52.86,0-97.7,34.33-113.45,81.92-15.75-47.58-60.59-81.92-113.45-81.92h-119.49c0,65.99,53.5,119.49,119.49,119.49h226.9c65.99,0,119.49-53.5,119.49-119.49h0s-119.49,0-119.49,0Z"/>
        <g>
          <ellipse class="cls-12" cx="398.29" cy="207.78" rx="108.05" ry="27.21"/>
          <ellipse class="cls-13" cx="398.29" cy="204.8" rx="108.05" ry="27.21"/>
          <path class="cls-13" d="M418.36,91.89c-1.45-3.81-20.3-20.83-20.07-23.79.19-2.48,9.24-28.39,7.22-29.43-1.61-.83-21.61,25.13-22.46,27.2-1.17,2.83,5.2,29.74,2.97,34.57-2.51,5.44-23.36,34.91-23.79,36.43-9.9,34.59-17.92,65.18-17.92,65.31,0,5.06,24.17,9.17,53.98,9.17s53.98-4.11,53.98-9.17c0-.15-26.31-65.11-28.33-67.02-2.56-2.43-4.08-39.35-5.58-43.27Z"/>
          <path class="cls-7" d="M404.69,39.06c-4.08,3.06-20.86,24.91-21.64,26.81-1.17,2.83,5.2,29.74,2.97,34.57-2.51,5.44-23.36,34.91-23.79,36.43-9.68,33.82-17.56,63.8-17.9,65.24.17.53.31.95.38,1.14,1.8,2.63,10.12,4.91,22.14,6.37,29.95,3.81,3.43-29.06-2.02-72.27-.4-3.21,37.67-29.49,37.42-38.66-.13-4.71-14.37,1.24-16.85-32.71-.3-4.15,20.12-27.32,20.12-27.32l-.82.39Z"/>
          <path class="cls-3" d="M418.36,91.89c-1.45-3.81-20.3-20.83-20.07-23.79.19-2.48,9.24-28.39,7.22-29.43,0,0-4.74,14.93-7.22,19.39-2.49,4.46-9.88,7.17-8.19,11.4,1.98,4.96,5.55,8.82,23.54,23.79,3.83,3.19-12.59,29.99-8.13,34.2,4.46,4.21,13.52,12.51,11.6,14.13-3.22,2.73-16.6-6.44-13.38,8.43,3.22,14.86,10.15,60.92,10.16,60.96,11.83-.61,21.94-1.88,28.81-3.57,3.67-1.26,7.03-2.93,9.56-5.21,0-.15-26.31-65.11-28.33-67.02-2.56-2.43-4.08-39.35-5.58-43.27Z"/>
          <g>
            <path class="cls-5" d="M383.05,65.87c-.68,1.63,1.15,11.26,2.4,20.05.23-.42.44-.81.57-1.1,1.27-2.74-.24-12.6-1.57-21.12-.76,1.08-1.29,1.87-1.41,2.16Z"/>
            <path class="cls-12" d="M398.29,195.74c-23.33,0-43.14-2.52-50.68-6.04-2.07,7.74-3.3,12.43-3.3,12.48,0,5.06,24.17,9.17,53.98,9.17s53.98-4.11,53.98-9.17c0-.04-1.94-4.85-4.79-11.85-8.46,3.19-27.28,5.41-49.19,5.41Z"/>
          </g>
          <g>
            <path class="cls-8" d="M405.13,196.01h-13.55c-.82,0-1.5.67-1.5,1.5v12.84c0,.82.67,1.5,1.5,1.5h13.55c.82,0,1.5-.67,1.5-1.5v-12.84c0-.82-.67-1.5-1.5-1.5ZM404.82,208.94c0,.64-.53,1.17-1.17,1.17h-10.59c-.64,0-1.17-.53-1.17-1.17v-10.03c0-.64.53-1.17,1.17-1.17h10.59c.64,0,1.17.53,1.17,1.17v10.03Z"/>
            <path class="cls-6" d="M405.47,195.58h-13.55c-.82,0-1.5.67-1.5,1.5v12.84c0,.82.67,1.5,1.5,1.5h13.55c.82,0,1.5-.67,1.5-1.5v-12.84c0-.82-.67-1.5-1.5-1.5ZM405.16,208.51c0,.64-.53,1.17-1.17,1.17h-10.59c-.64,0-1.17-.53-1.17-1.17v-10.03c0-.64.53-1.17,1.17-1.17h10.59c.64,0,1.17.53,1.17,1.17v10.03Z"/>
            <path class="cls-2" d="M405.47,195.58h-13.55c-.82,0-1.5.67-1.5,1.5v12.84c0,.82.67,1.5,1.5,1.5h13.55c.82,0,1.5-.67,1.5-1.5v-12.84c0-.82-.67-1.5-1.5-1.5ZM405.16,208.51c0,.64-.53,1.17-1.17,1.17h-10.59c-.64,0-1.17-.53-1.17-1.17v-10.03c0-.64.53-1.17,1.17-1.17h10.59c.64,0,1.17.53,1.17,1.17v10.03Z"/>
            <path class="cls-9" d="M406.46,203.11h-6.89c-.6,0-1.09.49-1.09,1.09s.49,1.09,1.09,1.09h6.89c.6,0,1.09-.49,1.09-1.09s-.49-1.09-1.09-1.09Z"/>
            <path class="cls-6" d="M406.67,202.73h-6.89c-.6,0-1.09.49-1.09,1.09s.49,1.09,1.09,1.09h6.89c.6,0,1.09-.49,1.09-1.09s-.49-1.09-1.09-1.09Z"/>
            <rect class="cls-4" x="400" y="202.95" width="7.18" height="1.31" rx=".53" ry=".53"/>
          </g>
        </g>
      </g>
    </g>
  </g>
</svg>