<?xml version="1.0" encoding="UTF-8"?>
<svg xmlns="http://www.w3.org/2000/svg" xmlns:xlink="http://www.w3.org/1999/xlink" viewBox="0 0 800 800">
  <defs>
    <style>
      .cls-1 {
        fill: none;
      }

      .cls-2 {
        fill: #f10000;
      }

      .cls-3 {
        fill: #d60000;
      }

      .cls-4 {
        fill: #ebf3ef;
      }

      .cls-5 {
        fill: #c40000;
      }

      .cls-5, .cls-6 {
        mix-blend-mode: multiply;
      }

      .cls-7 {
        isolation: isolate;
      }

      .cls-8 {
        fill: #fff;
      }

      .cls-9 {
        fill: red;
      }

      .cls-10 {
        fill: #c9dde7;
      }

      .cls-11 {
        clip-path: url(#clippath);
      }

      .cls-6 {
        fill: #dcd7df;
      }
    </style>
    <clipPath id="clippath">
      <rect class="cls-1" x="-1202.93" y="1978.41" width="1920" height="1080"/>
    </clipPath>
  </defs>
  <g class="cls-7">
    <g id="Livello_1" data-name="Livello 1">
      <g class="cls-11">
        <image width="4240" height="2714" transform="translate(-1998.87 705.05) scale(1.01)" xlink:href="../bg.png"/>
      </g>
      <g>
        <path class="cls-8" d="M484.51,493.79l84.49,84.49c-23.33,23.33-53.91,34.99-84.49,34.99-30.58,0-61.16-11.67-84.49-35l-.02-.02-.02.02c-23.33,23.33-53.91,34.99-84.49,35-30.58,0-61.16-11.66-84.49-34.99l84.49-84.49c23.33-23.33,53.91-35,84.49-35,0,0,.01,0,.02,0s.01,0,.02,0c30.58,0,61.16,11.66,84.49,35ZM400,316.75c35.91,0,65.01-29.11,65.01-65.01s-29.11-65.01-65.01-65.01-65.01,29.11-65.01,65.01,29.11,65.01,65.01,65.01ZM513.45,315.29c-52.86,0-97.7,34.33-113.45,81.92-15.75-47.58-60.59-81.92-113.45-81.92h-119.49c0,65.99,53.5,119.49,119.49,119.49h226.9c65.99,0,119.49-53.5,119.49-119.49h0s-119.49,0-119.49,0Z"/>
        <g>
          <path class="cls-3" d="M426.38,110.67c-8.02-4.74-60.97-.11-66.92,5.84-5.16,5.16-22,58.57-22,59.49,0,4.14,27.15,7.49,60.64,7.49s60.64-3.35,60.64-7.49c0-.24-.1-.48-.29-.72-2.7-6.79-24-59.84-32.07-64.61Z"/>
          <path class="cls-5" d="M366.77,171.78c-1.75-5.04,6.14-19.81,22.22-24.49,16.08-4.68,29.24,0,29.24-4.09s-9.65-5.85-8.19-7.6c1.46-1.75,16.37-5.26,15.2-10.23-1.17-4.97-30.12,0-27.14-6.43,2.97-6.43,23.42-8.48,23.42-8.48l-11.48-4.39-55.55,7.31-23.63,88.91,107.46-20.68s-69.79-4.78-71.55-9.82Z"/>
          <path class="cls-10" d="M458.72,176.09c-.39,4.09-27.37,7.4-60.62,7.4-31.48,0-57.35-2.96-60.34-6.75-5.49,1.86-9.47,7.05-9.47,13.14v27.76c0,5.82,3.63,10.82,8.74,12.88,6.15,3.38,31.55,5.91,61.97,5.91,27.65,0,51.16-2.09,59.82-5.01,6.87-.82,12.25-6.69,12.25-13.78v-27.76c0-7.12-5.43-13.02-12.35-13.79Z"/>
          <path class="cls-6" d="M356.44,217.95c-3.51-10.72-15.2-13.25-17.15-15.66-1.95-2.41,8.96-22.02,8.96-22.02-5.73-1.02-9.45-2.22-10.48-3.53-.03.01-.06.03-.1.04l-6.48,4.69c-1.8,2.34-2.89,5.25-2.89,8.41v27.76c0,5.82,3.63,10.82,8.74,12.88,6.15,3.38,31.55,5.91,61.97,5.91,13.37,0,25.75-.49,35.98-1.33l12.56-1.35s.08-.01.12-.02c-.61-.04-87.73-5.1-91.22-15.78Z"/>
          <path class="cls-2" d="M344.65,100.31c-2.86,1.17-16.95,14.56-21.74,47.67-3.43,23.71-4.38,66.66-.39,66.66,8.18,0,36.63-62.99,56-86.11,25.66-30.61,50.58-15.17,50.58-15.17-5.45-8.92-56.24-24.58-84.45-13.05Z"/>
          <circle class="cls-10" cx="322.26" cy="223.87" r="23.24"/>
          <path class="cls-5" d="M322.91,147.97c-2.19,15.11-3.36,38.02-2.9,52.66h2.25s2.99-52.66,15.2-78.45c11.02-23.26,24.25-25.58,26.73-25.81-7.07.37-13.78,1.58-19.54,3.94-2.86,1.17-16.95,14.56-21.74,47.67Z"/>
          <path class="cls-4" d="M406.34,185.2c-38.99,0-53.6-4.2-54.77-.3-1.25,4.17,93.56,6.16,95.9,8.98,2.34,2.82-1.17,25.58,2.34,29.99,3.51,4.41,8.43,5.58,15.4,1.48,4.77-2.8,3.9-37.82.58-41.87-4.64-5.68-13.45,1.71-59.45,1.71Z"/>
          <circle class="cls-4" cx="325.65" cy="221.66" r="16.39"/>
          <path class="cls-9" d="M407.7,116.01c-2.85,1.87,17.66-1.17,21.4,2.92,3.75,4.09,10.93,11.13,6.08,12.28-18.42,4.39,11.81,16.17,3.13,17.29-8.68,1.13-33.25.73-32.95,3.2.29,2.47,27.9,4.65,32.95,7.87,5.06,3.22,9.86,18.63,15,17.17,1.39-.4,3.05-1.35,4.71-2.53-3.58-8.95-20.02-49.41-28.94-60.85-.17,0-6.18-7.29-21.38,2.65Z"/>
        </g>
      </g>
    </g>
  </g>
</svg>