<?xml version="1.0" encoding="UTF-8"?>
<svg xmlns="http://www.w3.org/2000/svg" viewBox="0 0 800 800">
  <defs>
    <style>
      .cls-1 {
        fill: #a89f98;
      }

      .cls-1, .cls-2 {
        mix-blend-mode: multiply;
      }

      .cls-3 {
        fill: #c2cadd;
      }

      .cls-3, .cls-4, .cls-5 {
        mix-blend-mode: soft-light;
      }

      .cls-6 {
        fill: #3c3c3c;
      }

      .cls-7 {
        fill: #d60000;
      }

      .cls-4 {
        fill: #f9fcfb;
      }

      .cls-8 {
        isolation: isolate;
      }

      .cls-9 {
        fill: #373737;
      }

      .cls-2 {
        fill: #f1eff2;
      }

      .cls-5, .cls-10 {
        fill: #fff;
      }

      .cls-11 {
        fill: #0b0b0b;
      }

      .cls-12 {
        fill: #fff6f4;
      }

      .cls-13 {
        fill: #d3dcd7;
      }
    </style>
  </defs>
  <g class="cls-8">
    <g id="Livello_1" data-name="Livello 1">
      <g>
        <path class="cls-10" d="M484.51,493.79l84.49,84.49c-23.33,23.33-53.91,34.99-84.49,34.99-30.58,0-61.16-11.67-84.49-35l-.02-.02-.02.02c-23.33,23.33-53.91,34.99-84.49,35-30.58,0-61.16-11.66-84.49-34.99l84.49-84.49c23.33-23.33,53.91-35,84.49-35,0,0,.01,0,.02,0s.01,0,.02,0c30.58,0,61.16,11.66,84.49,35ZM513.45,315.29c-52.86,0-97.7,34.33-113.45,81.92-15.75-47.58-60.59-81.92-113.45-81.92h-119.49c0,65.99,53.5,119.49,119.49,119.49h226.9c65.99,0,119.49-53.5,119.49-119.49h0s-119.49,0-119.49,0Z"/>
        <g>
          <path class="cls-6" d="M331.85,225.23h-5.12c-2.57,0-4.67,2.1-4.67,4.67s2.1,4.67,4.67,4.67h5.12c2.57,0,4.67-2.1,4.67-4.67s-2.1-4.67-4.67-4.67Z"/>
          <path class="cls-13" d="M399.96,131.74c-40.07,0-61.88,28.49-69,47.19-7.12,18.7,0,77.91,2.67,93.49,2.67,15.58,16.92,39.62,31.16,55.2,14.25,15.58,35.17,15.14,35.17,15.14,0,0,20.92.45,35.17-15.14,14.25-15.58,28.49-39.62,31.16-55.2,2.67-15.58,9.79-74.79,2.67-93.49-7.12-18.7-28.94-47.19-69-47.19Z"/>
          <path class="cls-2" d="M382.39,290.33c-3.56-8.76-1.64-51.54-1.64-51.54l-45.37,20.57s.49,15.07,9.66,33.54c16.21,32.66,31.04,43.54,31.04,43.54l23.87,2.32v-40.18s-14.01.51-17.57-8.24Z"/>
          <path class="cls-6" d="M473.27,225.23h-5.12c-2.57,0-4.67,2.1-4.67,4.67s2.1,4.67,4.67,4.67h5.12c2.57,0,4.67-2.1,4.67-4.67s-2.1-4.67-4.67-4.67Z"/>
          <path class="cls-2" d="M397.05,297.13c-13.13,0-23.87,10.74-23.87,23.87v13.99c11.96,6.56,23.87,6.32,23.87,6.32,0,0,11.91.24,23.87-6.32v-13.99c0-13.13-10.74-23.87-23.87-23.87Z"/>
          <path class="cls-7" d="M399.96,298.57c-13.13,0-23.87,10.74-23.87,23.87v13.99c11.96,6.56,23.87,6.32,23.87,6.32,0,0,11.91.24,23.87-6.32v-13.99c0-13.13-10.74-23.87-23.87-23.87Z"/>
          <path class="cls-1" d="M415.02,311.25c-.67,0-1.22.55-1.22,1.22v20.84c0,.67.55,1.22,1.22,1.22s1.22-.55,1.22-1.22v-20.84c0-.67-.55-1.22-1.22-1.22Z"/>
          <path class="cls-1" d="M405.56,311.25c-.67,0-1.22.55-1.22,1.22v20.84c0,.67.55,1.22,1.22,1.22s1.22-.55,1.22-1.22v-20.84c0-.67-.55-1.22-1.22-1.22Z"/>
          <path class="cls-1" d="M395.83,311.25c-.67,0-1.22.55-1.22,1.22v20.84c0,.67.55,1.22,1.22,1.22s1.22-.55,1.22-1.22v-20.84c0-.67-.55-1.22-1.22-1.22Z"/>
          <path class="cls-1" d="M386.37,311.25c-.67,0-1.22.55-1.22,1.22v20.84c0,.67.55,1.22,1.22,1.22s1.22-.55,1.22-1.22v-20.84c0-.67-.55-1.22-1.22-1.22Z"/>
          <path class="cls-7" d="M423.83,201.96h20.54v-55.52c-5.83-4.46-12.67-8.26-20.54-10.89v66.4Z"/>
          <path class="cls-7" d="M355.56,201.96h20.54v-66.4c-7.88,2.62-14.71,6.42-20.54,10.89v55.52Z"/>
          <path class="cls-9" d="M471.46,184.34c-1.09,4.32-3.69,11.07-9.54,13.7-8.76,3.94-60.26,1.88-61.89,1.81h0s-.03,0-.04,0c0,0-.04,0-.04,0h0c-1.62.07-53.12,2.13-61.89-1.81-5.85-2.63-8.44-9.38-9.54-13.7-.11-.43-.73-.33-.73.11v46.45c0,4.36,1.89,13.02,2.84,16.13,2.75,9.02,12.85,24.05,27.99,32.95,14.89,8.76,40.5,10.62,41.32,10.68h0s.03,0,.04,0,.04,0,.04,0h0c.82-.06,26.43-1.92,41.32-10.68,15.14-8.9,25.24-23.93,27.99-32.95.95-3.11,2.85-11.77,2.84-16.13v-46.45c0-.44-.62-.54-.73-.11Z"/>
          <path class="cls-11" d="M462.15,199.49c-8.35,3.76-56.27,2.76-62.19,2.62v-.03s-.21,0-.6.02h0c-5.89.14-53.17,1.15-61.51-2.6-8.9-4.01-10.02-14.82-10.02-14.82l-.1,48.46c0,4.36,1.89,13.02,2.84,16.13,2.75,9.02,12.85,24.05,27.99,32.95,13.86,8.15,36.97,10.33,40.8,10.64v.05s.11,0,.31-.02c.19.01.3.02.3.02v-.05c3.88-.31,27.61-2.48,41.48-10.64,15.14-8.9,25.24-23.93,27.99-32.95.95-3.11,2.85-11.77,2.84-16.13l-.1-48.46s-1.11,10.81-10.02,14.82Z"/>
          <polygon class="cls-4" points="359.73 282.85 373.17 288.16 373.17 203.47 359.73 202.01 359.73 282.85"/>
          <path class="cls-5" d="M412.77,202.6l-.27,88.55s15.54-2.17,26-7.36c11.07-5.5,20.15-16.26,20.15-16.26v-67.06s-5.24.58-7.71.95c-2.46.37-38.17,1.19-38.17,1.19Z"/>
          <path class="cls-12" d="M401.22,201.31c-31.72.23-57.44-.52-57.46.09-.03.57,25.7,2.27,57.48,2.04,31.78-.19,57.48-2.24,57.45-2.8-.04-.61-25.74.48-57.46.67Z"/>
          <path class="cls-2" d="M348.12,159.33c-12.59,16.77-16.42,39.61-16.42,39.61l40.52,3.02s-.47-22.55,1.14-34.79c4.65-35.43,50.47-31.61,50.47-31.61,0,0-47.73-13.51-75.71,23.77Z"/>
          <path class="cls-3" d="M446.62,154.03c-12.85-9.51-29.1-9.34-36.3.38-7.19,9.72-2.61,25.31,10.25,34.82,12.85,9.51,29.1,9.34,36.3-.38,7.19-9.72,2.61-25.31-10.25-34.82Z"/>
        </g>
      </g>
    </g>
  </g>
</svg>