<?xml version="1.0" encoding="UTF-8"?>
<svg xmlns="http://www.w3.org/2000/svg" viewBox="0 0 800 800">
  <defs>
    <style>
      .cls-1 {
        fill: #e2bddf;
        mix-blend-mode: multiply;
      }

      .cls-2 {
        fill: #75260c;
      }

      .cls-3 {
        isolation: isolate;
      }

      .cls-4 {
        fill: #fff;
      }

      .cls-5 {
        fill: #ffa61d;
      }

      .cls-6 {
        fill: #f9c2ce;
        mix-blend-mode: soft-light;
      }

      .cls-7 {
        fill: #b26d02;
      }
    </style>
  </defs>
  <g class="cls-3">
    <g id="Livello_1" data-name="Livello 1">
      <g>
        <path class="cls-7" d="M278.9,202.98c-18.31,2.73-16.85,61.5,31.22,66.04,59.53,5.63,235.8-65.41,235.8-65.41,0,0-207.64-9.47-267.02-.63Z"/>
        <path class="cls-1" d="M336.52,248.6c-20.82,1.39-35.01,1.06-42.75-15.53-8.18-17.51,3.69-32.7,3.69-32.7l-11.67,1.73s-17.74,16.66.5,44.11c12.15,18.29,46.81,15.1,71.42,9.65,24.61-5.45,48.72-14.9,48.72-14.9l-9.51-4.86s-39.08,11.09-60.39,12.51Z"/>
        <path class="cls-1" d="M357.52,228.62c-20.82,1.39-37.92.74-42.38-11.9-2-5.66-1.12-13.57,1.49-18.92l-10.04,1.25c-3.53,5.58-7.49,18.28-.37,29,12.15,18.29,48.15,11.69,72.76,6.24,2.73-.61,5.46-1.26,8.15-1.95l-7.83-7.9c-7.72,2.1-15.45,3.75-21.78,4.17Z"/>
        <path class="cls-1" d="M378.33,210.05c-20.82,1.39-37.92.74-42.38-11.9-.25-.71-.46-1.46-.62-2.24l-13.03,3.15c-.13,5.04.84,10.17,3.8,14.31,8.92,12.45,48.25,5.82,72.86.37,2.73-.61,1.15-7.86,1.15-7.86-7.72,2.1-15.45,3.75-21.78,4.17Z"/>
        <path class="cls-4" d="M484.51,493.79l84.49,84.49c-23.33,23.33-53.91,34.99-84.49,34.99-30.58,0-61.16-11.67-84.49-35l-.02-.02-.02.02c-23.33,23.33-53.91,34.99-84.49,35-30.58,0-61.16-11.66-84.49-34.99l84.49-84.49c23.33-23.33,53.91-35,84.49-35,0,0,.01,0,.02,0s.01,0,.02,0c30.58,0,61.16,11.66,84.49,35ZM400,316.75c35.91,0,65.01-29.11,65.01-65.01s-29.11-65.01-65.01-65.01-65.01,29.11-65.01,65.01,29.11,65.01,65.01,65.01ZM513.45,315.29c-52.86,0-97.7,34.33-113.45,81.92-15.75-47.58-60.59-81.92-113.45-81.92h-119.49c0,65.99,53.5,119.49,119.49,119.49h226.9c65.99,0,119.49-53.5,119.49-119.49h0s-119.49,0-119.49,0Z"/>
        <g>
          <path class="cls-5" d="M406.98,200.74c-30.35,0-51.34-8.46-51.34-8.46l-77.48,10.69s33.32-3,63.76,10.69c58.25,26.18,87.26,64.12,158.46,59.91,44.27-2.62,45.53-69.95,45.53-69.95l-88.72-11.33s-19.87,8.46-50.22,8.46Z"/>
          <path class="cls-5" d="M406.42,138.84c-28.04,0-50.78,23.92-50.78,53.43,0,0,23.29,9.39,51.34,9.39s50.22-9.39,50.22-9.39c0-29.51-22.73-53.43-50.78-53.43Z"/>
          <path class="cls-1" d="M485.21,249.99c-55.53,4.46-96.84-29.37-145.72-45.91-14.52-4.91-26.73-5.89-26.73-5.89l-13.43,1.85s23.23,2.44,36.63,7.2c51.09,18.13,95.72,57.25,150.74,57.25,44.98,0,47.89-62.33,47.89-62.33l-14.81-2.12s-7.73,47.79-34.57,49.95Z"/>
          <path class="cls-1" d="M469.63,222.34c-19,3.86-47.82,2.63-96.32-15.97-29.55-11.33-37.72-11.33-37.72-11.33l-10.96,1.51s17.64,1.64,39.52,11.75c51.04,23.61,84.07,31.84,113.25,25.97,22.18-4.46,26.41-36.04,26.41-36.04l-15.62-2s-2.76,22.9-18.55,26.11Z"/>
          <path class="cls-1" d="M404.36,201.67c-26.02,0-48.71-9.39-48.71-9.39l-5.94.82s27.94,10.01,55.21,15.45c63.38,12.64,69.14-14.11,69.14-14.11l-16.85-2.15s-26.82,9.39-52.85,9.39Z"/>
          <path class="cls-1" d="M404.34,172.18c-16.15,0-32.38-4.4-41.42-7.34-2.81,4.91-4.91,10.32-6.09,16.09,5.4,1.5,28.5,7.6,47,7.6s45.62-6.8,52-8.47c-1.18-5.29-3.1-10.27-5.65-14.83-10,2.63-28.98,6.95-45.83,6.95Z"/>
          <path class="cls-1" d="M405.35,141.69c-4.19,0-8.39-.33-12.45-.87-8.08,2.35-15.35,6.74-21.28,12.62,9.27,2.17,22.12,4.6,33.24,4.6s25.28-2.67,35.89-5.07c-5.92-5.73-13.12-9.98-21.12-12.24-4.76.58-9.6.96-14.27.96Z"/>
          <path class="cls-2" d="M463.45,230.87c-23.24-18.63-24.19-31.85-24.2-31.97-.04-.99-.86-1.81-1.85-1.72-.99.04-1.76.86-1.72,1.85.02.6.81,14.81,25.53,34.63,16.66,13.36,19.06,29.97,19.08,30.14.12.9.89,1.55,1.77,1.55.08,0,.16,0,.24-.02.98-.13,1.66-1.02,1.53-2-.09-.73-2.55-18.16-20.39-32.46Z"/>
          <path class="cls-2" d="M472.19,218.77c-26.6-7.13-31.92-20.96-31.99-21.17-.33-.93-1.35-1.41-2.27-1.09-.93.32-1.42,1.34-1.1,2.27.22.64,5.77,15.76,34.44,23.44,19.53,5.23,23.02,9.95,23.03,9.95.33.57.93.88,1.54.88.31,0,.62-.08.9-.25.85-.5,1.13-1.59.63-2.44-.35-.59-4-5.91-25.17-11.58Z"/>
          <path class="cls-2" d="M495.83,228c-1.85,0-3.34,1.5-3.34,3.34s1.5,3.34,3.34,3.34,3.34-1.5,3.34-3.34-1.5-3.34-3.34-3.34Z"/>
          <circle class="cls-2" cx="482.07" cy="263.56" r="3.34"/>
          <path class="cls-6" d="M418.41,150.05c-8.02,3.93-10.13,16.07-4.71,27.12,5.42,11.05,16.31,16.81,24.33,12.88,8.02-3.93,10.13-16.07,4.71-27.12-5.42-11.05-16.31-16.81-24.33-12.88Z"/>
          <path class="cls-6" d="M319.16,206.21s16.8,1.03,50.71,21.78c33.91,20.75,47.09,27.34,47.09,27.34l5.11-53.23-57.86-7.06-45.05,11.17Z"/>
          <path class="cls-6" d="M451.23,195.92l85.9,48.45s5.68-17.71,6.93-23.9c1.25-6.19,1.85-16.86,1.85-16.86l-88.72-11.33-5.97,3.64Z"/>
          <path class="cls-2" d="M456.64,190.58c-.28.09-28.39,9.3-52.28,9.3s-47.83-9.18-48.07-9.27c-.92-.35-1.95.1-2.31,1.02-.36.92.1,1.95,1.02,2.31,1,.39,24.83,9.51,49.35,9.51s53.12-9.39,53.41-9.48c.94-.31,1.44-1.32,1.13-2.26-.31-.94-1.32-1.44-2.26-1.13Z"/>
        </g>
      </g>
    </g>
  </g>
</svg>