<?xml version="1.0" encoding="UTF-8"?>
<svg xmlns="http://www.w3.org/2000/svg" viewBox="0 0 800 800">
  <defs>
    <style>
      .cls-1 {
        fill: #c4bf81;
      }

      .cls-1, .cls-2 {
        mix-blend-mode: multiply;
      }

      .cls-3 {
        fill: #bdabd3;
        mix-blend-mode: soft-light;
      }

      .cls-4 {
        fill: #75260c;
      }

      .cls-5 {
        isolation: isolate;
      }

      .cls-6 {
        fill: #0b0b0b;
      }

      .cls-7 {
        fill: #fff;
      }

      .cls-8 {
        fill: #91513d;
      }

      .cls-9 {
        fill: #c4a481;
      }
    </style>
  </defs>
  <g class="cls-5">
    <g id="Livello_1" data-name="Livello 1">
      <g>
        <path class="cls-7" d="M484.51,493.79l84.49,84.49c-23.33,23.33-53.91,34.99-84.49,34.99-30.58,0-61.16-11.67-84.49-35l-.02-.02-.02.02c-23.33,23.33-53.91,34.99-84.49,35-30.58,0-61.16-11.66-84.49-34.99l84.49-84.49c23.33-23.33,53.91-35,84.49-35,0,0,.01,0,.02,0s.01,0,.02,0c30.58,0,61.16,11.66,84.49,35ZM400,316.75c35.91,0,65.01-29.11,65.01-65.01s-29.11-65.01-65.01-65.01-65.01,29.11-65.01,65.01,29.11,65.01,65.01,65.01ZM513.45,315.29c-52.86,0-97.7,34.33-113.45,81.92-15.75-47.58-60.59-81.92-113.45-81.92h-119.49c0,65.99,53.5,119.49,119.49,119.49h226.9c65.99,0,119.49-53.5,119.49-119.49h0s-119.49,0-119.49,0Z"/>
        <g>
          <path class="cls-4" d="M441.93,154.98c-12.33-8.94-34.49-8.16-41.93-8.16s-29.59-.78-41.93,8.16c-15.28,11.08-13.87,62.24-13.87,62.24,0,0,17,8,55.79,8s55.79-8,55.79-8c0,0,1.42-51.16-13.87-62.24Z"/>
          <path class="cls-6" d="M344.17,207.74v12.04s25.01,15.28,55.78,15.28,55.78-13.31,55.78-13.31v-12.64s-22.06,7.51-55.73,7.51-55.83-8.88-55.83-8.88Z"/>
          <path class="cls-1" d="M381.61,205.09c-18.05-10.33-21.13-43.55-4.59-56.99-6.84,1.1-13.76,3.13-18.95,6.89-14.56,10.55-13.96,57.47-13.87,61.87.81.44,1.66.9,2.53,1.36,6.02,2.14,23.02,10.98,53.27,10.98,38.79,0,55.79-11.97,55.79-11.97,0,0,.01-.56.02-1.53-2.1-.26-4.72-3.54-10.82-3.24-23.9,1.16-43.52,4.02-63.39-7.36Z"/>
          <path class="cls-8" d="M471,204.34c-5.09-1.78-11.97,4.1-27.08,11.99-11.57,6.05-27.43,10.64-43.97,10.64s-35.58-5.57-47.38-13.12c-13.69-8.75-18.48-11.3-23.57-9.52-3.46,1.21-.73,11.92,8.57,19.21,9.3,7.29,41.02,13.7,62.44,13.7s53.14-6.41,62.44-13.7c9.3-7.29,12.03-18,8.57-19.21Z"/>
          <path class="cls-3" d="M427.8,152.6c-10.7-.94-19.86,3.79-20.46,10.57-.6,6.78,7.59,13.04,18.29,13.99,10.7.94,19.86-3.79,20.46-10.57.6-6.78-7.59-13.04-18.29-13.99Z"/>
          <g class="cls-2">
            <path class="cls-9" d="M342.34,221.49c-7.59-5.95-10.8-14.18-9.84-17.66-1.22-.06-2.36.11-3.51.51-3.46,1.21-.73,11.92,8.57,19.21,9.3,7.29,41.02,13.7,62.44,13.7,18.72,0,45.8-5,58.28-11.19-13.75,5.2-36.91,9.13-53.51,9.13-21.42,0-53.14-6.41-62.44-13.7Z"/>
          </g>
        </g>
      </g>
    </g>
  </g>
</svg>