<?xml version="1.0" encoding="UTF-8"?>
<svg xmlns="http://www.w3.org/2000/svg" xmlns:xlink="http://www.w3.org/1999/xlink" viewBox="0 0 800 800">
  <defs>
    <style>
      .cls-1 {
        fill: none;
      }

      .cls-2 {
        fill: #ff724f;
        mix-blend-mode: screen;
      }

      .cls-3 {
        fill: #f10000;
      }

      .cls-4 {
        fill: #d60000;
      }

      .cls-5 {
        fill: #d10000;
        mix-blend-mode: multiply;
      }

      .cls-6 {
        isolation: isolate;
      }

      .cls-7 {
        fill: #fff;
      }

      .cls-8 {
        fill: #c70000;
      }

      .cls-9 {
        fill: red;
      }

      .cls-10 {
        clip-path: url(#clippath);
      }
    </style>
    <clipPath id="clippath">
      <rect class="cls-1" x="-2922.93" y="1978.41" width="1920" height="1080"/>
    </clipPath>
  </defs>
  <g class="cls-6">
    <g id="Livello_1" data-name="Livello 1">
      <g class="cls-10">
        <image width="4240" height="2714" transform="translate(-3718.87 705.05) scale(1.01)" xlink:href="../bg.png"/>
      </g>
      <g>
        <path class="cls-7" d="M484.51,493.79l84.49,84.49c-23.33,23.33-53.91,34.99-84.49,34.99-30.58,0-61.16-11.67-84.49-35l-.02-.02-.02.02c-23.33,23.33-53.91,34.99-84.49,35-30.58,0-61.16-11.66-84.49-34.99l84.49-84.49c23.33-23.33,53.91-35,84.49-35,0,0,.01,0,.02,0s.01,0,.02,0c30.58,0,61.16,11.66,84.49,35ZM400,316.75c35.91,0,65.01-29.11,65.01-65.01s-29.11-65.01-65.01-65.01-65.01,29.11-65.01,65.01,29.11,65.01,65.01,65.01ZM513.45,315.29c-52.86,0-97.7,34.33-113.45,81.92-15.75-47.58-60.59-81.92-113.45-81.92h-119.49c0,65.99,53.5,119.49,119.49,119.49h226.9c65.99,0,119.49-53.5,119.49-119.49h0s-119.49,0-119.49,0Z"/>
        <g>
          <g>
            <path class="cls-8" d="M448.86,172.81c-20.05-16.26-48.86-16.26-48.86-16.26,0,0-28.82,0-48.86,16.26-13.54,10.98-17.04,71.45-17.04,71.45l3.26,1.87,62.64-9.33,62.64,9.33,3.26-1.87s-3.5-60.47-17.04-71.45Z"/>
            <path class="cls-3" d="M448.86,172.81c-20.05-16.26-48.86-16.26-48.86-16.26,0,0,12.45,5.26,22.35,16.63,7.58,8.71,9.83,46.51,10.6,60.48.1,1.88,23.23,11.51,23.23,11.51l6.47.96,3.26-1.87s-3.5-60.47-17.04-71.45Z"/>
            <path class="cls-5" d="M366.75,226.69c.77-13.97,3.31-44.81,10.9-53.51,9.9-11.37,22.35-16.63,22.35-16.63,0,0-28.82,0-48.86,16.26-13.54,10.98-17.04,71.45-17.04,71.45l3.26,1.87,6.47-.96,118.82.96s-23.59-16.72-50.07-21.65c-20.81-3.88-45.92,4.1-45.82,2.22Z"/>
            <path class="cls-9" d="M400,229.31s-26.56-.8-62.64,19.19c0,0-3.51,17.86,0,19.46,3.51,1.6,28.57-19.46,62.64-19.46s59.14,21.06,62.64,19.46c3.51-1.6,0-19.46,0-19.46-36.08-19.99-62.64-19.19-62.64-19.19Z"/>
            <path class="cls-9" d="M400,226.93s-26.56-.8-62.64,19.2c0,0-3.51,17.86,0,19.46,3.51,1.6,28.57-19.46,62.64-19.46s59.14,21.06,62.64,19.46c3.51-1.6,0-19.46,0-19.46-36.08-19.99-62.64-19.2-62.64-19.2Z"/>
            <path class="cls-4" d="M395.23,151.75h9.55c1.79,0,3.24,1.45,3.24,3.24v1.51c0,1.79-1.45,3.24-3.24,3.24h-9.55c-1.79,0-3.24-1.45-3.24-3.24v-1.51c0-1.79,1.45-3.24,3.24-3.24Z"/>
            <path class="cls-3" d="M403.55,153.08c-1.96,0-3.55,1.27-3.55,2.83s1.59,2.83,3.55,2.83,3.55-1.27,3.55-2.83-1.59-2.83-3.55-2.83Z"/>
            <path class="cls-8" d="M337.3,265.54c.43-.01.85-.01,1.23.03h0c4.57-1.07,18.79-11.2,38.66-16.4.68-.31,1.07-.49,1.07-.49,0,0-1.22-11.64,3.3-15.33,4.51-3.69,16.78-6.39,16.81-6.4-6.27.19-30.15,2.08-61.01,19.18,0,0-3.46,17.62-.06,19.41Z"/>
          </g>
          <path class="cls-2" d="M463.56,256.24c.18,2.54.26,8.75-.2,10.16-.46,1.41-17.44-9.62-27.97-13.24-10.53-3.62-28.39-7.92-40.39-6.32-11.99,1.6-10.73-.39-5.28-1.34,10.28-1.79,20.81-3,43.23,3.99,14.86,4.64,24.41,11.58,26.99,8.8,2.58-2.78.62-7.92,1.24-8.01,1.66-.25,2.26,4.35,2.38,5.95Z"/>
        </g>
      </g>
    </g>
  </g>
</svg>