<?xml version="1.0" encoding="UTF-8"?>
<svg xmlns="http://www.w3.org/2000/svg" viewBox="0 0 800 800">
  <defs>
    <style>
      .cls-1 {
        fill: #d60000;
      }

      .cls-2 {
        fill: #ebf3ef;
      }

      .cls-3 {
        fill: #75260c;
      }

      .cls-4 {
        isolation: isolate;
      }

      .cls-5 {
        fill: #fff;
      }

      .cls-6 {
        fill: #ffa61d;
      }

      .cls-7 {
        fill: #e0d181;
        mix-blend-mode: multiply;
      }

      .cls-8 {
        fill: #b26d02;
      }
    </style>
  </defs>
  <g class="cls-4">
    <g id="Livello_1" data-name="Livello 1">
      <g>
        <path class="cls-5" d="M484.51,493.79l84.49,84.49c-23.33,23.33-53.91,34.99-84.49,34.99-30.58,0-61.16-11.67-84.49-35l-.02-.02-.02.02c-23.33,23.33-53.91,34.99-84.49,35-30.58,0-61.16-11.66-84.49-34.99l84.49-84.49c23.33-23.33,53.91-35,84.49-35,0,0,.01,0,.02,0s.01,0,.02,0c30.58,0,61.16,11.66,84.49,35ZM400,316.75c35.91,0,65.01-29.11,65.01-65.01s-29.11-65.01-65.01-65.01-65.01,29.11-65.01,65.01,29.11,65.01,65.01,65.01ZM513.45,315.29c-52.86,0-97.7,34.33-113.45,81.92-15.75-47.58-60.59-81.92-113.45-81.92h-119.49c0,65.99,53.5,119.49,119.49,119.49h226.9c65.99,0,119.49-53.5,119.49-119.49h0s-119.49,0-119.49,0Z"/>
        <g>
          <path class="cls-8" d="M399.52,231.94c-70.69,0-128.7-13.64-134.89-31.03l3.56,19.02c1.66,8.86,7.69,16.27,16.05,19.66,16.39,6.65,50.15,15.21,115.28,15.21s98.89-8.57,115.28-15.21c8.36-3.39,14.39-10.8,16.05-19.66l3.56-19.02c-6.19,17.39-64.2,31.03-134.89,31.03Z"/>
          <path class="cls-3" d="M399.52,174.88c-74.82,0-135.47,15.27-135.47,34.11s60.65,34.11,135.47,34.11,135.47-15.27,135.47-34.11-60.65-34.11-135.47-34.11ZM399.52,237.15c-85.04,0-129.52-18.33-129.52-28.16s44.48-28.16,129.52-28.16,129.52,18.33,129.52,28.16-44.48,28.16-129.52,28.16Z"/>
          <path class="cls-2" d="M399.52,169.67c-74.82,0-135.47,15.27-135.47,34.11s60.65,34.11,135.47,34.11,135.47-15.27,135.47-34.11-60.65-34.11-135.47-34.11ZM399.52,231.94c-85.04,0-129.52-18.33-129.52-28.16s44.48-28.16,129.52-28.16,129.52,18.33,129.52,28.16-44.48,28.16-129.52,28.16Z"/>
          <path class="cls-6" d="M399.52,163.73c-74.82,0-135.47,15.27-135.47,34.11s60.65,34.11,135.47,34.11,135.47-15.27,135.47-34.11-60.65-34.11-135.47-34.11Z"/>
          <path class="cls-7" d="M440.54,171.27c-8.91-2.79-89.09,14.69-89.09,14.69-53.03-1.98-78.81,4.46-82.33,8.58-3.52,4.12,2.53,11.24,21.36,21.54,18.83,10.3,93.16,11.78,93.16,11.78l69.53-22.45s-3.73-31.35-12.64-34.14Z"/>
          <path class="cls-1" d="M399.52,163.73c-74.82,0-135.47,15.27-135.47,34.11s60.65,34.11,135.47,34.11,135.47-15.27,135.47-34.11-60.65-34.11-135.47-34.11ZM399.52,226c-85.04,0-129.52-18.33-129.52-28.16s44.48-28.16,129.52-28.16,129.52,18.33,129.52,28.16-44.48,28.16-129.52,28.16Z"/>
          <path class="cls-6" d="M399.52,112.43c-23.7,0-53.66,92.98-53.66,92.98,0,0,12.35,6.37,53.66,6.37s53.66-6.37,53.66-6.37c0,0-29.96-92.98-53.66-92.98Z"/>
          <path class="cls-7" d="M271.8,214.35c-2.84,0-5.14,2.67-5.14,5.96s2.3,5.96,5.14,5.96,5.14-2.67,5.14-5.96-2.3-5.96-5.14-5.96Z"/>
          <path class="cls-2" d="M269.13,213.17c-3.62,0-6.55,2.93-6.55,6.55s2.93,6.55,6.55,6.55,6.55-2.93,6.55-6.55-2.93-6.55-6.55-6.55Z"/>
          <path class="cls-7" d="M299.05,226.2c-4.18,0-7.57,3.07-7.57,6.86s3.39,6.86,7.57,6.86,7.57-3.07,7.57-6.86-3.39-6.86-7.57-6.86Z"/>
          <path class="cls-7" d="M334.38,233.06c-4.12,0-7.47,3.07-7.47,6.86s3.34,6.86,7.47,6.86,7.47-3.07,7.47-6.86-3.34-6.86-7.47-6.86Z"/>
          <path class="cls-7" d="M375.46,237.03c-4.23,0-7.66,3.07-7.66,6.86s3.43,6.86,7.66,6.86,7.66-3.07,7.66-6.86-3.43-6.86-7.66-6.86Z"/>
          <path class="cls-7" d="M421.9,237.03c-4.14,0-7.5,3.07-7.5,6.86s3.36,6.86,7.5,6.86,7.5-3.07,7.5-6.86-3.36-6.86-7.5-6.86Z"/>
          <path class="cls-7" d="M462.68,233.46c-4.12,0-7.46,3.07-7.46,6.86s3.34,6.86,7.46,6.86,7.46-3.07,7.46-6.86-3.34-6.86-7.46-6.86Z"/>
          <path class="cls-7" d="M497.72,227.14c-4.13,0-7.48,3.07-7.48,6.86s3.35,6.86,7.48,6.86,7.48-3.07,7.48-6.86-3.35-6.86-7.48-6.86Z"/>
          <ellipse class="cls-7" cx="526.05" cy="221.97" rx="3.71" ry="5.9"/>
          <circle class="cls-2" cx="300.81" cy="232.82" r="6.55"/>
          <path class="cls-2" d="M335.84,232.82c-3.62,0-6.55,2.93-6.55,6.55s2.93,6.55,6.55,6.55,6.55-2.93,6.55-6.55-2.93-6.55-6.55-6.55Z"/>
          <path class="cls-2" d="M377.1,237.03c-3.62,0-6.55,2.93-6.55,6.55s2.93,6.55,6.55,6.55,6.55-2.93,6.55-6.55-2.93-6.55-6.55-6.55Z"/>
          <path class="cls-2" d="M530.87,213.17c-3.62,0-6.55,2.93-6.55,6.55s2.93,6.55,6.55,6.55,6.55-2.93,6.55-6.55-2.93-6.55-6.55-6.55Z"/>
          <circle class="cls-2" cx="499.19" cy="232.82" r="6.55"/>
          <circle class="cls-2" cx="464.16" cy="239.37" r="6.55"/>
          <path class="cls-2" d="M423.4,237.03c-3.62,0-6.55,2.93-6.55,6.55s2.93,6.55,6.55,6.55,6.55-2.93,6.55-6.55-2.93-6.55-6.55-6.55Z"/>
          <path class="cls-8" d="M387.14,199.41c-5.79-10.85,9.92-76.02,12.62-86.95-.08,0-.16-.03-.23-.03-23.7,0-53.66,92.98-53.66,92.98,0,0,12.35,6.37,53.66,6.37,25.03,0,39.41-2.34,46.87-4.18-.19.01-52.95,3.64-59.26-8.19Z"/>
        </g>
      </g>
    </g>
  </g>
</svg>