<?xml version="1.0" encoding="UTF-8"?>
<svg xmlns="http://www.w3.org/2000/svg" xmlns:xlink="http://www.w3.org/1999/xlink" viewBox="0 0 800 800">
  <defs>
    <style>
      .cls-1 {
        fill: none;
      }

      .cls-2 {
        fill: url(#linear-gradient-2);
      }

      .cls-3 {
        fill: url(#linear-gradient);
      }

      .cls-4 {
        isolation: isolate;
      }

      .cls-5 {
        fill: #f1eff2;
      }

      .cls-5, .cls-6 {
        mix-blend-mode: multiply;
      }

      .cls-7 {
        fill: #fff;
      }

      .cls-8 {
        fill: #ffa61d;
      }

      .cls-6 {
        fill: #e0d181;
      }

      .cls-9 {
        clip-path: url(#clippath);
      }

      .cls-10 {
        fill: #d5deda;
      }

      .cls-11 {
        fill: #b26d02;
      }
    </style>
    <clipPath id="clippath">
      <rect class="cls-1" x="-2062.93" y="1978.41" width="1920" height="1080"/>
    </clipPath>
    <linearGradient id="linear-gradient" x1="327.04" y1="30.89" x2="327.04" y2="117.76" gradientUnits="userSpaceOnUse">
      <stop offset="0" stop-color="#878787"/>
      <stop offset=".26" stop-color="#898a8a"/>
      <stop offset=".46" stop-color="#929493"/>
      <stop offset=".64" stop-color="#a1a4a3"/>
      <stop offset=".82" stop-color="#b6bcb9"/>
      <stop offset=".98" stop-color="#d1dad6"/>
      <stop offset="1" stop-color="#d5deda"/>
    </linearGradient>
    <linearGradient id="linear-gradient-2" x1="472.96" y1="34.41" x2="472.96" y2="111.52" xlink:href="#linear-gradient"/>
  </defs>
  <g class="cls-4">
    <g id="Livello_1" data-name="Livello 1">
      <g class="cls-9">
        <image width="4240" height="2714" transform="translate(-2858.87 705.05) scale(1.01)" xlink:href="../bg.png"/>
      </g>
      <g>
        <path class="cls-7" d="M484.51,493.79l84.49,84.49c-23.33,23.33-53.91,34.99-84.49,34.99-30.58,0-61.16-11.67-84.49-35l-.02-.02-.02.02c-23.33,23.33-53.91,34.99-84.49,35-30.58,0-61.16-11.66-84.49-34.99l84.49-84.49c23.33-23.33,53.91-35,84.49-35,0,0,.01,0,.02,0s.01,0,.02,0c30.58,0,61.16,11.66,84.49,35ZM400,316.75c35.91,0,65.01-29.11,65.01-65.01s-29.11-65.01-65.01-65.01-65.01,29.11-65.01,65.01,29.11,65.01,65.01,65.01ZM513.45,315.29c-52.86,0-97.7,34.33-113.45,81.92-15.75-47.58-60.59-81.92-113.45-81.92h-119.49c0,65.99,53.5,119.49,119.49,119.49h226.9c65.99,0,119.49-53.5,119.49-119.49h0s-119.49,0-119.49,0Z"/>
        <g>
          <path class="cls-11" d="M400,140.79v.04c-15.9,0-35.32,15.28-48.42,35.73-14.41,22.5-17.44,53.43-15.03,57.1,9.58,14.61,63.44,13.36,63.44,13.36v-.04s53.86,1.25,63.44-13.36c2.41-3.67-.61-34.6-15.03-57.1-13.1-20.45-32.52-35.73-48.42-35.73Z"/>
          <path class="cls-6" d="M370.14,154.8c2.1,9.84,10.34,52.08-.45,61.19-5.4,4.55-25.21-1.87-31.84-4.2-.6,2.87-1.06,5.59-1.38,8.07,7.48,2.37,32.64,9.73,39.79,3.7,13.83-11.66,4.37-65.17,2.44-75.27-2.89,1.87-5.75,4.07-8.55,6.52Z"/>
          <path class="cls-8" d="M371.62,153.51s12.24,54.09,0,64.63c-6.52,5.61-34.03-5.1-34.03-5.1-.59,3-1.03,5.82-1.32,8.35,0,0,33.48,11.75,41.91,4.49,15.29-13.17,2.11-78.59,2.11-78.59-2.92,1.77-5.83,3.85-8.68,6.23Z"/>
          <path class="cls-6" d="M427.65,219.28c-11.2-9.89-2.83-55.45-.54-66.82-3-2.4-6.06-4.5-9.11-6.22-2.42,13.65-11.23,68.97,2.78,81.34,8.07,7.13,38.06-2.81,43.13-4.56-.25-2.66-.67-5.69-1.29-8.97-4.29,1.65-28.75,10.72-34.97,5.23Z"/>
          <path class="cls-8" d="M428.38,218.09c-12.24-10.54,0-64.63,0-64.63-2.85-2.38-5.76-4.46-8.68-6.23,0,0-13.17,65.43,2.11,78.59,8.43,7.26,41.91-4.49,41.91-4.49-.29-2.53-.73-5.35-1.32-8.35,0,0-27.51,10.72-34.03,5.1Z"/>
          <path class="cls-6" d="M368.44,219.49c-5.62-12.78,12.63-53.33,26.66-63.01,14.02-9.68,24.61-9.25,24.61-9.25-6.71-4.08-13.48-6.44-19.7-6.44v.04c-15.9,0-35.32,15.28-48.42,35.73-10.13,15.82-14.63,35.79-15.57,47.54-.71,14.2,32.51,21.19,51.35,22.76,3.87.14,7.12.18,9.36.18,19.29-.93,48.13-8.42,48.13-8.42,0,0-70.79-6.34-76.41-19.13Z"/>
          <path class="cls-6" d="M398,164.03c-2.95,0-5.33,2.39-5.33,5.33s2.39,5.33,5.33,5.33,5.33-2.39,5.33-5.33-2.39-5.33-5.33-5.33Z"/>
          <path class="cls-6" d="M397.66,185.4c-2.95,0-5.33,2.39-5.33,5.33s2.39,5.33,5.33,5.33,5.33-2.39,5.33-5.33-2.39-5.33-5.33-5.33Z"/>
          <path class="cls-6" d="M397.33,206.76c-2.95,0-5.33,2.39-5.33,5.33s2.39,5.33,5.33,5.33,5.33-2.39,5.33-5.33-2.39-5.33-5.33-5.33Z"/>
          <path class="cls-8" d="M400,164.03c-2.95,0-5.33,2.39-5.33,5.33s2.39,5.33,5.33,5.33,5.33-2.39,5.33-5.33-2.39-5.33-5.33-5.33Z"/>
          <path class="cls-8" d="M399.67,185.4c-2.95,0-5.33,2.39-5.33,5.33s2.39,5.33,5.33,5.33,5.33-2.39,5.33-5.33-2.39-5.33-5.33-5.33Z"/>
          <path class="cls-8" d="M399.33,206.76c-2.95,0-5.33,2.39-5.33,5.33s2.39,5.33,5.33,5.33,5.33-2.39,5.33-5.33-2.39-5.33-5.33-5.33Z"/>
          <path class="cls-8" d="M463.99,224.06c-.13.87-.31,1.51-.55,1.88-9.58,14.61-63.44,13.36-63.44,13.36v.04s-53.86,1.25-63.44-13.36c-.24-.36-.42-1.01-.55-1.88-2.74.37-3.91,5.65-1.87,9.14,8.82,15.08,65.86,13.77,65.86,13.77v-.04s57.05,1.31,65.86-13.77c2.04-3.49.87-8.77-1.87-9.14Z"/>
          <path class="cls-10" d="M400,104.73v.04c-3.01,0-13.04,39.04-13.04,39.04h13.04v-.04h13.04s-10.03-39.04-13.04-39.04Z"/>
          <path class="cls-3" d="M326.62,152.61c-15.03-14.36-15.36-50.75-14.69-56.43.67-5.68,6.34-18.37,1.67-20.03-4.67-1.67-24.71,26.38-17.7,71.12,7.01,44.74,42.31,62.84,42.31,62.84,0,0,7.48-4.5,15.35-19.42,7.72-14.64,5.93-24.7,5.93-24.7,0,0-17.84.98-32.87-13.38Z"/>
          <path class="cls-2" d="M486.41,76.1c-4.67,1.67,1,14.36,1.67,20.03.67,5.68.33,42.07-14.69,56.43-15.03,14.36-32.87,13.38-32.87,13.38,0,0-1.79,10.06,5.93,24.7,7.87,14.92,15.35,19.42,15.35,19.42,0,0,35.29-18.1,42.31-62.84,7.01-44.74-13.02-72.79-17.7-71.12Z"/>
          <path class="cls-5" d="M394.67,143.8s2.14-35.88,4.96-38.86c-3.38,2.72-12.67,38.86-12.67,38.86h7.7Z"/>
          <path class="cls-8" d="M413.02,140.83h-26.71c-1.47,0-2.67,1.2-2.67,2.67s1.2,2.67,2.67,2.67h26.71c1.47,0,2.67-1.2,2.67-2.67s-1.2-2.67-2.67-2.67Z"/>
          <path class="cls-5" d="M301.96,143.16c-5.24-33.42,4.61-57.51,11.88-66.88-.08-.04-.15-.11-.24-.14-4.67-1.67-24.71,26.38-17.7,71.12,7.01,44.74,42.31,62.84,42.31,62.84,0,0,2.07-1.26,5.17-4.6-5.52-3.16-35.06-21.83-41.41-62.35Z"/>
          <path class="cls-5" d="M488.07,96.13c.67,5.68.33,42.07-14.69,56.43-15.03,14.36-32.87,13.38-32.87,13.38,0,0-1.79,10.06,5.93,24.7,1.81,3.43,3.59,6.28,5.27,8.68,8.05-4.99,34.01-23.77,39.92-61.45,4.11-26.24-1.08-46.73-7.02-58.86-.42,4.51,2.95,12.82,3.46,17.12Z"/>
        </g>
      </g>
    </g>
  </g>
</svg>