<?xml version="1.0" encoding="UTF-8"?>
<svg xmlns="http://www.w3.org/2000/svg" xmlns:xlink="http://www.w3.org/1999/xlink" viewBox="0 0 800 800">
  <defs>
    <style>
      .cls-1 {
        fill: none;
      }

      .cls-2 {
        fill: #000045;
      }

      .cls-2, .cls-3 {
        mix-blend-mode: multiply;
      }

      .cls-4 {
        fill: #feffff;
        mix-blend-mode: soft-light;
      }

      .cls-5 {
        isolation: isolate;
      }

      .cls-6 {
        fill: #fff;
      }

      .cls-7 {
        fill: #270056;
      }

      .cls-8 {
        fill: #100027;
      }

      .cls-9 {
        fill: #ffa61d;
      }

      .cls-10 {
        fill: #3d0072;
      }

      .cls-11 {
        fill: #45007c;
      }

      .cls-3 {
        fill: #e0d181;
      }

      .cls-12 {
        clip-path: url(#clippath);
      }
    </style>
    <clipPath id="clippath">
      <rect class="cls-1" x="517.07" y="1978.41" width="1920" height="1080"/>
    </clipPath>
  </defs>
  <g class="cls-5">
    <g id="Livello_1" data-name="Livello 1">
      <g class="cls-12">
        <image width="4240" height="2714" transform="translate(-278.87 705.05) scale(1.01)" xlink:href="../bg.png"/>
      </g>
      <g>
        <path class="cls-6" d="M484.51,493.79l84.49,84.49c-23.33,23.33-53.91,34.99-84.49,34.99-30.58,0-61.16-11.67-84.49-35l-.02-.02-.02.02c-23.33,23.33-53.91,34.99-84.49,35-30.58,0-61.16-11.66-84.49-34.99l84.49-84.49c23.33-23.33,53.91-35,84.49-35,0,0,.01,0,.02,0s.01,0,.02,0c30.58,0,61.16,11.66,84.49,35ZM400,316.75c35.91,0,65.01-29.11,65.01-65.01s-29.11-65.01-65.01-65.01-65.01,29.11-65.01,65.01,29.11,65.01,65.01,65.01ZM513.45,315.29c-52.86,0-97.7,34.33-113.45,81.92-15.75-47.58-60.59-81.92-113.45-81.92h-119.49c0,65.99,53.5,119.49,119.49,119.49h226.9c65.99,0,119.49-53.5,119.49-119.49h0s-119.49,0-119.49,0Z"/>
        <g>
          <path class="cls-7" d="M400,197.9c-54.22,0-98.17-25.6-98.17-13.37s8.98,57.66,98.17,57.66,98.17-45.43,98.17-57.66-43.95,13.37-98.17,13.37Z"/>
          <path class="cls-8" d="M400,200.88c-54.22,0-98.17-25.6-98.17-13.37s8.98,57.66,98.17,57.66,98.17-45.43,98.17-57.66-43.95,13.37-98.17,13.37Z"/>
          <path class="cls-10" d="M400,197.9c-54.22,0-98.17-25.6-98.17-13.37s8.98,57.66,98.17,57.66,98.17-45.43,98.17-57.66-43.95,13.37-98.17,13.37Z"/>
          <path class="cls-2" d="M400,199.57c-47.98,0-87.9-22.04-96.45-17.78,5.24,19.7,25.34,51.46,96.45,51.46s90.7-31.85,96.3-51.55c-8.88-3.91-48.61,17.87-96.3,17.87Z"/>
          <path class="cls-8" d="M337.75,213.87c0,6.94,27.07,12.57,60.46,12.57s60.46-5.63,60.46-12.57l8.08-123.91h-137.08l8.08,123.91Z"/>
          <polygon class="cls-2" points="336.27 92.66 342.5 218.88 355.51 222.97 352.91 95.84 336.27 92.66"/>
          <path class="cls-9" d="M336.27,191.17l1.48,22.69c0,6.94,27.07,12.57,60.46,12.57s60.46-5.63,60.46-12.57l1.48-22.69c-11,4.25-34.59,7.18-61.94,7.18s-50.94-2.94-61.94-7.18Z"/>
          <path class="cls-4" d="M422.79,225.35s13.51-1.65,17.98-2.56c3.06-.62,12.14-3.57,12.14-3.57l7.23-126.56-37.35,7.27v125.42Z"/>
          <path class="cls-11" d="M398.2,77.39c-37.85,0-68.54,5.63-68.54,12.57s30.69,12.57,68.54,12.57,68.54-5.63,68.54-12.57-30.69-12.57-68.54-12.57Z"/>
          <path class="cls-3" d="M341.21,192.77l1.28,25.99c.32.16.7.3,1.05.45l9.6,3.02c.78.18,1.54.37,2.37.54l-.56-27.23c-5.29-.79-9.93-1.72-13.74-2.76Z"/>
        </g>
      </g>
    </g>
  </g>
</svg>