<?xml version="1.0" encoding="UTF-8"?>
<svg xmlns="http://www.w3.org/2000/svg" viewBox="0 0 800 800">
  <defs>
    <style>
      .cls-1 {
        fill: #ffc4bf;
        mix-blend-mode: soft-light;
      }

      .cls-2 {
        isolation: isolate;
      }

      .cls-3 {
        fill: #fff;
      }

      .cls-4 {
        fill: #ffa61d;
      }

      .cls-5 {
        fill: #e0d181;
        mix-blend-mode: multiply;
      }

      .cls-6 {
        fill: #b26d02;
      }
    </style>
  </defs>
  <g class="cls-2">
    <g id="Livello_1" data-name="Livello 1">
      <g>
        <path class="cls-3" d="M484.51,493.79l84.49,84.49c-23.33,23.33-53.91,34.99-84.49,34.99-30.58,0-61.16-11.67-84.49-35l-.02-.02-.02.02c-23.33,23.33-53.91,34.99-84.49,35-30.58,0-61.16-11.66-84.49-34.99l84.49-84.49c23.33-23.33,53.91-35,84.49-35,0,0,.01,0,.02,0s.01,0,.02,0c30.58,0,61.16,11.66,84.49,35ZM400,316.75c35.91,0,65.01-29.11,65.01-65.01s-29.11-65.01-65.01-65.01-65.01,29.11-65.01,65.01,29.11,65.01,65.01,65.01ZM513.45,315.29c-52.86,0-97.7,34.33-113.45,81.92-15.75-47.58-60.59-81.92-113.45-81.92h-119.49c0,65.99,53.5,119.49,119.49,119.49h226.9c65.99,0,119.49-53.5,119.49-119.49h0s-119.49,0-119.49,0Z"/>
        <g>
          <path class="cls-6" d="M400,106.75c-26.9.42-37.19,8.91-51.2,27.47-11.98,15.87-11.23,54.04-10.76,64.75,0,.12,0,.22.01.34.05,1.02.09,1.75.11,2.15,0,.08,0,.1,0,.16,0,.13.01.22.01.22,0,0,9.81,1.65,21.84,3.49,11.06.96,24.91,1.54,39.97,1.54,29.23,0,53.97-2.16,62.36-5.14,0,0,4.45-43.19-16.35-72.05-7.51-10.42-19.1-23.35-46-22.92Z"/>
          <path class="cls-4" d="M462.24,201.75c-8.49,2.96-33.14,5.1-62.24,5.1-15.06,0-28.91-.57-39.97-1.54-12.02-1.84-21.84-3.49-21.84-3.49,0,0,0-.09,0-.12-2.99.3-5.35,2.81-5.35,5.87v30.61c0,2.94,2.17,5.37,4.98,5.83,8.54,2.95,33.15,5.08,62.19,5.08s53.65-2.13,62.19-5.08c2.81-.46,4.98-2.9,4.98-5.83v-30.61c0-2.92-2.14-5.35-4.93-5.83Z"/>
          <path class="cls-5" d="M380.71,127.5c5.95-1.49,25.65,1.12,36.8-4.46,10.97-5.49,6.19-12.09,6.03-12.31-6.23-2.55-13.88-4.14-23.53-3.98-26.9.42-37.19,8.91-51.2,27.47-11.98,15.87-11.23,54.04-10.76,64.75,0,.12,0,.22.01.34.05,1.02.09,1.75.11,2.15,0,.08,0,.1,0,.16,0,.13.01.22.01.22,0,0,9.81,1.65,21.84,3.49,11.06.96,24.91,1.54,39.97,1.54,18.21,0,34.67-.84,46.53-2.19h0s-61.73.16-78.46-15.09c-16.73-15.24,6.69-60.59,12.64-62.08Z"/>
          <path class="cls-5" d="M338.22,206.86h.03c.97,0,1.75.78,1.75,1.75v31.27c0,.96-.78,1.75-1.75,1.75h-.03c-.96,0-1.75-.78-1.75-1.75v-31.27c0-.97.78-1.75,1.75-1.75Z"/>
          <rect class="cls-5" x="343.77" y="208.03" width="3.52" height="34.77" rx="1.75" ry="1.75"/>
          <rect class="cls-5" x="351.07" y="209.2" width="3.52" height="34.77" rx="1.75" ry="1.75"/>
          <path class="cls-5" d="M360.12,209.74h.03c.97,0,1.75.78,1.75,1.75v31.27c0,.96-.78,1.75-1.75,1.75h-.03c-.97,0-1.75-.78-1.75-1.75v-31.27c0-.97.78-1.75,1.75-1.75Z"/>
          <rect class="cls-5" x="365.67" y="210.24" width="3.52" height="34.77" rx="1.75" ry="1.75"/>
          <path class="cls-5" d="M374.72,210.85h.03c.96,0,1.75.78,1.75,1.75v31.27c0,.96-.78,1.75-1.75,1.75h-.03c-.97,0-1.75-.78-1.75-1.75v-31.27c0-.97.78-1.75,1.75-1.75Z"/>
          <path class="cls-5" d="M382.02,211.27h.03c.96,0,1.75.78,1.75,1.75v31.27c0,.96-.78,1.75-1.75,1.75h-.03c-.97,0-1.75-.78-1.75-1.75v-31.27c0-.96.78-1.75,1.75-1.75Z"/>
          <path class="cls-5" d="M389.32,211.27h.03c.96,0,1.75.78,1.75,1.75v31.27c0,.96-.78,1.75-1.75,1.75h-.03c-.97,0-1.75-.78-1.75-1.75v-31.27c0-.96.78-1.75,1.75-1.75Z"/>
          <path class="cls-5" d="M396.62,211.27h.03c.96,0,1.75.78,1.75,1.75v31.27c0,.96-.78,1.75-1.75,1.75h-.03c-.97,0-1.75-.78-1.75-1.75v-31.27c0-.96.78-1.75,1.75-1.75Z"/>
          <path class="cls-5" d="M403.92,211.27h.03c.96,0,1.75.78,1.75,1.75v31.27c0,.96-.78,1.75-1.75,1.75h-.03c-.97,0-1.75-.78-1.75-1.75v-31.27c0-.97.78-1.75,1.75-1.75Z"/>
          <path class="cls-5" d="M462.32,206.99h.03c.96,0,1.75.78,1.75,1.75v31.27c0,.97-.78,1.75-1.75,1.75h-.03c-.96,0-1.75-.78-1.75-1.75v-31.27c0-.97.78-1.75,1.75-1.75Z"/>
          <path class="cls-5" d="M455.02,208.16h.03c.96,0,1.75.78,1.75,1.75v31.27c0,.97-.78,1.75-1.75,1.75h-.03c-.97,0-1.75-.78-1.75-1.75v-31.27c0-.97.78-1.75,1.75-1.75Z"/>
          <path class="cls-5" d="M447.72,209.33h.03c.96,0,1.75.78,1.75,1.75v31.27c0,.96-.78,1.75-1.75,1.75h-.03c-.97,0-1.75-.78-1.75-1.75v-31.27c0-.97.78-1.75,1.75-1.75Z"/>
          <path class="cls-5" d="M440.42,209.87h.03c.96,0,1.75.78,1.75,1.75v31.27c0,.96-.78,1.75-1.75,1.75h-.03c-.96,0-1.75-.78-1.75-1.75v-31.27c0-.97.78-1.75,1.75-1.75Z"/>
          <path class="cls-5" d="M433.12,210.37h.03c.97,0,1.75.78,1.75,1.75v31.27c0,.96-.78,1.75-1.75,1.75h-.03c-.96,0-1.75-.78-1.75-1.75v-31.27c0-.96.78-1.75,1.75-1.75Z"/>
          <rect class="cls-5" x="424.07" y="210.98" width="3.52" height="34.77" rx="1.75" ry="1.75"/>
          <path class="cls-5" d="M418.52,211.4h.03c.96,0,1.75.78,1.75,1.75v31.27c0,.96-.78,1.75-1.75,1.75h-.03c-.97,0-1.75-.78-1.75-1.75v-31.27c0-.97.78-1.75,1.75-1.75Z"/>
          <path class="cls-5" d="M411.22,211.4h.03c.96,0,1.75.78,1.75,1.75v31.27c0,.96-.78,1.75-1.75,1.75h-.03c-.97,0-1.75-.78-1.75-1.75v-31.27c0-.96.78-1.75,1.75-1.75Z"/>
          <polygon class="cls-4" points="429.65 88.63 432.72 86.38 429.19 84.96 431.95 82.35 428.27 81.39 430.68 78.44 426.91 77.95 428.93 74.73 425.13 74.71 426.73 71.27 422.96 71.73 424.12 68.1 420.43 69.03 421.13 65.29 417.58 66.68 417.81 62.88 414.46 64.7 414.21 60.9 411.12 63.13 410.39 59.39 407.61 61.99 406.42 58.37 403.98 61.29 402.34 57.86 400.29 61.06 398.24 57.86 396.61 61.29 394.17 58.37 392.98 61.99 390.19 59.39 389.46 63.13 386.38 60.9 386.12 64.7 382.78 62.88 383 66.68 379.46 65.29 380.16 69.03 376.47 68.1 377.63 71.73 373.85 71.27 375.46 74.71 371.65 74.73 373.68 77.95 369.9 78.44 372.32 81.39 368.64 82.35 371.4 84.96 367.87 86.38 370.94 88.63 367.61 90.48 370.94 92.32 367.87 94.57 371.4 95.99 368.64 98.6 372.32 99.57 369.9 102.51 373.68 103 371.65 106.22 375.46 106.24 373.85 109.69 377.63 109.23 376.47 112.85 380.16 111.92 379.46 115.66 383 114.27 382.78 118.07 386.12 116.25 386.38 120.05 389.46 117.83 390.19 121.56 392.98 118.97 394.17 122.58 396.61 119.66 398.24 123.1 400.29 119.89 402.34 123.1 403.98 119.66 406.42 122.58 407.61 118.97 410.39 121.56 411.12 117.83 414.21 120.05 414.46 116.25 417.81 118.07 417.58 114.27 421.13 115.66 420.43 111.92 424.12 112.85 422.96 109.23 426.73 109.69 425.13 106.24 428.93 106.22 426.91 103 430.68 102.51 428.27 99.57 431.95 98.6 429.19 95.99 432.72 94.57 429.65 92.32 432.98 90.48 429.65 88.63"/>
          <path class="cls-5" d="M365.71,234.93c-18.08-9.48-30.16-32.05-30.16-32.05-2.51-.67-.86,25.55-1.34,36.32-.35,7.81,56.81,9.32,74.21,8.14,9.75-.66-19.67-.34-42.71-12.41Z"/>
          <path class="cls-1" d="M415.57,209.71c-31.28,0-43.01-3.37-43.95-.24-1,3.35,75.07,4.94,76.95,7.2,1.88,2.26-.94,20.52,1.88,24.06,2.82,3.54,6.76,4.48,12.36,1.19,3.83-2.25,3.13-30.34.47-33.59-3.73-4.56-10.79,1.37-47.7,1.37Z"/>
          <polygon class="cls-6" points="417.58 88.68 433.31 85.69 417.33 86.7 432.56 81.75 416.83 84.76 431.32 77.94 416.1 82.89 429.61 74.32 415.13 81.14 427.47 70.94 413.95 79.52 424.92 67.85 412.58 78.06 422 65.11 411.04 76.78 418.76 62.76 409.35 75.71 415.25 60.83 407.54 74.86 411.52 59.36 405.63 74.24 407.64 58.36 403.67 73.86 403.67 57.86 401.67 73.74 399.67 57.86 399.67 73.86 395.69 58.36 397.7 74.24 391.81 59.36 395.8 74.86 388.09 60.83 393.99 75.71 384.58 62.76 392.3 76.78 381.34 65.11 390.75 78.06 378.42 67.85 389.38 79.52 375.87 70.94 388.21 81.14 373.72 74.32 387.24 82.89 372.02 77.94 386.5 84.76 370.78 81.75 386.01 86.7 370.03 85.69 385.76 88.68 369.78 89.68 385.76 90.68 370.03 93.68 386.01 92.67 370.78 97.61 386.5 94.61 372.02 101.42 387.24 96.47 373.72 105.05 388.21 98.23 375.87 108.43 389.38 99.85 378.42 111.51 390.75 101.31 381.34 114.26 392.3 102.58 384.58 116.61 393.99 103.66 388.09 118.54 395.8 104.51 391.81 120.01 397.7 105.13 395.69 121.01 399.67 105.5 399.67 121.51 401.67 105.63 403.67 121.51 403.67 105.5 407.64 121.01 405.63 105.13 411.52 120.01 407.54 104.51 415.25 118.54 409.35 103.66 418.76 116.61 411.04 102.58 422 114.26 412.58 101.31 424.92 111.51 413.95 99.85 427.47 108.43 415.13 98.23 429.61 105.05 416.1 96.47 431.32 101.42 416.83 94.61 432.56 97.61 417.33 92.67 433.31 93.68 417.58 90.68 433.56 89.68 417.58 88.68"/>
          <polygon class="cls-4" points="418.12 85.98 430.4 83.64 417.92 84.43 429.81 80.57 417.54 82.91 428.84 77.6 416.96 81.46 427.51 74.77 416.21 80.09 425.84 72.13 415.29 78.83 423.85 69.72 414.22 77.69 421.57 67.58 413.01 76.69 419.04 65.74 411.69 75.85 416.3 64.24 410.28 75.19 413.39 63.08 408.79 74.7 410.36 62.31 407.26 74.41 407.26 61.91 405.7 74.31 404.13 61.91 404.14 74.41 401.03 62.31 402.6 74.7 398 63.08 401.12 75.19 395.1 64.24 399.7 75.85 392.36 65.74 398.38 76.69 389.83 67.58 397.18 77.69 387.55 69.72 396.11 78.83 385.56 72.13 395.19 80.09 383.88 74.77 394.43 81.46 382.55 77.6 393.86 82.91 381.58 80.57 393.47 84.43 381 83.64 393.27 85.98 380.8 86.76 393.27 87.54 381 89.88 393.47 89.09 381.58 92.95 393.86 90.61 382.55 95.93 394.43 92.06 383.88 98.75 395.19 93.43 385.56 101.39 396.11 94.7 387.55 103.8 397.18 95.84 389.83 105.94 398.38 96.83 392.36 107.78 399.7 97.67 395.1 109.29 401.12 98.33 398 110.44 402.6 98.82 401.03 111.22 404.14 99.11 404.13 111.61 405.7 99.21 407.26 111.61 407.26 99.11 410.36 111.22 408.79 98.82 413.39 110.44 410.28 98.33 416.3 109.29 411.69 97.67 419.04 107.78 413.01 96.83 421.57 105.94 414.22 95.84 423.85 103.8 415.29 94.7 425.84 101.39 416.21 93.43 427.51 98.75 416.96 92.06 428.84 95.93 417.54 90.61 429.81 92.95 417.92 89.09 430.4 89.88 418.12 87.54 430.59 86.76 418.12 85.98"/>
        </g>
      </g>
    </g>
  </g>
</svg>