<?xml version="1.0" encoding="UTF-8"?>
<svg xmlns="http://www.w3.org/2000/svg" xmlns:xlink="http://www.w3.org/1999/xlink" viewBox="0 0 800 800">
  <defs>
    <style>
      .cls-1 {
        fill: url(#linear-gradient);
        mix-blend-mode: soft-light;
      }

      .cls-2 {
        fill: #1a0045;
      }

      .cls-2, .cls-3 {
        mix-blend-mode: multiply;
      }

      .cls-4 {
        isolation: isolate;
      }

      .cls-5 {
        fill: #fff;
      }

      .cls-6 {
        fill: #270056;
      }

      .cls-7 {
        fill: #100027;
      }

      .cls-8 {
        fill: #ffa61d;
      }

      .cls-9 {
        fill: #45007c;
      }

      .cls-3 {
        fill: #e0d181;
      }
    </style>
    <linearGradient id="linear-gradient" x1="400" y1="192.26" x2="400" y2="160.31" gradientUnits="userSpaceOnUse">
      <stop offset="0" stop-color="#fff"/>
      <stop offset="1" stop-color="#000"/>
    </linearGradient>
  </defs>
  <g class="cls-4">
    <g id="Livello_1" data-name="Livello 1">
      <g>
        <path class="cls-5" d="M484.51,493.79l84.49,84.49c-23.33,23.33-53.91,34.99-84.49,34.99-30.58,0-61.16-11.67-84.49-35l-.02-.02-.02.02c-23.33,23.33-53.91,34.99-84.49,35-30.58,0-61.16-11.66-84.49-34.99l84.49-84.49c23.33-23.33,53.91-35,84.49-35,0,0,.01,0,.02,0s.01,0,.02,0c30.58,0,61.16,11.66,84.49,35ZM400,316.75c35.91,0,65.01-29.11,65.01-65.01s-29.11-65.01-65.01-65.01-65.01,29.11-65.01,65.01,29.11,65.01,65.01,65.01ZM513.45,315.29c-52.86,0-97.7,34.33-113.45,81.92-15.75-47.58-60.59-81.92-113.45-81.92h-119.49c0,65.99,53.5,119.49,119.49,119.49h226.9c65.99,0,119.49-53.5,119.49-119.49h0s-119.49,0-119.49,0Z"/>
        <g>
          <path class="cls-6" d="M335.99,230.37c0,3.42,12.98,8.21,27.15,12.41,23.38,6.93,48.3,6.93,71.68,0,14.17-4.2,27.15-8.99,27.15-12.41v-65.06h-125.98v65.06Z"/>
          <path class="cls-2" d="M335.99,230.37c0,3.98,17.58,9.81,34.17,14.42l91.81-73.04-125.98-.37v58.99Z"/>
          <polygon class="cls-7" points="298.74 163.09 398.98 192.41 501.26 163.09 398.98 133.37 298.74 163.09"/>
          <polygon class="cls-1" points="298.74 162.01 398.98 192.41 501.26 162.01 398.98 132.29 298.74 162.01"/>
          <rect class="cls-7" x="298.74" y="160.49" width="7.56" height="2.64"/>
          <rect class="cls-7" x="493.7" y="160.46" width="7.56" height="2.64"/>
          <polygon class="cls-9" points="298.74 160.49 398.98 189.81 501.26 160.49 398.98 130.77 298.74 160.49"/>
          <path class="cls-8" d="M399.17,151.61c-7.49,2.54-45.14,15.54-50.56,22.47-5.38,6.89-3.41,67.66-2.68,86.12.06,1.4,1.2,2.49,2.59,2.49.04,0,.07,0,.11,0,1.43-.06,2.55-1.26,2.49-2.7-1.48-37.4-1.29-78.57,1.59-82.72,3.45-4.41,31.35-15.07,48.13-20.75,1.36-.46,2.09-1.93,1.63-3.29-.46-1.36-1.94-2.09-3.29-1.63Z"/>
          <path class="cls-3" d="M352.75,176.67c-5.21,6.81-3.39,66.22-2.65,85.43.64-.5,1.06-1.25,1.02-2.11-1.48-37.4-1.29-78.57,1.59-82.72,3.45-4.41,31.35-15.07,48.13-20.75,1.05-.36,1.71-1.32,1.75-2.36-.11.02-.21,0-.32.04-7.34,2.54-44.21,15.54-49.51,22.47Z"/>
          <polygon class="cls-8" points="342.26 252.34 341.02 281.06 355.5 281.06 354.26 252.34 342.26 252.34"/>
          <polygon class="cls-3" points="343.69 281.06 346.82 281.06 345.59 255.41 343.69 281.06"/>
          <polygon class="cls-3" points="347.44 281.06 352.48 281.06 350.5 255.41 347.44 281.06"/>
          <polygon class="cls-3" points="351.91 281.09 354.02 281.01 351.91 257.36 351.91 281.09"/>
          <polygon class="cls-3" points="342.28 281.06 344.78 281.06 343.8 255.41 342.28 281.06"/>
          <polygon class="cls-3" points="341.26 281.06 343.76 281.06 342.78 255.41 341.26 281.06"/>
          <polygon class="cls-3" points="346.74 281.06 349.24 281.06 348.26 255.41 346.74 281.06"/>
          <polygon class="cls-3" points="349.96 281.06 355.5 280.87 353.5 257.36 349.96 281.06"/>
          <rect class="cls-8" x="340.45" y="243.98" width="15.62" height="15.93" rx="7.77" ry="7.77"/>
          <path class="cls-3" d="M348.3,243.98h-.09c-4.27,0-7.77,3.49-7.77,7.77v.4c0,4.27,3.49,7.77,7.77,7.77h.09c4.27,0,7.77-3.49,7.77-7.77v-.4c0-4.27-3.49-7.77-7.77-7.77ZM348.72,258.37h-.44c-3.86,0-7.02-3.16-7.02-7.02s3.16-7.02,7.02-7.02h.44c3.86,0,7.02,3.16,7.02,7.02s-3.16,7.02-7.02,7.02Z"/>
          <path class="cls-3" d="M348.5,244.8h-.08c-3.88,0-7.05,3.17-7.05,7.05v.36c0,3.88,3.17,7.05,7.05,7.05h.08c3.88,0,7.05-3.17,7.05-7.05v-.36c0-3.88-3.17-7.05-7.05-7.05ZM349.18,255.41c-2.36-.11-5.42-2.26-5.42-5.19s2.15-4.95,4.71-5.11h.4c3.51,0,4.85,2.97,5.15,5.33.24,1.9-1.34,4.98-4.84,4.98Z"/>
        </g>
      </g>
    </g>
  </g>
</svg>