<?xml version="1.0" encoding="UTF-8"?>
<svg xmlns="http://www.w3.org/2000/svg" xmlns:xlink="http://www.w3.org/1999/xlink" viewBox="0 0 800 800">
  <defs>
    <style>
      .cls-1 {
        fill: none;
      }

      .cls-2 {
        fill: #f10000;
      }

      .cls-3 {
        fill: #d10000;
      }

      .cls-3, .cls-4 {
        mix-blend-mode: multiply;
      }

      .cls-4 {
        fill: #c40000;
      }

      .cls-5 {
        isolation: isolate;
      }

      .cls-6 {
        fill: #ff1d13;
      }

      .cls-7 {
        fill: #fff;
      }

      .cls-8 {
        fill: #c70000;
      }

      .cls-9 {
        fill: #ff7731;
      }

      .cls-9, .cls-10 {
        mix-blend-mode: color-dodge;
      }

      .cls-10 {
        fill: #ffab88;
      }

      .cls-11 {
        clip-path: url(#clippath);
      }
    </style>
    <clipPath id="clippath">
      <rect class="cls-1" x="-342.93" y="1978.41" width="1920" height="1080"/>
    </clipPath>
  </defs>
  <g class="cls-5">
    <g id="Livello_1" data-name="Livello 1">
      <g class="cls-11">
        <image width="4240" height="2714" transform="translate(-1138.87 705.05) scale(1.01)" xlink:href="../bg.png"/>
      </g>
      <g>
        <path class="cls-7" d="M484.51,493.79l84.49,84.49c-23.33,23.33-53.91,34.99-84.49,34.99-30.58,0-61.16-11.67-84.49-35l-.02-.02-.02.02c-23.33,23.33-53.91,34.99-84.49,35-30.58,0-61.16-11.66-84.49-34.99l84.49-84.49c23.33-23.33,53.91-35,84.49-35,0,0,.01,0,.02,0s.01,0,.02,0c30.58,0,61.16,11.66,84.49,35ZM400,316.75c35.91,0,65.01-29.11,65.01-65.01s-29.11-65.01-65.01-65.01-65.01,29.11-65.01,65.01,29.11,65.01,65.01,65.01ZM513.45,315.29c-52.86,0-97.7,34.33-113.45,81.92-15.75-47.58-60.59-81.92-113.45-81.92h-119.49c0,65.99,53.5,119.49,119.49,119.49h226.9c65.99,0,119.49-53.5,119.49-119.49h0s-119.49,0-119.49,0Z"/>
        <g>
          <g>
            <path class="cls-2" d="M400.12,168.21c-59.39,0-63.31,30.08-63.31,30.08,0,0,1.35,19.59,6.02,25.14,10.95,13.02,57.29,12.18,57.29,12.18,0,0,46.34.84,57.29-12.18,4.67-5.55,6.02-25.14,6.02-25.14,0,0-3.92-30.08-63.31-30.08Z"/>
            <path class="cls-4" d="M336.81,198.3s1.35,19.59,6.02,25.14c6.99,8.31,28.4,10.97,42.97,11.81-.02-.01-9.16-5.47-10.42-7.3-1.26-1.83-4.6-13.92,0-15.19,4.6-1.27,10.58-.32,26.39-.02,37.21.72,61.34-12.99,61.34-12.99l-121.08-12.08c-4.58,5.79-5.22,10.63-5.22,10.63Z"/>
            <path class="cls-2" d="M441.33,127.53c-16.23-10.89-41.19-10.84-41.19-10.84,0,0-24.96-.05-41.19,10.84-20.62,13.84-18.19,46.8-18.19,46.8v25.37c32.63,10.1,59.38,9.03,59.38,9.03,0,0,26.75,1.07,59.38-9.03v-25.37s2.44-32.95-18.19-46.8Z"/>
            <path class="cls-3" d="M390.09,119v53.74c0,3.07,2.43,5.58,5.39,5.58h8.24c2.97,0,5.39-2.51,5.39-5.58v-53.74c0-3.07-19.03-3.07-19.03,0Z"/>
            <rect class="cls-6" x="393.21" y="113.38" width="16.53" height="64.2" rx="5.08" ry="5.08"/>
            <path class="cls-8" d="M340.75,174.33v15.81s17.78,1.75,28.44-8.02c10.89-9.99,10.89-25.68,10.89-25.68v-37.33c-7.04,1.57-14.76,4.14-21.14,8.43-20.62,13.84-18.19,46.8-18.19,46.8Z"/>
            <path class="cls-3" d="M376.56,194.02c-.26-.3-.66-.48-1.08-.48h-2.39c-.36,0-.72.13-.97.37l-4.84,4.43c-.26.24-.4.56-.4.89v6.25c0,.64.52,1.18,1.21,1.25l11.72,1.29c.82.09,1.54-.5,1.54-1.25v-6.72c0-.28-.1-.56-.29-.78l-4.49-5.24Z"/>
            <path class="cls-6" d="M377.6,194.07c-.26-.33-.66-.53-1.08-.53h-2.39c-.36,0-.71.14-.97.4l-4.84,4.83c-.26.26-.4.61-.4.97v6.82c0,.7.52,1.28,1.21,1.37l11.72,1.41c.82.1,1.54-.54,1.54-1.37v-7.34c0-.31-.1-.61-.29-.85l-4.49-5.72Z"/>
            <path class="cls-3" d="M424.96,193.93c-.26-.25-.61-.39-.97-.39h-2.39c-.42,0-.82.19-1.08.51l-4.49,5.5c-.19.23-.29.52-.29.82v7.06c0,.79.72,1.41,1.54,1.32l11.72-1.35c.69-.08,1.21-.64,1.21-1.31v-6.56c0-.35-.15-.69-.4-.94l-4.84-4.65Z"/>
            <path class="cls-6" d="M426.19,193.94c-.26-.26-.61-.4-.97-.4h-2.39c-.42,0-.82.19-1.08.53l-4.49,5.72c-.19.24-.29.54-.29.85v7.34c0,.83.72,1.47,1.54,1.37l11.72-1.41c.69-.08,1.21-.67,1.21-1.37v-6.82c0-.37-.15-.72-.4-.97l-4.84-4.83Z"/>
            <path class="cls-8" d="M441.25,127.53c-6.38-4.28-14.11-6.86-21.14-8.43v37.33s0,15.69,10.89,25.68c10.66,9.77,28.44,8.02,28.44,8.02v-15.81s2.44-32.95-18.19-46.8Z"/>
            <path class="cls-8" d="M335.3,188.69c-1.26,2.69,1.67,11.06,1.67,11.06l4.68.65-.17-16.87s-5.5,3.68-6.19,5.17Z"/>
            <path class="cls-8" d="M458.8,183.52l-.16,16.87,4.48-.65s2.8-8.36,1.6-11.06c-.66-1.49-5.92-5.17-5.92-5.17Z"/>
            <path class="cls-10" d="M458.67,201.92s-.89,16.77-8.58,22.81c-7.69,6.04-49.96,9.78-49.96,9.78l.98.38c9.5-.03,45.31-.18,54.79-11.45,3.78-4.5,5.45-16.94,5.92-21.99l-.12-.96-3.03,1.43Z"/>
            <path class="cls-4" d="M340.75,174.33v15.81s17.78,1.75,28.44-8.02c10.89-9.99,10.89-25.68,10.89-25.68v-37.33c-7.04,1.57-14.76,4.14-21.14,8.43-20.62,13.84-18.19,46.8-18.19,46.8Z"/>
          </g>
          <path class="cls-9" d="M406.45,172.74h0c-1.47,0-2.67-1.2-2.67-2.67v-50.57c0-1.47,1.2-2.67,2.67-2.67h0c1.47,0,2.67,1.2,2.67,2.67v50.57c0,1.47-1.2,2.67-2.67,2.67Z"/>
        </g>
      </g>
    </g>
  </g>
</svg>