<?xml version="1.0" encoding="UTF-8"?>
<svg xmlns="http://www.w3.org/2000/svg" viewBox="0 0 800 800">
  <defs>
    <style>
      .cls-1 {
        fill: #c4a481;
      }

      .cls-1, .cls-2 {
        mix-blend-mode: multiply;
      }

      .cls-2 {
        fill: #c4bf81;
      }

      .cls-3 {
        fill: #bdabd3;
        mix-blend-mode: soft-light;
      }

      .cls-4 {
        fill: #75260c;
      }

      .cls-5 {
        fill: #6a2400;
      }

      .cls-6 {
        isolation: isolate;
      }

      .cls-7 {
        fill: #f7f8f8;
      }

      .cls-8 {
        fill: #0b0b0b;
      }

      .cls-9 {
        fill: #fff;
      }

      .cls-10 {
        fill: #91513d;
      }

      .cls-11 {
        fill: #d5deda;
      }
    </style>
  </defs>
  <g class="cls-6">
    <g id="Livello_1" data-name="Livello 1">
      <g>
        <path class="cls-9" d="M484.51,493.79l84.49,84.49c-23.33,23.33-53.91,34.99-84.49,34.99-30.58,0-61.16-11.67-84.49-35l-.02-.02-.02.02c-23.33,23.33-53.91,34.99-84.49,35-30.58,0-61.16-11.66-84.49-34.99l84.49-84.49c23.33-23.33,53.91-35,84.49-35,0,0,.01,0,.02,0s.01,0,.02,0c30.58,0,61.16,11.66,84.49,35ZM400,316.75c35.91,0,65.01-29.11,65.01-65.01s-29.11-65.01-65.01-65.01-65.01,29.11-65.01,65.01,29.11,65.01,65.01,65.01ZM513.45,315.29c-52.86,0-97.7,34.33-113.45,81.92-15.75-47.58-60.59-81.92-113.45-81.92h-119.49c0,65.99,53.5,119.49,119.49,119.49h226.9c65.99,0,119.49-53.5,119.49-119.49h0s-119.49,0-119.49,0Z"/>
        <g>
          <path class="cls-10" d="M497.21,168.64c-6.67,0-97.21,13.37-97.21,13.37,0,0-90.53-13.37-97.21-13.37-25.33,0-21.03,90.05,97.21,90.05h0c118.24,0,122.53-90.05,97.21-90.05Z"/>
          <path class="cls-1" d="M305.18,168.9c-11.13-1.18-17.77,14.36-11.72,33.53,6.04,19.17,19.7,43.38,93.72,32.12,60.93-9.27,69.93-34.26,69.93-34.26l-91.34-23.27s-50.39-7.05-60.59-8.13Z"/>
          <path class="cls-4" d="M436,115.17c-4.22-1.41-27.44,5.16-36,5.86-8.57-.7-31.78-7.27-36-5.86-4.22,1.41-21.81,81.61-21.11,85.12.7,3.52,20.65,16.18,57.11,16.18h0c36.46,0,56.4-12.66,57.11-16.18.7-3.52-16.88-83.72-21.11-85.12Z"/>
          <path class="cls-3" d="M432.28,120.76c-11.37,2.03,4.69,91.85,12.32,87.9,7.63-3.94,8.17-5.89,2.28-34.99-5.89-29.1-14.6-52.92-14.6-52.92Z"/>
          <path class="cls-8" d="M400,200.77h0c-30.14,0-48.96-8.64-54.98-13.63-1.44,7.26-2.29,12.34-2.12,13.16.7,3.52,20.65,16.18,57.11,16.18h0c36.46,0,56.4-12.66,57.11-16.18.17-.83-.68-5.9-2.12-13.16-6.03,4.99-24.84,13.63-54.98,13.63Z"/>
          <path class="cls-2" d="M388.64,196.78c-4.67-16.39,1.63-68.33,1.63-68.33l-26.27-13.27c-4.22,1.41-21.81,81.61-21.11,85.12.7,3.52,20.65,16.18,57.11,16.18h0c17.83,0,31.68-3.03,41.29-6.54-.78.05-48.03,3.09-52.65-13.16Z"/>
          <path class="cls-11" d="M368.93,193.33c-.77-.17-4.99,4.22-6.37,10.48-1.39,6.26-.21,9.14,1.93,9.61,2.13.47,4.42-1.64,5.8-7.9,1.39-6.26-.07-11.9-1.35-12.19Z"/>
          <path class="cls-11" d="M352.3,185.48c-.76-.2-5.16,4-6.81,10.2-1.65,6.19-.6,9.12,1.51,9.68,2.11.56,4.48-1.45,6.13-7.64,1.65-6.19.44-11.9-.83-12.24Z"/>
          <path class="cls-11" d="M388.64,196.78c-.79-.09-4.5,4.73-5.21,11.1-.7,6.37.78,9.1,2.95,9.34,2.17.24,4.21-2.1,4.92-8.48.7-6.37-1.35-11.83-2.66-11.97Z"/>
          <path class="cls-11" d="M428.51,193.66c-1.29.29-2.74,5.93-1.35,12.19,1.39,6.26,3.67,8.37,5.8,7.9,2.13-.47,3.31-3.35,1.93-9.61-1.39-6.26-5.6-10.65-6.37-10.48Z"/>
          <path class="cls-11" d="M445.15,187.04c-1.27.34-2.48,6.04-.83,12.24,1.65,6.19,4.02,8.21,6.13,7.64,2.11-.56,3.17-3.49,1.51-9.68-1.65-6.19-6.05-10.4-6.81-10.2Z"/>
          <path class="cls-11" d="M409.91,197.35c-1.31.14-3.36,5.6-2.66,11.97.7,6.37,2.75,8.72,4.92,8.48,2.17-.24,3.65-2.97,2.95-9.34-.7-6.37-4.42-11.19-5.21-11.1Z"/>
          <path class="cls-7" d="M352.08,189.91c-.78-.16-2.01,2.53-2.74,6.01-.73,3.49-.69,6.44.09,6.61.78.16,2.01-2.53,2.74-6.01.73-3.49.69-6.44-.09-6.61Z"/>
          <path class="cls-7" d="M369.08,197.43c-.78-.16-2.01,2.53-2.74,6.01s-.69,6.44.09,6.61c.78.16,2.01-2.53,2.74-6.01.73-3.49.69-6.44-.09-6.61Z"/>
          <path class="cls-7" d="M389.24,201.16c-.8-.06-1.67,2.77-1.95,6.32-.28,3.55.14,6.48.94,6.54.8.06,1.67-2.77,1.95-6.32.28-3.55-.14-6.48-.94-6.54Z"/>
          <path class="cls-7" d="M411.44,201.91c-.78.16-.86,3.11-.17,6.61.69,3.49,1.89,6.2,2.67,6.05.78-.15.86-3.11.17-6.61-.69-3.49-1.89-6.2-2.67-6.05Z"/>
          <path class="cls-7" d="M430.46,197.55c-.77.23-.58,3.18.43,6.6,1,3.42,2.44,6.01,3.2,5.78s.58-3.18-.43-6.6c-1-3.42-2.44-6.01-3.2-5.78Z"/>
          <path class="cls-7" d="M447.35,190.59c-.77.23-.58,3.18.43,6.6,1,3.42,2.44,6.01,3.2,5.78.77-.23.58-3.18-.43-6.6-1-3.42-2.44-6.01-3.21-5.78Z"/>
          <path class="cls-8" d="M349.89,196.22c-1.12-.43-4.38-3.35-4.38-3.35l-1.77,4.62s2.98,2.81,4,3.2c1.32.51,5.36.39,5.36.39l1.77-4.62s-3.75.23-4.98-.24Z"/>
          <path class="cls-8" d="M366.88,203.84c-1.16-.26-4.82-2.69-4.82-2.69l-1.09,4.83s3.35,2.35,4.42,2.59c1.38.31,5.36-.38,5.36-.38l1.09-4.83s-3.68.76-4.96.47Z"/>
          <path class="cls-8" d="M388.23,207.31c-1.19-.15-5.06-2.19-5.06-2.19l-.61,4.91s3.57,2.01,4.66,2.14c1.4.17,5.29-.91,5.29-.91l.61-4.91s-3.59,1.12-4.89.96Z"/>
          <path class="cls-8" d="M411.43,208.37c-1.19.07-5.38-1.24-5.38-1.24l.29,4.94s3.88,1.33,4.97,1.26c1.41-.08,5.04-1.86,5.04-1.86l-.29-4.94s-3.32,1.76-4.63,1.83Z"/>
          <path class="cls-8" d="M431.14,205.27c-1.17.23-5.49-.52-5.49-.52l.95,4.86s4.02.8,5.09.59c1.39-.27,4.75-2.51,4.75-2.51l-.95-4.86s-3.06,2.18-4.35,2.43Z"/>
          <path class="cls-8" d="M448,197.91c-1.13.39-5.51.26-5.51.26l1.62,4.68s4.09.23,5.12-.12c1.34-.46,4.35-3.15,4.35-3.15l-1.62-4.68s-2.73,2.59-3.97,3.01Z"/>
          <path class="cls-5" d="M493.98,168.78c0,.57,8.42,5.01,8.29,14.54-.15,11.05-5.69,27.83-21.66,41.76-12.88,11.23-37.32,24.62-80.61,24.62-56.09,0-80.62-18.92-91.32-34.8-11.72-17.39-10.4-36.1-8.99-39.57,2.45-6.07,9.09-5.53,9.18-6.1.09-.56-8-2.31-11.1,5.32-1.56,3.84-3.16,23.17,9.19,41.5,10.98,16.29,36.03,35.71,93.03,35.71,43.93,0,68.82-13.67,81.97-25.13,16.49-14.39,22.5-31.81,22.37-43.32-.14-11.83-10.36-15.11-10.36-14.54Z"/>
          <path class="cls-10" d="M404.67,119.89c-3.08.74-6.26.74-9.34,0-9.04-2.17-28.3-6.5-31.33-4.71-3.99,2.34,36,26.97,36,26.97h0s0,0,0,0h0s39.99-24.62,36-26.97c-3.03-1.78-22.3,2.54-31.33,4.71Z"/>
        </g>
      </g>
    </g>
  </g>
</svg>