<?xml version="1.0" encoding="UTF-8"?>
<svg xmlns="http://www.w3.org/2000/svg" viewBox="0 0 800 800">
  <defs>
    <style>
      .cls-1 {
        fill: #f10000;
      }

      .cls-2 {
        fill: #d60000;
      }

      .cls-3 {
        isolation: isolate;
      }

      .cls-4 {
        mix-blend-mode: soft-light;
      }

      .cls-4, .cls-5 {
        fill: #fff;
      }

      .cls-6 {
        fill: #ffa61d;
      }

      .cls-7 {
        fill: #e7cc68;
        mix-blend-mode: multiply;
      }
    </style>
  </defs>
  <g class="cls-3">
    <g id="Livello_1" data-name="Livello 1">
      <g>
        <path class="cls-5" d="M484.51,493.79l84.49,84.49c-23.33,23.33-53.91,34.99-84.49,34.99-30.58,0-61.16-11.67-84.49-35l-.02-.02-.02.02c-23.33,23.33-53.91,34.99-84.49,35-30.58,0-61.16-11.66-84.49-34.99l84.49-84.49c23.33-23.33,53.91-35,84.49-35,0,0,.01,0,.02,0s.01,0,.02,0c30.58,0,61.16,11.66,84.49,35ZM400,316.75c35.91,0,65.01-29.11,65.01-65.01s-29.11-65.01-65.01-65.01-65.01,29.11-65.01,65.01,29.11,65.01,65.01,65.01ZM513.45,315.29c-52.86,0-97.7,34.33-113.45,81.92-15.75-47.58-60.59-81.92-113.45-81.92h-119.49c0,65.99,53.5,119.49,119.49,119.49h226.9c65.99,0,119.49-53.5,119.49-119.49h0s-119.49,0-119.49,0Z"/>
        <g>
          <g>
            <g>
              <path class="cls-6" d="M341.3,217.9c0,5.06,27.26,9.17,60.89,9.17s60.89-4.11,60.89-9.17c0-.32-60.89-172.98-60.89-172.98,0,0-60.89,172.65-60.89,172.98Z"/>
              <g>
                <path class="cls-1" d="M415.3,220.81c-8.49,2.71-16.77,4.66-24.49,6.1,3.69.11,7.49.17,11.38.17,8.77,0,17.08-.28,24.61-.79,14-5.55,24.71-12.73,32.48-19.29-.98-2.78-2.11-6.02-3.39-9.64-8.34,7.74-21.65,17.42-40.6,23.45Z"/>
                <path class="cls-1" d="M405.44,199.59c-25.7,8.18-49.49,9.68-61.2,9.86-1.86,5.31-2.94,8.41-2.94,8.46,0,.17.11.34.17.51.19,0,.33,0,.53,0,11.46,0,37.77-1.17,66.84-10.43,19.26-6.13,33.19-15.62,42.43-23.77-1.1-3.13-2.25-6.41-3.45-9.8-8.19,7.99-22.09,18.72-42.39,25.18Z"/>
                <path class="cls-1" d="M401.42,175.74c-18.42,5.86-35.86,8.29-48.59,9.26-1.14,3.25-2.23,6.33-3.24,9.21,13.59-.79,33.64-3.2,55.23-10.08,17.04-5.43,29.92-13.48,39.06-20.91-1.1-3.14-2.23-6.34-3.38-9.58-8.43,7.5-21.31,16.44-39.09,22.1Z"/>
                <path class="cls-1" d="M396.53,151.89c-12.42,3.96-24.38,6.33-34.78,7.76-1.14,3.23-2.25,6.4-3.34,9.49,11.95-1.41,26.35-4.03,41.53-8.86,15.42-4.91,27.38-11.97,36.3-18.77-1.1-3.13-2.21-6.27-3.32-9.42-8.39,6.97-20.39,14.7-36.38,19.8Z"/>
                <path class="cls-1" d="M396.53,128.03c-9,2.87-17.78,4.91-25.89,6.37-1.14,3.24-2.28,6.47-3.41,9.67,9.95-1.56,21.1-3.95,32.7-7.65,11.82-3.77,21.62-8.8,29.57-14.01-1.08-3.07-2.15-6.11-3.22-9.14-7.73,5.44-17.57,10.87-29.76,14.75Z"/>
                <path class="cls-1" d="M396.53,104.18c-5.75,1.83-11.38,3.29-16.83,4.52-1.15,3.27-2.32,6.59-3.5,9.94,7.51-1.48,15.5-3.44,23.73-6.06,8.61-2.74,16.1-6.17,22.64-9.84-1.06-3.01-2.1-5.96-3.12-8.85-6.47,3.85-14.09,7.47-22.92,10.29Z"/>
                <path class="cls-1" d="M393.25,83.8c-1.79.57-3.56,1.08-5.32,1.59-1.17,3.32-2.39,6.77-3.64,10.31,4.04-1.02,8.17-2.17,12.36-3.5,7.19-2.29,13.64-5.05,19.38-8.04-1.08-3.06-2.12-6-3.11-8.81-5.74,3.15-12.25,6.09-19.68,8.45Z"/>
                <path class="cls-1" d="M396.91,59.9c-1.12,3.19-2.4,6.8-3.79,10.76,1.17-.35,2.35-.69,3.53-1.07,4.48-1.43,8.64-3.05,12.55-4.78-1.13-3.21-2.16-6.12-3.05-8.64-2.9,1.34-6,2.58-9.24,3.74Z"/>
              </g>
            </g>
            <polygon class="cls-7" points="382.12 230.73 402.19 44.92 341.3 217.9 382.12 230.73"/>
          </g>
          <path class="cls-1" d="M404.82,25.16c-2.95,6.89-2.63,19.5-2.63,19.5,0,0,4.77-12.14,11.74-14.51,6.97-2.38,12.86-3.33,12.86-3.33l-7.77-14.49s-11.25,5.94-14.2,12.83Z"/>
          <path class="cls-6" d="M385.35,12.34l-7.77,14.49s5.9.95,12.86,3.33c6.97,2.38,11.74,14.51,11.74,14.51,0,0,.32-12.61-2.63-19.5-2.95-6.89-14.2-12.83-14.2-12.83Z"/>
          <path class="cls-6" d="M402.18,44.67s8.14-4.56,11.17-5.32c3.03-.76,8.04,1.25,8.04,1.25l.66-11.03s-3.8.71-9.05,3.02c-5.26,2.31-10.81,12.08-10.81,12.08Z"/>
          <path class="cls-1" d="M397.7,30.44c-3.82-2.58-7.01-3.21-7.01-3.21l-4.44,14.02s5.56-2.91,8.02-2.15c2.46.76,7.93,6,7.93,6,0,0-.68-12.07-4.5-14.65Z"/>
          <path class="cls-1" d="M333.33,207.75l-3.57,10.28s3.63-1.22,7.2-.93c6.76.56,11.44,4.93,11.44,4.93,0,0-1.1-2.1-6.18-8.09-5.08-5.99-8.89-6.19-8.89-6.19Z"/>
          <path class="cls-2" d="M334.58,219.3l1.44,8.19s1.71-2.47,3.9-3.94c4.16-2.79,8.41-2.2,8.41-2.2,0,0-1.37-.82-6.4-2.26-5.04-1.44-7.34.21-7.34.21Z"/>
          <path class="cls-6" d="M340.49,212.42s3.2,1.53,5.15,4.05c3.69,4.77,3.06,10.76,3.06,10.76,0,0,1.01-2.13,2.7-9.47,1.69-7.34-.49-9.95-.49-9.95l-10.42,4.61Z"/>
          <path class="cls-6" d="M341.7,222.65l3.05,8.75s1.9-2.39,4.58-3.68c5.08-2.45,10.76-1.33,10.76-1.33,0,0-1.92-1.02-8.75-3.11-6.84-2.09-9.64-.63-9.64-.63Z"/>
          <path class="cls-2" d="M349.13,215.5l-3.57,10.28s3.63-1.22,7.2-.93c6.76.56,11.44,4.93,11.44,4.93,0,0-1.1-2.1-6.18-8.09-5.08-5.99-8.89-6.19-8.89-6.19Z"/>
          <path class="cls-2" d="M358.17,225.31c-3.44.88-7.26.28-7.26.28l5.68,9.5s3.7-.83,7.43-7.55c3.73-6.72,4.36-8.97,4.36-8.97,0,0-3.68,5.07-10.2,6.74Z"/>
          <path class="cls-2" d="M373.28,222.61c-1.43-2.92-1.24-6.35-1.24-6.35l-9.91,6.2s1.4,3.15,9.39,5.57c8,2.42,10.59,2.69,10.59,2.69,0,0-6.14-2.59-8.84-8.11Z"/>
          <path class="cls-6" d="M355.24,219.71s3.2,1.53,5.15,4.05c3.69,4.77,3.06,10.76,3.06,10.76,0,0,1.01-2.13,2.7-9.47,1.69-7.34-.49-9.95-.49-9.95l-10.42,4.61Z"/>
          <path class="cls-2" d="M411.73,223.68c-1.61,4.4-5.48,6.07-5.48,6.07,0,0,1.65-.02,6.71-1.39,5.06-1.38,5.88-3.9,5.88-3.9l-6.46-5.99s.19,2.89-.66,5.21Z"/>
          <path class="cls-2" d="M421.39,222.42s3.2,1.53,5.15,4.05c3.69,4.77,3.06,10.76,3.06,10.76,0,0,1.01-2.13,2.7-9.47,1.69-7.34-.49-9.95-.49-9.95l-10.42,4.61Z"/>
          <path class="cls-6" d="M360.22,226.55l3.05,8.75s1.9-2.39,4.58-3.68c5.08-2.45,10.76-1.33,10.76-1.33,0,0-1.92-1.02-8.75-3.11-6.84-2.09-9.64-.63-9.64-.63Z"/>
          <path class="cls-6" d="M421.43,224.07c-6.35,4-13.11,3.01-13.11,3.01,0,0,2.22,1.25,10.29,3.5,8.07,2.25,11.58-.11,11.58-.11l-2.9-12.09s-2.5,3.58-5.86,5.69Z"/>
          <path class="cls-1" d="M457.78,215.4c-5.08,5.99-6.18,8.09-6.18,8.09,0,0,4.68-4.37,11.44-4.93,3.57-.3,7.2.93,7.2.93l-3.57-10.28s-3.81.2-8.89,6.19Z"/>
          <path class="cls-2" d="M367.62,228.63l6.89,8.85s1.16-3.28,3.63-5.58c4.69-4.36,11.46-4.91,11.46-4.91,0,0-2.54-.54-10.99-.71-8.45-.17-10.99,2.35-10.99,2.35Z"/>
          <path class="cls-2" d="M458.08,220.55c-5.04,1.44-6.4,2.26-6.4,2.26,0,0,4.25-.6,8.41,2.2,2.2,1.48,3.9,3.94,3.9,3.94l1.44-8.19s-2.3-1.65-7.34-.21Z"/>
          <path class="cls-2" d="M448.6,219.23c1.69,7.34,2.7,9.47,2.7,9.47,0,0-.63-5.99,3.06-10.76,1.95-2.52,5.15-4.05,5.15-4.05l-10.42-4.61s-2.17,2.61-.49,9.95Z"/>
          <path class="cls-1" d="M375.68,224.64c-3.25-1.34-5.68-4.02-5.68-4.02l-2.77,10.47s3.4,1.53,11.2-1.36c7.8-2.9,9.94-4.22,9.94-4.22,0,0-6.53,1.68-12.69-.87Z"/>
          <path class="cls-1" d="M382.18,221.11c-.89-2.37-.5-5.58-.5-5.58l-8,7.87s.85,2.59,6.79,3.07c5.94.48,7.9.16,7.9.16,0,0-4.51-1.04-6.19-5.53Z"/>
          <path class="cls-6" d="M382.82,228c-3.12,1.3-6.75,1.19-6.75,1.19l6.37,8.65s3.36-1.28,6.09-8.37c2.73-7.09,3.07-9.38,3.07-9.38,0,0-2.86,5.45-8.77,7.92Z"/>
          <path class="cls-2" d="M392.42,221c-1.58-2.32-1.86-5.23-1.86-5.23l-7.61,6.19s1.58,2.51,8.68,3.77c7.09,1.26,9.33,1.23,9.33,1.23,0,0-5.54-1.58-8.53-5.97Z"/>
          <path class="cls-2" d="M389.46,226.72c-3.25,1.34-7.13,1.26-7.13,1.26l7.25,8.62s3.51-1.32,6.03-8.47c2.52-7.15,2.76-9.46,2.76-9.46,0,0-2.76,5.51-8.92,8.05Z"/>
          <path class="cls-6" d="M448.66,224.75c-6.84,2.09-8.75,3.11-8.75,3.11,0,0,5.68-1.12,10.76,1.33,2.68,1.29,4.58,3.68,4.58,3.68l3.05-8.75s-2.8-1.46-9.64.63Z"/>
          <path class="cls-1" d="M441.98,223.15c-5.08,5.99-6.18,8.09-6.18,8.09,0,0,4.68-4.37,11.44-4.93,3.57-.3,7.2.93,7.2.93l-3.57-10.28s-3.81.2-8.89,6.19Z"/>
          <path class="cls-2" d="M441.83,226.78c-6.53-1.67-10.2-6.74-10.2-6.74,0,0,.64,2.25,4.36,8.97,3.73,6.72,7.43,7.55,7.43,7.55l5.68-9.5s-3.82.6-7.26-.28Z"/>
          <path class="cls-6" d="M433.85,226.51c1.69,7.34,2.7,9.47,2.7,9.47,0,0-.63-5.99,3.06-10.76,1.95-2.52,5.15-4.05,5.15-4.05l-10.42-4.61s-2.17,2.61-.49,9.95Z"/>
          <path class="cls-1" d="M430.14,228.64c-6.84,2.09-8.75,3.11-8.75,3.11,0,0,5.68-1.12,10.76,1.33,2.68,1.29,4.58,3.68,4.58,3.68l3.05-8.75s-2.8-1.46-9.64.63Z"/>
          <path class="cls-6" d="M427.54,232.14c-5.72-.38-9.31-3.86-9.31-3.86,0,0,.74,1.69,4.52,6.49,3.78,4.8,7.01,4.91,7.01,4.91l4-8.37s-3.21,1.03-6.23.84Z"/>
          <path class="cls-1" d="M419.02,227.73c-8,2.68-10.24,4-10.24,4,0,0,6.64-1.42,12.59,1.8,3.14,1.7,5.36,4.82,5.36,4.82l3.57-11.38s-3.28-1.92-11.28.76Z"/>
          <path class="cls-6" d="M413.9,229.6c-6.51-.41-11.4-4.59-11.4-4.59,0,0,1.25,2.03,6.67,7.77,5.42,5.74,9.08,5.86,9.08,5.86l2.43-10.1s-3.34,1.27-6.78,1.05Z"/>
          <path class="cls-2" d="M403.29,224.04c-2.38,5.4-7.71,7.54-7.71,7.54,0,0,2.25-.07,9.19-1.89,6.94-1.82,8.17-4.91,8.17-4.91l-8.53-7.11s.14,3.51-1.12,6.36Z"/>
          <path class="cls-6" d="M399.68,229.42c-6.11-2.04-9.45-7.27-9.45-7.27,0,0,.55,2.26,3.9,9.14,3.35,6.88,6.82,7.91,6.82,7.91l5.57-9.07s-3.61.37-6.84-.71Z"/>
          <path class="cls-1" d="M394.22,225.17s1.59,1.84,8.03,6.69c6.44,4.85,10.21,4.3,10.21,4.3l.94-10.72s-3.23,1.9-6.79,2.31c-6.74.77-12.39-2.58-12.39-2.58Z"/>
          <path class="cls-1" d="M393.52,226.95c1.28,7.41,2.21,9.57,2.21,9.57,0,0-.26-6.02,4.02-10.7,2.26-2.47,5.78-3.91,5.78-3.91l-10.79-4.91s-2.5,2.55-1.22,9.96Z"/>
          <path class="cls-1" d="M402.19,40.74c-2.61,0-4.72,1.87-4.72,4.18s2.11,4.18,4.72,4.18,4.72-1.87,4.72-4.18-2.11-4.18-4.72-4.18Z"/>
          <polygon class="cls-4" points="402.19 45.09 458.08 220.55 430.3 226.97 402.19 45.09"/>
        </g>
      </g>
    </g>
  </g>
</svg>